G04 #@! TF.GenerationSoftware,KiCad,Pcbnew,(5.1.2-1)-1*
G04 #@! TF.CreationDate,2024-05-26T22:16:14-04:00*
G04 #@! TF.ProjectId,FlailDriver,466c6169-6c44-4726-9976-65722e6b6963,rev?*
G04 #@! TF.SameCoordinates,Original*
G04 #@! TF.FileFunction,Soldermask,Bot*
G04 #@! TF.FilePolarity,Negative*
%FSLAX46Y46*%
G04 Gerber Fmt 4.6, Leading zero omitted, Abs format (unit mm)*
G04 Created by KiCad (PCBNEW (5.1.2-1)-1) date 2024-05-26 22:16:14*
%MOMM*%
%LPD*%
G04 APERTURE LIST*
%ADD10C,0.100000*%
G04 APERTURE END LIST*
D10*
G36*
X61898765Y-161558620D02*
G01*
X62088288Y-161637123D01*
X62258854Y-161751092D01*
X62403908Y-161896146D01*
X62517877Y-162066712D01*
X62596380Y-162256235D01*
X62636400Y-162457431D01*
X62636400Y-162662569D01*
X62596380Y-162863765D01*
X62517877Y-163053288D01*
X62403908Y-163223854D01*
X62258854Y-163368908D01*
X62088288Y-163482877D01*
X62088287Y-163482878D01*
X62088286Y-163482878D01*
X61898765Y-163561380D01*
X61697570Y-163601400D01*
X61492430Y-163601400D01*
X61291235Y-163561380D01*
X61101714Y-163482878D01*
X61101713Y-163482878D01*
X61101712Y-163482877D01*
X60931146Y-163368908D01*
X60786092Y-163223854D01*
X60672123Y-163053288D01*
X60593620Y-162863765D01*
X60553600Y-162662569D01*
X60553600Y-162457431D01*
X60593620Y-162256235D01*
X60672123Y-162066712D01*
X60786092Y-161896146D01*
X60931146Y-161751092D01*
X61101712Y-161637123D01*
X61291235Y-161558620D01*
X61492430Y-161518600D01*
X61697570Y-161518600D01*
X61898765Y-161558620D01*
X61898765Y-161558620D01*
G37*
G36*
X46658765Y-161558620D02*
G01*
X46848288Y-161637123D01*
X47018854Y-161751092D01*
X47163908Y-161896146D01*
X47277877Y-162066712D01*
X47356380Y-162256235D01*
X47396400Y-162457431D01*
X47396400Y-162662569D01*
X47356380Y-162863765D01*
X47277877Y-163053288D01*
X47163908Y-163223854D01*
X47018854Y-163368908D01*
X46848288Y-163482877D01*
X46848287Y-163482878D01*
X46848286Y-163482878D01*
X46658765Y-163561380D01*
X46457570Y-163601400D01*
X46252430Y-163601400D01*
X46051235Y-163561380D01*
X45861714Y-163482878D01*
X45861713Y-163482878D01*
X45861712Y-163482877D01*
X45691146Y-163368908D01*
X45546092Y-163223854D01*
X45432123Y-163053288D01*
X45353620Y-162863765D01*
X45313600Y-162662569D01*
X45313600Y-162457431D01*
X45353620Y-162256235D01*
X45432123Y-162066712D01*
X45546092Y-161896146D01*
X45691146Y-161751092D01*
X45861712Y-161637123D01*
X46051235Y-161558620D01*
X46252430Y-161518600D01*
X46457570Y-161518600D01*
X46658765Y-161558620D01*
X46658765Y-161558620D01*
G37*
G36*
X61898765Y-159018620D02*
G01*
X62088288Y-159097123D01*
X62258854Y-159211092D01*
X62403908Y-159356146D01*
X62517877Y-159526712D01*
X62596380Y-159716235D01*
X62636400Y-159917431D01*
X62636400Y-160122569D01*
X62596380Y-160323765D01*
X62517877Y-160513288D01*
X62403908Y-160683854D01*
X62258854Y-160828908D01*
X62088288Y-160942877D01*
X62088287Y-160942878D01*
X62088286Y-160942878D01*
X61898765Y-161021380D01*
X61697570Y-161061400D01*
X61492430Y-161061400D01*
X61291235Y-161021380D01*
X61101714Y-160942878D01*
X61101713Y-160942878D01*
X61101712Y-160942877D01*
X60931146Y-160828908D01*
X60786092Y-160683854D01*
X60672123Y-160513288D01*
X60593620Y-160323765D01*
X60553600Y-160122569D01*
X60553600Y-159917431D01*
X60593620Y-159716235D01*
X60672123Y-159526712D01*
X60786092Y-159356146D01*
X60931146Y-159211092D01*
X61101712Y-159097123D01*
X61291235Y-159018620D01*
X61492430Y-158978600D01*
X61697570Y-158978600D01*
X61898765Y-159018620D01*
X61898765Y-159018620D01*
G37*
G36*
X46658765Y-159018620D02*
G01*
X46848288Y-159097123D01*
X47018854Y-159211092D01*
X47163908Y-159356146D01*
X47277877Y-159526712D01*
X47356380Y-159716235D01*
X47396400Y-159917431D01*
X47396400Y-160122569D01*
X47356380Y-160323765D01*
X47277877Y-160513288D01*
X47163908Y-160683854D01*
X47018854Y-160828908D01*
X46848288Y-160942877D01*
X46848287Y-160942878D01*
X46848286Y-160942878D01*
X46658765Y-161021380D01*
X46457570Y-161061400D01*
X46252430Y-161061400D01*
X46051235Y-161021380D01*
X45861714Y-160942878D01*
X45861713Y-160942878D01*
X45861712Y-160942877D01*
X45691146Y-160828908D01*
X45546092Y-160683854D01*
X45432123Y-160513288D01*
X45353620Y-160323765D01*
X45313600Y-160122569D01*
X45313600Y-159917431D01*
X45353620Y-159716235D01*
X45432123Y-159526712D01*
X45546092Y-159356146D01*
X45691146Y-159211092D01*
X45861712Y-159097123D01*
X46051235Y-159018620D01*
X46252430Y-158978600D01*
X46457570Y-158978600D01*
X46658765Y-159018620D01*
X46658765Y-159018620D01*
G37*
G36*
X56066424Y-155152760D02*
G01*
X56066427Y-155152761D01*
X56066428Y-155152761D01*
X56245692Y-155207140D01*
X56245695Y-155207142D01*
X56245696Y-155207142D01*
X56410903Y-155295446D01*
X56555712Y-155414288D01*
X56674554Y-155559097D01*
X56762858Y-155724303D01*
X56762860Y-155724307D01*
X56804895Y-155862878D01*
X56817240Y-155903575D01*
X56831000Y-156043282D01*
X56831000Y-157936718D01*
X56817240Y-158076425D01*
X56817239Y-158076428D01*
X56817239Y-158076429D01*
X56762860Y-158255693D01*
X56762858Y-158255696D01*
X56762858Y-158255697D01*
X56674554Y-158420903D01*
X56555712Y-158565712D01*
X56410903Y-158684554D01*
X56263425Y-158763382D01*
X56245693Y-158772860D01*
X56066429Y-158827239D01*
X56066428Y-158827239D01*
X56066425Y-158827240D01*
X55880000Y-158845601D01*
X55693576Y-158827240D01*
X55693573Y-158827239D01*
X55693572Y-158827239D01*
X55514308Y-158772860D01*
X55496576Y-158763382D01*
X55349098Y-158684554D01*
X55204289Y-158565712D01*
X55085447Y-158420903D01*
X54997143Y-158255697D01*
X54997143Y-158255696D01*
X54997141Y-158255693D01*
X54942762Y-158076429D01*
X54942762Y-158076428D01*
X54942761Y-158076425D01*
X54929000Y-157936717D01*
X54929000Y-156043283D01*
X54942760Y-155903576D01*
X54942761Y-155903572D01*
X54997140Y-155724308D01*
X54997143Y-155724303D01*
X55085446Y-155559097D01*
X55204288Y-155414288D01*
X55349097Y-155295446D01*
X55514303Y-155207142D01*
X55514304Y-155207142D01*
X55514307Y-155207140D01*
X55693571Y-155152761D01*
X55693572Y-155152761D01*
X55693575Y-155152760D01*
X55880000Y-155134399D01*
X56066424Y-155152760D01*
X56066424Y-155152760D01*
G37*
G36*
X52880915Y-155142934D02*
G01*
X52913424Y-155152795D01*
X52943382Y-155168809D01*
X52969641Y-155190359D01*
X52991191Y-155216618D01*
X53007205Y-155246576D01*
X53017066Y-155279085D01*
X53021000Y-155319029D01*
X53021000Y-158660971D01*
X53017066Y-158700915D01*
X53007205Y-158733424D01*
X52991191Y-158763382D01*
X52969641Y-158789641D01*
X52943382Y-158811191D01*
X52913424Y-158827205D01*
X52880915Y-158837066D01*
X52840971Y-158841000D01*
X51299029Y-158841000D01*
X51259085Y-158837066D01*
X51226576Y-158827205D01*
X51196618Y-158811191D01*
X51170359Y-158789641D01*
X51148809Y-158763382D01*
X51132795Y-158733424D01*
X51122934Y-158700915D01*
X51119000Y-158660971D01*
X51119000Y-155319029D01*
X51122934Y-155279085D01*
X51132795Y-155246576D01*
X51148809Y-155216618D01*
X51170359Y-155190359D01*
X51196618Y-155168809D01*
X51226576Y-155152795D01*
X51259085Y-155142934D01*
X51299029Y-155139000D01*
X52840971Y-155139000D01*
X52880915Y-155142934D01*
X52880915Y-155142934D01*
G37*
G36*
X61898765Y-156478620D02*
G01*
X62088288Y-156557123D01*
X62258854Y-156671092D01*
X62403908Y-156816146D01*
X62403909Y-156816148D01*
X62517878Y-156986714D01*
X62596380Y-157176235D01*
X62636400Y-157377430D01*
X62636400Y-157582570D01*
X62596380Y-157783765D01*
X62533027Y-157936714D01*
X62517877Y-157973288D01*
X62403908Y-158143854D01*
X62258854Y-158288908D01*
X62088288Y-158402877D01*
X62088287Y-158402878D01*
X62088286Y-158402878D01*
X61898765Y-158481380D01*
X61697570Y-158521400D01*
X61492430Y-158521400D01*
X61291235Y-158481380D01*
X61101714Y-158402878D01*
X61101713Y-158402878D01*
X61101712Y-158402877D01*
X60931146Y-158288908D01*
X60786092Y-158143854D01*
X60672123Y-157973288D01*
X60656974Y-157936714D01*
X60593620Y-157783765D01*
X60553600Y-157582570D01*
X60553600Y-157377430D01*
X60593620Y-157176235D01*
X60672122Y-156986714D01*
X60786091Y-156816148D01*
X60786092Y-156816146D01*
X60931146Y-156671092D01*
X61101712Y-156557123D01*
X61291235Y-156478620D01*
X61492430Y-156438600D01*
X61697570Y-156438600D01*
X61898765Y-156478620D01*
X61898765Y-156478620D01*
G37*
G36*
X46658765Y-156478620D02*
G01*
X46848288Y-156557123D01*
X47018854Y-156671092D01*
X47163908Y-156816146D01*
X47163909Y-156816148D01*
X47277878Y-156986714D01*
X47356380Y-157176235D01*
X47396400Y-157377430D01*
X47396400Y-157582570D01*
X47356380Y-157783765D01*
X47293027Y-157936714D01*
X47277877Y-157973288D01*
X47163908Y-158143854D01*
X47018854Y-158288908D01*
X46848288Y-158402877D01*
X46848287Y-158402878D01*
X46848286Y-158402878D01*
X46658765Y-158481380D01*
X46457570Y-158521400D01*
X46252430Y-158521400D01*
X46051235Y-158481380D01*
X45861714Y-158402878D01*
X45861713Y-158402878D01*
X45861712Y-158402877D01*
X45691146Y-158288908D01*
X45546092Y-158143854D01*
X45432123Y-157973288D01*
X45416974Y-157936714D01*
X45353620Y-157783765D01*
X45313600Y-157582570D01*
X45313600Y-157377430D01*
X45353620Y-157176235D01*
X45432122Y-156986714D01*
X45546091Y-156816148D01*
X45546092Y-156816146D01*
X45691146Y-156671092D01*
X45861712Y-156557123D01*
X46051235Y-156478620D01*
X46252430Y-156438600D01*
X46457570Y-156438600D01*
X46658765Y-156478620D01*
X46658765Y-156478620D01*
G37*
G36*
X46658765Y-153938620D02*
G01*
X46848288Y-154017123D01*
X47018854Y-154131092D01*
X47163908Y-154276146D01*
X47163909Y-154276148D01*
X47277878Y-154446714D01*
X47356380Y-154636235D01*
X47396400Y-154837430D01*
X47396400Y-155042570D01*
X47356380Y-155243765D01*
X47311631Y-155351800D01*
X47277877Y-155433288D01*
X47163908Y-155603854D01*
X47018854Y-155748908D01*
X46848288Y-155862877D01*
X46848287Y-155862878D01*
X46848286Y-155862878D01*
X46658765Y-155941380D01*
X46457570Y-155981400D01*
X46252430Y-155981400D01*
X46051235Y-155941380D01*
X45861714Y-155862878D01*
X45861713Y-155862878D01*
X45861712Y-155862877D01*
X45691146Y-155748908D01*
X45546092Y-155603854D01*
X45432123Y-155433288D01*
X45398370Y-155351800D01*
X45353620Y-155243765D01*
X45313600Y-155042570D01*
X45313600Y-154837430D01*
X45353620Y-154636235D01*
X45432122Y-154446714D01*
X45546091Y-154276148D01*
X45546092Y-154276146D01*
X45691146Y-154131092D01*
X45861712Y-154017123D01*
X46051235Y-153938620D01*
X46252430Y-153898600D01*
X46457570Y-153898600D01*
X46658765Y-153938620D01*
X46658765Y-153938620D01*
G37*
G36*
X61898765Y-153938620D02*
G01*
X62088288Y-154017123D01*
X62258854Y-154131092D01*
X62403908Y-154276146D01*
X62403909Y-154276148D01*
X62517878Y-154446714D01*
X62596380Y-154636235D01*
X62636400Y-154837430D01*
X62636400Y-155042570D01*
X62596380Y-155243765D01*
X62551631Y-155351800D01*
X62517877Y-155433288D01*
X62403908Y-155603854D01*
X62258854Y-155748908D01*
X62088288Y-155862877D01*
X62088287Y-155862878D01*
X62088286Y-155862878D01*
X61898765Y-155941380D01*
X61697570Y-155981400D01*
X61492430Y-155981400D01*
X61291235Y-155941380D01*
X61101714Y-155862878D01*
X61101713Y-155862878D01*
X61101712Y-155862877D01*
X60931146Y-155748908D01*
X60786092Y-155603854D01*
X60672123Y-155433288D01*
X60638370Y-155351800D01*
X60593620Y-155243765D01*
X60553600Y-155042570D01*
X60553600Y-154837430D01*
X60593620Y-154636235D01*
X60672122Y-154446714D01*
X60786091Y-154276148D01*
X60786092Y-154276146D01*
X60931146Y-154131092D01*
X61101712Y-154017123D01*
X61291235Y-153938620D01*
X61492430Y-153898600D01*
X61697570Y-153898600D01*
X61898765Y-153938620D01*
X61898765Y-153938620D01*
G37*
G36*
X46658765Y-151398620D02*
G01*
X46848288Y-151477123D01*
X47018854Y-151591092D01*
X47163908Y-151736146D01*
X47277877Y-151906712D01*
X47356380Y-152096235D01*
X47396400Y-152297431D01*
X47396400Y-152502569D01*
X47356380Y-152703765D01*
X47277877Y-152893288D01*
X47163908Y-153063854D01*
X47018854Y-153208908D01*
X46848288Y-153322877D01*
X46848287Y-153322878D01*
X46848286Y-153322878D01*
X46658765Y-153401380D01*
X46457570Y-153441400D01*
X46252430Y-153441400D01*
X46051235Y-153401380D01*
X45861714Y-153322878D01*
X45861713Y-153322878D01*
X45861712Y-153322877D01*
X45691146Y-153208908D01*
X45546092Y-153063854D01*
X45432123Y-152893288D01*
X45353620Y-152703765D01*
X45313600Y-152502569D01*
X45313600Y-152297431D01*
X45353620Y-152096235D01*
X45432123Y-151906712D01*
X45546092Y-151736146D01*
X45691146Y-151591092D01*
X45861712Y-151477123D01*
X46051235Y-151398620D01*
X46252430Y-151358600D01*
X46457570Y-151358600D01*
X46658765Y-151398620D01*
X46658765Y-151398620D01*
G37*
G36*
X61898765Y-151398620D02*
G01*
X62088288Y-151477123D01*
X62258854Y-151591092D01*
X62403908Y-151736146D01*
X62517877Y-151906712D01*
X62596380Y-152096235D01*
X62636400Y-152297431D01*
X62636400Y-152502569D01*
X62596380Y-152703765D01*
X62517877Y-152893288D01*
X62403908Y-153063854D01*
X62258854Y-153208908D01*
X62088288Y-153322877D01*
X62088287Y-153322878D01*
X62088286Y-153322878D01*
X61898765Y-153401380D01*
X61697570Y-153441400D01*
X61492430Y-153441400D01*
X61291235Y-153401380D01*
X61101714Y-153322878D01*
X61101713Y-153322878D01*
X61101712Y-153322877D01*
X60931146Y-153208908D01*
X60786092Y-153063854D01*
X60672123Y-152893288D01*
X60593620Y-152703765D01*
X60553600Y-152502569D01*
X60553600Y-152297431D01*
X60593620Y-152096235D01*
X60672123Y-151906712D01*
X60786092Y-151736146D01*
X60931146Y-151591092D01*
X61101712Y-151477123D01*
X61291235Y-151398620D01*
X61492430Y-151358600D01*
X61697570Y-151358600D01*
X61898765Y-151398620D01*
X61898765Y-151398620D01*
G37*
G36*
X49099473Y-150455938D02*
G01*
X49227049Y-150508782D01*
X49341859Y-150585495D01*
X49439505Y-150683141D01*
X49516218Y-150797951D01*
X49569062Y-150925527D01*
X49596000Y-151060956D01*
X49596000Y-151199044D01*
X49569062Y-151334473D01*
X49516218Y-151462049D01*
X49439505Y-151576859D01*
X49341859Y-151674505D01*
X49227049Y-151751218D01*
X49099473Y-151804062D01*
X48964044Y-151831000D01*
X48825956Y-151831000D01*
X48690527Y-151804062D01*
X48562951Y-151751218D01*
X48448141Y-151674505D01*
X48350495Y-151576859D01*
X48273782Y-151462049D01*
X48220938Y-151334473D01*
X48194000Y-151199044D01*
X48194000Y-151060956D01*
X48220938Y-150925527D01*
X48273782Y-150797951D01*
X48350495Y-150683141D01*
X48448141Y-150585495D01*
X48562951Y-150508782D01*
X48690527Y-150455938D01*
X48825956Y-150429000D01*
X48964044Y-150429000D01*
X49099473Y-150455938D01*
X49099473Y-150455938D01*
G37*
G36*
X59132473Y-150455938D02*
G01*
X59260049Y-150508782D01*
X59374859Y-150585495D01*
X59472505Y-150683141D01*
X59549218Y-150797951D01*
X59602062Y-150925527D01*
X59629000Y-151060956D01*
X59629000Y-151199044D01*
X59602062Y-151334473D01*
X59549218Y-151462049D01*
X59472505Y-151576859D01*
X59374859Y-151674505D01*
X59260049Y-151751218D01*
X59132473Y-151804062D01*
X58997044Y-151831000D01*
X58858956Y-151831000D01*
X58723527Y-151804062D01*
X58595951Y-151751218D01*
X58481141Y-151674505D01*
X58383495Y-151576859D01*
X58306782Y-151462049D01*
X58253938Y-151334473D01*
X58227000Y-151199044D01*
X58227000Y-151060956D01*
X58253938Y-150925527D01*
X58306782Y-150797951D01*
X58383495Y-150683141D01*
X58481141Y-150585495D01*
X58595951Y-150508782D01*
X58723527Y-150455938D01*
X58858956Y-150429000D01*
X58997044Y-150429000D01*
X59132473Y-150455938D01*
X59132473Y-150455938D01*
G37*
G36*
X46658765Y-148858620D02*
G01*
X46848288Y-148937123D01*
X47018854Y-149051092D01*
X47163908Y-149196146D01*
X47277877Y-149366712D01*
X47356380Y-149556235D01*
X47396400Y-149757431D01*
X47396400Y-149962569D01*
X47356380Y-150163765D01*
X47277877Y-150353288D01*
X47163908Y-150523854D01*
X47018854Y-150668908D01*
X46848288Y-150782877D01*
X46848287Y-150782878D01*
X46848286Y-150782878D01*
X46658765Y-150861380D01*
X46457570Y-150901400D01*
X46252430Y-150901400D01*
X46051235Y-150861380D01*
X45861714Y-150782878D01*
X45861713Y-150782878D01*
X45861712Y-150782877D01*
X45691146Y-150668908D01*
X45546092Y-150523854D01*
X45432123Y-150353288D01*
X45353620Y-150163765D01*
X45313600Y-149962569D01*
X45313600Y-149757431D01*
X45353620Y-149556235D01*
X45432123Y-149366712D01*
X45546092Y-149196146D01*
X45691146Y-149051092D01*
X45861712Y-148937123D01*
X46051235Y-148858620D01*
X46252430Y-148818600D01*
X46457570Y-148818600D01*
X46658765Y-148858620D01*
X46658765Y-148858620D01*
G37*
G36*
X61898765Y-148858620D02*
G01*
X62088288Y-148937123D01*
X62258854Y-149051092D01*
X62403908Y-149196146D01*
X62517877Y-149366712D01*
X62596380Y-149556235D01*
X62636400Y-149757431D01*
X62636400Y-149962569D01*
X62596380Y-150163765D01*
X62517877Y-150353288D01*
X62403908Y-150523854D01*
X62258854Y-150668908D01*
X62088288Y-150782877D01*
X62088287Y-150782878D01*
X62088286Y-150782878D01*
X61898765Y-150861380D01*
X61697570Y-150901400D01*
X61492430Y-150901400D01*
X61291235Y-150861380D01*
X61101714Y-150782878D01*
X61101713Y-150782878D01*
X61101712Y-150782877D01*
X60931146Y-150668908D01*
X60786092Y-150523854D01*
X60672123Y-150353288D01*
X60593620Y-150163765D01*
X60553600Y-149962569D01*
X60553600Y-149757431D01*
X60593620Y-149556235D01*
X60672123Y-149366712D01*
X60786092Y-149196146D01*
X60931146Y-149051092D01*
X61101712Y-148937123D01*
X61291235Y-148858620D01*
X61492430Y-148818600D01*
X61697570Y-148818600D01*
X61898765Y-148858620D01*
X61898765Y-148858620D01*
G37*
G36*
X46658765Y-146318620D02*
G01*
X46848288Y-146397123D01*
X47018854Y-146511092D01*
X47163908Y-146656146D01*
X47277877Y-146826712D01*
X47356380Y-147016235D01*
X47396400Y-147217431D01*
X47396400Y-147422569D01*
X47356380Y-147623765D01*
X47277877Y-147813288D01*
X47163908Y-147983854D01*
X47018854Y-148128908D01*
X46848288Y-148242877D01*
X46848287Y-148242878D01*
X46848286Y-148242878D01*
X46658765Y-148321380D01*
X46457570Y-148361400D01*
X46252430Y-148361400D01*
X46051235Y-148321380D01*
X45861714Y-148242878D01*
X45861713Y-148242878D01*
X45861712Y-148242877D01*
X45691146Y-148128908D01*
X45546092Y-147983854D01*
X45432123Y-147813288D01*
X45353620Y-147623765D01*
X45313600Y-147422569D01*
X45313600Y-147217431D01*
X45353620Y-147016235D01*
X45432123Y-146826712D01*
X45546092Y-146656146D01*
X45691146Y-146511092D01*
X45861712Y-146397123D01*
X46051235Y-146318620D01*
X46252430Y-146278600D01*
X46457570Y-146278600D01*
X46658765Y-146318620D01*
X46658765Y-146318620D01*
G37*
G36*
X61898765Y-146318620D02*
G01*
X62088288Y-146397123D01*
X62258854Y-146511092D01*
X62403908Y-146656146D01*
X62517877Y-146826712D01*
X62596380Y-147016235D01*
X62636400Y-147217431D01*
X62636400Y-147422569D01*
X62596380Y-147623765D01*
X62517877Y-147813288D01*
X62403908Y-147983854D01*
X62258854Y-148128908D01*
X62088288Y-148242877D01*
X62088287Y-148242878D01*
X62088286Y-148242878D01*
X61898765Y-148321380D01*
X61697570Y-148361400D01*
X61492430Y-148361400D01*
X61291235Y-148321380D01*
X61101714Y-148242878D01*
X61101713Y-148242878D01*
X61101712Y-148242877D01*
X60931146Y-148128908D01*
X60786092Y-147983854D01*
X60672123Y-147813288D01*
X60593620Y-147623765D01*
X60553600Y-147422569D01*
X60553600Y-147217431D01*
X60593620Y-147016235D01*
X60672123Y-146826712D01*
X60786092Y-146656146D01*
X60931146Y-146511092D01*
X61101712Y-146397123D01*
X61291235Y-146318620D01*
X61492430Y-146278600D01*
X61697570Y-146278600D01*
X61898765Y-146318620D01*
X61898765Y-146318620D01*
G37*
G36*
X48702617Y-143558420D02*
G01*
X48793403Y-143585960D01*
X48825335Y-143595646D01*
X48938424Y-143656094D01*
X49037554Y-143737447D01*
X49118906Y-143836575D01*
X49179354Y-143949664D01*
X49185854Y-143971091D01*
X49216580Y-144072382D01*
X49226000Y-144168027D01*
X49226000Y-145231973D01*
X49216580Y-145327618D01*
X49189040Y-145418404D01*
X49179354Y-145450336D01*
X49118906Y-145563425D01*
X49037554Y-145662554D01*
X48938425Y-145743906D01*
X48825336Y-145804354D01*
X48793404Y-145814040D01*
X48702618Y-145841580D01*
X48575000Y-145854149D01*
X48447383Y-145841580D01*
X48356597Y-145814040D01*
X48324665Y-145804354D01*
X48211576Y-145743906D01*
X48112447Y-145662554D01*
X48031095Y-145563425D01*
X47970647Y-145450336D01*
X47960961Y-145418404D01*
X47933421Y-145327618D01*
X47924001Y-145231973D01*
X47924000Y-144168028D01*
X47933420Y-144072383D01*
X47970645Y-143949669D01*
X47970646Y-143949665D01*
X48031094Y-143836576D01*
X48112447Y-143737446D01*
X48211575Y-143656094D01*
X48324664Y-143595646D01*
X48356596Y-143585960D01*
X48447382Y-143558420D01*
X48575000Y-143545851D01*
X48702617Y-143558420D01*
X48702617Y-143558420D01*
G37*
G36*
X61898765Y-143778620D02*
G01*
X62038679Y-143836574D01*
X62088288Y-143857123D01*
X62258854Y-143971092D01*
X62403908Y-144116146D01*
X62517877Y-144286712D01*
X62596380Y-144476235D01*
X62636400Y-144677431D01*
X62636400Y-144882569D01*
X62596380Y-145083765D01*
X62517877Y-145273288D01*
X62403908Y-145443854D01*
X62258854Y-145588908D01*
X62088288Y-145702877D01*
X62088287Y-145702878D01*
X62088286Y-145702878D01*
X61898765Y-145781380D01*
X61697570Y-145821400D01*
X61492430Y-145821400D01*
X61291235Y-145781380D01*
X61101714Y-145702878D01*
X61101713Y-145702878D01*
X61101712Y-145702877D01*
X60931146Y-145588908D01*
X60786092Y-145443854D01*
X60672123Y-145273288D01*
X60593620Y-145083765D01*
X60553600Y-144882569D01*
X60553600Y-144677431D01*
X60593620Y-144476235D01*
X60672123Y-144286712D01*
X60786092Y-144116146D01*
X60931146Y-143971092D01*
X61101712Y-143857123D01*
X61151322Y-143836574D01*
X61291235Y-143778620D01*
X61492430Y-143738600D01*
X61697570Y-143738600D01*
X61898765Y-143778620D01*
X61898765Y-143778620D01*
G37*
G36*
X46658765Y-143778620D02*
G01*
X46798679Y-143836574D01*
X46848288Y-143857123D01*
X47018854Y-143971092D01*
X47163908Y-144116146D01*
X47277877Y-144286712D01*
X47356380Y-144476235D01*
X47396400Y-144677431D01*
X47396400Y-144882569D01*
X47356380Y-145083765D01*
X47277877Y-145273288D01*
X47163908Y-145443854D01*
X47018854Y-145588908D01*
X46848288Y-145702877D01*
X46848287Y-145702878D01*
X46848286Y-145702878D01*
X46658765Y-145781380D01*
X46457570Y-145821400D01*
X46252430Y-145821400D01*
X46051235Y-145781380D01*
X45861714Y-145702878D01*
X45861713Y-145702878D01*
X45861712Y-145702877D01*
X45691146Y-145588908D01*
X45546092Y-145443854D01*
X45432123Y-145273288D01*
X45353620Y-145083765D01*
X45313600Y-144882569D01*
X45313600Y-144677431D01*
X45353620Y-144476235D01*
X45432123Y-144286712D01*
X45546092Y-144116146D01*
X45691146Y-143971092D01*
X45861712Y-143857123D01*
X45911322Y-143836574D01*
X46051235Y-143778620D01*
X46252430Y-143738600D01*
X46457570Y-143738600D01*
X46658765Y-143778620D01*
X46658765Y-143778620D01*
G37*
G36*
X46658765Y-141238620D02*
G01*
X46848288Y-141317123D01*
X47018854Y-141431092D01*
X47163908Y-141576146D01*
X47277877Y-141746712D01*
X47356380Y-141936235D01*
X47396400Y-142137431D01*
X47396400Y-142342569D01*
X47356380Y-142543765D01*
X47277877Y-142733288D01*
X47163908Y-142903854D01*
X47018854Y-143048908D01*
X46848288Y-143162877D01*
X46848287Y-143162878D01*
X46848286Y-143162878D01*
X46658765Y-143241380D01*
X46457570Y-143281400D01*
X46252430Y-143281400D01*
X46051235Y-143241380D01*
X45861714Y-143162878D01*
X45861713Y-143162878D01*
X45861712Y-143162877D01*
X45691146Y-143048908D01*
X45546092Y-142903854D01*
X45432123Y-142733288D01*
X45353620Y-142543765D01*
X45313600Y-142342569D01*
X45313600Y-142137431D01*
X45353620Y-141936235D01*
X45432123Y-141746712D01*
X45546092Y-141576146D01*
X45691146Y-141431092D01*
X45861712Y-141317123D01*
X46051235Y-141238620D01*
X46252430Y-141198600D01*
X46457570Y-141198600D01*
X46658765Y-141238620D01*
X46658765Y-141238620D01*
G37*
G36*
X61898765Y-141238620D02*
G01*
X62088288Y-141317123D01*
X62258854Y-141431092D01*
X62403908Y-141576146D01*
X62517877Y-141746712D01*
X62596380Y-141936235D01*
X62636400Y-142137431D01*
X62636400Y-142342569D01*
X62596380Y-142543765D01*
X62517877Y-142733288D01*
X62403908Y-142903854D01*
X62258854Y-143048908D01*
X62088288Y-143162877D01*
X62088287Y-143162878D01*
X62088286Y-143162878D01*
X61898765Y-143241380D01*
X61697570Y-143281400D01*
X61492430Y-143281400D01*
X61291235Y-143241380D01*
X61101714Y-143162878D01*
X61101713Y-143162878D01*
X61101712Y-143162877D01*
X60931146Y-143048908D01*
X60786092Y-142903854D01*
X60672123Y-142733288D01*
X60593620Y-142543765D01*
X60553600Y-142342569D01*
X60553600Y-142137431D01*
X60593620Y-141936235D01*
X60672123Y-141746712D01*
X60786092Y-141576146D01*
X60931146Y-141431092D01*
X61101712Y-141317123D01*
X61291235Y-141238620D01*
X61492430Y-141198600D01*
X61697570Y-141198600D01*
X61898765Y-141238620D01*
X61898765Y-141238620D01*
G37*
G36*
X59502617Y-138558420D02*
G01*
X59593403Y-138585960D01*
X59625335Y-138595646D01*
X59738424Y-138656094D01*
X59837554Y-138737447D01*
X59918906Y-138836575D01*
X59979354Y-138949664D01*
X59989040Y-138981596D01*
X60016580Y-139072382D01*
X60026000Y-139168027D01*
X60026000Y-140231973D01*
X60016580Y-140327618D01*
X60005588Y-140363854D01*
X59979354Y-140450336D01*
X59918906Y-140563425D01*
X59837554Y-140662554D01*
X59738425Y-140743906D01*
X59625336Y-140804354D01*
X59593404Y-140814040D01*
X59502618Y-140841580D01*
X59375000Y-140854149D01*
X59247383Y-140841580D01*
X59156597Y-140814040D01*
X59124665Y-140804354D01*
X59011576Y-140743906D01*
X58912447Y-140662554D01*
X58831095Y-140563425D01*
X58770647Y-140450336D01*
X58744413Y-140363854D01*
X58733421Y-140327618D01*
X58724001Y-140231973D01*
X58724000Y-139168028D01*
X58733420Y-139072383D01*
X58770645Y-138949669D01*
X58770646Y-138949665D01*
X58831094Y-138836576D01*
X58912447Y-138737446D01*
X59011575Y-138656094D01*
X59124664Y-138595646D01*
X59156596Y-138585960D01*
X59247382Y-138558420D01*
X59375000Y-138545851D01*
X59502617Y-138558420D01*
X59502617Y-138558420D01*
G37*
G36*
X46658765Y-138698620D02*
G01*
X46848288Y-138777123D01*
X47018854Y-138891092D01*
X47163908Y-139036146D01*
X47277877Y-139206712D01*
X47356380Y-139396235D01*
X47396400Y-139597431D01*
X47396400Y-139802569D01*
X47356380Y-140003765D01*
X47277877Y-140193288D01*
X47163908Y-140363854D01*
X47018854Y-140508908D01*
X46848288Y-140622877D01*
X46848287Y-140622878D01*
X46848286Y-140622878D01*
X46658765Y-140701380D01*
X46457570Y-140741400D01*
X46252430Y-140741400D01*
X46051235Y-140701380D01*
X45861714Y-140622878D01*
X45861713Y-140622878D01*
X45861712Y-140622877D01*
X45691146Y-140508908D01*
X45546092Y-140363854D01*
X45432123Y-140193288D01*
X45353620Y-140003765D01*
X45313600Y-139802569D01*
X45313600Y-139597431D01*
X45353620Y-139396235D01*
X45432123Y-139206712D01*
X45546092Y-139036146D01*
X45691146Y-138891092D01*
X45861712Y-138777123D01*
X46051235Y-138698620D01*
X46252430Y-138658600D01*
X46457570Y-138658600D01*
X46658765Y-138698620D01*
X46658765Y-138698620D01*
G37*
G36*
X61898765Y-138698620D02*
G01*
X62088288Y-138777123D01*
X62258854Y-138891092D01*
X62403908Y-139036146D01*
X62517877Y-139206712D01*
X62596380Y-139396235D01*
X62636400Y-139597431D01*
X62636400Y-139802569D01*
X62596380Y-140003765D01*
X62517877Y-140193288D01*
X62403908Y-140363854D01*
X62258854Y-140508908D01*
X62088288Y-140622877D01*
X62088287Y-140622878D01*
X62088286Y-140622878D01*
X61898765Y-140701380D01*
X61697570Y-140741400D01*
X61492430Y-140741400D01*
X61291235Y-140701380D01*
X61101714Y-140622878D01*
X61101713Y-140622878D01*
X61101712Y-140622877D01*
X60931146Y-140508908D01*
X60786092Y-140363854D01*
X60672123Y-140193288D01*
X60593620Y-140003765D01*
X60553600Y-139802569D01*
X60553600Y-139597431D01*
X60593620Y-139396235D01*
X60672123Y-139206712D01*
X60786092Y-139036146D01*
X60931146Y-138891092D01*
X61101712Y-138777123D01*
X61291235Y-138698620D01*
X61492430Y-138658600D01*
X61697570Y-138658600D01*
X61898765Y-138698620D01*
X61898765Y-138698620D01*
G37*
G36*
X61898765Y-136158620D02*
G01*
X62088288Y-136237123D01*
X62258854Y-136351092D01*
X62403908Y-136496146D01*
X62517877Y-136666712D01*
X62596380Y-136856235D01*
X62636400Y-137057431D01*
X62636400Y-137262569D01*
X62596380Y-137463765D01*
X62517877Y-137653288D01*
X62403908Y-137823854D01*
X62258854Y-137968908D01*
X62088288Y-138082877D01*
X62088287Y-138082878D01*
X62088286Y-138082878D01*
X61898765Y-138161380D01*
X61697570Y-138201400D01*
X61492430Y-138201400D01*
X61291235Y-138161380D01*
X61101714Y-138082878D01*
X61101713Y-138082878D01*
X61101712Y-138082877D01*
X60931146Y-137968908D01*
X60786092Y-137823854D01*
X60672123Y-137653288D01*
X60593620Y-137463765D01*
X60553600Y-137262569D01*
X60553600Y-137057431D01*
X60593620Y-136856235D01*
X60672123Y-136666712D01*
X60786092Y-136496146D01*
X60931146Y-136351092D01*
X61101712Y-136237123D01*
X61291235Y-136158620D01*
X61492430Y-136118600D01*
X61697570Y-136118600D01*
X61898765Y-136158620D01*
X61898765Y-136158620D01*
G37*
G36*
X46658765Y-136158620D02*
G01*
X46848288Y-136237123D01*
X47018854Y-136351092D01*
X47163908Y-136496146D01*
X47277877Y-136666712D01*
X47356380Y-136856235D01*
X47396400Y-137057431D01*
X47396400Y-137262569D01*
X47356380Y-137463765D01*
X47277877Y-137653288D01*
X47163908Y-137823854D01*
X47018854Y-137968908D01*
X46848288Y-138082877D01*
X46848287Y-138082878D01*
X46848286Y-138082878D01*
X46658765Y-138161380D01*
X46457570Y-138201400D01*
X46252430Y-138201400D01*
X46051235Y-138161380D01*
X45861714Y-138082878D01*
X45861713Y-138082878D01*
X45861712Y-138082877D01*
X45691146Y-137968908D01*
X45546092Y-137823854D01*
X45432123Y-137653288D01*
X45353620Y-137463765D01*
X45313600Y-137262569D01*
X45313600Y-137057431D01*
X45353620Y-136856235D01*
X45432123Y-136666712D01*
X45546092Y-136496146D01*
X45691146Y-136351092D01*
X45861712Y-136237123D01*
X46051235Y-136158620D01*
X46252430Y-136118600D01*
X46457570Y-136118600D01*
X46658765Y-136158620D01*
X46658765Y-136158620D01*
G37*
G36*
X48702617Y-133558420D02*
G01*
X48769141Y-133578600D01*
X48825335Y-133595646D01*
X48938424Y-133656094D01*
X49037554Y-133737447D01*
X49118906Y-133836575D01*
X49179354Y-133949664D01*
X49181320Y-133956146D01*
X49216580Y-134072382D01*
X49226000Y-134168027D01*
X49226000Y-135231973D01*
X49216580Y-135327618D01*
X49189040Y-135418404D01*
X49179354Y-135450336D01*
X49118906Y-135563425D01*
X49037554Y-135662554D01*
X48938425Y-135743906D01*
X48825336Y-135804354D01*
X48793404Y-135814040D01*
X48702618Y-135841580D01*
X48575000Y-135854149D01*
X48447383Y-135841580D01*
X48356597Y-135814040D01*
X48324665Y-135804354D01*
X48211576Y-135743906D01*
X48112447Y-135662554D01*
X48031095Y-135563425D01*
X47970647Y-135450336D01*
X47960961Y-135418404D01*
X47933421Y-135327618D01*
X47924001Y-135231973D01*
X47924000Y-134168028D01*
X47933420Y-134072383D01*
X47960960Y-133981597D01*
X47970646Y-133949665D01*
X48031094Y-133836576D01*
X48112447Y-133737446D01*
X48211575Y-133656094D01*
X48324664Y-133595646D01*
X48380858Y-133578600D01*
X48447382Y-133558420D01*
X48575000Y-133545851D01*
X48702617Y-133558420D01*
X48702617Y-133558420D01*
G37*
G36*
X46543261Y-133595645D02*
G01*
X46658765Y-133618620D01*
X46848288Y-133697123D01*
X47018854Y-133811092D01*
X47163908Y-133956146D01*
X47277877Y-134126712D01*
X47356380Y-134316235D01*
X47396400Y-134517431D01*
X47396400Y-134722569D01*
X47356380Y-134923765D01*
X47277877Y-135113288D01*
X47163908Y-135283854D01*
X47018854Y-135428908D01*
X46848288Y-135542877D01*
X46848287Y-135542878D01*
X46848286Y-135542878D01*
X46658765Y-135621380D01*
X46457570Y-135661400D01*
X46252430Y-135661400D01*
X46051235Y-135621380D01*
X45861714Y-135542878D01*
X45861713Y-135542878D01*
X45861712Y-135542877D01*
X45691146Y-135428908D01*
X45546092Y-135283854D01*
X45432123Y-135113288D01*
X45353620Y-134923765D01*
X45313600Y-134722569D01*
X45313600Y-134517431D01*
X45353620Y-134316235D01*
X45432123Y-134126712D01*
X45546092Y-133956146D01*
X45691146Y-133811092D01*
X45861712Y-133697123D01*
X46051235Y-133618620D01*
X46166739Y-133595645D01*
X46252430Y-133578600D01*
X46457570Y-133578600D01*
X46543261Y-133595645D01*
X46543261Y-133595645D01*
G37*
G36*
X61783261Y-133595645D02*
G01*
X61898765Y-133618620D01*
X62088288Y-133697123D01*
X62258854Y-133811092D01*
X62403908Y-133956146D01*
X62517877Y-134126712D01*
X62596380Y-134316235D01*
X62636400Y-134517431D01*
X62636400Y-134722569D01*
X62596380Y-134923765D01*
X62517877Y-135113288D01*
X62403908Y-135283854D01*
X62258854Y-135428908D01*
X62088288Y-135542877D01*
X62088287Y-135542878D01*
X62088286Y-135542878D01*
X61898765Y-135621380D01*
X61697570Y-135661400D01*
X61492430Y-135661400D01*
X61291235Y-135621380D01*
X61101714Y-135542878D01*
X61101713Y-135542878D01*
X61101712Y-135542877D01*
X60931146Y-135428908D01*
X60786092Y-135283854D01*
X60672123Y-135113288D01*
X60593620Y-134923765D01*
X60553600Y-134722569D01*
X60553600Y-134517431D01*
X60593620Y-134316235D01*
X60672123Y-134126712D01*
X60786092Y-133956146D01*
X60931146Y-133811092D01*
X61101712Y-133697123D01*
X61291235Y-133618620D01*
X61406739Y-133595645D01*
X61492430Y-133578600D01*
X61697570Y-133578600D01*
X61783261Y-133595645D01*
X61783261Y-133595645D01*
G37*
G36*
X46658765Y-131078620D02*
G01*
X46848288Y-131157123D01*
X47018854Y-131271092D01*
X47163908Y-131416146D01*
X47277877Y-131586712D01*
X47356380Y-131776235D01*
X47396400Y-131977431D01*
X47396400Y-132182569D01*
X47356380Y-132383765D01*
X47277877Y-132573288D01*
X47163908Y-132743854D01*
X47018854Y-132888908D01*
X46848288Y-133002877D01*
X46848287Y-133002878D01*
X46848286Y-133002878D01*
X46658765Y-133081380D01*
X46457570Y-133121400D01*
X46252430Y-133121400D01*
X46051235Y-133081380D01*
X45861714Y-133002878D01*
X45861713Y-133002878D01*
X45861712Y-133002877D01*
X45691146Y-132888908D01*
X45546092Y-132743854D01*
X45432123Y-132573288D01*
X45353620Y-132383765D01*
X45313600Y-132182569D01*
X45313600Y-131977431D01*
X45353620Y-131776235D01*
X45432123Y-131586712D01*
X45546092Y-131416146D01*
X45691146Y-131271092D01*
X45861712Y-131157123D01*
X46051235Y-131078620D01*
X46252430Y-131038600D01*
X46457570Y-131038600D01*
X46658765Y-131078620D01*
X46658765Y-131078620D01*
G37*
G36*
X61898765Y-131078620D02*
G01*
X62088288Y-131157123D01*
X62258854Y-131271092D01*
X62403908Y-131416146D01*
X62517877Y-131586712D01*
X62596380Y-131776235D01*
X62636400Y-131977431D01*
X62636400Y-132182569D01*
X62596380Y-132383765D01*
X62517877Y-132573288D01*
X62403908Y-132743854D01*
X62258854Y-132888908D01*
X62088288Y-133002877D01*
X62088287Y-133002878D01*
X62088286Y-133002878D01*
X61898765Y-133081380D01*
X61697570Y-133121400D01*
X61492430Y-133121400D01*
X61291235Y-133081380D01*
X61101714Y-133002878D01*
X61101713Y-133002878D01*
X61101712Y-133002877D01*
X60931146Y-132888908D01*
X60786092Y-132743854D01*
X60672123Y-132573288D01*
X60593620Y-132383765D01*
X60553600Y-132182569D01*
X60553600Y-131977431D01*
X60593620Y-131776235D01*
X60672123Y-131586712D01*
X60786092Y-131416146D01*
X60931146Y-131271092D01*
X61101712Y-131157123D01*
X61291235Y-131078620D01*
X61492430Y-131038600D01*
X61697570Y-131038600D01*
X61898765Y-131078620D01*
X61898765Y-131078620D01*
G37*
G36*
X46658765Y-128538620D02*
G01*
X46848288Y-128617123D01*
X47018854Y-128731092D01*
X47163908Y-128876146D01*
X47277877Y-129046712D01*
X47356380Y-129236235D01*
X47396400Y-129437431D01*
X47396400Y-129642569D01*
X47356380Y-129843765D01*
X47277877Y-130033288D01*
X47163908Y-130203854D01*
X47018854Y-130348908D01*
X46848288Y-130462877D01*
X46848287Y-130462878D01*
X46848286Y-130462878D01*
X46658765Y-130541380D01*
X46457570Y-130581400D01*
X46252430Y-130581400D01*
X46051235Y-130541380D01*
X45861714Y-130462878D01*
X45861713Y-130462878D01*
X45861712Y-130462877D01*
X45691146Y-130348908D01*
X45546092Y-130203854D01*
X45432123Y-130033288D01*
X45353620Y-129843765D01*
X45313600Y-129642569D01*
X45313600Y-129437431D01*
X45353620Y-129236235D01*
X45432123Y-129046712D01*
X45546092Y-128876146D01*
X45691146Y-128731092D01*
X45861712Y-128617123D01*
X46051235Y-128538620D01*
X46252430Y-128498600D01*
X46457570Y-128498600D01*
X46658765Y-128538620D01*
X46658765Y-128538620D01*
G37*
G36*
X61898765Y-128538620D02*
G01*
X62088288Y-128617123D01*
X62258854Y-128731092D01*
X62403908Y-128876146D01*
X62517877Y-129046712D01*
X62596380Y-129236235D01*
X62636400Y-129437431D01*
X62636400Y-129642569D01*
X62596380Y-129843765D01*
X62517877Y-130033288D01*
X62403908Y-130203854D01*
X62258854Y-130348908D01*
X62088288Y-130462877D01*
X62088287Y-130462878D01*
X62088286Y-130462878D01*
X61898765Y-130541380D01*
X61697570Y-130581400D01*
X61492430Y-130581400D01*
X61291235Y-130541380D01*
X61101714Y-130462878D01*
X61101713Y-130462878D01*
X61101712Y-130462877D01*
X60931146Y-130348908D01*
X60786092Y-130203854D01*
X60672123Y-130033288D01*
X60593620Y-129843765D01*
X60553600Y-129642569D01*
X60553600Y-129437431D01*
X60593620Y-129236235D01*
X60672123Y-129046712D01*
X60786092Y-128876146D01*
X60931146Y-128731092D01*
X61101712Y-128617123D01*
X61291235Y-128538620D01*
X61492430Y-128498600D01*
X61697570Y-128498600D01*
X61898765Y-128538620D01*
X61898765Y-128538620D01*
G37*
G36*
X54566318Y-121290052D02*
G01*
X54733859Y-121323378D01*
X55207320Y-121519492D01*
X55633423Y-121804205D01*
X55995795Y-122166577D01*
X56280508Y-122592680D01*
X56476622Y-123066141D01*
X56576600Y-123568765D01*
X56576600Y-124081235D01*
X56476622Y-124583859D01*
X56280508Y-125057320D01*
X55995795Y-125483423D01*
X55633423Y-125845795D01*
X55207320Y-126130508D01*
X54733859Y-126326622D01*
X54566318Y-126359948D01*
X54231237Y-126426600D01*
X53718763Y-126426600D01*
X53383682Y-126359948D01*
X53216141Y-126326622D01*
X52742680Y-126130508D01*
X52316577Y-125845795D01*
X51954205Y-125483423D01*
X51669492Y-125057320D01*
X51473378Y-124583859D01*
X51373400Y-124081235D01*
X51373400Y-123568765D01*
X51473378Y-123066141D01*
X51669492Y-122592680D01*
X51954205Y-122166577D01*
X52316577Y-121804205D01*
X52742680Y-121519492D01*
X53216141Y-121323378D01*
X53383682Y-121290052D01*
X53718763Y-121223400D01*
X54231237Y-121223400D01*
X54566318Y-121290052D01*
X54566318Y-121290052D01*
G37*
G36*
X51592023Y-115788715D02*
G01*
X51692682Y-115819250D01*
X51743013Y-115834517D01*
X51882165Y-115908896D01*
X52004133Y-116008992D01*
X52104229Y-116130960D01*
X52178608Y-116270112D01*
X52178608Y-116270113D01*
X52224410Y-116421102D01*
X52236000Y-116538780D01*
X52236000Y-117617470D01*
X52224410Y-117735148D01*
X52193875Y-117835807D01*
X52178608Y-117886138D01*
X52104230Y-118025289D01*
X52104229Y-118025290D01*
X52004133Y-118147258D01*
X51882164Y-118247354D01*
X51743012Y-118321733D01*
X51692681Y-118337000D01*
X51592022Y-118367535D01*
X51435000Y-118383000D01*
X51277977Y-118367535D01*
X51177318Y-118337000D01*
X51126987Y-118321733D01*
X50987835Y-118247354D01*
X50865867Y-118147258D01*
X50765771Y-118025289D01*
X50691393Y-117886138D01*
X50691392Y-117886137D01*
X50676125Y-117835806D01*
X50645590Y-117735147D01*
X50634000Y-117617469D01*
X50634001Y-116538780D01*
X50645591Y-116421102D01*
X50691393Y-116270113D01*
X50691393Y-116270112D01*
X50765772Y-116130960D01*
X50865868Y-116008992D01*
X50987836Y-115908896D01*
X51126988Y-115834517D01*
X51177319Y-115819250D01*
X51277978Y-115788715D01*
X51435000Y-115773250D01*
X51592023Y-115788715D01*
X51592023Y-115788715D01*
G37*
G36*
X54132023Y-115788715D02*
G01*
X54232682Y-115819250D01*
X54283013Y-115834517D01*
X54422165Y-115908896D01*
X54544133Y-116008992D01*
X54644229Y-116130960D01*
X54718608Y-116270112D01*
X54718608Y-116270113D01*
X54764410Y-116421102D01*
X54776000Y-116538780D01*
X54776000Y-117617470D01*
X54764410Y-117735148D01*
X54733875Y-117835807D01*
X54718608Y-117886138D01*
X54644230Y-118025289D01*
X54644229Y-118025290D01*
X54544133Y-118147258D01*
X54422164Y-118247354D01*
X54283012Y-118321733D01*
X54232681Y-118337000D01*
X54132022Y-118367535D01*
X53975000Y-118383000D01*
X53817977Y-118367535D01*
X53717318Y-118337000D01*
X53666987Y-118321733D01*
X53527835Y-118247354D01*
X53405867Y-118147258D01*
X53305771Y-118025289D01*
X53231393Y-117886138D01*
X53231392Y-117886137D01*
X53216125Y-117835806D01*
X53185590Y-117735147D01*
X53174000Y-117617469D01*
X53174001Y-116538780D01*
X53185591Y-116421102D01*
X53231393Y-116270113D01*
X53231393Y-116270112D01*
X53305772Y-116130960D01*
X53405868Y-116008992D01*
X53527836Y-115908896D01*
X53666988Y-115834517D01*
X53717319Y-115819250D01*
X53817978Y-115788715D01*
X53975000Y-115773250D01*
X54132023Y-115788715D01*
X54132023Y-115788715D01*
G37*
G36*
X57316000Y-118379125D02*
G01*
X55714000Y-118379125D01*
X55714000Y-115777125D01*
X57316000Y-115777125D01*
X57316000Y-118379125D01*
X57316000Y-118379125D01*
G37*
G36*
X54566318Y-70490052D02*
G01*
X54733859Y-70523378D01*
X55207320Y-70719492D01*
X55633423Y-71004205D01*
X55995795Y-71366577D01*
X56280508Y-71792680D01*
X56476622Y-72266141D01*
X56576600Y-72768765D01*
X56576600Y-73281235D01*
X56476622Y-73783859D01*
X56280508Y-74257320D01*
X55995795Y-74683423D01*
X55633423Y-75045795D01*
X55207320Y-75330508D01*
X54733859Y-75526622D01*
X54566318Y-75559948D01*
X54231237Y-75626600D01*
X53718763Y-75626600D01*
X53383682Y-75559948D01*
X53216141Y-75526622D01*
X52742680Y-75330508D01*
X52316577Y-75045795D01*
X51954205Y-74683423D01*
X51669492Y-74257320D01*
X51473378Y-73783859D01*
X51373400Y-73281235D01*
X51373400Y-72768765D01*
X51473378Y-72266141D01*
X51669492Y-71792680D01*
X51954205Y-71366577D01*
X52316577Y-71004205D01*
X52742680Y-70719492D01*
X53216141Y-70523378D01*
X53383682Y-70490052D01*
X53718763Y-70423400D01*
X54231237Y-70423400D01*
X54566318Y-70490052D01*
X54566318Y-70490052D01*
G37*
G36*
X59041512Y-57971427D02*
G01*
X59190812Y-58001124D01*
X59354784Y-58069044D01*
X59502354Y-58167647D01*
X59627853Y-58293146D01*
X59726456Y-58440716D01*
X59794376Y-58604688D01*
X59829000Y-58778759D01*
X59829000Y-58956241D01*
X59794376Y-59130312D01*
X59726456Y-59294284D01*
X59627853Y-59441854D01*
X59502354Y-59567353D01*
X59354784Y-59665956D01*
X59190812Y-59733876D01*
X59041512Y-59763573D01*
X59016742Y-59768500D01*
X58839258Y-59768500D01*
X58814488Y-59763573D01*
X58665188Y-59733876D01*
X58501216Y-59665956D01*
X58353646Y-59567353D01*
X58228147Y-59441854D01*
X58129544Y-59294284D01*
X58061624Y-59130312D01*
X58027000Y-58956241D01*
X58027000Y-58778759D01*
X58061624Y-58604688D01*
X58129544Y-58440716D01*
X58228147Y-58293146D01*
X58353646Y-58167647D01*
X58501216Y-58069044D01*
X58665188Y-58001124D01*
X58814488Y-57971427D01*
X58839258Y-57966500D01*
X59016742Y-57966500D01*
X59041512Y-57971427D01*
X59041512Y-57971427D01*
G37*
G36*
X49135512Y-57971427D02*
G01*
X49284812Y-58001124D01*
X49448784Y-58069044D01*
X49596354Y-58167647D01*
X49721853Y-58293146D01*
X49820456Y-58440716D01*
X49888376Y-58604688D01*
X49923000Y-58778759D01*
X49923000Y-58956241D01*
X49888376Y-59130312D01*
X49820456Y-59294284D01*
X49721853Y-59441854D01*
X49596354Y-59567353D01*
X49448784Y-59665956D01*
X49284812Y-59733876D01*
X49135512Y-59763573D01*
X49110742Y-59768500D01*
X48933258Y-59768500D01*
X48908488Y-59763573D01*
X48759188Y-59733876D01*
X48595216Y-59665956D01*
X48447646Y-59567353D01*
X48322147Y-59441854D01*
X48223544Y-59294284D01*
X48155624Y-59130312D01*
X48121000Y-58956241D01*
X48121000Y-58778759D01*
X48155624Y-58604688D01*
X48223544Y-58440716D01*
X48322147Y-58293146D01*
X48447646Y-58167647D01*
X48595216Y-58069044D01*
X48759188Y-58001124D01*
X48908488Y-57971427D01*
X48933258Y-57966500D01*
X49110742Y-57966500D01*
X49135512Y-57971427D01*
X49135512Y-57971427D01*
G37*
G36*
X59041512Y-54871427D02*
G01*
X59190812Y-54901124D01*
X59354784Y-54969044D01*
X59502354Y-55067647D01*
X59627853Y-55193146D01*
X59726456Y-55340716D01*
X59794376Y-55504688D01*
X59829000Y-55678759D01*
X59829000Y-55856241D01*
X59794376Y-56030312D01*
X59726456Y-56194284D01*
X59627853Y-56341854D01*
X59502354Y-56467353D01*
X59354784Y-56565956D01*
X59190812Y-56633876D01*
X59041512Y-56663573D01*
X59016742Y-56668500D01*
X58839258Y-56668500D01*
X58814488Y-56663573D01*
X58665188Y-56633876D01*
X58501216Y-56565956D01*
X58353646Y-56467353D01*
X58228147Y-56341854D01*
X58129544Y-56194284D01*
X58061624Y-56030312D01*
X58027000Y-55856241D01*
X58027000Y-55678759D01*
X58061624Y-55504688D01*
X58129544Y-55340716D01*
X58228147Y-55193146D01*
X58353646Y-55067647D01*
X58501216Y-54969044D01*
X58665188Y-54901124D01*
X58814488Y-54871427D01*
X58839258Y-54866500D01*
X59016742Y-54866500D01*
X59041512Y-54871427D01*
X59041512Y-54871427D01*
G37*
G36*
X49135512Y-54871427D02*
G01*
X49284812Y-54901124D01*
X49448784Y-54969044D01*
X49596354Y-55067647D01*
X49721853Y-55193146D01*
X49820456Y-55340716D01*
X49888376Y-55504688D01*
X49923000Y-55678759D01*
X49923000Y-55856241D01*
X49888376Y-56030312D01*
X49820456Y-56194284D01*
X49721853Y-56341854D01*
X49596354Y-56467353D01*
X49448784Y-56565956D01*
X49284812Y-56633876D01*
X49135512Y-56663573D01*
X49110742Y-56668500D01*
X48933258Y-56668500D01*
X48908488Y-56663573D01*
X48759188Y-56633876D01*
X48595216Y-56565956D01*
X48447646Y-56467353D01*
X48322147Y-56341854D01*
X48223544Y-56194284D01*
X48155624Y-56030312D01*
X48121000Y-55856241D01*
X48121000Y-55678759D01*
X48155624Y-55504688D01*
X48223544Y-55340716D01*
X48322147Y-55193146D01*
X48447646Y-55067647D01*
X48595216Y-54969044D01*
X48759188Y-54901124D01*
X48908488Y-54871427D01*
X48933258Y-54866500D01*
X49110742Y-54866500D01*
X49135512Y-54871427D01*
X49135512Y-54871427D01*
G37*
G36*
X59041512Y-46571427D02*
G01*
X59190812Y-46601124D01*
X59354784Y-46669044D01*
X59502354Y-46767647D01*
X59627853Y-46893146D01*
X59726456Y-47040716D01*
X59794376Y-47204688D01*
X59829000Y-47378759D01*
X59829000Y-47556241D01*
X59794376Y-47730312D01*
X59726456Y-47894284D01*
X59627853Y-48041854D01*
X59502354Y-48167353D01*
X59354784Y-48265956D01*
X59190812Y-48333876D01*
X59041512Y-48363573D01*
X59016742Y-48368500D01*
X58839258Y-48368500D01*
X58814488Y-48363573D01*
X58665188Y-48333876D01*
X58501216Y-48265956D01*
X58353646Y-48167353D01*
X58228147Y-48041854D01*
X58129544Y-47894284D01*
X58061624Y-47730312D01*
X58027000Y-47556241D01*
X58027000Y-47378759D01*
X58061624Y-47204688D01*
X58129544Y-47040716D01*
X58228147Y-46893146D01*
X58353646Y-46767647D01*
X58501216Y-46669044D01*
X58665188Y-46601124D01*
X58814488Y-46571427D01*
X58839258Y-46566500D01*
X59016742Y-46566500D01*
X59041512Y-46571427D01*
X59041512Y-46571427D01*
G37*
G36*
X49135512Y-46571427D02*
G01*
X49284812Y-46601124D01*
X49448784Y-46669044D01*
X49596354Y-46767647D01*
X49721853Y-46893146D01*
X49820456Y-47040716D01*
X49888376Y-47204688D01*
X49923000Y-47378759D01*
X49923000Y-47556241D01*
X49888376Y-47730312D01*
X49820456Y-47894284D01*
X49721853Y-48041854D01*
X49596354Y-48167353D01*
X49448784Y-48265956D01*
X49284812Y-48333876D01*
X49135512Y-48363573D01*
X49110742Y-48368500D01*
X48933258Y-48368500D01*
X48908488Y-48363573D01*
X48759188Y-48333876D01*
X48595216Y-48265956D01*
X48447646Y-48167353D01*
X48322147Y-48041854D01*
X48223544Y-47894284D01*
X48155624Y-47730312D01*
X48121000Y-47556241D01*
X48121000Y-47378759D01*
X48155624Y-47204688D01*
X48223544Y-47040716D01*
X48322147Y-46893146D01*
X48447646Y-46767647D01*
X48595216Y-46669044D01*
X48759188Y-46601124D01*
X48908488Y-46571427D01*
X48933258Y-46566500D01*
X49110742Y-46566500D01*
X49135512Y-46571427D01*
X49135512Y-46571427D01*
G37*
G36*
X54566318Y-19690052D02*
G01*
X54733859Y-19723378D01*
X55207320Y-19919492D01*
X55633423Y-20204205D01*
X55995795Y-20566577D01*
X56280508Y-20992680D01*
X56476622Y-21466141D01*
X56576600Y-21968765D01*
X56576600Y-22481235D01*
X56476622Y-22983859D01*
X56280508Y-23457320D01*
X55995795Y-23883423D01*
X55633423Y-24245795D01*
X55207320Y-24530508D01*
X54733859Y-24726622D01*
X54566318Y-24759948D01*
X54231237Y-24826600D01*
X53718763Y-24826600D01*
X53383682Y-24759948D01*
X53216141Y-24726622D01*
X52742680Y-24530508D01*
X52316577Y-24245795D01*
X51954205Y-23883423D01*
X51669492Y-23457320D01*
X51473378Y-22983859D01*
X51373400Y-22481235D01*
X51373400Y-21968765D01*
X51473378Y-21466141D01*
X51669492Y-20992680D01*
X51954205Y-20566577D01*
X52316577Y-20204205D01*
X52742680Y-19919492D01*
X53216141Y-19723378D01*
X53383682Y-19690052D01*
X53718763Y-19623400D01*
X54231237Y-19623400D01*
X54566318Y-19690052D01*
X54566318Y-19690052D01*
G37*
G36*
X54566318Y31109948D02*
G01*
X54733859Y31076622D01*
X55207320Y30880508D01*
X55633423Y30595795D01*
X55995795Y30233423D01*
X56280508Y29807320D01*
X56476622Y29333859D01*
X56576600Y28831235D01*
X56576600Y28318765D01*
X56476622Y27816141D01*
X56280508Y27342680D01*
X55995795Y26916577D01*
X55633423Y26554205D01*
X55207320Y26269492D01*
X54733859Y26073378D01*
X54566318Y26040052D01*
X54231237Y25973400D01*
X53718763Y25973400D01*
X53383682Y26040052D01*
X53216141Y26073378D01*
X52742680Y26269492D01*
X52316577Y26554205D01*
X51954205Y26916577D01*
X51669492Y27342680D01*
X51473378Y27816141D01*
X51373400Y28318765D01*
X51373400Y28831235D01*
X51473378Y29333859D01*
X51669492Y29807320D01*
X51954205Y30233423D01*
X52316577Y30595795D01*
X52742680Y30880508D01*
X53216141Y31076622D01*
X53383682Y31109948D01*
X53718763Y31176600D01*
X54231237Y31176600D01*
X54566318Y31109948D01*
X54566318Y31109948D01*
G37*
G36*
X59005473Y33059062D02*
G01*
X59133049Y33006218D01*
X59247859Y32929505D01*
X59345505Y32831859D01*
X59422218Y32717049D01*
X59475062Y32589473D01*
X59502000Y32454044D01*
X59502000Y32315956D01*
X59475062Y32180527D01*
X59422218Y32052951D01*
X59345505Y31938141D01*
X59247859Y31840495D01*
X59133049Y31763782D01*
X59005473Y31710938D01*
X58870044Y31684000D01*
X58731956Y31684000D01*
X58596527Y31710938D01*
X58468951Y31763782D01*
X58354141Y31840495D01*
X58256495Y31938141D01*
X58179782Y32052951D01*
X58126938Y32180527D01*
X58100000Y32315956D01*
X58100000Y32454044D01*
X58126938Y32589473D01*
X58179782Y32717049D01*
X58256495Y32831859D01*
X58354141Y32929505D01*
X58468951Y33006218D01*
X58596527Y33059062D01*
X58731956Y33086000D01*
X58870044Y33086000D01*
X59005473Y33059062D01*
X59005473Y33059062D01*
G37*
G36*
X49353473Y33059062D02*
G01*
X49481049Y33006218D01*
X49595859Y32929505D01*
X49693505Y32831859D01*
X49770218Y32717049D01*
X49823062Y32589473D01*
X49850000Y32454044D01*
X49850000Y32315956D01*
X49823062Y32180527D01*
X49770218Y32052951D01*
X49693505Y31938141D01*
X49595859Y31840495D01*
X49481049Y31763782D01*
X49353473Y31710938D01*
X49218044Y31684000D01*
X49079956Y31684000D01*
X48944527Y31710938D01*
X48816951Y31763782D01*
X48702141Y31840495D01*
X48604495Y31938141D01*
X48527782Y32052951D01*
X48474938Y32180527D01*
X48448000Y32315956D01*
X48448000Y32454044D01*
X48474938Y32589473D01*
X48527782Y32717049D01*
X48604495Y32831859D01*
X48702141Y32929505D01*
X48816951Y33006218D01*
X48944527Y33059062D01*
X49079956Y33086000D01*
X49218044Y33086000D01*
X49353473Y33059062D01*
X49353473Y33059062D01*
G37*
G36*
X57082425Y41352240D02*
G01*
X57082428Y41352239D01*
X57082429Y41352239D01*
X57261693Y41297860D01*
X57261696Y41297858D01*
X57261697Y41297858D01*
X57426903Y41209554D01*
X57571712Y41090712D01*
X57690554Y40945903D01*
X57778858Y40780697D01*
X57778860Y40780693D01*
X57833239Y40601429D01*
X57833240Y40601425D01*
X57847000Y40461718D01*
X57847000Y38568282D01*
X57833240Y38428575D01*
X57833239Y38428572D01*
X57833239Y38428571D01*
X57778860Y38249307D01*
X57778858Y38249304D01*
X57778858Y38249303D01*
X57690554Y38084097D01*
X57571712Y37939288D01*
X57426903Y37820446D01*
X57279082Y37741435D01*
X57261692Y37732140D01*
X57082428Y37677761D01*
X57082427Y37677761D01*
X57082424Y37677760D01*
X56896000Y37659399D01*
X56709575Y37677760D01*
X56709572Y37677761D01*
X56709571Y37677761D01*
X56530307Y37732140D01*
X56512575Y37741618D01*
X56365097Y37820446D01*
X56220288Y37939288D01*
X56101446Y38084097D01*
X56013142Y38249304D01*
X56013141Y38249307D01*
X56013140Y38249308D01*
X55958761Y38428572D01*
X55958761Y38428573D01*
X55958760Y38428576D01*
X55945000Y38568283D01*
X55945000Y40461717D01*
X55958761Y40601425D01*
X55958762Y40601429D01*
X56013141Y40780693D01*
X56013143Y40780697D01*
X56101447Y40945903D01*
X56220289Y41090712D01*
X56365098Y41209554D01*
X56530304Y41297858D01*
X56530305Y41297858D01*
X56530308Y41297860D01*
X56709572Y41352239D01*
X56709573Y41352239D01*
X56709576Y41352240D01*
X56896000Y41370601D01*
X57082425Y41352240D01*
X57082425Y41352240D01*
G37*
G36*
X47430425Y41352240D02*
G01*
X47430428Y41352239D01*
X47430429Y41352239D01*
X47609693Y41297860D01*
X47609696Y41297858D01*
X47609697Y41297858D01*
X47774903Y41209554D01*
X47919712Y41090712D01*
X48038554Y40945903D01*
X48126858Y40780697D01*
X48126860Y40780693D01*
X48181239Y40601429D01*
X48181240Y40601425D01*
X48195000Y40461718D01*
X48195000Y38568282D01*
X48181240Y38428575D01*
X48181239Y38428572D01*
X48181239Y38428571D01*
X48126860Y38249307D01*
X48126858Y38249304D01*
X48126858Y38249303D01*
X48038554Y38084097D01*
X47919712Y37939288D01*
X47774903Y37820446D01*
X47627082Y37741435D01*
X47609692Y37732140D01*
X47430428Y37677761D01*
X47430427Y37677761D01*
X47430424Y37677760D01*
X47244000Y37659399D01*
X47057575Y37677760D01*
X47057572Y37677761D01*
X47057571Y37677761D01*
X46878307Y37732140D01*
X46860575Y37741618D01*
X46713097Y37820446D01*
X46568288Y37939288D01*
X46449446Y38084097D01*
X46361142Y38249304D01*
X46361141Y38249307D01*
X46361140Y38249308D01*
X46306761Y38428572D01*
X46306761Y38428573D01*
X46306760Y38428576D01*
X46293000Y38568283D01*
X46293000Y40461717D01*
X46306761Y40601425D01*
X46306762Y40601429D01*
X46361141Y40780693D01*
X46361143Y40780697D01*
X46449447Y40945903D01*
X46568289Y41090712D01*
X46713098Y41209554D01*
X46878304Y41297858D01*
X46878305Y41297858D01*
X46878308Y41297860D01*
X47057572Y41352239D01*
X47057573Y41352239D01*
X47057576Y41352240D01*
X47244000Y41370601D01*
X47430425Y41352240D01*
X47430425Y41352240D01*
G37*
G36*
X61516915Y41362066D02*
G01*
X61549424Y41352205D01*
X61579382Y41336191D01*
X61605641Y41314641D01*
X61627191Y41288382D01*
X61643205Y41258424D01*
X61653066Y41225915D01*
X61657000Y41185971D01*
X61657000Y37844029D01*
X61653066Y37804085D01*
X61643205Y37771576D01*
X61627191Y37741618D01*
X61605641Y37715359D01*
X61579382Y37693809D01*
X61549424Y37677795D01*
X61516915Y37667934D01*
X61476971Y37664000D01*
X59935029Y37664000D01*
X59895085Y37667934D01*
X59862576Y37677795D01*
X59832618Y37693809D01*
X59806359Y37715359D01*
X59784809Y37741618D01*
X59768795Y37771576D01*
X59758934Y37804085D01*
X59755000Y37844029D01*
X59755000Y41185971D01*
X59758934Y41225915D01*
X59768795Y41258424D01*
X59784809Y41288382D01*
X59806359Y41314641D01*
X59832618Y41336191D01*
X59862576Y41352205D01*
X59895085Y41362066D01*
X59935029Y41366000D01*
X61476971Y41366000D01*
X61516915Y41362066D01*
X61516915Y41362066D01*
G37*
G36*
X51864915Y41362066D02*
G01*
X51897424Y41352205D01*
X51927382Y41336191D01*
X51953641Y41314641D01*
X51975191Y41288382D01*
X51991205Y41258424D01*
X52001066Y41225915D01*
X52005000Y41185971D01*
X52005000Y37844029D01*
X52001066Y37804085D01*
X51991205Y37771576D01*
X51975191Y37741618D01*
X51953641Y37715359D01*
X51927382Y37693809D01*
X51897424Y37677795D01*
X51864915Y37667934D01*
X51824971Y37664000D01*
X50283029Y37664000D01*
X50243085Y37667934D01*
X50210576Y37677795D01*
X50180618Y37693809D01*
X50154359Y37715359D01*
X50132809Y37741618D01*
X50116795Y37771576D01*
X50106934Y37804085D01*
X50103000Y37844029D01*
X50103000Y41185971D01*
X50106934Y41225915D01*
X50116795Y41258424D01*
X50132809Y41288382D01*
X50154359Y41314641D01*
X50180618Y41336191D01*
X50210576Y41352205D01*
X50243085Y41362066D01*
X50283029Y41366000D01*
X51824971Y41366000D01*
X51864915Y41362066D01*
X51864915Y41362066D01*
G37*
M02*
