G04 #@! TF.GenerationSoftware,KiCad,Pcbnew,(5.1.2-1)-1*
G04 #@! TF.CreationDate,2024-05-26T22:16:14-04:00*
G04 #@! TF.ProjectId,FlailDriver,466c6169-6c44-4726-9976-65722e6b6963,rev?*
G04 #@! TF.SameCoordinates,Original*
G04 #@! TF.FileFunction,Legend,Bot*
G04 #@! TF.FilePolarity,Positive*
%FSLAX46Y46*%
G04 Gerber Fmt 4.6, Leading zero omitted, Abs format (unit mm)*
G04 Created by KiCad (PCBNEW (5.1.2-1)-1) date 2024-05-26 22:16:14*
%MOMM*%
%LPD*%
G04 APERTURE LIST*
%ADD10C,0.075000*%
%ADD11C,0.127000*%
%ADD12C,0.120000*%
%ADD13C,0.150000*%
G04 APERTURE END LIST*
D10*
X57141666Y35690214D02*
X57308333Y35690214D01*
X57308333Y35428309D02*
X57308333Y35928309D01*
X57070238Y35928309D01*
X56641666Y35428309D02*
X56879761Y35428309D01*
X56879761Y35928309D01*
X56498809Y35571166D02*
X56260714Y35571166D01*
X56546428Y35428309D02*
X56379761Y35928309D01*
X56213095Y35428309D01*
X56046428Y35428309D02*
X56046428Y35928309D01*
X55570238Y35428309D02*
X55808333Y35428309D01*
X55808333Y35928309D01*
X55022619Y35428309D02*
X55022619Y35928309D01*
X54903571Y35928309D01*
X54832142Y35904500D01*
X54784523Y35856880D01*
X54760714Y35809261D01*
X54736904Y35714023D01*
X54736904Y35642595D01*
X54760714Y35547357D01*
X54784523Y35499738D01*
X54832142Y35452119D01*
X54903571Y35428309D01*
X55022619Y35428309D01*
X54236904Y35428309D02*
X54403571Y35666404D01*
X54522619Y35428309D02*
X54522619Y35928309D01*
X54332142Y35928309D01*
X54284523Y35904500D01*
X54260714Y35880690D01*
X54236904Y35833071D01*
X54236904Y35761642D01*
X54260714Y35714023D01*
X54284523Y35690214D01*
X54332142Y35666404D01*
X54522619Y35666404D01*
X54022619Y35428309D02*
X54022619Y35928309D01*
X53855952Y35928309D02*
X53689285Y35428309D01*
X53522619Y35928309D01*
X53355952Y35690214D02*
X53189285Y35690214D01*
X53117857Y35428309D02*
X53355952Y35428309D01*
X53355952Y35928309D01*
X53117857Y35928309D01*
X52617857Y35428309D02*
X52784523Y35666404D01*
X52903571Y35428309D02*
X52903571Y35928309D01*
X52713095Y35928309D01*
X52665476Y35904500D01*
X52641666Y35880690D01*
X52617857Y35833071D01*
X52617857Y35761642D01*
X52641666Y35714023D01*
X52665476Y35690214D01*
X52713095Y35666404D01*
X52903571Y35666404D01*
X52094047Y35928309D02*
X51927380Y35428309D01*
X51760714Y35928309D01*
X51332142Y35428309D02*
X51617857Y35428309D01*
X51475000Y35428309D02*
X51475000Y35928309D01*
X51522619Y35856880D01*
X51570238Y35809261D01*
X51617857Y35785452D01*
X51117857Y35475928D02*
X51094047Y35452119D01*
X51117857Y35428309D01*
X51141666Y35452119D01*
X51117857Y35475928D01*
X51117857Y35428309D01*
X50903571Y35880690D02*
X50879761Y35904500D01*
X50832142Y35928309D01*
X50713095Y35928309D01*
X50665476Y35904500D01*
X50641666Y35880690D01*
X50617857Y35833071D01*
X50617857Y35785452D01*
X50641666Y35714023D01*
X50927380Y35428309D01*
X50617857Y35428309D01*
X56951190Y34865214D02*
X56784523Y34865214D01*
X56713095Y34603309D02*
X56951190Y34603309D01*
X56951190Y35103309D01*
X56713095Y35103309D01*
X56498809Y34603309D02*
X56498809Y35103309D01*
X56332142Y34746166D01*
X56165476Y35103309D01*
X56165476Y34603309D01*
X55927380Y34603309D02*
X55927380Y35103309D01*
X55760714Y34746166D01*
X55594047Y35103309D01*
X55594047Y34603309D01*
X55355952Y34865214D02*
X55189285Y34865214D01*
X55117857Y34603309D02*
X55355952Y34603309D01*
X55355952Y35103309D01*
X55117857Y35103309D01*
X54975000Y35103309D02*
X54689285Y35103309D01*
X54832142Y34603309D02*
X54832142Y35103309D01*
X54594047Y35103309D02*
X54308333Y35103309D01*
X54451190Y34603309D02*
X54451190Y35103309D01*
X53760714Y34603309D02*
X53760714Y35103309D01*
X53570238Y35103309D01*
X53522619Y35079500D01*
X53498809Y35055690D01*
X53475000Y35008071D01*
X53475000Y34936642D01*
X53498809Y34889023D01*
X53522619Y34865214D01*
X53570238Y34841404D01*
X53760714Y34841404D01*
X53284523Y34746166D02*
X53046428Y34746166D01*
X53332142Y34603309D02*
X53165476Y35103309D01*
X52998809Y34603309D01*
X52594047Y34603309D02*
X52832142Y34603309D01*
X52832142Y35103309D01*
X52451190Y34746166D02*
X52213095Y34746166D01*
X52498809Y34603309D02*
X52332142Y35103309D01*
X52165476Y34603309D01*
X51998809Y34603309D02*
X51998809Y35103309D01*
X51760714Y34603309D02*
X51760714Y35103309D01*
X51594047Y34746166D01*
X51427380Y35103309D01*
X51427380Y34603309D01*
X51213095Y34746166D02*
X50975000Y34746166D01*
X51260714Y34603309D02*
X51094047Y35103309D01*
X50927380Y34603309D01*
X58034523Y33778309D02*
X58034523Y34278309D01*
X58034523Y34040214D02*
X57748809Y34040214D01*
X57748809Y33778309D02*
X57748809Y34278309D01*
X57510714Y33778309D02*
X57510714Y34278309D01*
X57510714Y34040214D02*
X57225000Y34040214D01*
X57225000Y33778309D02*
X57225000Y34278309D01*
X57010714Y33921166D02*
X56772619Y33921166D01*
X57058333Y33778309D02*
X56891666Y34278309D01*
X56725000Y33778309D01*
X56558333Y34278309D02*
X56558333Y33873547D01*
X56534523Y33825928D01*
X56510714Y33802119D01*
X56463095Y33778309D01*
X56367857Y33778309D01*
X56320238Y33802119D01*
X56296428Y33825928D01*
X56272619Y33873547D01*
X56272619Y34278309D01*
X56034523Y33778309D02*
X56034523Y34278309D01*
X55915476Y34278309D01*
X55844047Y34254500D01*
X55796428Y34206880D01*
X55772619Y34159261D01*
X55748809Y34064023D01*
X55748809Y33992595D01*
X55772619Y33897357D01*
X55796428Y33849738D01*
X55844047Y33802119D01*
X55915476Y33778309D01*
X56034523Y33778309D01*
X55534523Y33778309D02*
X55534523Y34278309D01*
X55201190Y34278309D02*
X55105952Y34278309D01*
X55058333Y34254500D01*
X55010714Y34206880D01*
X54986904Y34111642D01*
X54986904Y33944976D01*
X55010714Y33849738D01*
X55058333Y33802119D01*
X55105952Y33778309D01*
X55201190Y33778309D01*
X55248809Y33802119D01*
X55296428Y33849738D01*
X55320238Y33944976D01*
X55320238Y34111642D01*
X55296428Y34206880D01*
X55248809Y34254500D01*
X55201190Y34278309D01*
X54391666Y33968785D02*
X54010714Y33968785D01*
X53391666Y33778309D02*
X53391666Y34278309D01*
X53225000Y33921166D01*
X53058333Y34278309D01*
X53058333Y33778309D01*
X52844047Y33921166D02*
X52605952Y33921166D01*
X52891666Y33778309D02*
X52725000Y34278309D01*
X52558333Y33778309D01*
X52296428Y34016404D02*
X52296428Y33778309D01*
X52463095Y34278309D02*
X52296428Y34016404D01*
X52129761Y34278309D01*
X51605952Y34230690D02*
X51582142Y34254500D01*
X51534523Y34278309D01*
X51415476Y34278309D01*
X51367857Y34254500D01*
X51344047Y34230690D01*
X51320238Y34183071D01*
X51320238Y34135452D01*
X51344047Y34064023D01*
X51629761Y33778309D01*
X51320238Y33778309D01*
X51010714Y34278309D02*
X50963095Y34278309D01*
X50915476Y34254500D01*
X50891666Y34230690D01*
X50867857Y34183071D01*
X50844047Y34087833D01*
X50844047Y33968785D01*
X50867857Y33873547D01*
X50891666Y33825928D01*
X50915476Y33802119D01*
X50963095Y33778309D01*
X51010714Y33778309D01*
X51058333Y33802119D01*
X51082142Y33825928D01*
X51105952Y33873547D01*
X51129761Y33968785D01*
X51129761Y34087833D01*
X51105952Y34183071D01*
X51082142Y34230690D01*
X51058333Y34254500D01*
X51010714Y34278309D01*
X50653571Y34230690D02*
X50629761Y34254500D01*
X50582142Y34278309D01*
X50463095Y34278309D01*
X50415476Y34254500D01*
X50391666Y34230690D01*
X50367857Y34183071D01*
X50367857Y34135452D01*
X50391666Y34064023D01*
X50677380Y33778309D01*
X50367857Y33778309D01*
X49939285Y34111642D02*
X49939285Y33778309D01*
X50058333Y34302119D02*
X50177380Y33944976D01*
X49867857Y33944976D01*
X56284523Y33453309D02*
X56284523Y33096166D01*
X56308333Y33024738D01*
X56355952Y32977119D01*
X56427380Y32953309D01*
X56475000Y32953309D01*
X55808333Y32953309D02*
X56046428Y32953309D01*
X56046428Y33453309D01*
X55355952Y33000928D02*
X55379761Y32977119D01*
X55451190Y32953309D01*
X55498809Y32953309D01*
X55570238Y32977119D01*
X55617857Y33024738D01*
X55641666Y33072357D01*
X55665476Y33167595D01*
X55665476Y33239023D01*
X55641666Y33334261D01*
X55617857Y33381880D01*
X55570238Y33429500D01*
X55498809Y33453309D01*
X55451190Y33453309D01*
X55379761Y33429500D01*
X55355952Y33405690D01*
X54998809Y33453309D02*
X54998809Y33096166D01*
X55022619Y33024738D01*
X55070238Y32977119D01*
X55141666Y32953309D01*
X55189285Y32953309D01*
X54522619Y32953309D02*
X54760714Y32953309D01*
X54760714Y33453309D01*
X54070238Y33000928D02*
X54094047Y32977119D01*
X54165476Y32953309D01*
X54213095Y32953309D01*
X54284523Y32977119D01*
X54332142Y33024738D01*
X54355952Y33072357D01*
X54379761Y33167595D01*
X54379761Y33239023D01*
X54355952Y33334261D01*
X54332142Y33381880D01*
X54284523Y33429500D01*
X54213095Y33453309D01*
X54165476Y33453309D01*
X54094047Y33429500D01*
X54070238Y33405690D01*
X53713095Y33453309D02*
X53713095Y33096166D01*
X53736904Y33024738D01*
X53784523Y32977119D01*
X53855952Y32953309D01*
X53903571Y32953309D01*
X53236904Y32953309D02*
X53475000Y32953309D01*
X53475000Y33453309D01*
X52784523Y33000928D02*
X52808333Y32977119D01*
X52879761Y32953309D01*
X52927380Y32953309D01*
X52998809Y32977119D01*
X53046428Y33024738D01*
X53070238Y33072357D01*
X53094047Y33167595D01*
X53094047Y33239023D01*
X53070238Y33334261D01*
X53046428Y33381880D01*
X52998809Y33429500D01*
X52927380Y33453309D01*
X52879761Y33453309D01*
X52808333Y33429500D01*
X52784523Y33405690D01*
X52427380Y33453309D02*
X52427380Y33096166D01*
X52451190Y33024738D01*
X52498809Y32977119D01*
X52570238Y32953309D01*
X52617857Y32953309D01*
X51951190Y32953309D02*
X52189285Y32953309D01*
X52189285Y33453309D01*
X51498809Y33000928D02*
X51522619Y32977119D01*
X51594047Y32953309D01*
X51641666Y32953309D01*
X51713095Y32977119D01*
X51760714Y33024738D01*
X51784523Y33072357D01*
X51808333Y33167595D01*
X51808333Y33239023D01*
X51784523Y33334261D01*
X51760714Y33381880D01*
X51713095Y33429500D01*
X51641666Y33453309D01*
X51594047Y33453309D01*
X51522619Y33429500D01*
X51498809Y33405690D01*
D11*
X62865000Y-163830000D02*
X62865000Y-128270000D01*
X62865000Y-163830000D02*
X62865000Y-128270000D01*
X45085000Y-128270000D02*
X45085000Y-163830000D01*
X45085000Y-128270000D02*
X45085000Y-163830000D01*
X62865000Y-128270000D02*
X45085000Y-128270000D01*
X62865000Y-128270000D02*
X45085000Y-128270000D01*
X45085000Y-163830000D02*
X62865000Y-163830000D01*
X45085000Y-163830000D02*
X62865000Y-163830000D01*
D12*
X52819647Y-154740155D02*
G75*
G02X51320000Y-154740000I-749647J1700155D01*
G01*
X58590000Y-161350000D02*
X49360000Y-161350000D01*
X56629647Y-154740155D02*
G75*
G02X55130000Y-154740000I-749647J1700155D01*
G01*
X49360000Y-161350000D02*
X49360000Y-153880000D01*
X49360000Y-153880000D02*
X58590000Y-153880000D01*
X58590000Y-153880000D02*
X58590000Y-161350000D01*
X51320000Y-154740000D02*
X50570000Y-154740000D01*
X50570000Y-154740000D02*
X50570000Y-159040000D01*
X50570000Y-159040000D02*
X51320000Y-159040000D01*
X51320000Y-159040000D02*
X51320000Y-159390000D01*
X51320000Y-159390000D02*
X50820000Y-159390000D01*
X50820000Y-159390000D02*
X50570000Y-160390000D01*
X50570000Y-160390000D02*
X53570000Y-160390000D01*
X53570000Y-160390000D02*
X53320000Y-159390000D01*
X53320000Y-159390000D02*
X52820000Y-159390000D01*
X52820000Y-159390000D02*
X52820000Y-159040000D01*
X52820000Y-159040000D02*
X53570000Y-159040000D01*
X53570000Y-159040000D02*
X53570000Y-154740000D01*
X53570000Y-154740000D02*
X52820000Y-154740000D01*
X55130000Y-154740000D02*
X54380000Y-154740000D01*
X54380000Y-154740000D02*
X54380000Y-159040000D01*
X54380000Y-159040000D02*
X55130000Y-159040000D01*
X55130000Y-159040000D02*
X55130000Y-159390000D01*
X55130000Y-159390000D02*
X54630000Y-159390000D01*
X54630000Y-159390000D02*
X54380000Y-160390000D01*
X54380000Y-160390000D02*
X57380000Y-160390000D01*
X57380000Y-160390000D02*
X57130000Y-159390000D01*
X57130000Y-159390000D02*
X56630000Y-159390000D01*
X56630000Y-159390000D02*
X56630000Y-159040000D01*
X56630000Y-159040000D02*
X57380000Y-159040000D01*
X57380000Y-159040000D02*
X57380000Y-154740000D01*
X57380000Y-154740000D02*
X56630000Y-154740000D01*
X50304353Y37265155D02*
G75*
G02X51804000Y37265000I749647J-1700155D01*
G01*
X44534000Y43875000D02*
X53764000Y43875000D01*
X46494353Y37265155D02*
G75*
G02X47994000Y37265000I749647J-1700155D01*
G01*
X53764000Y43875000D02*
X53764000Y36405000D01*
X53764000Y36405000D02*
X44534000Y36405000D01*
X44534000Y36405000D02*
X44534000Y43875000D01*
X51804000Y37265000D02*
X52554000Y37265000D01*
X52554000Y37265000D02*
X52554000Y41565000D01*
X52554000Y41565000D02*
X51804000Y41565000D01*
X51804000Y41565000D02*
X51804000Y41915000D01*
X51804000Y41915000D02*
X52304000Y41915000D01*
X52304000Y41915000D02*
X52554000Y42915000D01*
X52554000Y42915000D02*
X49554000Y42915000D01*
X49554000Y42915000D02*
X49804000Y41915000D01*
X49804000Y41915000D02*
X50304000Y41915000D01*
X50304000Y41915000D02*
X50304000Y41565000D01*
X50304000Y41565000D02*
X49554000Y41565000D01*
X49554000Y41565000D02*
X49554000Y37265000D01*
X49554000Y37265000D02*
X50304000Y37265000D01*
X47994000Y37265000D02*
X48744000Y37265000D01*
X48744000Y37265000D02*
X48744000Y41565000D01*
X48744000Y41565000D02*
X47994000Y41565000D01*
X47994000Y41565000D02*
X47994000Y41915000D01*
X47994000Y41915000D02*
X48494000Y41915000D01*
X48494000Y41915000D02*
X48744000Y42915000D01*
X48744000Y42915000D02*
X45744000Y42915000D01*
X45744000Y42915000D02*
X45994000Y41915000D01*
X45994000Y41915000D02*
X46494000Y41915000D01*
X46494000Y41915000D02*
X46494000Y41565000D01*
X46494000Y41565000D02*
X45744000Y41565000D01*
X45744000Y41565000D02*
X45744000Y37265000D01*
X45744000Y37265000D02*
X46494000Y37265000D01*
X59956353Y37265155D02*
G75*
G02X61456000Y37265000I749647J-1700155D01*
G01*
X54186000Y43875000D02*
X63416000Y43875000D01*
X56146353Y37265155D02*
G75*
G02X57646000Y37265000I749647J-1700155D01*
G01*
X63416000Y43875000D02*
X63416000Y36405000D01*
X63416000Y36405000D02*
X54186000Y36405000D01*
X54186000Y36405000D02*
X54186000Y43875000D01*
X61456000Y37265000D02*
X62206000Y37265000D01*
X62206000Y37265000D02*
X62206000Y41565000D01*
X62206000Y41565000D02*
X61456000Y41565000D01*
X61456000Y41565000D02*
X61456000Y41915000D01*
X61456000Y41915000D02*
X61956000Y41915000D01*
X61956000Y41915000D02*
X62206000Y42915000D01*
X62206000Y42915000D02*
X59206000Y42915000D01*
X59206000Y42915000D02*
X59456000Y41915000D01*
X59456000Y41915000D02*
X59956000Y41915000D01*
X59956000Y41915000D02*
X59956000Y41565000D01*
X59956000Y41565000D02*
X59206000Y41565000D01*
X59206000Y41565000D02*
X59206000Y37265000D01*
X59206000Y37265000D02*
X59956000Y37265000D01*
X57646000Y37265000D02*
X58396000Y37265000D01*
X58396000Y37265000D02*
X58396000Y41565000D01*
X58396000Y41565000D02*
X57646000Y41565000D01*
X57646000Y41565000D02*
X57646000Y41915000D01*
X57646000Y41915000D02*
X58146000Y41915000D01*
X58146000Y41915000D02*
X58396000Y42915000D01*
X58396000Y42915000D02*
X55396000Y42915000D01*
X55396000Y42915000D02*
X55646000Y41915000D01*
X55646000Y41915000D02*
X56146000Y41915000D01*
X56146000Y41915000D02*
X56146000Y41565000D01*
X56146000Y41565000D02*
X55396000Y41565000D01*
X55396000Y41565000D02*
X55396000Y37265000D01*
X55396000Y37265000D02*
X56146000Y37265000D01*
X60265000Y-119528125D02*
X57935000Y-119528125D01*
X60265000Y-117078125D02*
X60265000Y-119528125D01*
X47995000Y-119198125D02*
X59935000Y-119198125D01*
X47995000Y-111348125D02*
X47995000Y-119198125D01*
X59935000Y-111348125D02*
X47995000Y-111348125D01*
X59935000Y-119198125D02*
X59935000Y-111348125D01*
D13*
X52641666Y-163892380D02*
X52641666Y-162892380D01*
X53022619Y-162892380D01*
X53117857Y-162940000D01*
X53165476Y-162987619D01*
X53213095Y-163082857D01*
X53213095Y-163225714D01*
X53165476Y-163320952D01*
X53117857Y-163368571D01*
X53022619Y-163416190D01*
X52641666Y-163416190D01*
X53546428Y-162892380D02*
X53784523Y-163892380D01*
X53975000Y-163178095D01*
X54165476Y-163892380D01*
X54403571Y-162892380D01*
X55355952Y-163892380D02*
X55022619Y-163416190D01*
X54784523Y-163892380D02*
X54784523Y-162892380D01*
X55165476Y-162892380D01*
X55260714Y-162940000D01*
X55308333Y-162987619D01*
X55355952Y-163082857D01*
X55355952Y-163225714D01*
X55308333Y-163320952D01*
X55260714Y-163368571D01*
X55165476Y-163416190D01*
X54784523Y-163416190D01*
X57261047Y-163461428D02*
X58022952Y-163461428D01*
X57642000Y-163842380D02*
X57642000Y-163080476D01*
X49927047Y-163461428D02*
X50688952Y-163461428D01*
X50268047Y46417380D02*
X50744238Y46417380D01*
X50744238Y45417380D01*
X49744238Y45417380D02*
X49553761Y45417380D01*
X49458523Y45465000D01*
X49363285Y45560238D01*
X49315666Y45750714D01*
X49315666Y46084047D01*
X49363285Y46274523D01*
X49458523Y46369761D01*
X49553761Y46417380D01*
X49744238Y46417380D01*
X49839476Y46369761D01*
X49934714Y46274523D01*
X49982333Y46084047D01*
X49982333Y45750714D01*
X49934714Y45560238D01*
X49839476Y45465000D01*
X49744238Y45417380D01*
X48887095Y45417380D02*
X48887095Y46226904D01*
X48839476Y46322142D01*
X48791857Y46369761D01*
X48696619Y46417380D01*
X48506142Y46417380D01*
X48410904Y46369761D01*
X48363285Y46322142D01*
X48315666Y46226904D01*
X48315666Y45417380D01*
X47982333Y45417380D02*
X47410904Y45417380D01*
X47696619Y46417380D02*
X47696619Y45417380D01*
X45101047Y45843571D02*
X45862952Y45843571D01*
X45482000Y45462619D02*
X45482000Y46224523D01*
X52435047Y45843571D02*
X53196952Y45843571D01*
X59920047Y46417380D02*
X60253380Y45941190D01*
X60491476Y46417380D02*
X60491476Y45417380D01*
X60110523Y45417380D01*
X60015285Y45465000D01*
X59967666Y45512619D01*
X59920047Y45607857D01*
X59920047Y45750714D01*
X59967666Y45845952D01*
X60015285Y45893571D01*
X60110523Y45941190D01*
X60491476Y45941190D01*
X59301000Y45417380D02*
X59110523Y45417380D01*
X59015285Y45465000D01*
X58920047Y45560238D01*
X58872428Y45750714D01*
X58872428Y46084047D01*
X58920047Y46274523D01*
X59015285Y46369761D01*
X59110523Y46417380D01*
X59301000Y46417380D01*
X59396238Y46369761D01*
X59491476Y46274523D01*
X59539095Y46084047D01*
X59539095Y45750714D01*
X59491476Y45560238D01*
X59396238Y45465000D01*
X59301000Y45417380D01*
X58443857Y45417380D02*
X58443857Y46226904D01*
X58396238Y46322142D01*
X58348619Y46369761D01*
X58253380Y46417380D01*
X58062904Y46417380D01*
X57967666Y46369761D01*
X57920047Y46322142D01*
X57872428Y46226904D01*
X57872428Y45417380D01*
X57539095Y45417380D02*
X56967666Y45417380D01*
X57253380Y46417380D02*
X57253380Y45417380D01*
X54753047Y45843571D02*
X55514952Y45843571D01*
X55134000Y45462619D02*
X55134000Y46224523D01*
X62087047Y45843571D02*
X62848952Y45843571D01*
X54276904Y-113530505D02*
X54276904Y-114340029D01*
X54229285Y-114435267D01*
X54181666Y-114482886D01*
X54086428Y-114530505D01*
X53895952Y-114530505D01*
X53800714Y-114482886D01*
X53753095Y-114435267D01*
X53705476Y-114340029D01*
X53705476Y-113530505D01*
X52753095Y-113530505D02*
X53229285Y-113530505D01*
X53276904Y-114006696D01*
X53229285Y-113959077D01*
X53134047Y-113911458D01*
X52895952Y-113911458D01*
X52800714Y-113959077D01*
X52753095Y-114006696D01*
X52705476Y-114101934D01*
X52705476Y-114340029D01*
X52753095Y-114435267D01*
X52800714Y-114482886D01*
X52895952Y-114530505D01*
X53134047Y-114530505D01*
X53229285Y-114482886D01*
X53276904Y-114435267D01*
M02*
