G04 #@! TF.GenerationSoftware,KiCad,Pcbnew,(5.1.2-1)-1*
G04 #@! TF.CreationDate,2023-05-16T14:49:07-07:00*
G04 #@! TF.ProjectId,FlailDriver,466c6169-6c44-4726-9976-65722e6b6963,rev?*
G04 #@! TF.SameCoordinates,Original*
G04 #@! TF.FileFunction,Legend,Bot*
G04 #@! TF.FilePolarity,Positive*
%FSLAX46Y46*%
G04 Gerber Fmt 4.6, Leading zero omitted, Abs format (unit mm)*
G04 Created by KiCad (PCBNEW (5.1.2-1)-1) date 2023-05-16 14:49:07*
%MOMM*%
%LPD*%
G04 APERTURE LIST*
%ADD10C,0.127000*%
%ADD11C,0.120000*%
%ADD12C,0.150000*%
G04 APERTURE END LIST*
D10*
X62865000Y-163830000D02*
X62865000Y-128270000D01*
X62865000Y-163830000D02*
X62865000Y-128270000D01*
X45085000Y-128270000D02*
X45085000Y-163830000D01*
X45085000Y-128270000D02*
X45085000Y-163830000D01*
X62865000Y-128270000D02*
X45085000Y-128270000D01*
X62865000Y-128270000D02*
X45085000Y-128270000D01*
X45085000Y-163830000D02*
X62865000Y-163830000D01*
X45085000Y-163830000D02*
X62865000Y-163830000D01*
D11*
X57380000Y-154740000D02*
X56630000Y-154740000D01*
X57380000Y-159040000D02*
X57380000Y-154740000D01*
X56630000Y-159040000D02*
X57380000Y-159040000D01*
X56630000Y-159390000D02*
X56630000Y-159040000D01*
X57130000Y-159390000D02*
X56630000Y-159390000D01*
X57380000Y-160390000D02*
X57130000Y-159390000D01*
X54380000Y-160390000D02*
X57380000Y-160390000D01*
X54630000Y-159390000D02*
X54380000Y-160390000D01*
X55130000Y-159390000D02*
X54630000Y-159390000D01*
X55130000Y-159040000D02*
X55130000Y-159390000D01*
X54380000Y-159040000D02*
X55130000Y-159040000D01*
X54380000Y-154740000D02*
X54380000Y-159040000D01*
X55130000Y-154740000D02*
X54380000Y-154740000D01*
X53570000Y-154740000D02*
X52820000Y-154740000D01*
X53570000Y-159040000D02*
X53570000Y-154740000D01*
X52820000Y-159040000D02*
X53570000Y-159040000D01*
X52820000Y-159390000D02*
X52820000Y-159040000D01*
X53320000Y-159390000D02*
X52820000Y-159390000D01*
X53570000Y-160390000D02*
X53320000Y-159390000D01*
X50570000Y-160390000D02*
X53570000Y-160390000D01*
X50820000Y-159390000D02*
X50570000Y-160390000D01*
X51320000Y-159390000D02*
X50820000Y-159390000D01*
X51320000Y-159040000D02*
X51320000Y-159390000D01*
X50570000Y-159040000D02*
X51320000Y-159040000D01*
X50570000Y-154740000D02*
X50570000Y-159040000D01*
X51320000Y-154740000D02*
X50570000Y-154740000D01*
X58590000Y-153880000D02*
X58590000Y-161350000D01*
X49360000Y-153880000D02*
X58590000Y-153880000D01*
X49360000Y-161350000D02*
X49360000Y-153880000D01*
X56629647Y-154740155D02*
G75*
G02X55130000Y-154740000I-749647J1700155D01*
G01*
X58590000Y-161350000D02*
X49360000Y-161350000D01*
X52819647Y-154740155D02*
G75*
G02X51320000Y-154740000I-749647J1700155D01*
G01*
X50304353Y37265155D02*
G75*
G02X51804000Y37265000I749647J-1700155D01*
G01*
X44534000Y43875000D02*
X53764000Y43875000D01*
X46494353Y37265155D02*
G75*
G02X47994000Y37265000I749647J-1700155D01*
G01*
X53764000Y43875000D02*
X53764000Y36405000D01*
X53764000Y36405000D02*
X44534000Y36405000D01*
X44534000Y36405000D02*
X44534000Y43875000D01*
X51804000Y37265000D02*
X52554000Y37265000D01*
X52554000Y37265000D02*
X52554000Y41565000D01*
X52554000Y41565000D02*
X51804000Y41565000D01*
X51804000Y41565000D02*
X51804000Y41915000D01*
X51804000Y41915000D02*
X52304000Y41915000D01*
X52304000Y41915000D02*
X52554000Y42915000D01*
X52554000Y42915000D02*
X49554000Y42915000D01*
X49554000Y42915000D02*
X49804000Y41915000D01*
X49804000Y41915000D02*
X50304000Y41915000D01*
X50304000Y41915000D02*
X50304000Y41565000D01*
X50304000Y41565000D02*
X49554000Y41565000D01*
X49554000Y41565000D02*
X49554000Y37265000D01*
X49554000Y37265000D02*
X50304000Y37265000D01*
X47994000Y37265000D02*
X48744000Y37265000D01*
X48744000Y37265000D02*
X48744000Y41565000D01*
X48744000Y41565000D02*
X47994000Y41565000D01*
X47994000Y41565000D02*
X47994000Y41915000D01*
X47994000Y41915000D02*
X48494000Y41915000D01*
X48494000Y41915000D02*
X48744000Y42915000D01*
X48744000Y42915000D02*
X45744000Y42915000D01*
X45744000Y42915000D02*
X45994000Y41915000D01*
X45994000Y41915000D02*
X46494000Y41915000D01*
X46494000Y41915000D02*
X46494000Y41565000D01*
X46494000Y41565000D02*
X45744000Y41565000D01*
X45744000Y41565000D02*
X45744000Y37265000D01*
X45744000Y37265000D02*
X46494000Y37265000D01*
X55396000Y37265000D02*
X56146000Y37265000D01*
X55396000Y41565000D02*
X55396000Y37265000D01*
X56146000Y41565000D02*
X55396000Y41565000D01*
X56146000Y41915000D02*
X56146000Y41565000D01*
X55646000Y41915000D02*
X56146000Y41915000D01*
X55396000Y42915000D02*
X55646000Y41915000D01*
X58396000Y42915000D02*
X55396000Y42915000D01*
X58146000Y41915000D02*
X58396000Y42915000D01*
X57646000Y41915000D02*
X58146000Y41915000D01*
X57646000Y41565000D02*
X57646000Y41915000D01*
X58396000Y41565000D02*
X57646000Y41565000D01*
X58396000Y37265000D02*
X58396000Y41565000D01*
X57646000Y37265000D02*
X58396000Y37265000D01*
X59206000Y37265000D02*
X59956000Y37265000D01*
X59206000Y41565000D02*
X59206000Y37265000D01*
X59956000Y41565000D02*
X59206000Y41565000D01*
X59956000Y41915000D02*
X59956000Y41565000D01*
X59456000Y41915000D02*
X59956000Y41915000D01*
X59206000Y42915000D02*
X59456000Y41915000D01*
X62206000Y42915000D02*
X59206000Y42915000D01*
X61956000Y41915000D02*
X62206000Y42915000D01*
X61456000Y41915000D02*
X61956000Y41915000D01*
X61456000Y41565000D02*
X61456000Y41915000D01*
X62206000Y41565000D02*
X61456000Y41565000D01*
X62206000Y37265000D02*
X62206000Y41565000D01*
X61456000Y37265000D02*
X62206000Y37265000D01*
X54186000Y36405000D02*
X54186000Y43875000D01*
X63416000Y36405000D02*
X54186000Y36405000D01*
X63416000Y43875000D02*
X63416000Y36405000D01*
X56146353Y37265155D02*
G75*
G02X57646000Y37265000I749647J-1700155D01*
G01*
X54186000Y43875000D02*
X63416000Y43875000D01*
X59956353Y37265155D02*
G75*
G02X61456000Y37265000I749647J-1700155D01*
G01*
D10*
X54439457Y-135556171D02*
X54439457Y-136049657D01*
X54410428Y-136107714D01*
X54381400Y-136136742D01*
X54323342Y-136165771D01*
X54207228Y-136165771D01*
X54149171Y-136136742D01*
X54120142Y-136107714D01*
X54091114Y-136049657D01*
X54091114Y-135556171D01*
X53539571Y-135759371D02*
X53539571Y-136165771D01*
X53684714Y-135527142D02*
X53829857Y-135962571D01*
X53452485Y-135962571D01*
X58576028Y-136826171D02*
X58227685Y-136826171D01*
X58401857Y-137435771D02*
X58401857Y-136826171D01*
X58024485Y-137116457D02*
X57821285Y-137116457D01*
X57734200Y-137435771D02*
X58024485Y-137435771D01*
X58024485Y-136826171D01*
X57734200Y-136826171D01*
X57472942Y-137116457D02*
X57269742Y-137116457D01*
X57182657Y-137435771D02*
X57472942Y-137435771D01*
X57472942Y-136826171D01*
X57182657Y-136826171D01*
X56921399Y-137435771D02*
X56921399Y-136826171D01*
X56573057Y-137435771D01*
X56573057Y-136826171D01*
X56311800Y-137406742D02*
X56224714Y-137435771D01*
X56079571Y-137435771D01*
X56021514Y-137406742D01*
X55992485Y-137377714D01*
X55963457Y-137319657D01*
X55963457Y-137261600D01*
X55992485Y-137203542D01*
X56021514Y-137174514D01*
X56079571Y-137145485D01*
X56195685Y-137116457D01*
X56253742Y-137087428D01*
X56282771Y-137058400D01*
X56311800Y-137000342D01*
X56311800Y-136942285D01*
X56282771Y-136884228D01*
X56253742Y-136855200D01*
X56195685Y-136826171D01*
X56050542Y-136826171D01*
X55963457Y-136855200D01*
X55586085Y-137145485D02*
X55586085Y-137435771D01*
X55789285Y-136826171D02*
X55586085Y-137145485D01*
X55382885Y-136826171D01*
X55324828Y-137493828D02*
X54860371Y-137493828D01*
X54453971Y-137029371D02*
X54453971Y-137435771D01*
X54599114Y-136797142D02*
X54744257Y-137232571D01*
X54366885Y-137232571D01*
X54134657Y-137377714D02*
X54105628Y-137406742D01*
X54134657Y-137435771D01*
X54163685Y-137406742D01*
X54134657Y-137377714D01*
X54134657Y-137435771D01*
X53525057Y-137435771D02*
X53873400Y-137435771D01*
X53699228Y-137435771D02*
X53699228Y-136826171D01*
X53757285Y-136913257D01*
X53815342Y-136971314D01*
X53873400Y-137000342D01*
X53408942Y-137493828D02*
X52944485Y-137493828D01*
X52799342Y-137435771D02*
X52799342Y-136826171D01*
X52596142Y-137261600D01*
X52392942Y-136826171D01*
X52392942Y-137435771D01*
X52102657Y-137435771D02*
X52102657Y-136826171D01*
X51812371Y-137435771D02*
X51812371Y-136826171D01*
X51464028Y-137435771D01*
X51464028Y-136826171D01*
X51173742Y-137435771D02*
X51173742Y-136826171D01*
X50883457Y-137435771D02*
X50883457Y-136826171D01*
X50680257Y-137261600D01*
X50477057Y-136826171D01*
X50477057Y-137435771D01*
X50215800Y-137261600D02*
X49925514Y-137261600D01*
X50273857Y-137435771D02*
X50070657Y-136826171D01*
X49867457Y-137435771D01*
X49373971Y-137435771D02*
X49664257Y-137435771D01*
X49664257Y-136826171D01*
D12*
X52641666Y-163892380D02*
X52641666Y-162892380D01*
X53022619Y-162892380D01*
X53117857Y-162940000D01*
X53165476Y-162987619D01*
X53213095Y-163082857D01*
X53213095Y-163225714D01*
X53165476Y-163320952D01*
X53117857Y-163368571D01*
X53022619Y-163416190D01*
X52641666Y-163416190D01*
X53546428Y-162892380D02*
X53784523Y-163892380D01*
X53975000Y-163178095D01*
X54165476Y-163892380D01*
X54403571Y-162892380D01*
X55355952Y-163892380D02*
X55022619Y-163416190D01*
X54784523Y-163892380D02*
X54784523Y-162892380D01*
X55165476Y-162892380D01*
X55260714Y-162940000D01*
X55308333Y-162987619D01*
X55355952Y-163082857D01*
X55355952Y-163225714D01*
X55308333Y-163320952D01*
X55260714Y-163368571D01*
X55165476Y-163416190D01*
X54784523Y-163416190D01*
X49927047Y-163461428D02*
X50688952Y-163461428D01*
X57261047Y-163461428D02*
X58022952Y-163461428D01*
X57642000Y-163842380D02*
X57642000Y-163080476D01*
X50268047Y46417380D02*
X50744238Y46417380D01*
X50744238Y45417380D01*
X49744238Y45417380D02*
X49553761Y45417380D01*
X49458523Y45465000D01*
X49363285Y45560238D01*
X49315666Y45750714D01*
X49315666Y46084047D01*
X49363285Y46274523D01*
X49458523Y46369761D01*
X49553761Y46417380D01*
X49744238Y46417380D01*
X49839476Y46369761D01*
X49934714Y46274523D01*
X49982333Y46084047D01*
X49982333Y45750714D01*
X49934714Y45560238D01*
X49839476Y45465000D01*
X49744238Y45417380D01*
X48887095Y45417380D02*
X48887095Y46226904D01*
X48839476Y46322142D01*
X48791857Y46369761D01*
X48696619Y46417380D01*
X48506142Y46417380D01*
X48410904Y46369761D01*
X48363285Y46322142D01*
X48315666Y46226904D01*
X48315666Y45417380D01*
X47982333Y45417380D02*
X47410904Y45417380D01*
X47696619Y46417380D02*
X47696619Y45417380D01*
X45101047Y45843571D02*
X45862952Y45843571D01*
X45482000Y45462619D02*
X45482000Y46224523D01*
X52435047Y45843571D02*
X53196952Y45843571D01*
X59920047Y46417380D02*
X60253380Y45941190D01*
X60491476Y46417380D02*
X60491476Y45417380D01*
X60110523Y45417380D01*
X60015285Y45465000D01*
X59967666Y45512619D01*
X59920047Y45607857D01*
X59920047Y45750714D01*
X59967666Y45845952D01*
X60015285Y45893571D01*
X60110523Y45941190D01*
X60491476Y45941190D01*
X59301000Y45417380D02*
X59110523Y45417380D01*
X59015285Y45465000D01*
X58920047Y45560238D01*
X58872428Y45750714D01*
X58872428Y46084047D01*
X58920047Y46274523D01*
X59015285Y46369761D01*
X59110523Y46417380D01*
X59301000Y46417380D01*
X59396238Y46369761D01*
X59491476Y46274523D01*
X59539095Y46084047D01*
X59539095Y45750714D01*
X59491476Y45560238D01*
X59396238Y45465000D01*
X59301000Y45417380D01*
X58443857Y45417380D02*
X58443857Y46226904D01*
X58396238Y46322142D01*
X58348619Y46369761D01*
X58253380Y46417380D01*
X58062904Y46417380D01*
X57967666Y46369761D01*
X57920047Y46322142D01*
X57872428Y46226904D01*
X57872428Y45417380D01*
X57539095Y45417380D02*
X56967666Y45417380D01*
X57253380Y46417380D02*
X57253380Y45417380D01*
X62087047Y45843571D02*
X62848952Y45843571D01*
X54753047Y45843571D02*
X55514952Y45843571D01*
X55134000Y45462619D02*
X55134000Y46224523D01*
M02*
