G04 #@! TF.GenerationSoftware,KiCad,Pcbnew,(5.1.2-1)-1*
G04 #@! TF.CreationDate,2023-05-16T14:49:07-07:00*
G04 #@! TF.ProjectId,FlailDriver,466c6169-6c44-4726-9976-65722e6b6963,rev?*
G04 #@! TF.SameCoordinates,Original*
G04 #@! TF.FileFunction,Copper,L2,Bot*
G04 #@! TF.FilePolarity,Positive*
%FSLAX46Y46*%
G04 Gerber Fmt 4.6, Leading zero omitted, Abs format (unit mm)*
G04 Created by KiCad (PCBNEW (5.1.2-1)-1) date 2023-05-16 14:49:07*
%MOMM*%
%LPD*%
G04 APERTURE LIST*
%ADD10O,1.200000X2.200000*%
%ADD11C,0.600000*%
%ADD12R,11.000000X5.200000*%
%ADD13C,5.000000*%
%ADD14C,1.700000*%
%ADD15C,1.879600*%
%ADD16C,0.100000*%
%ADD17C,1.800000*%
%ADD18O,1.800000X3.600000*%
%ADD19C,0.800000*%
%ADD20C,13.000000*%
%ADD21C,0.250000*%
%ADD22C,0.254000*%
G04 APERTURE END LIST*
D10*
X59375000Y-139700000D03*
X48575000Y-134700000D03*
X48575000Y-144700000D03*
D11*
X48775000Y10216000D03*
X48775000Y11716000D03*
X48775000Y13216000D03*
X48775000Y14716000D03*
X50075000Y10216000D03*
X50075000Y11716000D03*
X50075000Y13216000D03*
X50075000Y14716000D03*
X51375000Y14716000D03*
X52675000Y10216000D03*
X52675000Y14716000D03*
X52675000Y11716000D03*
X51375000Y10216000D03*
X51375000Y11716000D03*
X51375000Y13216000D03*
X52675000Y13216000D03*
X53975000Y14716000D03*
X55275000Y10216000D03*
X55275000Y14716000D03*
X55275000Y11716000D03*
X53975000Y10216000D03*
X53975000Y11716000D03*
X53975000Y13216000D03*
X55275000Y13216000D03*
X56575000Y14716000D03*
X57875000Y10216000D03*
X57875000Y14716000D03*
X57875000Y11716000D03*
X56575000Y10216000D03*
X56575000Y11716000D03*
X56575000Y13216000D03*
X57875000Y13216000D03*
X59175000Y11716000D03*
X59175000Y10216000D03*
X59175000Y14716000D03*
X59175000Y13216000D03*
D12*
X53975000Y12466000D03*
D13*
X53975000Y-123825000D03*
X53975000Y-73025000D03*
X53975000Y-22225000D03*
X53975000Y28575000D03*
D14*
X49022000Y-47467500D03*
X49022000Y-55767500D03*
X49022000Y-58867500D03*
X58928000Y-58867500D03*
X58928000Y-55767500D03*
X58928000Y-47467500D03*
D15*
X46355000Y-160020000D03*
X46355000Y-157480000D03*
X46355000Y-154940000D03*
X46355000Y-152400000D03*
X61595000Y-157480000D03*
X46355000Y-149860000D03*
X46355000Y-147320000D03*
X46355000Y-144780000D03*
X46355000Y-142240000D03*
X46355000Y-139700000D03*
X46355000Y-137160000D03*
X46355000Y-134620000D03*
X46355000Y-132080000D03*
X46355000Y-129540000D03*
X61595000Y-129540000D03*
X61595000Y-132080000D03*
X61595000Y-134620000D03*
X61595000Y-137160000D03*
X61595000Y-139700000D03*
X61595000Y-142240000D03*
X61595000Y-144780000D03*
X61595000Y-147320000D03*
X61595000Y-149860000D03*
X61595000Y-152400000D03*
X61595000Y-154940000D03*
X61595000Y-160020000D03*
X46355000Y-162560000D03*
X61595000Y-162560000D03*
D16*
G36*
X52744504Y-155191204D02*
G01*
X52768773Y-155194804D01*
X52792571Y-155200765D01*
X52815671Y-155209030D01*
X52837849Y-155219520D01*
X52858893Y-155232133D01*
X52878598Y-155246747D01*
X52896777Y-155263223D01*
X52913253Y-155281402D01*
X52927867Y-155301107D01*
X52940480Y-155322151D01*
X52950970Y-155344329D01*
X52959235Y-155367429D01*
X52965196Y-155391227D01*
X52968796Y-155415496D01*
X52970000Y-155440000D01*
X52970000Y-158540000D01*
X52968796Y-158564504D01*
X52965196Y-158588773D01*
X52959235Y-158612571D01*
X52950970Y-158635671D01*
X52940480Y-158657849D01*
X52927867Y-158678893D01*
X52913253Y-158698598D01*
X52896777Y-158716777D01*
X52878598Y-158733253D01*
X52858893Y-158747867D01*
X52837849Y-158760480D01*
X52815671Y-158770970D01*
X52792571Y-158779235D01*
X52768773Y-158785196D01*
X52744504Y-158788796D01*
X52720000Y-158790000D01*
X51420000Y-158790000D01*
X51395496Y-158788796D01*
X51371227Y-158785196D01*
X51347429Y-158779235D01*
X51324329Y-158770970D01*
X51302151Y-158760480D01*
X51281107Y-158747867D01*
X51261402Y-158733253D01*
X51243223Y-158716777D01*
X51226747Y-158698598D01*
X51212133Y-158678893D01*
X51199520Y-158657849D01*
X51189030Y-158635671D01*
X51180765Y-158612571D01*
X51174804Y-158588773D01*
X51171204Y-158564504D01*
X51170000Y-158540000D01*
X51170000Y-155440000D01*
X51171204Y-155415496D01*
X51174804Y-155391227D01*
X51180765Y-155367429D01*
X51189030Y-155344329D01*
X51199520Y-155322151D01*
X51212133Y-155301107D01*
X51226747Y-155281402D01*
X51243223Y-155263223D01*
X51261402Y-155246747D01*
X51281107Y-155232133D01*
X51302151Y-155219520D01*
X51324329Y-155209030D01*
X51347429Y-155200765D01*
X51371227Y-155194804D01*
X51395496Y-155191204D01*
X51420000Y-155190000D01*
X52720000Y-155190000D01*
X52744504Y-155191204D01*
X52744504Y-155191204D01*
G37*
D17*
X52070000Y-156990000D03*
D18*
X55880000Y-156990000D03*
D16*
G36*
X52744324Y-155191205D02*
G01*
X52768612Y-155194808D01*
X52792429Y-155200774D01*
X52815547Y-155209045D01*
X52837743Y-155219543D01*
X52858804Y-155232166D01*
X52878525Y-155246793D01*
X52896718Y-155263282D01*
X52913207Y-155281475D01*
X52927834Y-155301196D01*
X52940457Y-155322257D01*
X52950955Y-155344453D01*
X52959226Y-155367571D01*
X52965192Y-155391388D01*
X52968795Y-155415676D01*
X52970000Y-155440200D01*
X52970000Y-158539800D01*
X52968795Y-158564324D01*
X52965192Y-158588612D01*
X52959226Y-158612429D01*
X52950955Y-158635547D01*
X52940457Y-158657743D01*
X52927834Y-158678804D01*
X52913207Y-158698525D01*
X52896718Y-158716718D01*
X52878525Y-158733207D01*
X52858804Y-158747834D01*
X52837743Y-158760457D01*
X52815547Y-158770955D01*
X52792429Y-158779226D01*
X52768612Y-158785192D01*
X52744324Y-158788795D01*
X52719800Y-158790000D01*
X51420200Y-158790000D01*
X51395676Y-158788795D01*
X51371388Y-158785192D01*
X51347571Y-158779226D01*
X51324453Y-158770955D01*
X51302257Y-158760457D01*
X51281196Y-158747834D01*
X51261475Y-158733207D01*
X51243282Y-158716718D01*
X51226793Y-158698525D01*
X51212166Y-158678804D01*
X51199543Y-158657743D01*
X51189045Y-158635547D01*
X51180774Y-158612429D01*
X51174808Y-158588612D01*
X51171205Y-158564324D01*
X51170000Y-158539800D01*
X51170000Y-155440200D01*
X51171205Y-155415676D01*
X51174808Y-155391388D01*
X51180774Y-155367571D01*
X51189045Y-155344453D01*
X51199543Y-155322257D01*
X51212166Y-155301196D01*
X51226793Y-155281475D01*
X51243282Y-155263282D01*
X51261475Y-155246793D01*
X51281196Y-155232166D01*
X51302257Y-155219543D01*
X51324453Y-155209045D01*
X51347571Y-155200774D01*
X51371388Y-155194808D01*
X51395676Y-155191205D01*
X51420200Y-155190000D01*
X52719800Y-155190000D01*
X52744324Y-155191205D01*
X52744324Y-155191205D01*
G37*
D17*
X52070000Y-156990000D03*
D18*
X55880000Y-156990000D03*
X47244000Y39515000D03*
D16*
G36*
X51728324Y41313795D02*
G01*
X51752612Y41310192D01*
X51776429Y41304226D01*
X51799547Y41295955D01*
X51821743Y41285457D01*
X51842804Y41272834D01*
X51862525Y41258207D01*
X51880718Y41241718D01*
X51897207Y41223525D01*
X51911834Y41203804D01*
X51924457Y41182743D01*
X51934955Y41160547D01*
X51943226Y41137429D01*
X51949192Y41113612D01*
X51952795Y41089324D01*
X51954000Y41064800D01*
X51954000Y37965200D01*
X51952795Y37940676D01*
X51949192Y37916388D01*
X51943226Y37892571D01*
X51934955Y37869453D01*
X51924457Y37847257D01*
X51911834Y37826196D01*
X51897207Y37806475D01*
X51880718Y37788282D01*
X51862525Y37771793D01*
X51842804Y37757166D01*
X51821743Y37744543D01*
X51799547Y37734045D01*
X51776429Y37725774D01*
X51752612Y37719808D01*
X51728324Y37716205D01*
X51703800Y37715000D01*
X50404200Y37715000D01*
X50379676Y37716205D01*
X50355388Y37719808D01*
X50331571Y37725774D01*
X50308453Y37734045D01*
X50286257Y37744543D01*
X50265196Y37757166D01*
X50245475Y37771793D01*
X50227282Y37788282D01*
X50210793Y37806475D01*
X50196166Y37826196D01*
X50183543Y37847257D01*
X50173045Y37869453D01*
X50164774Y37892571D01*
X50158808Y37916388D01*
X50155205Y37940676D01*
X50154000Y37965200D01*
X50154000Y41064800D01*
X50155205Y41089324D01*
X50158808Y41113612D01*
X50164774Y41137429D01*
X50173045Y41160547D01*
X50183543Y41182743D01*
X50196166Y41203804D01*
X50210793Y41223525D01*
X50227282Y41241718D01*
X50245475Y41258207D01*
X50265196Y41272834D01*
X50286257Y41285457D01*
X50308453Y41295955D01*
X50331571Y41304226D01*
X50355388Y41310192D01*
X50379676Y41313795D01*
X50404200Y41315000D01*
X51703800Y41315000D01*
X51728324Y41313795D01*
X51728324Y41313795D01*
G37*
D17*
X51054000Y39515000D03*
D18*
X47244000Y39515000D03*
D16*
G36*
X51728504Y41313796D02*
G01*
X51752773Y41310196D01*
X51776571Y41304235D01*
X51799671Y41295970D01*
X51821849Y41285480D01*
X51842893Y41272867D01*
X51862598Y41258253D01*
X51880777Y41241777D01*
X51897253Y41223598D01*
X51911867Y41203893D01*
X51924480Y41182849D01*
X51934970Y41160671D01*
X51943235Y41137571D01*
X51949196Y41113773D01*
X51952796Y41089504D01*
X51954000Y41065000D01*
X51954000Y37965000D01*
X51952796Y37940496D01*
X51949196Y37916227D01*
X51943235Y37892429D01*
X51934970Y37869329D01*
X51924480Y37847151D01*
X51911867Y37826107D01*
X51897253Y37806402D01*
X51880777Y37788223D01*
X51862598Y37771747D01*
X51842893Y37757133D01*
X51821849Y37744520D01*
X51799671Y37734030D01*
X51776571Y37725765D01*
X51752773Y37719804D01*
X51728504Y37716204D01*
X51704000Y37715000D01*
X50404000Y37715000D01*
X50379496Y37716204D01*
X50355227Y37719804D01*
X50331429Y37725765D01*
X50308329Y37734030D01*
X50286151Y37744520D01*
X50265107Y37757133D01*
X50245402Y37771747D01*
X50227223Y37788223D01*
X50210747Y37806402D01*
X50196133Y37826107D01*
X50183520Y37847151D01*
X50173030Y37869329D01*
X50164765Y37892429D01*
X50158804Y37916227D01*
X50155204Y37940496D01*
X50154000Y37965000D01*
X50154000Y41065000D01*
X50155204Y41089504D01*
X50158804Y41113773D01*
X50164765Y41137571D01*
X50173030Y41160671D01*
X50183520Y41182849D01*
X50196133Y41203893D01*
X50210747Y41223598D01*
X50227223Y41241777D01*
X50245402Y41258253D01*
X50265107Y41272867D01*
X50286151Y41285480D01*
X50308329Y41295970D01*
X50331429Y41304235D01*
X50355227Y41310196D01*
X50379496Y41313796D01*
X50404000Y41315000D01*
X51704000Y41315000D01*
X51728504Y41313796D01*
X51728504Y41313796D01*
G37*
D17*
X51054000Y39515000D03*
D16*
G36*
X61380504Y41313796D02*
G01*
X61404773Y41310196D01*
X61428571Y41304235D01*
X61451671Y41295970D01*
X61473849Y41285480D01*
X61494893Y41272867D01*
X61514598Y41258253D01*
X61532777Y41241777D01*
X61549253Y41223598D01*
X61563867Y41203893D01*
X61576480Y41182849D01*
X61586970Y41160671D01*
X61595235Y41137571D01*
X61601196Y41113773D01*
X61604796Y41089504D01*
X61606000Y41065000D01*
X61606000Y37965000D01*
X61604796Y37940496D01*
X61601196Y37916227D01*
X61595235Y37892429D01*
X61586970Y37869329D01*
X61576480Y37847151D01*
X61563867Y37826107D01*
X61549253Y37806402D01*
X61532777Y37788223D01*
X61514598Y37771747D01*
X61494893Y37757133D01*
X61473849Y37744520D01*
X61451671Y37734030D01*
X61428571Y37725765D01*
X61404773Y37719804D01*
X61380504Y37716204D01*
X61356000Y37715000D01*
X60056000Y37715000D01*
X60031496Y37716204D01*
X60007227Y37719804D01*
X59983429Y37725765D01*
X59960329Y37734030D01*
X59938151Y37744520D01*
X59917107Y37757133D01*
X59897402Y37771747D01*
X59879223Y37788223D01*
X59862747Y37806402D01*
X59848133Y37826107D01*
X59835520Y37847151D01*
X59825030Y37869329D01*
X59816765Y37892429D01*
X59810804Y37916227D01*
X59807204Y37940496D01*
X59806000Y37965000D01*
X59806000Y41065000D01*
X59807204Y41089504D01*
X59810804Y41113773D01*
X59816765Y41137571D01*
X59825030Y41160671D01*
X59835520Y41182849D01*
X59848133Y41203893D01*
X59862747Y41223598D01*
X59879223Y41241777D01*
X59897402Y41258253D01*
X59917107Y41272867D01*
X59938151Y41285480D01*
X59960329Y41295970D01*
X59983429Y41304235D01*
X60007227Y41310196D01*
X60031496Y41313796D01*
X60056000Y41315000D01*
X61356000Y41315000D01*
X61380504Y41313796D01*
X61380504Y41313796D01*
G37*
D17*
X60706000Y39515000D03*
D18*
X56896000Y39515000D03*
D16*
G36*
X61380324Y41313795D02*
G01*
X61404612Y41310192D01*
X61428429Y41304226D01*
X61451547Y41295955D01*
X61473743Y41285457D01*
X61494804Y41272834D01*
X61514525Y41258207D01*
X61532718Y41241718D01*
X61549207Y41223525D01*
X61563834Y41203804D01*
X61576457Y41182743D01*
X61586955Y41160547D01*
X61595226Y41137429D01*
X61601192Y41113612D01*
X61604795Y41089324D01*
X61606000Y41064800D01*
X61606000Y37965200D01*
X61604795Y37940676D01*
X61601192Y37916388D01*
X61595226Y37892571D01*
X61586955Y37869453D01*
X61576457Y37847257D01*
X61563834Y37826196D01*
X61549207Y37806475D01*
X61532718Y37788282D01*
X61514525Y37771793D01*
X61494804Y37757166D01*
X61473743Y37744543D01*
X61451547Y37734045D01*
X61428429Y37725774D01*
X61404612Y37719808D01*
X61380324Y37716205D01*
X61355800Y37715000D01*
X60056200Y37715000D01*
X60031676Y37716205D01*
X60007388Y37719808D01*
X59983571Y37725774D01*
X59960453Y37734045D01*
X59938257Y37744543D01*
X59917196Y37757166D01*
X59897475Y37771793D01*
X59879282Y37788282D01*
X59862793Y37806475D01*
X59848166Y37826196D01*
X59835543Y37847257D01*
X59825045Y37869453D01*
X59816774Y37892571D01*
X59810808Y37916388D01*
X59807205Y37940676D01*
X59806000Y37965200D01*
X59806000Y41064800D01*
X59807205Y41089324D01*
X59810808Y41113612D01*
X59816774Y41137429D01*
X59825045Y41160547D01*
X59835543Y41182743D01*
X59848166Y41203804D01*
X59862793Y41223525D01*
X59879282Y41241718D01*
X59897475Y41258207D01*
X59917196Y41272834D01*
X59938257Y41285457D01*
X59960453Y41295955D01*
X59983571Y41304226D01*
X60007388Y41310192D01*
X60031676Y41313795D01*
X60056200Y41315000D01*
X61355800Y41315000D01*
X61380324Y41313795D01*
X61380324Y41313795D01*
G37*
D17*
X60706000Y39515000D03*
D18*
X56896000Y39515000D03*
D19*
X45339000Y17272000D03*
X45339000Y12700000D03*
X45339000Y14986000D03*
X62611000Y14986000D03*
X62611000Y17272000D03*
X62611000Y12700000D03*
X45466000Y20828000D03*
X50038000Y20828000D03*
X57912000Y20828000D03*
X62484000Y20828000D03*
X51943000Y-1016000D03*
X56007000Y-1016000D03*
X57023000Y-1016000D03*
X50927000Y-1016000D03*
X57531000Y3810000D03*
X53975000Y3810000D03*
X52197000Y3810000D03*
X52959000Y-1016000D03*
X53975000Y-1016000D03*
X54991000Y-1016000D03*
X53975000Y2032000D03*
X52959000Y2032000D03*
X56007000Y2032000D03*
X51943000Y2032000D03*
X54991000Y2032000D03*
X50927000Y2032000D03*
X57023000Y2032000D03*
X46863000Y-120015000D03*
X50165000Y-116078000D03*
X54991000Y-116078000D03*
X58801000Y-112522000D03*
X58801000Y-119634000D03*
X56769000Y-38481000D03*
X48895000Y-38481000D03*
X56642000Y-43434000D03*
X51308000Y-43434000D03*
X47879000Y-120015000D03*
X59690000Y-123571000D03*
X48133000Y-103378000D03*
X48133000Y-109347000D03*
X58039000Y-109347000D03*
X58039000Y-103378000D03*
X57531000Y-95377000D03*
X47625000Y-95123000D03*
X47625000Y-85598000D03*
X55880000Y-83439000D03*
X50927000Y-35560000D03*
X49276000Y-35560000D03*
X58420000Y-34798000D03*
X59563000Y-120777000D03*
X60706000Y3048000D03*
X57912000Y-92075000D03*
X58928000Y-92075000D03*
X55705521Y-106426000D03*
X53205501Y-106426000D03*
X46639554Y-111614142D03*
X46564000Y-110617000D03*
X52070000Y-65405000D03*
X53340000Y-65405000D03*
X54610000Y-65405000D03*
D20*
X53975000Y12466000D02*
X53975000Y14716000D01*
X53975000Y12466000D02*
X55860000Y12466000D01*
X53975000Y12466000D02*
X52325000Y12466000D01*
D21*
X59962999Y-120377001D02*
X60089999Y-120377001D01*
X60089999Y-120377001D02*
X60741950Y-119725050D01*
X59563000Y-120777000D02*
X59962999Y-120377001D01*
X60741950Y-119725050D02*
X60741950Y-94600038D01*
X60741950Y-94600038D02*
X58081040Y-94600038D01*
X57325712Y-94600036D02*
X55836971Y-93111292D01*
X58081040Y-94600038D02*
X57325712Y-94600036D01*
X55836972Y-91167796D02*
X57004799Y-89999969D01*
X55836971Y-93111292D02*
X55836972Y-91167796D01*
X61638031Y-89999969D02*
X61641970Y-89996030D01*
X57004799Y-89999969D02*
X61638031Y-89999969D01*
X61641970Y-89996030D02*
X61641970Y-65855010D01*
X55232992Y-65855010D02*
X54921002Y-66167000D01*
X61641970Y-65855010D02*
X55232992Y-65855010D01*
X51344999Y-65056999D02*
X51721999Y-64679999D01*
X51758998Y-66167000D02*
X51344999Y-65753001D01*
X51344999Y-65753001D02*
X51344999Y-65056999D01*
X54921002Y-66167000D02*
X51758998Y-66167000D01*
X53255609Y-63779979D02*
X55330802Y-63779980D01*
X52355589Y-64679999D02*
X53255609Y-63779979D01*
X55330802Y-63779980D02*
X55605792Y-64054970D01*
X51721999Y-64679999D02*
X52355589Y-64679999D01*
X62691030Y-64054970D02*
X63149990Y-63596010D01*
X55605792Y-64054970D02*
X62691030Y-64054970D01*
X63149990Y-63596010D02*
X63149990Y2763010D01*
X62865000Y3048000D02*
X60706000Y3048000D01*
X63149990Y2763010D02*
X62865000Y3048000D01*
X60330199Y-128932895D02*
X60993094Y-128270000D01*
X60330199Y-138435199D02*
X60330199Y-128932895D01*
X61595000Y-139700000D02*
X60330199Y-138435199D01*
X62484000Y-128270000D02*
X62541990Y-128212010D01*
X60993094Y-128270000D02*
X62484000Y-128270000D01*
X62541990Y-128212010D02*
X62541990Y-92896400D01*
X57912000Y-92640685D02*
X57912000Y-92075000D01*
X58071316Y-92800001D02*
X57912000Y-92640685D01*
X62445591Y-92800001D02*
X58071316Y-92800001D01*
X62541990Y-92896400D02*
X62445591Y-92800001D01*
X58449990Y-138781010D02*
X59880189Y-137350811D01*
X58449990Y-140583151D02*
X58449990Y-138781010D01*
X60106839Y-142240000D02*
X58449990Y-140583151D01*
X61595000Y-142240000D02*
X60106839Y-142240000D01*
X59880190Y-128746494D02*
X60806694Y-127819990D01*
X59880189Y-137350811D02*
X59880190Y-128746494D01*
X61918010Y-127819990D02*
X62091980Y-127646020D01*
X60806694Y-127819990D02*
X61918010Y-127819990D01*
X62091980Y-127646020D02*
X62091980Y-93250011D01*
X58928000Y-91948000D02*
X58928000Y-92075000D01*
X57563999Y-91349999D02*
X58329999Y-91349999D01*
X58329999Y-91349999D02*
X58928000Y-91948000D01*
X57186999Y-91726999D02*
X57563999Y-91349999D01*
X57186999Y-92552094D02*
X57186999Y-91726999D01*
X57884915Y-93250010D02*
X57186999Y-92552094D01*
X62091980Y-93250011D02*
X57884915Y-93250010D01*
X55705521Y-106426000D02*
X53205501Y-106426000D01*
X46355000Y-129540000D02*
X45250020Y-128435020D01*
X45250020Y-128435020D02*
X45250020Y-111975980D01*
X45611858Y-111614142D02*
X46639554Y-111614142D01*
X45250020Y-111975980D02*
X45611858Y-111614142D01*
X46355000Y-132080000D02*
X44800010Y-130525010D01*
X44800010Y-130525010D02*
X44800010Y-111028990D01*
X45212000Y-110617000D02*
X46564000Y-110617000D01*
X44800010Y-111028990D02*
X45212000Y-110617000D01*
X62992000Y-148463000D02*
X62992000Y-65024000D01*
X61595000Y-149860000D02*
X62992000Y-148463000D01*
X55144401Y-64229989D02*
X55419392Y-64504980D01*
X53442009Y-64229989D02*
X55144401Y-64229989D01*
X52266998Y-65405000D02*
X53442009Y-64229989D01*
X52070000Y-65405000D02*
X52266998Y-65405000D01*
X62472980Y-64504980D02*
X62865000Y-64897000D01*
X55419392Y-64504980D02*
X62472980Y-64504980D01*
X62992000Y-65024000D02*
X62865000Y-64897000D01*
X53340000Y-65405000D02*
X53536998Y-65405000D01*
X55232992Y-64954990D02*
X54958001Y-64679999D01*
X62286580Y-64954990D02*
X55232992Y-64954990D01*
X62541990Y-65210400D02*
X62286580Y-64954990D01*
X54958001Y-64679999D02*
X54065001Y-64679999D01*
X62541990Y-90682988D02*
X62541990Y-65210400D01*
X57377599Y-90899989D02*
X62324989Y-90899989D01*
X56736990Y-91540598D02*
X57377599Y-90899989D01*
X56736989Y-92738494D02*
X56736990Y-91540598D01*
X54065001Y-64679999D02*
X53340000Y-65405000D01*
X61641970Y-93700020D02*
X57698514Y-93700019D01*
X61641970Y-127334030D02*
X61641970Y-93700020D01*
X59430180Y-137164410D02*
X59430181Y-128560093D01*
X59430181Y-128560093D02*
X60620294Y-127369980D01*
X61595000Y-147320000D02*
X61595000Y-146651906D01*
X57999981Y-138594609D02*
X59430180Y-137164410D01*
X61595000Y-146651906D02*
X60330199Y-145387105D01*
X57999980Y-140769551D02*
X57999981Y-138594609D01*
X62324989Y-90899989D02*
X62541990Y-90682988D01*
X57698514Y-93700019D02*
X56736989Y-92738494D01*
X60620294Y-127369980D02*
X61606020Y-127369980D01*
X60330199Y-145387105D02*
X60330199Y-143099770D01*
X60330199Y-143099770D02*
X57999980Y-140769551D01*
X61606020Y-127369980D02*
X61641970Y-127334030D01*
X62091980Y-65647980D02*
X61849000Y-65405000D01*
X61849000Y-65405000D02*
X54610000Y-65405000D01*
X62091980Y-90435020D02*
X62091980Y-65647980D01*
X60198000Y-163068000D02*
X60198000Y-145891316D01*
X62077021Y-90449979D02*
X62091980Y-90435020D01*
X57512113Y-94150028D02*
X56286980Y-92924893D01*
X58547000Y-164719000D02*
X60198000Y-163068000D01*
X46355000Y-142240000D02*
X46355000Y-142908094D01*
X61191960Y-94150029D02*
X57512113Y-94150028D01*
X60198000Y-145891316D02*
X59880189Y-145573505D01*
X61191960Y-126919970D02*
X61191960Y-94150029D01*
X60433894Y-126919970D02*
X61191960Y-126919970D01*
X58980171Y-136978009D02*
X58980172Y-128373692D01*
X57549972Y-138408208D02*
X58980171Y-136978009D01*
X46355000Y-142908094D02*
X44958000Y-144305094D01*
X56286981Y-91354197D02*
X57191199Y-90449979D01*
X59880189Y-143286170D02*
X57549971Y-140955950D01*
X58980172Y-128373692D02*
X60433894Y-126919970D01*
X59880189Y-145573505D02*
X59880189Y-143286170D01*
X44958000Y-144305094D02*
X44958000Y-163195000D01*
X44958000Y-163195000D02*
X46482000Y-164719000D01*
X57549971Y-140955950D02*
X57549972Y-138408208D01*
X57191199Y-90449979D02*
X62077021Y-90449979D01*
X46482000Y-164719000D02*
X58547000Y-164719000D01*
X56286980Y-92924893D02*
X56286981Y-91354197D01*
D22*
G36*
X62840001Y3809214D02*
G01*
X62827678Y3808000D01*
X61409711Y3808000D01*
X61365774Y3851937D01*
X61196256Y3965205D01*
X61007898Y4043226D01*
X60807939Y4083000D01*
X60604061Y4083000D01*
X60404102Y4043226D01*
X60215744Y3965205D01*
X60046226Y3851937D01*
X59902063Y3707774D01*
X59788795Y3538256D01*
X59710774Y3349898D01*
X59671000Y3149939D01*
X59671000Y2946061D01*
X59710774Y2746102D01*
X59788795Y2557744D01*
X59902063Y2388226D01*
X60046226Y2244063D01*
X60215744Y2130795D01*
X60404102Y2052774D01*
X60604061Y2013000D01*
X60807939Y2013000D01*
X61007898Y2052774D01*
X61196256Y2130795D01*
X61365774Y2244063D01*
X61409711Y2288000D01*
X62389991Y2288000D01*
X62389990Y-63281208D01*
X62376229Y-63294970D01*
X55920593Y-63294970D01*
X55894601Y-63268978D01*
X55870803Y-63239980D01*
X55841803Y-63216180D01*
X55755078Y-63145006D01*
X55623048Y-63074434D01*
X55523244Y-63044160D01*
X55479788Y-63030978D01*
X55368135Y-63019981D01*
X55330802Y-63016304D01*
X55293470Y-63019981D01*
X53292931Y-63019979D01*
X53255608Y-63016303D01*
X53218285Y-63019979D01*
X53218277Y-63019979D01*
X53106624Y-63030976D01*
X52963363Y-63074433D01*
X52848385Y-63135891D01*
X52831332Y-63145006D01*
X52744605Y-63216180D01*
X52744596Y-63216189D01*
X52715609Y-63239978D01*
X52691819Y-63268966D01*
X52040787Y-63919999D01*
X51759332Y-63919999D01*
X51721999Y-63916322D01*
X51684666Y-63919999D01*
X51573013Y-63930996D01*
X51429752Y-63974453D01*
X51297723Y-64045025D01*
X51181998Y-64139998D01*
X51158195Y-64169002D01*
X50833997Y-64493200D01*
X50804999Y-64516998D01*
X50781201Y-64545996D01*
X50781200Y-64545997D01*
X50710025Y-64632723D01*
X50639453Y-64764753D01*
X50629603Y-64797226D01*
X50595996Y-64908013D01*
X50584999Y-65019666D01*
X50584999Y-65019677D01*
X50581323Y-65056999D01*
X50584999Y-65094321D01*
X50584999Y-65715679D01*
X50581323Y-65753001D01*
X50584999Y-65790323D01*
X50584999Y-65790333D01*
X50595996Y-65901986D01*
X50639453Y-66045247D01*
X50710025Y-66177277D01*
X50749870Y-66225827D01*
X50804998Y-66293002D01*
X50834002Y-66316805D01*
X51195194Y-66677997D01*
X51218997Y-66707001D01*
X51334722Y-66801974D01*
X51466751Y-66872546D01*
X51610012Y-66916003D01*
X51721665Y-66927000D01*
X51721675Y-66927000D01*
X51758997Y-66930676D01*
X51796320Y-66927000D01*
X54883680Y-66927000D01*
X54921002Y-66930676D01*
X54958324Y-66927000D01*
X54958335Y-66927000D01*
X55069988Y-66916003D01*
X55213249Y-66872546D01*
X55345278Y-66801974D01*
X55461003Y-66707001D01*
X55484805Y-66677998D01*
X55547793Y-66615010D01*
X60881971Y-66615010D01*
X60881970Y-89239969D01*
X57042124Y-89239969D01*
X57004799Y-89236293D01*
X56967474Y-89239969D01*
X56967466Y-89239969D01*
X56855813Y-89250966D01*
X56712552Y-89294423D01*
X56580523Y-89364995D01*
X56464798Y-89459968D01*
X56441000Y-89488966D01*
X55325970Y-90603997D01*
X55296972Y-90627795D01*
X55273174Y-90656793D01*
X55273173Y-90656794D01*
X55201998Y-90743520D01*
X55131426Y-90875550D01*
X55105512Y-90960982D01*
X55087970Y-91018810D01*
X55081455Y-91084953D01*
X55073296Y-91167796D01*
X55076973Y-91205128D01*
X55076971Y-93073969D01*
X55073295Y-93111292D01*
X55076971Y-93148617D01*
X55076971Y-93148624D01*
X55087968Y-93260277D01*
X55131425Y-93403538D01*
X55199756Y-93531374D01*
X55201997Y-93535567D01*
X55273171Y-93622294D01*
X55273176Y-93622299D01*
X55296970Y-93651292D01*
X55325962Y-93675085D01*
X56761920Y-95111047D01*
X56785710Y-95140035D01*
X56814697Y-95163824D01*
X56814708Y-95163835D01*
X56901435Y-95235009D01*
X57033464Y-95305582D01*
X57176725Y-95349038D01*
X57288377Y-95360035D01*
X57288378Y-95360035D01*
X57325711Y-95363712D01*
X57363044Y-95360035D01*
X58043704Y-95360038D01*
X59981951Y-95360038D01*
X59981950Y-119410248D01*
X59742511Y-119649687D01*
X59670752Y-119671455D01*
X59538774Y-119742000D01*
X59461061Y-119742000D01*
X59261102Y-119781774D01*
X59072744Y-119859795D01*
X58903226Y-119973063D01*
X58759063Y-120117226D01*
X58645795Y-120286744D01*
X58567774Y-120475102D01*
X58528000Y-120675061D01*
X58528000Y-120878939D01*
X58567774Y-121078898D01*
X58645795Y-121267256D01*
X58759063Y-121436774D01*
X58903226Y-121580937D01*
X59072744Y-121694205D01*
X59261102Y-121772226D01*
X59461061Y-121812000D01*
X59664939Y-121812000D01*
X59864898Y-121772226D01*
X60053256Y-121694205D01*
X60222774Y-121580937D01*
X60366937Y-121436774D01*
X60431960Y-121339460D01*
X60431960Y-126156484D01*
X60396570Y-126159970D01*
X60396561Y-126159970D01*
X60284908Y-126170967D01*
X60141647Y-126214424D01*
X60009618Y-126284996D01*
X59893893Y-126379969D01*
X59870095Y-126408967D01*
X58469170Y-127809893D01*
X58440172Y-127833691D01*
X58416374Y-127862689D01*
X58416373Y-127862690D01*
X58345198Y-127949416D01*
X58274626Y-128081446D01*
X58258133Y-128135818D01*
X58231170Y-128224706D01*
X58226921Y-128267846D01*
X58216496Y-128373692D01*
X58220173Y-128411024D01*
X58220171Y-136663207D01*
X57038970Y-137844409D01*
X57009972Y-137868207D01*
X56986174Y-137897205D01*
X56986173Y-137897206D01*
X56914998Y-137983932D01*
X56844426Y-138115962D01*
X56827933Y-138170334D01*
X56800970Y-138259222D01*
X56796721Y-138302362D01*
X56786296Y-138408208D01*
X56789973Y-138445540D01*
X56789971Y-140918627D01*
X56786295Y-140955950D01*
X56789971Y-140993272D01*
X56789971Y-140993282D01*
X56800968Y-141104935D01*
X56844425Y-141248196D01*
X56914997Y-141380225D01*
X57009970Y-141495950D01*
X57038968Y-141519748D01*
X59120190Y-143600973D01*
X59120189Y-145536182D01*
X59116513Y-145573505D01*
X59120189Y-145610827D01*
X59120189Y-145610837D01*
X59131186Y-145722490D01*
X59171073Y-145853983D01*
X59174643Y-145865751D01*
X59245215Y-145997781D01*
X59285060Y-146046331D01*
X59340188Y-146113506D01*
X59369192Y-146137309D01*
X59438001Y-146206118D01*
X59438000Y-162753198D01*
X58232199Y-163959000D01*
X47089056Y-163959000D01*
X47179377Y-163910723D01*
X47267871Y-163652476D01*
X46355000Y-162739605D01*
X46340858Y-162753748D01*
X46161253Y-162574143D01*
X46175395Y-162560000D01*
X46534605Y-162560000D01*
X47447476Y-163472871D01*
X47705723Y-163384377D01*
X47840597Y-163105024D01*
X47918381Y-162804725D01*
X47936084Y-162495023D01*
X47893027Y-162187816D01*
X47790865Y-161894914D01*
X47705723Y-161735623D01*
X47447476Y-161647129D01*
X46534605Y-162560000D01*
X46175395Y-162560000D01*
X46161253Y-162545858D01*
X46340858Y-162366253D01*
X46355000Y-162380395D01*
X47267871Y-161467524D01*
X47222286Y-161334495D01*
X47358877Y-161243227D01*
X47578227Y-161023877D01*
X47750570Y-160765948D01*
X47869282Y-160479352D01*
X47929800Y-160175104D01*
X47929800Y-159864896D01*
X47869282Y-159560648D01*
X47750570Y-159274052D01*
X47578227Y-159016123D01*
X47358877Y-158796773D01*
X47348741Y-158790000D01*
X50531928Y-158790000D01*
X50544188Y-158914482D01*
X50580498Y-159034180D01*
X50639463Y-159144494D01*
X50718815Y-159241185D01*
X50815506Y-159320537D01*
X50925820Y-159379502D01*
X51045518Y-159415812D01*
X51170000Y-159428072D01*
X51784250Y-159425000D01*
X51943000Y-159266250D01*
X51943000Y-157117000D01*
X52197000Y-157117000D01*
X52197000Y-159266250D01*
X52355750Y-159425000D01*
X52970000Y-159428072D01*
X53094482Y-159415812D01*
X53214180Y-159379502D01*
X53324494Y-159320537D01*
X53421185Y-159241185D01*
X53500537Y-159144494D01*
X53559502Y-159034180D01*
X53595812Y-158914482D01*
X53608072Y-158790000D01*
X53605000Y-157275750D01*
X53446250Y-157117000D01*
X52197000Y-157117000D01*
X51943000Y-157117000D01*
X50693750Y-157117000D01*
X50535000Y-157275750D01*
X50531928Y-158790000D01*
X47348741Y-158790000D01*
X47288876Y-158750000D01*
X47358877Y-158703227D01*
X47578227Y-158483877D01*
X47750570Y-158225948D01*
X47869282Y-157939352D01*
X47929800Y-157635104D01*
X47929800Y-157324896D01*
X47869282Y-157020648D01*
X47750570Y-156734052D01*
X47578227Y-156476123D01*
X47358877Y-156256773D01*
X47288876Y-156210000D01*
X47358877Y-156163227D01*
X47578227Y-155943877D01*
X47750570Y-155685948D01*
X47869282Y-155399352D01*
X47910924Y-155190000D01*
X50531928Y-155190000D01*
X50535000Y-156704250D01*
X50693750Y-156863000D01*
X51943000Y-156863000D01*
X51943000Y-154713750D01*
X52197000Y-154713750D01*
X52197000Y-156863000D01*
X53446250Y-156863000D01*
X53605000Y-156704250D01*
X53606399Y-156014593D01*
X54345000Y-156014593D01*
X54345000Y-157965408D01*
X54367211Y-158190913D01*
X54454984Y-158480261D01*
X54597520Y-158746927D01*
X54789340Y-158980661D01*
X55023074Y-159172481D01*
X55289740Y-159315017D01*
X55579088Y-159402790D01*
X55880000Y-159432427D01*
X56180913Y-159402790D01*
X56470261Y-159315017D01*
X56736927Y-159172481D01*
X56970661Y-158980661D01*
X57162481Y-158746927D01*
X57305017Y-158480261D01*
X57392790Y-158190913D01*
X57415000Y-157965408D01*
X57415000Y-156014592D01*
X57392790Y-155789087D01*
X57305017Y-155499739D01*
X57162481Y-155233073D01*
X56970661Y-154999339D01*
X56736926Y-154807519D01*
X56470260Y-154664983D01*
X56180912Y-154577210D01*
X55880000Y-154547573D01*
X55579087Y-154577210D01*
X55289739Y-154664983D01*
X55023073Y-154807519D01*
X54789339Y-154999339D01*
X54597519Y-155233074D01*
X54454983Y-155499740D01*
X54367210Y-155789088D01*
X54345000Y-156014593D01*
X53606399Y-156014593D01*
X53608072Y-155190000D01*
X53595812Y-155065518D01*
X53559502Y-154945820D01*
X53500537Y-154835506D01*
X53421185Y-154738815D01*
X53324494Y-154659463D01*
X53214180Y-154600498D01*
X53094482Y-154564188D01*
X52970000Y-154551928D01*
X52355750Y-154555000D01*
X52197000Y-154713750D01*
X51943000Y-154713750D01*
X51784250Y-154555000D01*
X51170000Y-154551928D01*
X51045518Y-154564188D01*
X50925820Y-154600498D01*
X50815506Y-154659463D01*
X50718815Y-154738815D01*
X50639463Y-154835506D01*
X50580498Y-154945820D01*
X50544188Y-155065518D01*
X50531928Y-155190000D01*
X47910924Y-155190000D01*
X47929800Y-155095104D01*
X47929800Y-154784896D01*
X47869282Y-154480648D01*
X47750570Y-154194052D01*
X47578227Y-153936123D01*
X47358877Y-153716773D01*
X47288876Y-153670000D01*
X47358877Y-153623227D01*
X47578227Y-153403877D01*
X47750570Y-153145948D01*
X47869282Y-152859352D01*
X47929800Y-152555104D01*
X47929800Y-152244896D01*
X47869282Y-151940648D01*
X47750570Y-151654052D01*
X47578227Y-151396123D01*
X47358877Y-151176773D01*
X47288876Y-151130000D01*
X47358877Y-151083227D01*
X47578227Y-150863877D01*
X47750570Y-150605948D01*
X47869282Y-150319352D01*
X47929800Y-150015104D01*
X47929800Y-149704896D01*
X47869282Y-149400648D01*
X47750570Y-149114052D01*
X47578227Y-148856123D01*
X47358877Y-148636773D01*
X47288876Y-148590000D01*
X47358877Y-148543227D01*
X47578227Y-148323877D01*
X47750570Y-148065948D01*
X47869282Y-147779352D01*
X47929800Y-147475104D01*
X47929800Y-147164896D01*
X47869282Y-146860648D01*
X47750570Y-146574052D01*
X47578227Y-146316123D01*
X47358877Y-146096773D01*
X47288876Y-146050000D01*
X47358877Y-146003227D01*
X47518606Y-145843498D01*
X47543168Y-145889449D01*
X47697499Y-146077502D01*
X47885552Y-146231833D01*
X48100100Y-146346511D01*
X48332899Y-146417130D01*
X48575000Y-146440975D01*
X48817102Y-146417130D01*
X49049901Y-146346511D01*
X49264449Y-146231833D01*
X49452502Y-146077502D01*
X49606833Y-145889449D01*
X49721511Y-145674901D01*
X49792130Y-145442102D01*
X49810000Y-145260665D01*
X49810000Y-144139335D01*
X49792130Y-143957898D01*
X49721511Y-143725099D01*
X49606833Y-143510551D01*
X49452502Y-143322498D01*
X49264448Y-143168167D01*
X49049900Y-143053489D01*
X48817101Y-142982870D01*
X48575000Y-142959025D01*
X48332898Y-142982870D01*
X48100099Y-143053489D01*
X47885551Y-143168167D01*
X47697498Y-143322498D01*
X47543167Y-143510552D01*
X47462874Y-143660770D01*
X47358877Y-143556773D01*
X47288876Y-143510000D01*
X47358877Y-143463227D01*
X47578227Y-143243877D01*
X47750570Y-142985948D01*
X47869282Y-142699352D01*
X47929800Y-142395104D01*
X47929800Y-142084896D01*
X47869282Y-141780648D01*
X47750570Y-141494052D01*
X47578227Y-141236123D01*
X47358877Y-141016773D01*
X47288876Y-140970000D01*
X47358877Y-140923227D01*
X47578227Y-140703877D01*
X47750570Y-140445948D01*
X47869282Y-140159352D01*
X47929800Y-139855104D01*
X47929800Y-139544896D01*
X47869282Y-139240648D01*
X47750570Y-138954052D01*
X47578227Y-138696123D01*
X47358877Y-138476773D01*
X47288876Y-138430000D01*
X47358877Y-138383227D01*
X47578227Y-138163877D01*
X47750570Y-137905948D01*
X47869282Y-137619352D01*
X47929800Y-137315104D01*
X47929800Y-137004896D01*
X47869282Y-136700648D01*
X47750570Y-136414052D01*
X47578227Y-136156123D01*
X47358877Y-135936773D01*
X47288876Y-135890000D01*
X47358877Y-135843227D01*
X47462874Y-135739230D01*
X47543168Y-135889449D01*
X47697499Y-136077502D01*
X47885552Y-136231833D01*
X48100100Y-136346511D01*
X48332899Y-136417130D01*
X48575000Y-136440975D01*
X48817102Y-136417130D01*
X49049901Y-136346511D01*
X49264449Y-136231833D01*
X49452502Y-136077502D01*
X49606833Y-135889449D01*
X49721511Y-135674901D01*
X49792130Y-135442102D01*
X49810000Y-135260665D01*
X49810000Y-134139335D01*
X49792130Y-133957898D01*
X49721511Y-133725099D01*
X49606833Y-133510551D01*
X49452502Y-133322498D01*
X49264448Y-133168167D01*
X49049900Y-133053489D01*
X48817101Y-132982870D01*
X48575000Y-132959025D01*
X48332898Y-132982870D01*
X48100099Y-133053489D01*
X47885551Y-133168167D01*
X47697498Y-133322498D01*
X47543167Y-133510552D01*
X47518606Y-133556502D01*
X47358877Y-133396773D01*
X47288876Y-133350000D01*
X47358877Y-133303227D01*
X47578227Y-133083877D01*
X47750570Y-132825948D01*
X47869282Y-132539352D01*
X47929800Y-132235104D01*
X47929800Y-131924896D01*
X47869282Y-131620648D01*
X47750570Y-131334052D01*
X47578227Y-131076123D01*
X47358877Y-130856773D01*
X47288876Y-130810000D01*
X47358877Y-130763227D01*
X47578227Y-130543877D01*
X47750570Y-130285948D01*
X47869282Y-129999352D01*
X47929800Y-129695104D01*
X47929800Y-129384896D01*
X47869282Y-129080648D01*
X47750570Y-128794052D01*
X47578227Y-128536123D01*
X47358877Y-128316773D01*
X47100948Y-128144430D01*
X46814352Y-128025718D01*
X46510104Y-127965200D01*
X46199896Y-127965200D01*
X46010020Y-128002968D01*
X46010020Y-126028148D01*
X51951457Y-126028148D01*
X52227627Y-126446118D01*
X52772557Y-126736649D01*
X53363696Y-126915287D01*
X53978328Y-126975168D01*
X54592831Y-126913990D01*
X55183592Y-126734103D01*
X55722373Y-126446118D01*
X55998543Y-126028148D01*
X53975000Y-124004605D01*
X51951457Y-126028148D01*
X46010020Y-126028148D01*
X46010020Y-123828328D01*
X50824832Y-123828328D01*
X50886010Y-124442831D01*
X51065897Y-125033592D01*
X51353882Y-125572373D01*
X51771852Y-125848543D01*
X53795395Y-123825000D01*
X54154605Y-123825000D01*
X56178148Y-125848543D01*
X56596118Y-125572373D01*
X56886649Y-125027443D01*
X57065287Y-124436304D01*
X57125168Y-123821672D01*
X57063990Y-123207169D01*
X56884103Y-122616408D01*
X56596118Y-122077627D01*
X56178148Y-121801457D01*
X54154605Y-123825000D01*
X53795395Y-123825000D01*
X51771852Y-121801457D01*
X51353882Y-122077627D01*
X51063351Y-122622557D01*
X50884713Y-123213696D01*
X50824832Y-123828328D01*
X46010020Y-123828328D01*
X46010020Y-121621852D01*
X51951457Y-121621852D01*
X53975000Y-123645395D01*
X55998543Y-121621852D01*
X55722373Y-121203882D01*
X55177443Y-120913351D01*
X54586304Y-120734713D01*
X53971672Y-120674832D01*
X53357169Y-120736010D01*
X52766408Y-120915897D01*
X52227627Y-121203882D01*
X51951457Y-121621852D01*
X46010020Y-121621852D01*
X46010020Y-112438285D01*
X46149298Y-112531347D01*
X46337656Y-112609368D01*
X46537615Y-112649142D01*
X46741493Y-112649142D01*
X46941452Y-112609368D01*
X47129810Y-112531347D01*
X47299328Y-112418079D01*
X47443491Y-112273916D01*
X47556759Y-112104398D01*
X47634780Y-111916040D01*
X47674554Y-111716081D01*
X47674554Y-111512203D01*
X47634780Y-111312244D01*
X47556759Y-111123886D01*
X47505866Y-111047719D01*
X47559226Y-110918898D01*
X47599000Y-110718939D01*
X47599000Y-110515061D01*
X47559226Y-110315102D01*
X47481205Y-110126744D01*
X47367937Y-109957226D01*
X47223774Y-109813063D01*
X47054256Y-109699795D01*
X46865898Y-109621774D01*
X46665939Y-109582000D01*
X46462061Y-109582000D01*
X46262102Y-109621774D01*
X46073744Y-109699795D01*
X45904226Y-109813063D01*
X45860289Y-109857000D01*
X45249323Y-109857000D01*
X45212000Y-109853324D01*
X45174677Y-109857000D01*
X45174667Y-109857000D01*
X45110000Y-109863369D01*
X45110000Y-106324061D01*
X52170501Y-106324061D01*
X52170501Y-106527939D01*
X52210275Y-106727898D01*
X52288296Y-106916256D01*
X52401564Y-107085774D01*
X52545727Y-107229937D01*
X52715245Y-107343205D01*
X52903603Y-107421226D01*
X53103562Y-107461000D01*
X53307440Y-107461000D01*
X53507399Y-107421226D01*
X53695757Y-107343205D01*
X53865275Y-107229937D01*
X53909212Y-107186000D01*
X55001810Y-107186000D01*
X55045747Y-107229937D01*
X55215265Y-107343205D01*
X55403623Y-107421226D01*
X55603582Y-107461000D01*
X55807460Y-107461000D01*
X56007419Y-107421226D01*
X56195777Y-107343205D01*
X56365295Y-107229937D01*
X56509458Y-107085774D01*
X56622726Y-106916256D01*
X56700747Y-106727898D01*
X56740521Y-106527939D01*
X56740521Y-106324061D01*
X56700747Y-106124102D01*
X56622726Y-105935744D01*
X56509458Y-105766226D01*
X56365295Y-105622063D01*
X56195777Y-105508795D01*
X56007419Y-105430774D01*
X55807460Y-105391000D01*
X55603582Y-105391000D01*
X55403623Y-105430774D01*
X55215265Y-105508795D01*
X55045747Y-105622063D01*
X55001810Y-105666000D01*
X53909212Y-105666000D01*
X53865275Y-105622063D01*
X53695757Y-105508795D01*
X53507399Y-105430774D01*
X53307440Y-105391000D01*
X53103562Y-105391000D01*
X52903603Y-105430774D01*
X52715245Y-105508795D01*
X52545727Y-105622063D01*
X52401564Y-105766226D01*
X52288296Y-105935744D01*
X52210275Y-106124102D01*
X52170501Y-106324061D01*
X45110000Y-106324061D01*
X45110000Y-75228148D01*
X51951457Y-75228148D01*
X52227627Y-75646118D01*
X52772557Y-75936649D01*
X53363696Y-76115287D01*
X53978328Y-76175168D01*
X54592831Y-76113990D01*
X55183592Y-75934103D01*
X55722373Y-75646118D01*
X55998543Y-75228148D01*
X53975000Y-73204605D01*
X51951457Y-75228148D01*
X45110000Y-75228148D01*
X45110000Y-73028328D01*
X50824832Y-73028328D01*
X50886010Y-73642831D01*
X51065897Y-74233592D01*
X51353882Y-74772373D01*
X51771852Y-75048543D01*
X53795395Y-73025000D01*
X54154605Y-73025000D01*
X56178148Y-75048543D01*
X56596118Y-74772373D01*
X56886649Y-74227443D01*
X57065287Y-73636304D01*
X57125168Y-73021672D01*
X57063990Y-72407169D01*
X56884103Y-71816408D01*
X56596118Y-71277627D01*
X56178148Y-71001457D01*
X54154605Y-73025000D01*
X53795395Y-73025000D01*
X51771852Y-71001457D01*
X51353882Y-71277627D01*
X51063351Y-71822557D01*
X50884713Y-72413696D01*
X50824832Y-73028328D01*
X45110000Y-73028328D01*
X45110000Y-70821852D01*
X51951457Y-70821852D01*
X53975000Y-72845395D01*
X55998543Y-70821852D01*
X55722373Y-70403882D01*
X55177443Y-70113351D01*
X54586304Y-69934713D01*
X53971672Y-69874832D01*
X53357169Y-69936010D01*
X52766408Y-70115897D01*
X52227627Y-70403882D01*
X51951457Y-70821852D01*
X45110000Y-70821852D01*
X45110000Y-59895897D01*
X48173208Y-59895897D01*
X48250843Y-60144972D01*
X48514883Y-60270871D01*
X48798411Y-60342839D01*
X49090531Y-60358111D01*
X49380019Y-60316099D01*
X49655747Y-60218419D01*
X49793157Y-60144972D01*
X49870792Y-59895897D01*
X58079208Y-59895897D01*
X58156843Y-60144972D01*
X58420883Y-60270871D01*
X58704411Y-60342839D01*
X58996531Y-60358111D01*
X59286019Y-60316099D01*
X59561747Y-60218419D01*
X59699157Y-60144972D01*
X59776792Y-59895897D01*
X58928000Y-59047105D01*
X58079208Y-59895897D01*
X49870792Y-59895897D01*
X49022000Y-59047105D01*
X48173208Y-59895897D01*
X45110000Y-59895897D01*
X45110000Y-58936031D01*
X47531389Y-58936031D01*
X47573401Y-59225519D01*
X47671081Y-59501247D01*
X47744528Y-59638657D01*
X47993603Y-59716292D01*
X48842395Y-58867500D01*
X49201605Y-58867500D01*
X50050397Y-59716292D01*
X50299472Y-59638657D01*
X50425371Y-59374617D01*
X50497339Y-59091089D01*
X50505445Y-58936031D01*
X57437389Y-58936031D01*
X57479401Y-59225519D01*
X57577081Y-59501247D01*
X57650528Y-59638657D01*
X57899603Y-59716292D01*
X58748395Y-58867500D01*
X59107605Y-58867500D01*
X59956397Y-59716292D01*
X60205472Y-59638657D01*
X60331371Y-59374617D01*
X60403339Y-59091089D01*
X60418611Y-58798969D01*
X60376599Y-58509481D01*
X60278919Y-58233753D01*
X60205472Y-58096343D01*
X59956397Y-58018708D01*
X59107605Y-58867500D01*
X58748395Y-58867500D01*
X57899603Y-58018708D01*
X57650528Y-58096343D01*
X57524629Y-58360383D01*
X57452661Y-58643911D01*
X57437389Y-58936031D01*
X50505445Y-58936031D01*
X50512611Y-58798969D01*
X50470599Y-58509481D01*
X50372919Y-58233753D01*
X50299472Y-58096343D01*
X50050397Y-58018708D01*
X49201605Y-58867500D01*
X48842395Y-58867500D01*
X47993603Y-58018708D01*
X47744528Y-58096343D01*
X47618629Y-58360383D01*
X47546661Y-58643911D01*
X47531389Y-58936031D01*
X45110000Y-58936031D01*
X45110000Y-57839103D01*
X48173208Y-57839103D01*
X49022000Y-58687895D01*
X49870792Y-57839103D01*
X58079208Y-57839103D01*
X58928000Y-58687895D01*
X59776792Y-57839103D01*
X59699157Y-57590028D01*
X59435117Y-57464129D01*
X59151589Y-57392161D01*
X58859469Y-57376889D01*
X58569981Y-57418901D01*
X58294253Y-57516581D01*
X58156843Y-57590028D01*
X58079208Y-57839103D01*
X49870792Y-57839103D01*
X49793157Y-57590028D01*
X49529117Y-57464129D01*
X49245589Y-57392161D01*
X48953469Y-57376889D01*
X48663981Y-57418901D01*
X48388253Y-57516581D01*
X48250843Y-57590028D01*
X48173208Y-57839103D01*
X45110000Y-57839103D01*
X45110000Y-55621240D01*
X47537000Y-55621240D01*
X47537000Y-55913760D01*
X47594068Y-56200658D01*
X47706010Y-56470911D01*
X47868525Y-56714132D01*
X48075368Y-56920975D01*
X48318589Y-57083490D01*
X48588842Y-57195432D01*
X48875740Y-57252500D01*
X49168260Y-57252500D01*
X49455158Y-57195432D01*
X49725411Y-57083490D01*
X49968632Y-56920975D01*
X50175475Y-56714132D01*
X50337990Y-56470911D01*
X50449932Y-56200658D01*
X50507000Y-55913760D01*
X50507000Y-55621240D01*
X57443000Y-55621240D01*
X57443000Y-55913760D01*
X57500068Y-56200658D01*
X57612010Y-56470911D01*
X57774525Y-56714132D01*
X57981368Y-56920975D01*
X58224589Y-57083490D01*
X58494842Y-57195432D01*
X58781740Y-57252500D01*
X59074260Y-57252500D01*
X59361158Y-57195432D01*
X59631411Y-57083490D01*
X59874632Y-56920975D01*
X60081475Y-56714132D01*
X60243990Y-56470911D01*
X60355932Y-56200658D01*
X60413000Y-55913760D01*
X60413000Y-55621240D01*
X60355932Y-55334342D01*
X60243990Y-55064089D01*
X60081475Y-54820868D01*
X59874632Y-54614025D01*
X59631411Y-54451510D01*
X59361158Y-54339568D01*
X59074260Y-54282500D01*
X58781740Y-54282500D01*
X58494842Y-54339568D01*
X58224589Y-54451510D01*
X57981368Y-54614025D01*
X57774525Y-54820868D01*
X57612010Y-55064089D01*
X57500068Y-55334342D01*
X57443000Y-55621240D01*
X50507000Y-55621240D01*
X50449932Y-55334342D01*
X50337990Y-55064089D01*
X50175475Y-54820868D01*
X49968632Y-54614025D01*
X49725411Y-54451510D01*
X49455158Y-54339568D01*
X49168260Y-54282500D01*
X48875740Y-54282500D01*
X48588842Y-54339568D01*
X48318589Y-54451510D01*
X48075368Y-54614025D01*
X47868525Y-54820868D01*
X47706010Y-55064089D01*
X47594068Y-55334342D01*
X47537000Y-55621240D01*
X45110000Y-55621240D01*
X45110000Y-47321240D01*
X47537000Y-47321240D01*
X47537000Y-47613760D01*
X47594068Y-47900658D01*
X47706010Y-48170911D01*
X47868525Y-48414132D01*
X48075368Y-48620975D01*
X48318589Y-48783490D01*
X48588842Y-48895432D01*
X48875740Y-48952500D01*
X49168260Y-48952500D01*
X49455158Y-48895432D01*
X49725411Y-48783490D01*
X49968632Y-48620975D01*
X50175475Y-48414132D01*
X50337990Y-48170911D01*
X50449932Y-47900658D01*
X50507000Y-47613760D01*
X50507000Y-47321240D01*
X57443000Y-47321240D01*
X57443000Y-47613760D01*
X57500068Y-47900658D01*
X57612010Y-48170911D01*
X57774525Y-48414132D01*
X57981368Y-48620975D01*
X58224589Y-48783490D01*
X58494842Y-48895432D01*
X58781740Y-48952500D01*
X59074260Y-48952500D01*
X59361158Y-48895432D01*
X59631411Y-48783490D01*
X59874632Y-48620975D01*
X60081475Y-48414132D01*
X60243990Y-48170911D01*
X60355932Y-47900658D01*
X60413000Y-47613760D01*
X60413000Y-47321240D01*
X60355932Y-47034342D01*
X60243990Y-46764089D01*
X60081475Y-46520868D01*
X59874632Y-46314025D01*
X59631411Y-46151510D01*
X59361158Y-46039568D01*
X59074260Y-45982500D01*
X58781740Y-45982500D01*
X58494842Y-46039568D01*
X58224589Y-46151510D01*
X57981368Y-46314025D01*
X57774525Y-46520868D01*
X57612010Y-46764089D01*
X57500068Y-47034342D01*
X57443000Y-47321240D01*
X50507000Y-47321240D01*
X50449932Y-47034342D01*
X50337990Y-46764089D01*
X50175475Y-46520868D01*
X49968632Y-46314025D01*
X49725411Y-46151510D01*
X49455158Y-46039568D01*
X49168260Y-45982500D01*
X48875740Y-45982500D01*
X48588842Y-46039568D01*
X48318589Y-46151510D01*
X48075368Y-46314025D01*
X47868525Y-46520868D01*
X47706010Y-46764089D01*
X47594068Y-47034342D01*
X47537000Y-47321240D01*
X45110000Y-47321240D01*
X45110000Y-24428148D01*
X51951457Y-24428148D01*
X52227627Y-24846118D01*
X52772557Y-25136649D01*
X53363696Y-25315287D01*
X53978328Y-25375168D01*
X54592831Y-25313990D01*
X55183592Y-25134103D01*
X55722373Y-24846118D01*
X55998543Y-24428148D01*
X53975000Y-22404605D01*
X51951457Y-24428148D01*
X45110000Y-24428148D01*
X45110000Y-22228328D01*
X50824832Y-22228328D01*
X50886010Y-22842831D01*
X51065897Y-23433592D01*
X51353882Y-23972373D01*
X51771852Y-24248543D01*
X53795395Y-22225000D01*
X54154605Y-22225000D01*
X56178148Y-24248543D01*
X56596118Y-23972373D01*
X56886649Y-23427443D01*
X57065287Y-22836304D01*
X57125168Y-22221672D01*
X57063990Y-21607169D01*
X56884103Y-21016408D01*
X56596118Y-20477627D01*
X56178148Y-20201457D01*
X54154605Y-22225000D01*
X53795395Y-22225000D01*
X51771852Y-20201457D01*
X51353882Y-20477627D01*
X51063351Y-21022557D01*
X50884713Y-21613696D01*
X50824832Y-22228328D01*
X45110000Y-22228328D01*
X45110000Y-20021852D01*
X51951457Y-20021852D01*
X53975000Y-22045395D01*
X55998543Y-20021852D01*
X55722373Y-19603882D01*
X55177443Y-19313351D01*
X54586304Y-19134713D01*
X53971672Y-19074832D01*
X53357169Y-19136010D01*
X52766408Y-19315897D01*
X52227627Y-19603882D01*
X51951457Y-20021852D01*
X45110000Y-20021852D01*
X45110000Y15066000D01*
X47836928Y15066000D01*
X47840000Y12751750D01*
X47998750Y12593000D01*
X48331605Y12593000D01*
X48320064Y12581459D01*
X48326345Y12466000D01*
X48320064Y12350541D01*
X48331605Y12339000D01*
X47998750Y12339000D01*
X47840000Y12180250D01*
X47836928Y9866000D01*
X47849188Y9741518D01*
X47885498Y9621820D01*
X47944463Y9511506D01*
X48023815Y9414815D01*
X48120506Y9335463D01*
X48230820Y9276498D01*
X48350518Y9240188D01*
X48475000Y9227928D01*
X53689250Y9231000D01*
X53763130Y9304880D01*
X53881176Y9281172D01*
X54065355Y9280829D01*
X54186965Y9304785D01*
X54260750Y9231000D01*
X59475000Y9227928D01*
X59599482Y9240188D01*
X59719180Y9276498D01*
X59829494Y9335463D01*
X59926185Y9414815D01*
X60005537Y9511506D01*
X60064502Y9621820D01*
X60100812Y9741518D01*
X60113072Y9866000D01*
X60110000Y12180250D01*
X59951250Y12339000D01*
X59618395Y12339000D01*
X59629936Y12350541D01*
X59623655Y12466000D01*
X59629936Y12581459D01*
X59618395Y12593000D01*
X59951250Y12593000D01*
X60110000Y12751750D01*
X60113072Y15066000D01*
X60100812Y15190482D01*
X60064502Y15310180D01*
X60005537Y15420494D01*
X59926185Y15517185D01*
X59829494Y15596537D01*
X59719180Y15655502D01*
X59599482Y15691812D01*
X59475000Y15704072D01*
X54260750Y15701000D01*
X54186870Y15627120D01*
X54068824Y15650828D01*
X53884645Y15651171D01*
X53763035Y15627215D01*
X53689250Y15701000D01*
X48475000Y15704072D01*
X48350518Y15691812D01*
X48230820Y15655502D01*
X48120506Y15596537D01*
X48023815Y15517185D01*
X47944463Y15420494D01*
X47885498Y15310180D01*
X47849188Y15190482D01*
X47836928Y15066000D01*
X45110000Y15066000D01*
X45110000Y26371852D01*
X51951457Y26371852D01*
X52227627Y25953882D01*
X52772557Y25663351D01*
X53363696Y25484713D01*
X53978328Y25424832D01*
X54592831Y25486010D01*
X55183592Y25665897D01*
X55722373Y25953882D01*
X55998543Y26371852D01*
X53975000Y28395395D01*
X51951457Y26371852D01*
X45110000Y26371852D01*
X45110000Y28571672D01*
X50824832Y28571672D01*
X50886010Y27957169D01*
X51065897Y27366408D01*
X51353882Y26827627D01*
X51771852Y26551457D01*
X53795395Y28575000D01*
X54154605Y28575000D01*
X56178148Y26551457D01*
X56596118Y26827627D01*
X56886649Y27372557D01*
X57065287Y27963696D01*
X57125168Y28578328D01*
X57063990Y29192831D01*
X56884103Y29783592D01*
X56596118Y30322373D01*
X56178148Y30598543D01*
X54154605Y28575000D01*
X53795395Y28575000D01*
X51771852Y30598543D01*
X51353882Y30322373D01*
X51063351Y29777443D01*
X50884713Y29186304D01*
X50824832Y28571672D01*
X45110000Y28571672D01*
X45110000Y30778148D01*
X51951457Y30778148D01*
X53975000Y28754605D01*
X55998543Y30778148D01*
X55722373Y31196118D01*
X55177443Y31486649D01*
X54586304Y31665287D01*
X53971672Y31725168D01*
X53357169Y31663990D01*
X52766408Y31484103D01*
X52227627Y31196118D01*
X51951457Y30778148D01*
X45110000Y30778148D01*
X45110000Y40490408D01*
X45709000Y40490408D01*
X45709000Y38539593D01*
X45731210Y38314088D01*
X45818983Y38024740D01*
X45961519Y37758074D01*
X46153339Y37524339D01*
X46387073Y37332519D01*
X46653739Y37189983D01*
X46943087Y37102210D01*
X47244000Y37072573D01*
X47544912Y37102210D01*
X47834260Y37189983D01*
X48100926Y37332519D01*
X48334661Y37524339D01*
X48526481Y37758073D01*
X48669017Y38024739D01*
X48756790Y38314087D01*
X48779000Y38539592D01*
X48779000Y40490408D01*
X48756790Y40715913D01*
X48669017Y41005261D01*
X48637086Y41065000D01*
X49515928Y41065000D01*
X49515928Y37965000D01*
X49532992Y37791746D01*
X49583528Y37625150D01*
X49665595Y37471614D01*
X49776038Y37337038D01*
X49910614Y37226595D01*
X50064150Y37144528D01*
X50230746Y37093992D01*
X50404000Y37076928D01*
X51704000Y37076928D01*
X51877254Y37093992D01*
X52043850Y37144528D01*
X52197386Y37226595D01*
X52331962Y37337038D01*
X52442405Y37471614D01*
X52524472Y37625150D01*
X52575008Y37791746D01*
X52592072Y37965000D01*
X52592072Y40490408D01*
X55361000Y40490408D01*
X55361000Y38539593D01*
X55383210Y38314088D01*
X55470983Y38024740D01*
X55613519Y37758074D01*
X55805339Y37524339D01*
X56039073Y37332519D01*
X56305739Y37189983D01*
X56595087Y37102210D01*
X56896000Y37072573D01*
X57196912Y37102210D01*
X57486260Y37189983D01*
X57752926Y37332519D01*
X57986661Y37524339D01*
X58178481Y37758073D01*
X58321017Y38024739D01*
X58408790Y38314087D01*
X58431000Y38539592D01*
X58431000Y40490408D01*
X58408790Y40715913D01*
X58321017Y41005261D01*
X58289086Y41065000D01*
X59167928Y41065000D01*
X59167928Y37965000D01*
X59184992Y37791746D01*
X59235528Y37625150D01*
X59317595Y37471614D01*
X59428038Y37337038D01*
X59562614Y37226595D01*
X59716150Y37144528D01*
X59882746Y37093992D01*
X60056000Y37076928D01*
X61356000Y37076928D01*
X61529254Y37093992D01*
X61695850Y37144528D01*
X61849386Y37226595D01*
X61983962Y37337038D01*
X62094405Y37471614D01*
X62176472Y37625150D01*
X62227008Y37791746D01*
X62244072Y37965000D01*
X62244072Y41065000D01*
X62227008Y41238254D01*
X62176472Y41404850D01*
X62094405Y41558386D01*
X61983962Y41692962D01*
X61849386Y41803405D01*
X61695850Y41885472D01*
X61529254Y41936008D01*
X61356000Y41953072D01*
X60056000Y41953072D01*
X59882746Y41936008D01*
X59716150Y41885472D01*
X59562614Y41803405D01*
X59428038Y41692962D01*
X59317595Y41558386D01*
X59235528Y41404850D01*
X59184992Y41238254D01*
X59167928Y41065000D01*
X58289086Y41065000D01*
X58178481Y41271927D01*
X57986661Y41505661D01*
X57752927Y41697481D01*
X57486261Y41840017D01*
X57196913Y41927790D01*
X56896000Y41957427D01*
X56595088Y41927790D01*
X56305740Y41840017D01*
X56039074Y41697481D01*
X55805340Y41505661D01*
X55613520Y41271927D01*
X55470984Y41005261D01*
X55383211Y40715913D01*
X55361000Y40490408D01*
X52592072Y40490408D01*
X52592072Y41065000D01*
X52575008Y41238254D01*
X52524472Y41404850D01*
X52442405Y41558386D01*
X52331962Y41692962D01*
X52197386Y41803405D01*
X52043850Y41885472D01*
X51877254Y41936008D01*
X51704000Y41953072D01*
X50404000Y41953072D01*
X50230746Y41936008D01*
X50064150Y41885472D01*
X49910614Y41803405D01*
X49776038Y41692962D01*
X49665595Y41558386D01*
X49583528Y41404850D01*
X49532992Y41238254D01*
X49515928Y41065000D01*
X48637086Y41065000D01*
X48526481Y41271927D01*
X48334661Y41505661D01*
X48100927Y41697481D01*
X47834261Y41840017D01*
X47544913Y41927790D01*
X47244000Y41957427D01*
X46943088Y41927790D01*
X46653740Y41840017D01*
X46387074Y41697481D01*
X46153340Y41505661D01*
X45961520Y41271927D01*
X45818984Y41005261D01*
X45731211Y40715913D01*
X45709000Y40490408D01*
X45110000Y40490408D01*
X45110000Y46965000D01*
X62840001Y46965000D01*
X62840001Y3809214D01*
X62840001Y3809214D01*
G37*
X62840001Y3809214D02*
X62827678Y3808000D01*
X61409711Y3808000D01*
X61365774Y3851937D01*
X61196256Y3965205D01*
X61007898Y4043226D01*
X60807939Y4083000D01*
X60604061Y4083000D01*
X60404102Y4043226D01*
X60215744Y3965205D01*
X60046226Y3851937D01*
X59902063Y3707774D01*
X59788795Y3538256D01*
X59710774Y3349898D01*
X59671000Y3149939D01*
X59671000Y2946061D01*
X59710774Y2746102D01*
X59788795Y2557744D01*
X59902063Y2388226D01*
X60046226Y2244063D01*
X60215744Y2130795D01*
X60404102Y2052774D01*
X60604061Y2013000D01*
X60807939Y2013000D01*
X61007898Y2052774D01*
X61196256Y2130795D01*
X61365774Y2244063D01*
X61409711Y2288000D01*
X62389991Y2288000D01*
X62389990Y-63281208D01*
X62376229Y-63294970D01*
X55920593Y-63294970D01*
X55894601Y-63268978D01*
X55870803Y-63239980D01*
X55841803Y-63216180D01*
X55755078Y-63145006D01*
X55623048Y-63074434D01*
X55523244Y-63044160D01*
X55479788Y-63030978D01*
X55368135Y-63019981D01*
X55330802Y-63016304D01*
X55293470Y-63019981D01*
X53292931Y-63019979D01*
X53255608Y-63016303D01*
X53218285Y-63019979D01*
X53218277Y-63019979D01*
X53106624Y-63030976D01*
X52963363Y-63074433D01*
X52848385Y-63135891D01*
X52831332Y-63145006D01*
X52744605Y-63216180D01*
X52744596Y-63216189D01*
X52715609Y-63239978D01*
X52691819Y-63268966D01*
X52040787Y-63919999D01*
X51759332Y-63919999D01*
X51721999Y-63916322D01*
X51684666Y-63919999D01*
X51573013Y-63930996D01*
X51429752Y-63974453D01*
X51297723Y-64045025D01*
X51181998Y-64139998D01*
X51158195Y-64169002D01*
X50833997Y-64493200D01*
X50804999Y-64516998D01*
X50781201Y-64545996D01*
X50781200Y-64545997D01*
X50710025Y-64632723D01*
X50639453Y-64764753D01*
X50629603Y-64797226D01*
X50595996Y-64908013D01*
X50584999Y-65019666D01*
X50584999Y-65019677D01*
X50581323Y-65056999D01*
X50584999Y-65094321D01*
X50584999Y-65715679D01*
X50581323Y-65753001D01*
X50584999Y-65790323D01*
X50584999Y-65790333D01*
X50595996Y-65901986D01*
X50639453Y-66045247D01*
X50710025Y-66177277D01*
X50749870Y-66225827D01*
X50804998Y-66293002D01*
X50834002Y-66316805D01*
X51195194Y-66677997D01*
X51218997Y-66707001D01*
X51334722Y-66801974D01*
X51466751Y-66872546D01*
X51610012Y-66916003D01*
X51721665Y-66927000D01*
X51721675Y-66927000D01*
X51758997Y-66930676D01*
X51796320Y-66927000D01*
X54883680Y-66927000D01*
X54921002Y-66930676D01*
X54958324Y-66927000D01*
X54958335Y-66927000D01*
X55069988Y-66916003D01*
X55213249Y-66872546D01*
X55345278Y-66801974D01*
X55461003Y-66707001D01*
X55484805Y-66677998D01*
X55547793Y-66615010D01*
X60881971Y-66615010D01*
X60881970Y-89239969D01*
X57042124Y-89239969D01*
X57004799Y-89236293D01*
X56967474Y-89239969D01*
X56967466Y-89239969D01*
X56855813Y-89250966D01*
X56712552Y-89294423D01*
X56580523Y-89364995D01*
X56464798Y-89459968D01*
X56441000Y-89488966D01*
X55325970Y-90603997D01*
X55296972Y-90627795D01*
X55273174Y-90656793D01*
X55273173Y-90656794D01*
X55201998Y-90743520D01*
X55131426Y-90875550D01*
X55105512Y-90960982D01*
X55087970Y-91018810D01*
X55081455Y-91084953D01*
X55073296Y-91167796D01*
X55076973Y-91205128D01*
X55076971Y-93073969D01*
X55073295Y-93111292D01*
X55076971Y-93148617D01*
X55076971Y-93148624D01*
X55087968Y-93260277D01*
X55131425Y-93403538D01*
X55199756Y-93531374D01*
X55201997Y-93535567D01*
X55273171Y-93622294D01*
X55273176Y-93622299D01*
X55296970Y-93651292D01*
X55325962Y-93675085D01*
X56761920Y-95111047D01*
X56785710Y-95140035D01*
X56814697Y-95163824D01*
X56814708Y-95163835D01*
X56901435Y-95235009D01*
X57033464Y-95305582D01*
X57176725Y-95349038D01*
X57288377Y-95360035D01*
X57288378Y-95360035D01*
X57325711Y-95363712D01*
X57363044Y-95360035D01*
X58043704Y-95360038D01*
X59981951Y-95360038D01*
X59981950Y-119410248D01*
X59742511Y-119649687D01*
X59670752Y-119671455D01*
X59538774Y-119742000D01*
X59461061Y-119742000D01*
X59261102Y-119781774D01*
X59072744Y-119859795D01*
X58903226Y-119973063D01*
X58759063Y-120117226D01*
X58645795Y-120286744D01*
X58567774Y-120475102D01*
X58528000Y-120675061D01*
X58528000Y-120878939D01*
X58567774Y-121078898D01*
X58645795Y-121267256D01*
X58759063Y-121436774D01*
X58903226Y-121580937D01*
X59072744Y-121694205D01*
X59261102Y-121772226D01*
X59461061Y-121812000D01*
X59664939Y-121812000D01*
X59864898Y-121772226D01*
X60053256Y-121694205D01*
X60222774Y-121580937D01*
X60366937Y-121436774D01*
X60431960Y-121339460D01*
X60431960Y-126156484D01*
X60396570Y-126159970D01*
X60396561Y-126159970D01*
X60284908Y-126170967D01*
X60141647Y-126214424D01*
X60009618Y-126284996D01*
X59893893Y-126379969D01*
X59870095Y-126408967D01*
X58469170Y-127809893D01*
X58440172Y-127833691D01*
X58416374Y-127862689D01*
X58416373Y-127862690D01*
X58345198Y-127949416D01*
X58274626Y-128081446D01*
X58258133Y-128135818D01*
X58231170Y-128224706D01*
X58226921Y-128267846D01*
X58216496Y-128373692D01*
X58220173Y-128411024D01*
X58220171Y-136663207D01*
X57038970Y-137844409D01*
X57009972Y-137868207D01*
X56986174Y-137897205D01*
X56986173Y-137897206D01*
X56914998Y-137983932D01*
X56844426Y-138115962D01*
X56827933Y-138170334D01*
X56800970Y-138259222D01*
X56796721Y-138302362D01*
X56786296Y-138408208D01*
X56789973Y-138445540D01*
X56789971Y-140918627D01*
X56786295Y-140955950D01*
X56789971Y-140993272D01*
X56789971Y-140993282D01*
X56800968Y-141104935D01*
X56844425Y-141248196D01*
X56914997Y-141380225D01*
X57009970Y-141495950D01*
X57038968Y-141519748D01*
X59120190Y-143600973D01*
X59120189Y-145536182D01*
X59116513Y-145573505D01*
X59120189Y-145610827D01*
X59120189Y-145610837D01*
X59131186Y-145722490D01*
X59171073Y-145853983D01*
X59174643Y-145865751D01*
X59245215Y-145997781D01*
X59285060Y-146046331D01*
X59340188Y-146113506D01*
X59369192Y-146137309D01*
X59438001Y-146206118D01*
X59438000Y-162753198D01*
X58232199Y-163959000D01*
X47089056Y-163959000D01*
X47179377Y-163910723D01*
X47267871Y-163652476D01*
X46355000Y-162739605D01*
X46340858Y-162753748D01*
X46161253Y-162574143D01*
X46175395Y-162560000D01*
X46534605Y-162560000D01*
X47447476Y-163472871D01*
X47705723Y-163384377D01*
X47840597Y-163105024D01*
X47918381Y-162804725D01*
X47936084Y-162495023D01*
X47893027Y-162187816D01*
X47790865Y-161894914D01*
X47705723Y-161735623D01*
X47447476Y-161647129D01*
X46534605Y-162560000D01*
X46175395Y-162560000D01*
X46161253Y-162545858D01*
X46340858Y-162366253D01*
X46355000Y-162380395D01*
X47267871Y-161467524D01*
X47222286Y-161334495D01*
X47358877Y-161243227D01*
X47578227Y-161023877D01*
X47750570Y-160765948D01*
X47869282Y-160479352D01*
X47929800Y-160175104D01*
X47929800Y-159864896D01*
X47869282Y-159560648D01*
X47750570Y-159274052D01*
X47578227Y-159016123D01*
X47358877Y-158796773D01*
X47348741Y-158790000D01*
X50531928Y-158790000D01*
X50544188Y-158914482D01*
X50580498Y-159034180D01*
X50639463Y-159144494D01*
X50718815Y-159241185D01*
X50815506Y-159320537D01*
X50925820Y-159379502D01*
X51045518Y-159415812D01*
X51170000Y-159428072D01*
X51784250Y-159425000D01*
X51943000Y-159266250D01*
X51943000Y-157117000D01*
X52197000Y-157117000D01*
X52197000Y-159266250D01*
X52355750Y-159425000D01*
X52970000Y-159428072D01*
X53094482Y-159415812D01*
X53214180Y-159379502D01*
X53324494Y-159320537D01*
X53421185Y-159241185D01*
X53500537Y-159144494D01*
X53559502Y-159034180D01*
X53595812Y-158914482D01*
X53608072Y-158790000D01*
X53605000Y-157275750D01*
X53446250Y-157117000D01*
X52197000Y-157117000D01*
X51943000Y-157117000D01*
X50693750Y-157117000D01*
X50535000Y-157275750D01*
X50531928Y-158790000D01*
X47348741Y-158790000D01*
X47288876Y-158750000D01*
X47358877Y-158703227D01*
X47578227Y-158483877D01*
X47750570Y-158225948D01*
X47869282Y-157939352D01*
X47929800Y-157635104D01*
X47929800Y-157324896D01*
X47869282Y-157020648D01*
X47750570Y-156734052D01*
X47578227Y-156476123D01*
X47358877Y-156256773D01*
X47288876Y-156210000D01*
X47358877Y-156163227D01*
X47578227Y-155943877D01*
X47750570Y-155685948D01*
X47869282Y-155399352D01*
X47910924Y-155190000D01*
X50531928Y-155190000D01*
X50535000Y-156704250D01*
X50693750Y-156863000D01*
X51943000Y-156863000D01*
X51943000Y-154713750D01*
X52197000Y-154713750D01*
X52197000Y-156863000D01*
X53446250Y-156863000D01*
X53605000Y-156704250D01*
X53606399Y-156014593D01*
X54345000Y-156014593D01*
X54345000Y-157965408D01*
X54367211Y-158190913D01*
X54454984Y-158480261D01*
X54597520Y-158746927D01*
X54789340Y-158980661D01*
X55023074Y-159172481D01*
X55289740Y-159315017D01*
X55579088Y-159402790D01*
X55880000Y-159432427D01*
X56180913Y-159402790D01*
X56470261Y-159315017D01*
X56736927Y-159172481D01*
X56970661Y-158980661D01*
X57162481Y-158746927D01*
X57305017Y-158480261D01*
X57392790Y-158190913D01*
X57415000Y-157965408D01*
X57415000Y-156014592D01*
X57392790Y-155789087D01*
X57305017Y-155499739D01*
X57162481Y-155233073D01*
X56970661Y-154999339D01*
X56736926Y-154807519D01*
X56470260Y-154664983D01*
X56180912Y-154577210D01*
X55880000Y-154547573D01*
X55579087Y-154577210D01*
X55289739Y-154664983D01*
X55023073Y-154807519D01*
X54789339Y-154999339D01*
X54597519Y-155233074D01*
X54454983Y-155499740D01*
X54367210Y-155789088D01*
X54345000Y-156014593D01*
X53606399Y-156014593D01*
X53608072Y-155190000D01*
X53595812Y-155065518D01*
X53559502Y-154945820D01*
X53500537Y-154835506D01*
X53421185Y-154738815D01*
X53324494Y-154659463D01*
X53214180Y-154600498D01*
X53094482Y-154564188D01*
X52970000Y-154551928D01*
X52355750Y-154555000D01*
X52197000Y-154713750D01*
X51943000Y-154713750D01*
X51784250Y-154555000D01*
X51170000Y-154551928D01*
X51045518Y-154564188D01*
X50925820Y-154600498D01*
X50815506Y-154659463D01*
X50718815Y-154738815D01*
X50639463Y-154835506D01*
X50580498Y-154945820D01*
X50544188Y-155065518D01*
X50531928Y-155190000D01*
X47910924Y-155190000D01*
X47929800Y-155095104D01*
X47929800Y-154784896D01*
X47869282Y-154480648D01*
X47750570Y-154194052D01*
X47578227Y-153936123D01*
X47358877Y-153716773D01*
X47288876Y-153670000D01*
X47358877Y-153623227D01*
X47578227Y-153403877D01*
X47750570Y-153145948D01*
X47869282Y-152859352D01*
X47929800Y-152555104D01*
X47929800Y-152244896D01*
X47869282Y-151940648D01*
X47750570Y-151654052D01*
X47578227Y-151396123D01*
X47358877Y-151176773D01*
X47288876Y-151130000D01*
X47358877Y-151083227D01*
X47578227Y-150863877D01*
X47750570Y-150605948D01*
X47869282Y-150319352D01*
X47929800Y-150015104D01*
X47929800Y-149704896D01*
X47869282Y-149400648D01*
X47750570Y-149114052D01*
X47578227Y-148856123D01*
X47358877Y-148636773D01*
X47288876Y-148590000D01*
X47358877Y-148543227D01*
X47578227Y-148323877D01*
X47750570Y-148065948D01*
X47869282Y-147779352D01*
X47929800Y-147475104D01*
X47929800Y-147164896D01*
X47869282Y-146860648D01*
X47750570Y-146574052D01*
X47578227Y-146316123D01*
X47358877Y-146096773D01*
X47288876Y-146050000D01*
X47358877Y-146003227D01*
X47518606Y-145843498D01*
X47543168Y-145889449D01*
X47697499Y-146077502D01*
X47885552Y-146231833D01*
X48100100Y-146346511D01*
X48332899Y-146417130D01*
X48575000Y-146440975D01*
X48817102Y-146417130D01*
X49049901Y-146346511D01*
X49264449Y-146231833D01*
X49452502Y-146077502D01*
X49606833Y-145889449D01*
X49721511Y-145674901D01*
X49792130Y-145442102D01*
X49810000Y-145260665D01*
X49810000Y-144139335D01*
X49792130Y-143957898D01*
X49721511Y-143725099D01*
X49606833Y-143510551D01*
X49452502Y-143322498D01*
X49264448Y-143168167D01*
X49049900Y-143053489D01*
X48817101Y-142982870D01*
X48575000Y-142959025D01*
X48332898Y-142982870D01*
X48100099Y-143053489D01*
X47885551Y-143168167D01*
X47697498Y-143322498D01*
X47543167Y-143510552D01*
X47462874Y-143660770D01*
X47358877Y-143556773D01*
X47288876Y-143510000D01*
X47358877Y-143463227D01*
X47578227Y-143243877D01*
X47750570Y-142985948D01*
X47869282Y-142699352D01*
X47929800Y-142395104D01*
X47929800Y-142084896D01*
X47869282Y-141780648D01*
X47750570Y-141494052D01*
X47578227Y-141236123D01*
X47358877Y-141016773D01*
X47288876Y-140970000D01*
X47358877Y-140923227D01*
X47578227Y-140703877D01*
X47750570Y-140445948D01*
X47869282Y-140159352D01*
X47929800Y-139855104D01*
X47929800Y-139544896D01*
X47869282Y-139240648D01*
X47750570Y-138954052D01*
X47578227Y-138696123D01*
X47358877Y-138476773D01*
X47288876Y-138430000D01*
X47358877Y-138383227D01*
X47578227Y-138163877D01*
X47750570Y-137905948D01*
X47869282Y-137619352D01*
X47929800Y-137315104D01*
X47929800Y-137004896D01*
X47869282Y-136700648D01*
X47750570Y-136414052D01*
X47578227Y-136156123D01*
X47358877Y-135936773D01*
X47288876Y-135890000D01*
X47358877Y-135843227D01*
X47462874Y-135739230D01*
X47543168Y-135889449D01*
X47697499Y-136077502D01*
X47885552Y-136231833D01*
X48100100Y-136346511D01*
X48332899Y-136417130D01*
X48575000Y-136440975D01*
X48817102Y-136417130D01*
X49049901Y-136346511D01*
X49264449Y-136231833D01*
X49452502Y-136077502D01*
X49606833Y-135889449D01*
X49721511Y-135674901D01*
X49792130Y-135442102D01*
X49810000Y-135260665D01*
X49810000Y-134139335D01*
X49792130Y-133957898D01*
X49721511Y-133725099D01*
X49606833Y-133510551D01*
X49452502Y-133322498D01*
X49264448Y-133168167D01*
X49049900Y-133053489D01*
X48817101Y-132982870D01*
X48575000Y-132959025D01*
X48332898Y-132982870D01*
X48100099Y-133053489D01*
X47885551Y-133168167D01*
X47697498Y-133322498D01*
X47543167Y-133510552D01*
X47518606Y-133556502D01*
X47358877Y-133396773D01*
X47288876Y-133350000D01*
X47358877Y-133303227D01*
X47578227Y-133083877D01*
X47750570Y-132825948D01*
X47869282Y-132539352D01*
X47929800Y-132235104D01*
X47929800Y-131924896D01*
X47869282Y-131620648D01*
X47750570Y-131334052D01*
X47578227Y-131076123D01*
X47358877Y-130856773D01*
X47288876Y-130810000D01*
X47358877Y-130763227D01*
X47578227Y-130543877D01*
X47750570Y-130285948D01*
X47869282Y-129999352D01*
X47929800Y-129695104D01*
X47929800Y-129384896D01*
X47869282Y-129080648D01*
X47750570Y-128794052D01*
X47578227Y-128536123D01*
X47358877Y-128316773D01*
X47100948Y-128144430D01*
X46814352Y-128025718D01*
X46510104Y-127965200D01*
X46199896Y-127965200D01*
X46010020Y-128002968D01*
X46010020Y-126028148D01*
X51951457Y-126028148D01*
X52227627Y-126446118D01*
X52772557Y-126736649D01*
X53363696Y-126915287D01*
X53978328Y-126975168D01*
X54592831Y-126913990D01*
X55183592Y-126734103D01*
X55722373Y-126446118D01*
X55998543Y-126028148D01*
X53975000Y-124004605D01*
X51951457Y-126028148D01*
X46010020Y-126028148D01*
X46010020Y-123828328D01*
X50824832Y-123828328D01*
X50886010Y-124442831D01*
X51065897Y-125033592D01*
X51353882Y-125572373D01*
X51771852Y-125848543D01*
X53795395Y-123825000D01*
X54154605Y-123825000D01*
X56178148Y-125848543D01*
X56596118Y-125572373D01*
X56886649Y-125027443D01*
X57065287Y-124436304D01*
X57125168Y-123821672D01*
X57063990Y-123207169D01*
X56884103Y-122616408D01*
X56596118Y-122077627D01*
X56178148Y-121801457D01*
X54154605Y-123825000D01*
X53795395Y-123825000D01*
X51771852Y-121801457D01*
X51353882Y-122077627D01*
X51063351Y-122622557D01*
X50884713Y-123213696D01*
X50824832Y-123828328D01*
X46010020Y-123828328D01*
X46010020Y-121621852D01*
X51951457Y-121621852D01*
X53975000Y-123645395D01*
X55998543Y-121621852D01*
X55722373Y-121203882D01*
X55177443Y-120913351D01*
X54586304Y-120734713D01*
X53971672Y-120674832D01*
X53357169Y-120736010D01*
X52766408Y-120915897D01*
X52227627Y-121203882D01*
X51951457Y-121621852D01*
X46010020Y-121621852D01*
X46010020Y-112438285D01*
X46149298Y-112531347D01*
X46337656Y-112609368D01*
X46537615Y-112649142D01*
X46741493Y-112649142D01*
X46941452Y-112609368D01*
X47129810Y-112531347D01*
X47299328Y-112418079D01*
X47443491Y-112273916D01*
X47556759Y-112104398D01*
X47634780Y-111916040D01*
X47674554Y-111716081D01*
X47674554Y-111512203D01*
X47634780Y-111312244D01*
X47556759Y-111123886D01*
X47505866Y-111047719D01*
X47559226Y-110918898D01*
X47599000Y-110718939D01*
X47599000Y-110515061D01*
X47559226Y-110315102D01*
X47481205Y-110126744D01*
X47367937Y-109957226D01*
X47223774Y-109813063D01*
X47054256Y-109699795D01*
X46865898Y-109621774D01*
X46665939Y-109582000D01*
X46462061Y-109582000D01*
X46262102Y-109621774D01*
X46073744Y-109699795D01*
X45904226Y-109813063D01*
X45860289Y-109857000D01*
X45249323Y-109857000D01*
X45212000Y-109853324D01*
X45174677Y-109857000D01*
X45174667Y-109857000D01*
X45110000Y-109863369D01*
X45110000Y-106324061D01*
X52170501Y-106324061D01*
X52170501Y-106527939D01*
X52210275Y-106727898D01*
X52288296Y-106916256D01*
X52401564Y-107085774D01*
X52545727Y-107229937D01*
X52715245Y-107343205D01*
X52903603Y-107421226D01*
X53103562Y-107461000D01*
X53307440Y-107461000D01*
X53507399Y-107421226D01*
X53695757Y-107343205D01*
X53865275Y-107229937D01*
X53909212Y-107186000D01*
X55001810Y-107186000D01*
X55045747Y-107229937D01*
X55215265Y-107343205D01*
X55403623Y-107421226D01*
X55603582Y-107461000D01*
X55807460Y-107461000D01*
X56007419Y-107421226D01*
X56195777Y-107343205D01*
X56365295Y-107229937D01*
X56509458Y-107085774D01*
X56622726Y-106916256D01*
X56700747Y-106727898D01*
X56740521Y-106527939D01*
X56740521Y-106324061D01*
X56700747Y-106124102D01*
X56622726Y-105935744D01*
X56509458Y-105766226D01*
X56365295Y-105622063D01*
X56195777Y-105508795D01*
X56007419Y-105430774D01*
X55807460Y-105391000D01*
X55603582Y-105391000D01*
X55403623Y-105430774D01*
X55215265Y-105508795D01*
X55045747Y-105622063D01*
X55001810Y-105666000D01*
X53909212Y-105666000D01*
X53865275Y-105622063D01*
X53695757Y-105508795D01*
X53507399Y-105430774D01*
X53307440Y-105391000D01*
X53103562Y-105391000D01*
X52903603Y-105430774D01*
X52715245Y-105508795D01*
X52545727Y-105622063D01*
X52401564Y-105766226D01*
X52288296Y-105935744D01*
X52210275Y-106124102D01*
X52170501Y-106324061D01*
X45110000Y-106324061D01*
X45110000Y-75228148D01*
X51951457Y-75228148D01*
X52227627Y-75646118D01*
X52772557Y-75936649D01*
X53363696Y-76115287D01*
X53978328Y-76175168D01*
X54592831Y-76113990D01*
X55183592Y-75934103D01*
X55722373Y-75646118D01*
X55998543Y-75228148D01*
X53975000Y-73204605D01*
X51951457Y-75228148D01*
X45110000Y-75228148D01*
X45110000Y-73028328D01*
X50824832Y-73028328D01*
X50886010Y-73642831D01*
X51065897Y-74233592D01*
X51353882Y-74772373D01*
X51771852Y-75048543D01*
X53795395Y-73025000D01*
X54154605Y-73025000D01*
X56178148Y-75048543D01*
X56596118Y-74772373D01*
X56886649Y-74227443D01*
X57065287Y-73636304D01*
X57125168Y-73021672D01*
X57063990Y-72407169D01*
X56884103Y-71816408D01*
X56596118Y-71277627D01*
X56178148Y-71001457D01*
X54154605Y-73025000D01*
X53795395Y-73025000D01*
X51771852Y-71001457D01*
X51353882Y-71277627D01*
X51063351Y-71822557D01*
X50884713Y-72413696D01*
X50824832Y-73028328D01*
X45110000Y-73028328D01*
X45110000Y-70821852D01*
X51951457Y-70821852D01*
X53975000Y-72845395D01*
X55998543Y-70821852D01*
X55722373Y-70403882D01*
X55177443Y-70113351D01*
X54586304Y-69934713D01*
X53971672Y-69874832D01*
X53357169Y-69936010D01*
X52766408Y-70115897D01*
X52227627Y-70403882D01*
X51951457Y-70821852D01*
X45110000Y-70821852D01*
X45110000Y-59895897D01*
X48173208Y-59895897D01*
X48250843Y-60144972D01*
X48514883Y-60270871D01*
X48798411Y-60342839D01*
X49090531Y-60358111D01*
X49380019Y-60316099D01*
X49655747Y-60218419D01*
X49793157Y-60144972D01*
X49870792Y-59895897D01*
X58079208Y-59895897D01*
X58156843Y-60144972D01*
X58420883Y-60270871D01*
X58704411Y-60342839D01*
X58996531Y-60358111D01*
X59286019Y-60316099D01*
X59561747Y-60218419D01*
X59699157Y-60144972D01*
X59776792Y-59895897D01*
X58928000Y-59047105D01*
X58079208Y-59895897D01*
X49870792Y-59895897D01*
X49022000Y-59047105D01*
X48173208Y-59895897D01*
X45110000Y-59895897D01*
X45110000Y-58936031D01*
X47531389Y-58936031D01*
X47573401Y-59225519D01*
X47671081Y-59501247D01*
X47744528Y-59638657D01*
X47993603Y-59716292D01*
X48842395Y-58867500D01*
X49201605Y-58867500D01*
X50050397Y-59716292D01*
X50299472Y-59638657D01*
X50425371Y-59374617D01*
X50497339Y-59091089D01*
X50505445Y-58936031D01*
X57437389Y-58936031D01*
X57479401Y-59225519D01*
X57577081Y-59501247D01*
X57650528Y-59638657D01*
X57899603Y-59716292D01*
X58748395Y-58867500D01*
X59107605Y-58867500D01*
X59956397Y-59716292D01*
X60205472Y-59638657D01*
X60331371Y-59374617D01*
X60403339Y-59091089D01*
X60418611Y-58798969D01*
X60376599Y-58509481D01*
X60278919Y-58233753D01*
X60205472Y-58096343D01*
X59956397Y-58018708D01*
X59107605Y-58867500D01*
X58748395Y-58867500D01*
X57899603Y-58018708D01*
X57650528Y-58096343D01*
X57524629Y-58360383D01*
X57452661Y-58643911D01*
X57437389Y-58936031D01*
X50505445Y-58936031D01*
X50512611Y-58798969D01*
X50470599Y-58509481D01*
X50372919Y-58233753D01*
X50299472Y-58096343D01*
X50050397Y-58018708D01*
X49201605Y-58867500D01*
X48842395Y-58867500D01*
X47993603Y-58018708D01*
X47744528Y-58096343D01*
X47618629Y-58360383D01*
X47546661Y-58643911D01*
X47531389Y-58936031D01*
X45110000Y-58936031D01*
X45110000Y-57839103D01*
X48173208Y-57839103D01*
X49022000Y-58687895D01*
X49870792Y-57839103D01*
X58079208Y-57839103D01*
X58928000Y-58687895D01*
X59776792Y-57839103D01*
X59699157Y-57590028D01*
X59435117Y-57464129D01*
X59151589Y-57392161D01*
X58859469Y-57376889D01*
X58569981Y-57418901D01*
X58294253Y-57516581D01*
X58156843Y-57590028D01*
X58079208Y-57839103D01*
X49870792Y-57839103D01*
X49793157Y-57590028D01*
X49529117Y-57464129D01*
X49245589Y-57392161D01*
X48953469Y-57376889D01*
X48663981Y-57418901D01*
X48388253Y-57516581D01*
X48250843Y-57590028D01*
X48173208Y-57839103D01*
X45110000Y-57839103D01*
X45110000Y-55621240D01*
X47537000Y-55621240D01*
X47537000Y-55913760D01*
X47594068Y-56200658D01*
X47706010Y-56470911D01*
X47868525Y-56714132D01*
X48075368Y-56920975D01*
X48318589Y-57083490D01*
X48588842Y-57195432D01*
X48875740Y-57252500D01*
X49168260Y-57252500D01*
X49455158Y-57195432D01*
X49725411Y-57083490D01*
X49968632Y-56920975D01*
X50175475Y-56714132D01*
X50337990Y-56470911D01*
X50449932Y-56200658D01*
X50507000Y-55913760D01*
X50507000Y-55621240D01*
X57443000Y-55621240D01*
X57443000Y-55913760D01*
X57500068Y-56200658D01*
X57612010Y-56470911D01*
X57774525Y-56714132D01*
X57981368Y-56920975D01*
X58224589Y-57083490D01*
X58494842Y-57195432D01*
X58781740Y-57252500D01*
X59074260Y-57252500D01*
X59361158Y-57195432D01*
X59631411Y-57083490D01*
X59874632Y-56920975D01*
X60081475Y-56714132D01*
X60243990Y-56470911D01*
X60355932Y-56200658D01*
X60413000Y-55913760D01*
X60413000Y-55621240D01*
X60355932Y-55334342D01*
X60243990Y-55064089D01*
X60081475Y-54820868D01*
X59874632Y-54614025D01*
X59631411Y-54451510D01*
X59361158Y-54339568D01*
X59074260Y-54282500D01*
X58781740Y-54282500D01*
X58494842Y-54339568D01*
X58224589Y-54451510D01*
X57981368Y-54614025D01*
X57774525Y-54820868D01*
X57612010Y-55064089D01*
X57500068Y-55334342D01*
X57443000Y-55621240D01*
X50507000Y-55621240D01*
X50449932Y-55334342D01*
X50337990Y-55064089D01*
X50175475Y-54820868D01*
X49968632Y-54614025D01*
X49725411Y-54451510D01*
X49455158Y-54339568D01*
X49168260Y-54282500D01*
X48875740Y-54282500D01*
X48588842Y-54339568D01*
X48318589Y-54451510D01*
X48075368Y-54614025D01*
X47868525Y-54820868D01*
X47706010Y-55064089D01*
X47594068Y-55334342D01*
X47537000Y-55621240D01*
X45110000Y-55621240D01*
X45110000Y-47321240D01*
X47537000Y-47321240D01*
X47537000Y-47613760D01*
X47594068Y-47900658D01*
X47706010Y-48170911D01*
X47868525Y-48414132D01*
X48075368Y-48620975D01*
X48318589Y-48783490D01*
X48588842Y-48895432D01*
X48875740Y-48952500D01*
X49168260Y-48952500D01*
X49455158Y-48895432D01*
X49725411Y-48783490D01*
X49968632Y-48620975D01*
X50175475Y-48414132D01*
X50337990Y-48170911D01*
X50449932Y-47900658D01*
X50507000Y-47613760D01*
X50507000Y-47321240D01*
X57443000Y-47321240D01*
X57443000Y-47613760D01*
X57500068Y-47900658D01*
X57612010Y-48170911D01*
X57774525Y-48414132D01*
X57981368Y-48620975D01*
X58224589Y-48783490D01*
X58494842Y-48895432D01*
X58781740Y-48952500D01*
X59074260Y-48952500D01*
X59361158Y-48895432D01*
X59631411Y-48783490D01*
X59874632Y-48620975D01*
X60081475Y-48414132D01*
X60243990Y-48170911D01*
X60355932Y-47900658D01*
X60413000Y-47613760D01*
X60413000Y-47321240D01*
X60355932Y-47034342D01*
X60243990Y-46764089D01*
X60081475Y-46520868D01*
X59874632Y-46314025D01*
X59631411Y-46151510D01*
X59361158Y-46039568D01*
X59074260Y-45982500D01*
X58781740Y-45982500D01*
X58494842Y-46039568D01*
X58224589Y-46151510D01*
X57981368Y-46314025D01*
X57774525Y-46520868D01*
X57612010Y-46764089D01*
X57500068Y-47034342D01*
X57443000Y-47321240D01*
X50507000Y-47321240D01*
X50449932Y-47034342D01*
X50337990Y-46764089D01*
X50175475Y-46520868D01*
X49968632Y-46314025D01*
X49725411Y-46151510D01*
X49455158Y-46039568D01*
X49168260Y-45982500D01*
X48875740Y-45982500D01*
X48588842Y-46039568D01*
X48318589Y-46151510D01*
X48075368Y-46314025D01*
X47868525Y-46520868D01*
X47706010Y-46764089D01*
X47594068Y-47034342D01*
X47537000Y-47321240D01*
X45110000Y-47321240D01*
X45110000Y-24428148D01*
X51951457Y-24428148D01*
X52227627Y-24846118D01*
X52772557Y-25136649D01*
X53363696Y-25315287D01*
X53978328Y-25375168D01*
X54592831Y-25313990D01*
X55183592Y-25134103D01*
X55722373Y-24846118D01*
X55998543Y-24428148D01*
X53975000Y-22404605D01*
X51951457Y-24428148D01*
X45110000Y-24428148D01*
X45110000Y-22228328D01*
X50824832Y-22228328D01*
X50886010Y-22842831D01*
X51065897Y-23433592D01*
X51353882Y-23972373D01*
X51771852Y-24248543D01*
X53795395Y-22225000D01*
X54154605Y-22225000D01*
X56178148Y-24248543D01*
X56596118Y-23972373D01*
X56886649Y-23427443D01*
X57065287Y-22836304D01*
X57125168Y-22221672D01*
X57063990Y-21607169D01*
X56884103Y-21016408D01*
X56596118Y-20477627D01*
X56178148Y-20201457D01*
X54154605Y-22225000D01*
X53795395Y-22225000D01*
X51771852Y-20201457D01*
X51353882Y-20477627D01*
X51063351Y-21022557D01*
X50884713Y-21613696D01*
X50824832Y-22228328D01*
X45110000Y-22228328D01*
X45110000Y-20021852D01*
X51951457Y-20021852D01*
X53975000Y-22045395D01*
X55998543Y-20021852D01*
X55722373Y-19603882D01*
X55177443Y-19313351D01*
X54586304Y-19134713D01*
X53971672Y-19074832D01*
X53357169Y-19136010D01*
X52766408Y-19315897D01*
X52227627Y-19603882D01*
X51951457Y-20021852D01*
X45110000Y-20021852D01*
X45110000Y15066000D01*
X47836928Y15066000D01*
X47840000Y12751750D01*
X47998750Y12593000D01*
X48331605Y12593000D01*
X48320064Y12581459D01*
X48326345Y12466000D01*
X48320064Y12350541D01*
X48331605Y12339000D01*
X47998750Y12339000D01*
X47840000Y12180250D01*
X47836928Y9866000D01*
X47849188Y9741518D01*
X47885498Y9621820D01*
X47944463Y9511506D01*
X48023815Y9414815D01*
X48120506Y9335463D01*
X48230820Y9276498D01*
X48350518Y9240188D01*
X48475000Y9227928D01*
X53689250Y9231000D01*
X53763130Y9304880D01*
X53881176Y9281172D01*
X54065355Y9280829D01*
X54186965Y9304785D01*
X54260750Y9231000D01*
X59475000Y9227928D01*
X59599482Y9240188D01*
X59719180Y9276498D01*
X59829494Y9335463D01*
X59926185Y9414815D01*
X60005537Y9511506D01*
X60064502Y9621820D01*
X60100812Y9741518D01*
X60113072Y9866000D01*
X60110000Y12180250D01*
X59951250Y12339000D01*
X59618395Y12339000D01*
X59629936Y12350541D01*
X59623655Y12466000D01*
X59629936Y12581459D01*
X59618395Y12593000D01*
X59951250Y12593000D01*
X60110000Y12751750D01*
X60113072Y15066000D01*
X60100812Y15190482D01*
X60064502Y15310180D01*
X60005537Y15420494D01*
X59926185Y15517185D01*
X59829494Y15596537D01*
X59719180Y15655502D01*
X59599482Y15691812D01*
X59475000Y15704072D01*
X54260750Y15701000D01*
X54186870Y15627120D01*
X54068824Y15650828D01*
X53884645Y15651171D01*
X53763035Y15627215D01*
X53689250Y15701000D01*
X48475000Y15704072D01*
X48350518Y15691812D01*
X48230820Y15655502D01*
X48120506Y15596537D01*
X48023815Y15517185D01*
X47944463Y15420494D01*
X47885498Y15310180D01*
X47849188Y15190482D01*
X47836928Y15066000D01*
X45110000Y15066000D01*
X45110000Y26371852D01*
X51951457Y26371852D01*
X52227627Y25953882D01*
X52772557Y25663351D01*
X53363696Y25484713D01*
X53978328Y25424832D01*
X54592831Y25486010D01*
X55183592Y25665897D01*
X55722373Y25953882D01*
X55998543Y26371852D01*
X53975000Y28395395D01*
X51951457Y26371852D01*
X45110000Y26371852D01*
X45110000Y28571672D01*
X50824832Y28571672D01*
X50886010Y27957169D01*
X51065897Y27366408D01*
X51353882Y26827627D01*
X51771852Y26551457D01*
X53795395Y28575000D01*
X54154605Y28575000D01*
X56178148Y26551457D01*
X56596118Y26827627D01*
X56886649Y27372557D01*
X57065287Y27963696D01*
X57125168Y28578328D01*
X57063990Y29192831D01*
X56884103Y29783592D01*
X56596118Y30322373D01*
X56178148Y30598543D01*
X54154605Y28575000D01*
X53795395Y28575000D01*
X51771852Y30598543D01*
X51353882Y30322373D01*
X51063351Y29777443D01*
X50884713Y29186304D01*
X50824832Y28571672D01*
X45110000Y28571672D01*
X45110000Y30778148D01*
X51951457Y30778148D01*
X53975000Y28754605D01*
X55998543Y30778148D01*
X55722373Y31196118D01*
X55177443Y31486649D01*
X54586304Y31665287D01*
X53971672Y31725168D01*
X53357169Y31663990D01*
X52766408Y31484103D01*
X52227627Y31196118D01*
X51951457Y30778148D01*
X45110000Y30778148D01*
X45110000Y40490408D01*
X45709000Y40490408D01*
X45709000Y38539593D01*
X45731210Y38314088D01*
X45818983Y38024740D01*
X45961519Y37758074D01*
X46153339Y37524339D01*
X46387073Y37332519D01*
X46653739Y37189983D01*
X46943087Y37102210D01*
X47244000Y37072573D01*
X47544912Y37102210D01*
X47834260Y37189983D01*
X48100926Y37332519D01*
X48334661Y37524339D01*
X48526481Y37758073D01*
X48669017Y38024739D01*
X48756790Y38314087D01*
X48779000Y38539592D01*
X48779000Y40490408D01*
X48756790Y40715913D01*
X48669017Y41005261D01*
X48637086Y41065000D01*
X49515928Y41065000D01*
X49515928Y37965000D01*
X49532992Y37791746D01*
X49583528Y37625150D01*
X49665595Y37471614D01*
X49776038Y37337038D01*
X49910614Y37226595D01*
X50064150Y37144528D01*
X50230746Y37093992D01*
X50404000Y37076928D01*
X51704000Y37076928D01*
X51877254Y37093992D01*
X52043850Y37144528D01*
X52197386Y37226595D01*
X52331962Y37337038D01*
X52442405Y37471614D01*
X52524472Y37625150D01*
X52575008Y37791746D01*
X52592072Y37965000D01*
X52592072Y40490408D01*
X55361000Y40490408D01*
X55361000Y38539593D01*
X55383210Y38314088D01*
X55470983Y38024740D01*
X55613519Y37758074D01*
X55805339Y37524339D01*
X56039073Y37332519D01*
X56305739Y37189983D01*
X56595087Y37102210D01*
X56896000Y37072573D01*
X57196912Y37102210D01*
X57486260Y37189983D01*
X57752926Y37332519D01*
X57986661Y37524339D01*
X58178481Y37758073D01*
X58321017Y38024739D01*
X58408790Y38314087D01*
X58431000Y38539592D01*
X58431000Y40490408D01*
X58408790Y40715913D01*
X58321017Y41005261D01*
X58289086Y41065000D01*
X59167928Y41065000D01*
X59167928Y37965000D01*
X59184992Y37791746D01*
X59235528Y37625150D01*
X59317595Y37471614D01*
X59428038Y37337038D01*
X59562614Y37226595D01*
X59716150Y37144528D01*
X59882746Y37093992D01*
X60056000Y37076928D01*
X61356000Y37076928D01*
X61529254Y37093992D01*
X61695850Y37144528D01*
X61849386Y37226595D01*
X61983962Y37337038D01*
X62094405Y37471614D01*
X62176472Y37625150D01*
X62227008Y37791746D01*
X62244072Y37965000D01*
X62244072Y41065000D01*
X62227008Y41238254D01*
X62176472Y41404850D01*
X62094405Y41558386D01*
X61983962Y41692962D01*
X61849386Y41803405D01*
X61695850Y41885472D01*
X61529254Y41936008D01*
X61356000Y41953072D01*
X60056000Y41953072D01*
X59882746Y41936008D01*
X59716150Y41885472D01*
X59562614Y41803405D01*
X59428038Y41692962D01*
X59317595Y41558386D01*
X59235528Y41404850D01*
X59184992Y41238254D01*
X59167928Y41065000D01*
X58289086Y41065000D01*
X58178481Y41271927D01*
X57986661Y41505661D01*
X57752927Y41697481D01*
X57486261Y41840017D01*
X57196913Y41927790D01*
X56896000Y41957427D01*
X56595088Y41927790D01*
X56305740Y41840017D01*
X56039074Y41697481D01*
X55805340Y41505661D01*
X55613520Y41271927D01*
X55470984Y41005261D01*
X55383211Y40715913D01*
X55361000Y40490408D01*
X52592072Y40490408D01*
X52592072Y41065000D01*
X52575008Y41238254D01*
X52524472Y41404850D01*
X52442405Y41558386D01*
X52331962Y41692962D01*
X52197386Y41803405D01*
X52043850Y41885472D01*
X51877254Y41936008D01*
X51704000Y41953072D01*
X50404000Y41953072D01*
X50230746Y41936008D01*
X50064150Y41885472D01*
X49910614Y41803405D01*
X49776038Y41692962D01*
X49665595Y41558386D01*
X49583528Y41404850D01*
X49532992Y41238254D01*
X49515928Y41065000D01*
X48637086Y41065000D01*
X48526481Y41271927D01*
X48334661Y41505661D01*
X48100927Y41697481D01*
X47834261Y41840017D01*
X47544913Y41927790D01*
X47244000Y41957427D01*
X46943088Y41927790D01*
X46653740Y41840017D01*
X46387074Y41697481D01*
X46153340Y41505661D01*
X45961520Y41271927D01*
X45818984Y41005261D01*
X45731211Y40715913D01*
X45709000Y40490408D01*
X45110000Y40490408D01*
X45110000Y46965000D01*
X62840001Y46965000D01*
X62840001Y3809214D01*
G36*
X54102000Y10296890D02*
G01*
X54102000Y10135110D01*
X53989143Y10022253D01*
X53975000Y10036395D01*
X53960858Y10022253D01*
X53848000Y10135110D01*
X53848000Y10296890D01*
X53960858Y10409748D01*
X53975000Y10395605D01*
X53989143Y10409748D01*
X54102000Y10296890D01*
X54102000Y10296890D01*
G37*
X54102000Y10296890D02*
X54102000Y10135110D01*
X53989143Y10022253D01*
X53975000Y10036395D01*
X53960858Y10022253D01*
X53848000Y10135110D01*
X53848000Y10296890D01*
X53960858Y10409748D01*
X53975000Y10395605D01*
X53989143Y10409748D01*
X54102000Y10296890D01*
G36*
X54102000Y11635110D02*
G01*
X53989143Y11522253D01*
X53975000Y11536395D01*
X53960858Y11522253D01*
X53848000Y11635110D01*
X53848000Y12022605D01*
X53975000Y11895605D01*
X54102000Y12022605D01*
X54102000Y11635110D01*
X54102000Y11635110D01*
G37*
X54102000Y11635110D02*
X53989143Y11522253D01*
X53975000Y11536395D01*
X53960858Y11522253D01*
X53848000Y11635110D01*
X53848000Y12022605D01*
X53975000Y11895605D01*
X54102000Y12022605D01*
X54102000Y11635110D01*
G36*
X56120064Y12581459D02*
G01*
X56126345Y12466000D01*
X56120064Y12350541D01*
X56131605Y12339000D01*
X55718395Y12339000D01*
X55729936Y12350541D01*
X55723655Y12466000D01*
X55729936Y12581459D01*
X55718395Y12593000D01*
X56131605Y12593000D01*
X56120064Y12581459D01*
X56120064Y12581459D01*
G37*
X56120064Y12581459D02*
X56126345Y12466000D01*
X56120064Y12350541D01*
X56131605Y12339000D01*
X55718395Y12339000D01*
X55729936Y12350541D01*
X55723655Y12466000D01*
X55729936Y12581459D01*
X55718395Y12593000D01*
X56131605Y12593000D01*
X56120064Y12581459D01*
G36*
X52220064Y12581459D02*
G01*
X52226345Y12466000D01*
X52220064Y12350541D01*
X52231605Y12339000D01*
X51818395Y12339000D01*
X51829936Y12350541D01*
X51823655Y12466000D01*
X51829936Y12581459D01*
X51818395Y12593000D01*
X52231605Y12593000D01*
X52220064Y12581459D01*
X52220064Y12581459D01*
G37*
X52220064Y12581459D02*
X52226345Y12466000D01*
X52220064Y12350541D01*
X52231605Y12339000D01*
X51818395Y12339000D01*
X51829936Y12350541D01*
X51823655Y12466000D01*
X51829936Y12581459D01*
X51818395Y12593000D01*
X52231605Y12593000D01*
X52220064Y12581459D01*
G36*
X54102000Y13296890D02*
G01*
X54102000Y12909395D01*
X53975000Y13036395D01*
X53848000Y12909395D01*
X53848000Y13296890D01*
X53960858Y13409748D01*
X53975000Y13395605D01*
X53989143Y13409748D01*
X54102000Y13296890D01*
X54102000Y13296890D01*
G37*
X54102000Y13296890D02*
X54102000Y12909395D01*
X53975000Y13036395D01*
X53848000Y12909395D01*
X53848000Y13296890D01*
X53960858Y13409748D01*
X53975000Y13395605D01*
X53989143Y13409748D01*
X54102000Y13296890D01*
G36*
X54102000Y14796890D02*
G01*
X54102000Y14635110D01*
X53989143Y14522253D01*
X53975000Y14536395D01*
X53960858Y14522253D01*
X53848000Y14635110D01*
X53848000Y14796890D01*
X53960858Y14909748D01*
X53975000Y14895605D01*
X53989143Y14909748D01*
X54102000Y14796890D01*
X54102000Y14796890D01*
G37*
X54102000Y14796890D02*
X54102000Y14635110D01*
X53989143Y14522253D01*
X53975000Y14536395D01*
X53960858Y14522253D01*
X53848000Y14635110D01*
X53848000Y14796890D01*
X53960858Y14909748D01*
X53975000Y14895605D01*
X53989143Y14909748D01*
X54102000Y14796890D01*
M02*
