G04 #@! TF.GenerationSoftware,KiCad,Pcbnew,(5.1.2-1)-1*
G04 #@! TF.CreationDate,2023-05-16T14:59:08-07:00*
G04 #@! TF.ProjectId,FlailDriver,466c6169-6c44-4726-9976-65722e6b6963,rev?*
G04 #@! TF.SameCoordinates,Original*
G04 #@! TF.FileFunction,Legend,Bot*
G04 #@! TF.FilePolarity,Positive*
%FSLAX46Y46*%
G04 Gerber Fmt 4.6, Leading zero omitted, Abs format (unit mm)*
G04 Created by KiCad (PCBNEW (5.1.2-1)-1) date 2023-05-16 14:59:08*
%MOMM*%
%LPD*%
G04 APERTURE LIST*
%ADD10C,0.075000*%
%ADD11C,0.127000*%
%ADD12C,0.120000*%
%ADD13C,0.150000*%
G04 APERTURE END LIST*
D10*
X57141666Y18735714D02*
X57308333Y18735714D01*
X57308333Y18473809D02*
X57308333Y18973809D01*
X57070238Y18973809D01*
X56641666Y18473809D02*
X56879761Y18473809D01*
X56879761Y18973809D01*
X56498809Y18616666D02*
X56260714Y18616666D01*
X56546428Y18473809D02*
X56379761Y18973809D01*
X56213095Y18473809D01*
X56046428Y18473809D02*
X56046428Y18973809D01*
X55570238Y18473809D02*
X55808333Y18473809D01*
X55808333Y18973809D01*
X55022619Y18473809D02*
X55022619Y18973809D01*
X54903571Y18973809D01*
X54832142Y18950000D01*
X54784523Y18902380D01*
X54760714Y18854761D01*
X54736904Y18759523D01*
X54736904Y18688095D01*
X54760714Y18592857D01*
X54784523Y18545238D01*
X54832142Y18497619D01*
X54903571Y18473809D01*
X55022619Y18473809D01*
X54236904Y18473809D02*
X54403571Y18711904D01*
X54522619Y18473809D02*
X54522619Y18973809D01*
X54332142Y18973809D01*
X54284523Y18950000D01*
X54260714Y18926190D01*
X54236904Y18878571D01*
X54236904Y18807142D01*
X54260714Y18759523D01*
X54284523Y18735714D01*
X54332142Y18711904D01*
X54522619Y18711904D01*
X54022619Y18473809D02*
X54022619Y18973809D01*
X53855952Y18973809D02*
X53689285Y18473809D01*
X53522619Y18973809D01*
X53355952Y18735714D02*
X53189285Y18735714D01*
X53117857Y18473809D02*
X53355952Y18473809D01*
X53355952Y18973809D01*
X53117857Y18973809D01*
X52617857Y18473809D02*
X52784523Y18711904D01*
X52903571Y18473809D02*
X52903571Y18973809D01*
X52713095Y18973809D01*
X52665476Y18950000D01*
X52641666Y18926190D01*
X52617857Y18878571D01*
X52617857Y18807142D01*
X52641666Y18759523D01*
X52665476Y18735714D01*
X52713095Y18711904D01*
X52903571Y18711904D01*
X52094047Y18973809D02*
X51927380Y18473809D01*
X51760714Y18973809D01*
X51332142Y18473809D02*
X51617857Y18473809D01*
X51475000Y18473809D02*
X51475000Y18973809D01*
X51522619Y18902380D01*
X51570238Y18854761D01*
X51617857Y18830952D01*
X51117857Y18521428D02*
X51094047Y18497619D01*
X51117857Y18473809D01*
X51141666Y18497619D01*
X51117857Y18521428D01*
X51117857Y18473809D01*
X50784523Y18973809D02*
X50736904Y18973809D01*
X50689285Y18950000D01*
X50665476Y18926190D01*
X50641666Y18878571D01*
X50617857Y18783333D01*
X50617857Y18664285D01*
X50641666Y18569047D01*
X50665476Y18521428D01*
X50689285Y18497619D01*
X50736904Y18473809D01*
X50784523Y18473809D01*
X50832142Y18497619D01*
X50855952Y18521428D01*
X50879761Y18569047D01*
X50903571Y18664285D01*
X50903571Y18783333D01*
X50879761Y18878571D01*
X50855952Y18926190D01*
X50832142Y18950000D01*
X50784523Y18973809D01*
X56951190Y17910714D02*
X56784523Y17910714D01*
X56713095Y17648809D02*
X56951190Y17648809D01*
X56951190Y18148809D01*
X56713095Y18148809D01*
X56498809Y17648809D02*
X56498809Y18148809D01*
X56332142Y17791666D01*
X56165476Y18148809D01*
X56165476Y17648809D01*
X55927380Y17648809D02*
X55927380Y18148809D01*
X55760714Y17791666D01*
X55594047Y18148809D01*
X55594047Y17648809D01*
X55355952Y17910714D02*
X55189285Y17910714D01*
X55117857Y17648809D02*
X55355952Y17648809D01*
X55355952Y18148809D01*
X55117857Y18148809D01*
X54975000Y18148809D02*
X54689285Y18148809D01*
X54832142Y17648809D02*
X54832142Y18148809D01*
X54594047Y18148809D02*
X54308333Y18148809D01*
X54451190Y17648809D02*
X54451190Y18148809D01*
X53760714Y17648809D02*
X53760714Y18148809D01*
X53570238Y18148809D01*
X53522619Y18125000D01*
X53498809Y18101190D01*
X53475000Y18053571D01*
X53475000Y17982142D01*
X53498809Y17934523D01*
X53522619Y17910714D01*
X53570238Y17886904D01*
X53760714Y17886904D01*
X53284523Y17791666D02*
X53046428Y17791666D01*
X53332142Y17648809D02*
X53165476Y18148809D01*
X52998809Y17648809D01*
X52594047Y17648809D02*
X52832142Y17648809D01*
X52832142Y18148809D01*
X52451190Y17791666D02*
X52213095Y17791666D01*
X52498809Y17648809D02*
X52332142Y18148809D01*
X52165476Y17648809D01*
X51998809Y17648809D02*
X51998809Y18148809D01*
X51760714Y17648809D02*
X51760714Y18148809D01*
X51594047Y17791666D01*
X51427380Y18148809D01*
X51427380Y17648809D01*
X51213095Y17791666D02*
X50975000Y17791666D01*
X51260714Y17648809D02*
X51094047Y18148809D01*
X50927380Y17648809D01*
X58034523Y16823809D02*
X58034523Y17323809D01*
X58034523Y17085714D02*
X57748809Y17085714D01*
X57748809Y16823809D02*
X57748809Y17323809D01*
X57510714Y16823809D02*
X57510714Y17323809D01*
X57510714Y17085714D02*
X57225000Y17085714D01*
X57225000Y16823809D02*
X57225000Y17323809D01*
X57010714Y16966666D02*
X56772619Y16966666D01*
X57058333Y16823809D02*
X56891666Y17323809D01*
X56725000Y16823809D01*
X56558333Y17323809D02*
X56558333Y16919047D01*
X56534523Y16871428D01*
X56510714Y16847619D01*
X56463095Y16823809D01*
X56367857Y16823809D01*
X56320238Y16847619D01*
X56296428Y16871428D01*
X56272619Y16919047D01*
X56272619Y17323809D01*
X56034523Y16823809D02*
X56034523Y17323809D01*
X55915476Y17323809D01*
X55844047Y17300000D01*
X55796428Y17252380D01*
X55772619Y17204761D01*
X55748809Y17109523D01*
X55748809Y17038095D01*
X55772619Y16942857D01*
X55796428Y16895238D01*
X55844047Y16847619D01*
X55915476Y16823809D01*
X56034523Y16823809D01*
X55534523Y16823809D02*
X55534523Y17323809D01*
X55201190Y17323809D02*
X55105952Y17323809D01*
X55058333Y17300000D01*
X55010714Y17252380D01*
X54986904Y17157142D01*
X54986904Y16990476D01*
X55010714Y16895238D01*
X55058333Y16847619D01*
X55105952Y16823809D01*
X55201190Y16823809D01*
X55248809Y16847619D01*
X55296428Y16895238D01*
X55320238Y16990476D01*
X55320238Y17157142D01*
X55296428Y17252380D01*
X55248809Y17300000D01*
X55201190Y17323809D01*
X54391666Y17014285D02*
X54010714Y17014285D01*
X53391666Y16823809D02*
X53391666Y17323809D01*
X53225000Y16966666D01*
X53058333Y17323809D01*
X53058333Y16823809D01*
X52844047Y16966666D02*
X52605952Y16966666D01*
X52891666Y16823809D02*
X52725000Y17323809D01*
X52558333Y16823809D01*
X52296428Y17061904D02*
X52296428Y16823809D01*
X52463095Y17323809D02*
X52296428Y17061904D01*
X52129761Y17323809D01*
X51605952Y17276190D02*
X51582142Y17300000D01*
X51534523Y17323809D01*
X51415476Y17323809D01*
X51367857Y17300000D01*
X51344047Y17276190D01*
X51320238Y17228571D01*
X51320238Y17180952D01*
X51344047Y17109523D01*
X51629761Y16823809D01*
X51320238Y16823809D01*
X51010714Y17323809D02*
X50963095Y17323809D01*
X50915476Y17300000D01*
X50891666Y17276190D01*
X50867857Y17228571D01*
X50844047Y17133333D01*
X50844047Y17014285D01*
X50867857Y16919047D01*
X50891666Y16871428D01*
X50915476Y16847619D01*
X50963095Y16823809D01*
X51010714Y16823809D01*
X51058333Y16847619D01*
X51082142Y16871428D01*
X51105952Y16919047D01*
X51129761Y17014285D01*
X51129761Y17133333D01*
X51105952Y17228571D01*
X51082142Y17276190D01*
X51058333Y17300000D01*
X51010714Y17323809D01*
X50653571Y17276190D02*
X50629761Y17300000D01*
X50582142Y17323809D01*
X50463095Y17323809D01*
X50415476Y17300000D01*
X50391666Y17276190D01*
X50367857Y17228571D01*
X50367857Y17180952D01*
X50391666Y17109523D01*
X50677380Y16823809D01*
X50367857Y16823809D01*
X50201190Y17323809D02*
X49891666Y17323809D01*
X50058333Y17133333D01*
X49986904Y17133333D01*
X49939285Y17109523D01*
X49915476Y17085714D01*
X49891666Y17038095D01*
X49891666Y16919047D01*
X49915476Y16871428D01*
X49939285Y16847619D01*
X49986904Y16823809D01*
X50129761Y16823809D01*
X50177380Y16847619D01*
X50201190Y16871428D01*
X56284523Y16498809D02*
X56284523Y16141666D01*
X56308333Y16070238D01*
X56355952Y16022619D01*
X56427380Y15998809D01*
X56475000Y15998809D01*
X55808333Y15998809D02*
X56046428Y15998809D01*
X56046428Y16498809D01*
X55355952Y16046428D02*
X55379761Y16022619D01*
X55451190Y15998809D01*
X55498809Y15998809D01*
X55570238Y16022619D01*
X55617857Y16070238D01*
X55641666Y16117857D01*
X55665476Y16213095D01*
X55665476Y16284523D01*
X55641666Y16379761D01*
X55617857Y16427380D01*
X55570238Y16475000D01*
X55498809Y16498809D01*
X55451190Y16498809D01*
X55379761Y16475000D01*
X55355952Y16451190D01*
X54998809Y16498809D02*
X54998809Y16141666D01*
X55022619Y16070238D01*
X55070238Y16022619D01*
X55141666Y15998809D01*
X55189285Y15998809D01*
X54522619Y15998809D02*
X54760714Y15998809D01*
X54760714Y16498809D01*
X54070238Y16046428D02*
X54094047Y16022619D01*
X54165476Y15998809D01*
X54213095Y15998809D01*
X54284523Y16022619D01*
X54332142Y16070238D01*
X54355952Y16117857D01*
X54379761Y16213095D01*
X54379761Y16284523D01*
X54355952Y16379761D01*
X54332142Y16427380D01*
X54284523Y16475000D01*
X54213095Y16498809D01*
X54165476Y16498809D01*
X54094047Y16475000D01*
X54070238Y16451190D01*
X53713095Y16498809D02*
X53713095Y16141666D01*
X53736904Y16070238D01*
X53784523Y16022619D01*
X53855952Y15998809D01*
X53903571Y15998809D01*
X53236904Y15998809D02*
X53475000Y15998809D01*
X53475000Y16498809D01*
X52784523Y16046428D02*
X52808333Y16022619D01*
X52879761Y15998809D01*
X52927380Y15998809D01*
X52998809Y16022619D01*
X53046428Y16070238D01*
X53070238Y16117857D01*
X53094047Y16213095D01*
X53094047Y16284523D01*
X53070238Y16379761D01*
X53046428Y16427380D01*
X52998809Y16475000D01*
X52927380Y16498809D01*
X52879761Y16498809D01*
X52808333Y16475000D01*
X52784523Y16451190D01*
X52427380Y16498809D02*
X52427380Y16141666D01*
X52451190Y16070238D01*
X52498809Y16022619D01*
X52570238Y15998809D01*
X52617857Y15998809D01*
X51951190Y15998809D02*
X52189285Y15998809D01*
X52189285Y16498809D01*
X51498809Y16046428D02*
X51522619Y16022619D01*
X51594047Y15998809D01*
X51641666Y15998809D01*
X51713095Y16022619D01*
X51760714Y16070238D01*
X51784523Y16117857D01*
X51808333Y16213095D01*
X51808333Y16284523D01*
X51784523Y16379761D01*
X51760714Y16427380D01*
X51713095Y16475000D01*
X51641666Y16498809D01*
X51594047Y16498809D01*
X51522619Y16475000D01*
X51498809Y16451190D01*
D11*
X62865000Y-163830000D02*
X62865000Y-128270000D01*
X62865000Y-163830000D02*
X62865000Y-128270000D01*
X45085000Y-128270000D02*
X45085000Y-163830000D01*
X45085000Y-128270000D02*
X45085000Y-163830000D01*
X62865000Y-128270000D02*
X45085000Y-128270000D01*
X62865000Y-128270000D02*
X45085000Y-128270000D01*
X45085000Y-163830000D02*
X62865000Y-163830000D01*
X45085000Y-163830000D02*
X62865000Y-163830000D01*
D12*
X57380000Y-154740000D02*
X56630000Y-154740000D01*
X57380000Y-159040000D02*
X57380000Y-154740000D01*
X56630000Y-159040000D02*
X57380000Y-159040000D01*
X56630000Y-159390000D02*
X56630000Y-159040000D01*
X57130000Y-159390000D02*
X56630000Y-159390000D01*
X57380000Y-160390000D02*
X57130000Y-159390000D01*
X54380000Y-160390000D02*
X57380000Y-160390000D01*
X54630000Y-159390000D02*
X54380000Y-160390000D01*
X55130000Y-159390000D02*
X54630000Y-159390000D01*
X55130000Y-159040000D02*
X55130000Y-159390000D01*
X54380000Y-159040000D02*
X55130000Y-159040000D01*
X54380000Y-154740000D02*
X54380000Y-159040000D01*
X55130000Y-154740000D02*
X54380000Y-154740000D01*
X53570000Y-154740000D02*
X52820000Y-154740000D01*
X53570000Y-159040000D02*
X53570000Y-154740000D01*
X52820000Y-159040000D02*
X53570000Y-159040000D01*
X52820000Y-159390000D02*
X52820000Y-159040000D01*
X53320000Y-159390000D02*
X52820000Y-159390000D01*
X53570000Y-160390000D02*
X53320000Y-159390000D01*
X50570000Y-160390000D02*
X53570000Y-160390000D01*
X50820000Y-159390000D02*
X50570000Y-160390000D01*
X51320000Y-159390000D02*
X50820000Y-159390000D01*
X51320000Y-159040000D02*
X51320000Y-159390000D01*
X50570000Y-159040000D02*
X51320000Y-159040000D01*
X50570000Y-154740000D02*
X50570000Y-159040000D01*
X51320000Y-154740000D02*
X50570000Y-154740000D01*
X58590000Y-153880000D02*
X58590000Y-161350000D01*
X49360000Y-153880000D02*
X58590000Y-153880000D01*
X49360000Y-161350000D02*
X49360000Y-153880000D01*
X56629647Y-154740155D02*
G75*
G02X55130000Y-154740000I-749647J1700155D01*
G01*
X58590000Y-161350000D02*
X49360000Y-161350000D01*
X52819647Y-154740155D02*
G75*
G02X51320000Y-154740000I-749647J1700155D01*
G01*
X50304353Y37265155D02*
G75*
G02X51804000Y37265000I749647J-1700155D01*
G01*
X44534000Y43875000D02*
X53764000Y43875000D01*
X46494353Y37265155D02*
G75*
G02X47994000Y37265000I749647J-1700155D01*
G01*
X53764000Y43875000D02*
X53764000Y36405000D01*
X53764000Y36405000D02*
X44534000Y36405000D01*
X44534000Y36405000D02*
X44534000Y43875000D01*
X51804000Y37265000D02*
X52554000Y37265000D01*
X52554000Y37265000D02*
X52554000Y41565000D01*
X52554000Y41565000D02*
X51804000Y41565000D01*
X51804000Y41565000D02*
X51804000Y41915000D01*
X51804000Y41915000D02*
X52304000Y41915000D01*
X52304000Y41915000D02*
X52554000Y42915000D01*
X52554000Y42915000D02*
X49554000Y42915000D01*
X49554000Y42915000D02*
X49804000Y41915000D01*
X49804000Y41915000D02*
X50304000Y41915000D01*
X50304000Y41915000D02*
X50304000Y41565000D01*
X50304000Y41565000D02*
X49554000Y41565000D01*
X49554000Y41565000D02*
X49554000Y37265000D01*
X49554000Y37265000D02*
X50304000Y37265000D01*
X47994000Y37265000D02*
X48744000Y37265000D01*
X48744000Y37265000D02*
X48744000Y41565000D01*
X48744000Y41565000D02*
X47994000Y41565000D01*
X47994000Y41565000D02*
X47994000Y41915000D01*
X47994000Y41915000D02*
X48494000Y41915000D01*
X48494000Y41915000D02*
X48744000Y42915000D01*
X48744000Y42915000D02*
X45744000Y42915000D01*
X45744000Y42915000D02*
X45994000Y41915000D01*
X45994000Y41915000D02*
X46494000Y41915000D01*
X46494000Y41915000D02*
X46494000Y41565000D01*
X46494000Y41565000D02*
X45744000Y41565000D01*
X45744000Y41565000D02*
X45744000Y37265000D01*
X45744000Y37265000D02*
X46494000Y37265000D01*
X55396000Y37265000D02*
X56146000Y37265000D01*
X55396000Y41565000D02*
X55396000Y37265000D01*
X56146000Y41565000D02*
X55396000Y41565000D01*
X56146000Y41915000D02*
X56146000Y41565000D01*
X55646000Y41915000D02*
X56146000Y41915000D01*
X55396000Y42915000D02*
X55646000Y41915000D01*
X58396000Y42915000D02*
X55396000Y42915000D01*
X58146000Y41915000D02*
X58396000Y42915000D01*
X57646000Y41915000D02*
X58146000Y41915000D01*
X57646000Y41565000D02*
X57646000Y41915000D01*
X58396000Y41565000D02*
X57646000Y41565000D01*
X58396000Y37265000D02*
X58396000Y41565000D01*
X57646000Y37265000D02*
X58396000Y37265000D01*
X59206000Y37265000D02*
X59956000Y37265000D01*
X59206000Y41565000D02*
X59206000Y37265000D01*
X59956000Y41565000D02*
X59206000Y41565000D01*
X59956000Y41915000D02*
X59956000Y41565000D01*
X59456000Y41915000D02*
X59956000Y41915000D01*
X59206000Y42915000D02*
X59456000Y41915000D01*
X62206000Y42915000D02*
X59206000Y42915000D01*
X61956000Y41915000D02*
X62206000Y42915000D01*
X61456000Y41915000D02*
X61956000Y41915000D01*
X61456000Y41565000D02*
X61456000Y41915000D01*
X62206000Y41565000D02*
X61456000Y41565000D01*
X62206000Y37265000D02*
X62206000Y41565000D01*
X61456000Y37265000D02*
X62206000Y37265000D01*
X54186000Y36405000D02*
X54186000Y43875000D01*
X63416000Y36405000D02*
X54186000Y36405000D01*
X63416000Y43875000D02*
X63416000Y36405000D01*
X56146353Y37265155D02*
G75*
G02X57646000Y37265000I749647J-1700155D01*
G01*
X54186000Y43875000D02*
X63416000Y43875000D01*
X59956353Y37265155D02*
G75*
G02X61456000Y37265000I749647J-1700155D01*
G01*
D11*
X54439457Y-135556171D02*
X54439457Y-136049657D01*
X54410428Y-136107714D01*
X54381400Y-136136742D01*
X54323342Y-136165771D01*
X54207228Y-136165771D01*
X54149171Y-136136742D01*
X54120142Y-136107714D01*
X54091114Y-136049657D01*
X54091114Y-135556171D01*
X53539571Y-135759371D02*
X53539571Y-136165771D01*
X53684714Y-135527142D02*
X53829857Y-135962571D01*
X53452485Y-135962571D01*
X58576028Y-136826171D02*
X58227685Y-136826171D01*
X58401857Y-137435771D02*
X58401857Y-136826171D01*
X58024485Y-137116457D02*
X57821285Y-137116457D01*
X57734200Y-137435771D02*
X58024485Y-137435771D01*
X58024485Y-136826171D01*
X57734200Y-136826171D01*
X57472942Y-137116457D02*
X57269742Y-137116457D01*
X57182657Y-137435771D02*
X57472942Y-137435771D01*
X57472942Y-136826171D01*
X57182657Y-136826171D01*
X56921399Y-137435771D02*
X56921399Y-136826171D01*
X56573057Y-137435771D01*
X56573057Y-136826171D01*
X56311800Y-137406742D02*
X56224714Y-137435771D01*
X56079571Y-137435771D01*
X56021514Y-137406742D01*
X55992485Y-137377714D01*
X55963457Y-137319657D01*
X55963457Y-137261600D01*
X55992485Y-137203542D01*
X56021514Y-137174514D01*
X56079571Y-137145485D01*
X56195685Y-137116457D01*
X56253742Y-137087428D01*
X56282771Y-137058400D01*
X56311800Y-137000342D01*
X56311800Y-136942285D01*
X56282771Y-136884228D01*
X56253742Y-136855200D01*
X56195685Y-136826171D01*
X56050542Y-136826171D01*
X55963457Y-136855200D01*
X55586085Y-137145485D02*
X55586085Y-137435771D01*
X55789285Y-136826171D02*
X55586085Y-137145485D01*
X55382885Y-136826171D01*
X55324828Y-137493828D02*
X54860371Y-137493828D01*
X54453971Y-137029371D02*
X54453971Y-137435771D01*
X54599114Y-136797142D02*
X54744257Y-137232571D01*
X54366885Y-137232571D01*
X54134657Y-137377714D02*
X54105628Y-137406742D01*
X54134657Y-137435771D01*
X54163685Y-137406742D01*
X54134657Y-137377714D01*
X54134657Y-137435771D01*
X53525057Y-137435771D02*
X53873400Y-137435771D01*
X53699228Y-137435771D02*
X53699228Y-136826171D01*
X53757285Y-136913257D01*
X53815342Y-136971314D01*
X53873400Y-137000342D01*
X53408942Y-137493828D02*
X52944485Y-137493828D01*
X52799342Y-137435771D02*
X52799342Y-136826171D01*
X52596142Y-137261600D01*
X52392942Y-136826171D01*
X52392942Y-137435771D01*
X52102657Y-137435771D02*
X52102657Y-136826171D01*
X51812371Y-137435771D02*
X51812371Y-136826171D01*
X51464028Y-137435771D01*
X51464028Y-136826171D01*
X51173742Y-137435771D02*
X51173742Y-136826171D01*
X50883457Y-137435771D02*
X50883457Y-136826171D01*
X50680257Y-137261600D01*
X50477057Y-136826171D01*
X50477057Y-137435771D01*
X50215800Y-137261600D02*
X49925514Y-137261600D01*
X50273857Y-137435771D02*
X50070657Y-136826171D01*
X49867457Y-137435771D01*
X49373971Y-137435771D02*
X49664257Y-137435771D01*
X49664257Y-136826171D01*
D13*
X52641666Y-163892380D02*
X52641666Y-162892380D01*
X53022619Y-162892380D01*
X53117857Y-162940000D01*
X53165476Y-162987619D01*
X53213095Y-163082857D01*
X53213095Y-163225714D01*
X53165476Y-163320952D01*
X53117857Y-163368571D01*
X53022619Y-163416190D01*
X52641666Y-163416190D01*
X53546428Y-162892380D02*
X53784523Y-163892380D01*
X53975000Y-163178095D01*
X54165476Y-163892380D01*
X54403571Y-162892380D01*
X55355952Y-163892380D02*
X55022619Y-163416190D01*
X54784523Y-163892380D02*
X54784523Y-162892380D01*
X55165476Y-162892380D01*
X55260714Y-162940000D01*
X55308333Y-162987619D01*
X55355952Y-163082857D01*
X55355952Y-163225714D01*
X55308333Y-163320952D01*
X55260714Y-163368571D01*
X55165476Y-163416190D01*
X54784523Y-163416190D01*
X49927047Y-163461428D02*
X50688952Y-163461428D01*
X57261047Y-163461428D02*
X58022952Y-163461428D01*
X57642000Y-163842380D02*
X57642000Y-163080476D01*
X50268047Y46417380D02*
X50744238Y46417380D01*
X50744238Y45417380D01*
X49744238Y45417380D02*
X49553761Y45417380D01*
X49458523Y45465000D01*
X49363285Y45560238D01*
X49315666Y45750714D01*
X49315666Y46084047D01*
X49363285Y46274523D01*
X49458523Y46369761D01*
X49553761Y46417380D01*
X49744238Y46417380D01*
X49839476Y46369761D01*
X49934714Y46274523D01*
X49982333Y46084047D01*
X49982333Y45750714D01*
X49934714Y45560238D01*
X49839476Y45465000D01*
X49744238Y45417380D01*
X48887095Y45417380D02*
X48887095Y46226904D01*
X48839476Y46322142D01*
X48791857Y46369761D01*
X48696619Y46417380D01*
X48506142Y46417380D01*
X48410904Y46369761D01*
X48363285Y46322142D01*
X48315666Y46226904D01*
X48315666Y45417380D01*
X47982333Y45417380D02*
X47410904Y45417380D01*
X47696619Y46417380D02*
X47696619Y45417380D01*
X45101047Y45843571D02*
X45862952Y45843571D01*
X45482000Y45462619D02*
X45482000Y46224523D01*
X52435047Y45843571D02*
X53196952Y45843571D01*
X59920047Y46417380D02*
X60253380Y45941190D01*
X60491476Y46417380D02*
X60491476Y45417380D01*
X60110523Y45417380D01*
X60015285Y45465000D01*
X59967666Y45512619D01*
X59920047Y45607857D01*
X59920047Y45750714D01*
X59967666Y45845952D01*
X60015285Y45893571D01*
X60110523Y45941190D01*
X60491476Y45941190D01*
X59301000Y45417380D02*
X59110523Y45417380D01*
X59015285Y45465000D01*
X58920047Y45560238D01*
X58872428Y45750714D01*
X58872428Y46084047D01*
X58920047Y46274523D01*
X59015285Y46369761D01*
X59110523Y46417380D01*
X59301000Y46417380D01*
X59396238Y46369761D01*
X59491476Y46274523D01*
X59539095Y46084047D01*
X59539095Y45750714D01*
X59491476Y45560238D01*
X59396238Y45465000D01*
X59301000Y45417380D01*
X58443857Y45417380D02*
X58443857Y46226904D01*
X58396238Y46322142D01*
X58348619Y46369761D01*
X58253380Y46417380D01*
X58062904Y46417380D01*
X57967666Y46369761D01*
X57920047Y46322142D01*
X57872428Y46226904D01*
X57872428Y45417380D01*
X57539095Y45417380D02*
X56967666Y45417380D01*
X57253380Y46417380D02*
X57253380Y45417380D01*
X62087047Y45843571D02*
X62848952Y45843571D01*
X54753047Y45843571D02*
X55514952Y45843571D01*
X55134000Y45462619D02*
X55134000Y46224523D01*
M02*
