M48
; DRILL file {KiCad (5.1.2-1)-1} date Tuesday, 16 May 2023 at 14:59:09
; FORMAT={-:-/ absolute / metric / decimal}
; #@! TF.CreationDate,2023-05-16T14:59:09-07:00
; #@! TF.GenerationSoftware,Kicad,Pcbnew,(5.1.2-1)-1
; #@! TF.FileFunction,Plated,1,2,PTH
FMAT,2
METRIC
T1C0.300
T2C0.400
T3C0.600
T4C1.000
T5C1.016
T6C1.200
T7C3.300
%
G90
G05
T1
X48.775Y14.716
X48.775Y13.216
X48.775Y11.716
X48.775Y10.216
X50.075Y14.716
X50.075Y13.216
X50.075Y11.716
X50.075Y10.216
X51.375Y14.716
X51.375Y13.216
X51.375Y11.716
X51.375Y10.216
X52.675Y14.716
X52.675Y13.216
X52.675Y11.716
X52.675Y10.216
X53.975Y14.716
X53.975Y13.216
X53.975Y11.716
X53.975Y10.216
X55.275Y14.716
X55.275Y13.216
X55.275Y11.716
X55.275Y10.216
X56.575Y14.716
X56.575Y13.216
X56.575Y11.716
X56.575Y10.216
X57.875Y14.716
X57.875Y13.216
X57.875Y11.716
X57.875Y10.216
X59.175Y14.716
X59.175Y13.216
X59.175Y11.716
X59.175Y10.216
T2
X45.339Y17.272
X45.339Y14.986
X45.339Y12.7
X45.466Y20.828
X46.564Y-110.617
X46.64Y-111.614
X46.863Y-120.015
X47.625Y-85.598
X47.625Y-95.123
X47.879Y-120.015
X48.133Y-103.378
X48.133Y-109.347
X48.895Y-38.481
X49.276Y-35.56
X50.038Y20.828
X50.165Y-116.078
X50.927Y2.032
X50.927Y-1.016
X50.927Y-35.56
X51.308Y-43.434
X51.943Y2.032
X51.943Y-1.016
X52.07Y-65.405
X52.197Y3.81
X52.959Y2.032
X52.959Y-1.016
X53.206Y-106.426
X53.34Y-65.405
X53.975Y3.81
X53.975Y2.032
X53.975Y-1.016
X54.61Y-65.405
X54.991Y2.032
X54.991Y-1.016
X54.991Y-116.078
X55.706Y-106.426
X55.88Y-83.439
X56.007Y2.032
X56.007Y-1.016
X56.642Y-43.434
X56.769Y-38.481
X57.023Y2.032
X57.023Y-1.016
X57.531Y3.81
X57.531Y-95.377
X57.912Y20.828
X57.912Y-92.075
X58.039Y-103.378
X58.039Y-109.347
X58.42Y-34.798
X58.801Y-112.522
X58.801Y-119.634
X58.928Y-92.075
X59.563Y-120.777
X59.69Y-123.571
X60.706Y3.048
X62.484Y20.828
X62.611Y17.272
X62.611Y14.986
X62.611Y12.7
T4
X49.022Y-47.468
X49.022Y-55.767
X49.022Y-58.867
X58.928Y-47.468
X58.928Y-55.767
X58.928Y-58.867
T5
X46.355Y-129.54
X46.355Y-132.08
X46.355Y-134.62
X46.355Y-137.16
X46.355Y-139.7
X46.355Y-142.24
X46.355Y-144.78
X46.355Y-147.32
X46.355Y-149.86
X46.355Y-152.4
X46.355Y-154.94
X46.355Y-157.48
X46.355Y-160.02
X46.355Y-162.56
X61.595Y-129.54
X61.595Y-132.08
X61.595Y-134.62
X61.595Y-137.16
X61.595Y-139.7
X61.595Y-142.24
X61.595Y-144.78
X61.595Y-147.32
X61.595Y-149.86
X61.595Y-152.4
X61.595Y-154.94
X61.595Y-157.48
X61.595Y-160.02
X61.595Y-162.56
T6
X56.896Y39.515
X56.896Y39.515
X60.706Y39.515
X60.706Y39.515
X52.07Y-156.99
X52.07Y-156.99
X55.88Y-156.99
X55.88Y-156.99
X47.244Y39.515
X47.244Y39.515
X51.054Y39.515
X51.054Y39.515
T7
X53.975Y28.575
X53.975Y-123.825
X53.975Y-73.025
X53.975Y-22.225
T3
G00X48.575Y-135.2
M15
G01X48.575Y-134.2
M16
G05
G00X48.575Y-145.2
M15
G01X48.575Y-144.2
M16
G05
G00X59.375Y-140.2
M15
G01X59.375Y-139.2
M16
G05
T0
M30
