G04 #@! TF.GenerationSoftware,KiCad,Pcbnew,(5.1.2-1)-1*
G04 #@! TF.CreationDate,2023-07-04T14:00:35-04:00*
G04 #@! TF.ProjectId,FlailDriver,466c6169-6c44-4726-9976-65722e6b6963,rev?*
G04 #@! TF.SameCoordinates,Original*
G04 #@! TF.FileFunction,Copper,L2,Bot*
G04 #@! TF.FilePolarity,Positive*
%FSLAX46Y46*%
G04 Gerber Fmt 4.6, Leading zero omitted, Abs format (unit mm)*
G04 Created by KiCad (PCBNEW (5.1.2-1)-1) date 2023-07-04 14:00:35*
%MOMM*%
%LPD*%
G04 APERTURE LIST*
%ADD10O,1.800000X3.600000*%
%ADD11C,0.100000*%
%ADD12C,1.800000*%
%ADD13C,1.300000*%
%ADD14O,1.200000X2.200000*%
%ADD15C,0.600000*%
%ADD16R,11.000000X5.200000*%
%ADD17C,5.000000*%
%ADD18C,1.700000*%
%ADD19C,1.879600*%
%ADD20C,0.800000*%
%ADD21C,13.000000*%
%ADD22C,0.250000*%
%ADD23C,0.254000*%
G04 APERTURE END LIST*
D10*
X55880000Y-156990000D03*
D11*
G36*
X52744324Y-155191205D02*
G01*
X52768612Y-155194808D01*
X52792429Y-155200774D01*
X52815547Y-155209045D01*
X52837743Y-155219543D01*
X52858804Y-155232166D01*
X52878525Y-155246793D01*
X52896718Y-155263282D01*
X52913207Y-155281475D01*
X52927834Y-155301196D01*
X52940457Y-155322257D01*
X52950955Y-155344453D01*
X52959226Y-155367571D01*
X52965192Y-155391388D01*
X52968795Y-155415676D01*
X52970000Y-155440200D01*
X52970000Y-158539800D01*
X52968795Y-158564324D01*
X52965192Y-158588612D01*
X52959226Y-158612429D01*
X52950955Y-158635547D01*
X52940457Y-158657743D01*
X52927834Y-158678804D01*
X52913207Y-158698525D01*
X52896718Y-158716718D01*
X52878525Y-158733207D01*
X52858804Y-158747834D01*
X52837743Y-158760457D01*
X52815547Y-158770955D01*
X52792429Y-158779226D01*
X52768612Y-158785192D01*
X52744324Y-158788795D01*
X52719800Y-158790000D01*
X51420200Y-158790000D01*
X51395676Y-158788795D01*
X51371388Y-158785192D01*
X51347571Y-158779226D01*
X51324453Y-158770955D01*
X51302257Y-158760457D01*
X51281196Y-158747834D01*
X51261475Y-158733207D01*
X51243282Y-158716718D01*
X51226793Y-158698525D01*
X51212166Y-158678804D01*
X51199543Y-158657743D01*
X51189045Y-158635547D01*
X51180774Y-158612429D01*
X51174808Y-158588612D01*
X51171205Y-158564324D01*
X51170000Y-158539800D01*
X51170000Y-155440200D01*
X51171205Y-155415676D01*
X51174808Y-155391388D01*
X51180774Y-155367571D01*
X51189045Y-155344453D01*
X51199543Y-155322257D01*
X51212166Y-155301196D01*
X51226793Y-155281475D01*
X51243282Y-155263282D01*
X51261475Y-155246793D01*
X51281196Y-155232166D01*
X51302257Y-155219543D01*
X51324453Y-155209045D01*
X51347571Y-155200774D01*
X51371388Y-155194808D01*
X51395676Y-155191205D01*
X51420200Y-155190000D01*
X52719800Y-155190000D01*
X52744324Y-155191205D01*
X52744324Y-155191205D01*
G37*
D12*
X52070000Y-156990000D03*
D10*
X55880000Y-156990000D03*
D11*
G36*
X52744504Y-155191204D02*
G01*
X52768773Y-155194804D01*
X52792571Y-155200765D01*
X52815671Y-155209030D01*
X52837849Y-155219520D01*
X52858893Y-155232133D01*
X52878598Y-155246747D01*
X52896777Y-155263223D01*
X52913253Y-155281402D01*
X52927867Y-155301107D01*
X52940480Y-155322151D01*
X52950970Y-155344329D01*
X52959235Y-155367429D01*
X52965196Y-155391227D01*
X52968796Y-155415496D01*
X52970000Y-155440000D01*
X52970000Y-158540000D01*
X52968796Y-158564504D01*
X52965196Y-158588773D01*
X52959235Y-158612571D01*
X52950970Y-158635671D01*
X52940480Y-158657849D01*
X52927867Y-158678893D01*
X52913253Y-158698598D01*
X52896777Y-158716777D01*
X52878598Y-158733253D01*
X52858893Y-158747867D01*
X52837849Y-158760480D01*
X52815671Y-158770970D01*
X52792571Y-158779235D01*
X52768773Y-158785196D01*
X52744504Y-158788796D01*
X52720000Y-158790000D01*
X51420000Y-158790000D01*
X51395496Y-158788796D01*
X51371227Y-158785196D01*
X51347429Y-158779235D01*
X51324329Y-158770970D01*
X51302151Y-158760480D01*
X51281107Y-158747867D01*
X51261402Y-158733253D01*
X51243223Y-158716777D01*
X51226747Y-158698598D01*
X51212133Y-158678893D01*
X51199520Y-158657849D01*
X51189030Y-158635671D01*
X51180765Y-158612571D01*
X51174804Y-158588773D01*
X51171204Y-158564504D01*
X51170000Y-158540000D01*
X51170000Y-155440000D01*
X51171204Y-155415496D01*
X51174804Y-155391227D01*
X51180765Y-155367429D01*
X51189030Y-155344329D01*
X51199520Y-155322151D01*
X51212133Y-155301107D01*
X51226747Y-155281402D01*
X51243223Y-155263223D01*
X51261402Y-155246747D01*
X51281107Y-155232133D01*
X51302151Y-155219520D01*
X51324329Y-155209030D01*
X51347429Y-155200765D01*
X51371227Y-155194804D01*
X51395496Y-155191204D01*
X51420000Y-155190000D01*
X52720000Y-155190000D01*
X52744504Y-155191204D01*
X52744504Y-155191204D01*
G37*
D12*
X52070000Y-156990000D03*
D10*
X47244000Y39515000D03*
D11*
G36*
X51728324Y41313795D02*
G01*
X51752612Y41310192D01*
X51776429Y41304226D01*
X51799547Y41295955D01*
X51821743Y41285457D01*
X51842804Y41272834D01*
X51862525Y41258207D01*
X51880718Y41241718D01*
X51897207Y41223525D01*
X51911834Y41203804D01*
X51924457Y41182743D01*
X51934955Y41160547D01*
X51943226Y41137429D01*
X51949192Y41113612D01*
X51952795Y41089324D01*
X51954000Y41064800D01*
X51954000Y37965200D01*
X51952795Y37940676D01*
X51949192Y37916388D01*
X51943226Y37892571D01*
X51934955Y37869453D01*
X51924457Y37847257D01*
X51911834Y37826196D01*
X51897207Y37806475D01*
X51880718Y37788282D01*
X51862525Y37771793D01*
X51842804Y37757166D01*
X51821743Y37744543D01*
X51799547Y37734045D01*
X51776429Y37725774D01*
X51752612Y37719808D01*
X51728324Y37716205D01*
X51703800Y37715000D01*
X50404200Y37715000D01*
X50379676Y37716205D01*
X50355388Y37719808D01*
X50331571Y37725774D01*
X50308453Y37734045D01*
X50286257Y37744543D01*
X50265196Y37757166D01*
X50245475Y37771793D01*
X50227282Y37788282D01*
X50210793Y37806475D01*
X50196166Y37826196D01*
X50183543Y37847257D01*
X50173045Y37869453D01*
X50164774Y37892571D01*
X50158808Y37916388D01*
X50155205Y37940676D01*
X50154000Y37965200D01*
X50154000Y41064800D01*
X50155205Y41089324D01*
X50158808Y41113612D01*
X50164774Y41137429D01*
X50173045Y41160547D01*
X50183543Y41182743D01*
X50196166Y41203804D01*
X50210793Y41223525D01*
X50227282Y41241718D01*
X50245475Y41258207D01*
X50265196Y41272834D01*
X50286257Y41285457D01*
X50308453Y41295955D01*
X50331571Y41304226D01*
X50355388Y41310192D01*
X50379676Y41313795D01*
X50404200Y41315000D01*
X51703800Y41315000D01*
X51728324Y41313795D01*
X51728324Y41313795D01*
G37*
D12*
X51054000Y39515000D03*
D10*
X47244000Y39515000D03*
D11*
G36*
X51728504Y41313796D02*
G01*
X51752773Y41310196D01*
X51776571Y41304235D01*
X51799671Y41295970D01*
X51821849Y41285480D01*
X51842893Y41272867D01*
X51862598Y41258253D01*
X51880777Y41241777D01*
X51897253Y41223598D01*
X51911867Y41203893D01*
X51924480Y41182849D01*
X51934970Y41160671D01*
X51943235Y41137571D01*
X51949196Y41113773D01*
X51952796Y41089504D01*
X51954000Y41065000D01*
X51954000Y37965000D01*
X51952796Y37940496D01*
X51949196Y37916227D01*
X51943235Y37892429D01*
X51934970Y37869329D01*
X51924480Y37847151D01*
X51911867Y37826107D01*
X51897253Y37806402D01*
X51880777Y37788223D01*
X51862598Y37771747D01*
X51842893Y37757133D01*
X51821849Y37744520D01*
X51799671Y37734030D01*
X51776571Y37725765D01*
X51752773Y37719804D01*
X51728504Y37716204D01*
X51704000Y37715000D01*
X50404000Y37715000D01*
X50379496Y37716204D01*
X50355227Y37719804D01*
X50331429Y37725765D01*
X50308329Y37734030D01*
X50286151Y37744520D01*
X50265107Y37757133D01*
X50245402Y37771747D01*
X50227223Y37788223D01*
X50210747Y37806402D01*
X50196133Y37826107D01*
X50183520Y37847151D01*
X50173030Y37869329D01*
X50164765Y37892429D01*
X50158804Y37916227D01*
X50155204Y37940496D01*
X50154000Y37965000D01*
X50154000Y41065000D01*
X50155204Y41089504D01*
X50158804Y41113773D01*
X50164765Y41137571D01*
X50173030Y41160671D01*
X50183520Y41182849D01*
X50196133Y41203893D01*
X50210747Y41223598D01*
X50227223Y41241777D01*
X50245402Y41258253D01*
X50265107Y41272867D01*
X50286151Y41285480D01*
X50308329Y41295970D01*
X50331429Y41304235D01*
X50355227Y41310196D01*
X50379496Y41313796D01*
X50404000Y41315000D01*
X51704000Y41315000D01*
X51728504Y41313796D01*
X51728504Y41313796D01*
G37*
D12*
X51054000Y39515000D03*
D10*
X56896000Y39515000D03*
D11*
G36*
X61380324Y41313795D02*
G01*
X61404612Y41310192D01*
X61428429Y41304226D01*
X61451547Y41295955D01*
X61473743Y41285457D01*
X61494804Y41272834D01*
X61514525Y41258207D01*
X61532718Y41241718D01*
X61549207Y41223525D01*
X61563834Y41203804D01*
X61576457Y41182743D01*
X61586955Y41160547D01*
X61595226Y41137429D01*
X61601192Y41113612D01*
X61604795Y41089324D01*
X61606000Y41064800D01*
X61606000Y37965200D01*
X61604795Y37940676D01*
X61601192Y37916388D01*
X61595226Y37892571D01*
X61586955Y37869453D01*
X61576457Y37847257D01*
X61563834Y37826196D01*
X61549207Y37806475D01*
X61532718Y37788282D01*
X61514525Y37771793D01*
X61494804Y37757166D01*
X61473743Y37744543D01*
X61451547Y37734045D01*
X61428429Y37725774D01*
X61404612Y37719808D01*
X61380324Y37716205D01*
X61355800Y37715000D01*
X60056200Y37715000D01*
X60031676Y37716205D01*
X60007388Y37719808D01*
X59983571Y37725774D01*
X59960453Y37734045D01*
X59938257Y37744543D01*
X59917196Y37757166D01*
X59897475Y37771793D01*
X59879282Y37788282D01*
X59862793Y37806475D01*
X59848166Y37826196D01*
X59835543Y37847257D01*
X59825045Y37869453D01*
X59816774Y37892571D01*
X59810808Y37916388D01*
X59807205Y37940676D01*
X59806000Y37965200D01*
X59806000Y41064800D01*
X59807205Y41089324D01*
X59810808Y41113612D01*
X59816774Y41137429D01*
X59825045Y41160547D01*
X59835543Y41182743D01*
X59848166Y41203804D01*
X59862793Y41223525D01*
X59879282Y41241718D01*
X59897475Y41258207D01*
X59917196Y41272834D01*
X59938257Y41285457D01*
X59960453Y41295955D01*
X59983571Y41304226D01*
X60007388Y41310192D01*
X60031676Y41313795D01*
X60056200Y41315000D01*
X61355800Y41315000D01*
X61380324Y41313795D01*
X61380324Y41313795D01*
G37*
D12*
X60706000Y39515000D03*
D10*
X56896000Y39515000D03*
D11*
G36*
X61380504Y41313796D02*
G01*
X61404773Y41310196D01*
X61428571Y41304235D01*
X61451671Y41295970D01*
X61473849Y41285480D01*
X61494893Y41272867D01*
X61514598Y41258253D01*
X61532777Y41241777D01*
X61549253Y41223598D01*
X61563867Y41203893D01*
X61576480Y41182849D01*
X61586970Y41160671D01*
X61595235Y41137571D01*
X61601196Y41113773D01*
X61604796Y41089504D01*
X61606000Y41065000D01*
X61606000Y37965000D01*
X61604796Y37940496D01*
X61601196Y37916227D01*
X61595235Y37892429D01*
X61586970Y37869329D01*
X61576480Y37847151D01*
X61563867Y37826107D01*
X61549253Y37806402D01*
X61532777Y37788223D01*
X61514598Y37771747D01*
X61494893Y37757133D01*
X61473849Y37744520D01*
X61451671Y37734030D01*
X61428571Y37725765D01*
X61404773Y37719804D01*
X61380504Y37716204D01*
X61356000Y37715000D01*
X60056000Y37715000D01*
X60031496Y37716204D01*
X60007227Y37719804D01*
X59983429Y37725765D01*
X59960329Y37734030D01*
X59938151Y37744520D01*
X59917107Y37757133D01*
X59897402Y37771747D01*
X59879223Y37788223D01*
X59862747Y37806402D01*
X59848133Y37826107D01*
X59835520Y37847151D01*
X59825030Y37869329D01*
X59816765Y37892429D01*
X59810804Y37916227D01*
X59807204Y37940496D01*
X59806000Y37965000D01*
X59806000Y41065000D01*
X59807204Y41089504D01*
X59810804Y41113773D01*
X59816765Y41137571D01*
X59825030Y41160671D01*
X59835520Y41182849D01*
X59848133Y41203893D01*
X59862747Y41223598D01*
X59879223Y41241777D01*
X59897402Y41258253D01*
X59917107Y41272867D01*
X59938151Y41285480D01*
X59960329Y41295970D01*
X59983429Y41304235D01*
X60007227Y41310196D01*
X60031496Y41313796D01*
X60056000Y41315000D01*
X61356000Y41315000D01*
X61380504Y41313796D01*
X61380504Y41313796D01*
G37*
D12*
X60706000Y39515000D03*
D13*
X58801000Y32385000D03*
X49149000Y32385000D03*
X48895000Y-151130000D03*
X58928000Y-151130000D03*
D14*
X59375000Y-139700000D03*
X48575000Y-134700000D03*
X48575000Y-144700000D03*
D15*
X48775000Y10216000D03*
X48775000Y11716000D03*
X48775000Y13216000D03*
X48775000Y14716000D03*
X50075000Y10216000D03*
X50075000Y11716000D03*
X50075000Y13216000D03*
X50075000Y14716000D03*
X51375000Y14716000D03*
X52675000Y10216000D03*
X52675000Y14716000D03*
X52675000Y11716000D03*
X51375000Y10216000D03*
X51375000Y11716000D03*
X51375000Y13216000D03*
X52675000Y13216000D03*
X53975000Y14716000D03*
X55275000Y10216000D03*
X55275000Y14716000D03*
X55275000Y11716000D03*
X53975000Y10216000D03*
X53975000Y11716000D03*
X53975000Y13216000D03*
X55275000Y13216000D03*
X56575000Y14716000D03*
X57875000Y10216000D03*
X57875000Y14716000D03*
X57875000Y11716000D03*
X56575000Y10216000D03*
X56575000Y11716000D03*
X56575000Y13216000D03*
X57875000Y13216000D03*
X59175000Y11716000D03*
X59175000Y10216000D03*
X59175000Y14716000D03*
X59175000Y13216000D03*
D16*
X53975000Y12466000D03*
D17*
X53975000Y-123825000D03*
X53975000Y-73025000D03*
X53975000Y-22225000D03*
X53975000Y28575000D03*
D18*
X49022000Y-47467500D03*
X49022000Y-55767500D03*
X49022000Y-58867500D03*
X58928000Y-58867500D03*
X58928000Y-55767500D03*
X58928000Y-47467500D03*
D19*
X46355000Y-160020000D03*
X46355000Y-157480000D03*
X46355000Y-154940000D03*
X46355000Y-152400000D03*
X61595000Y-157480000D03*
X46355000Y-149860000D03*
X46355000Y-147320000D03*
X46355000Y-144780000D03*
X46355000Y-142240000D03*
X46355000Y-139700000D03*
X46355000Y-137160000D03*
X46355000Y-134620000D03*
X46355000Y-132080000D03*
X46355000Y-129540000D03*
X61595000Y-129540000D03*
X61595000Y-132080000D03*
X61595000Y-134620000D03*
X61595000Y-137160000D03*
X61595000Y-139700000D03*
X61595000Y-142240000D03*
X61595000Y-144780000D03*
X61595000Y-147320000D03*
X61595000Y-149860000D03*
X61595000Y-152400000D03*
X61595000Y-154940000D03*
X61595000Y-160020000D03*
X46355000Y-162560000D03*
X61595000Y-162560000D03*
D20*
X57277000Y-113919000D03*
X45339000Y17272000D03*
X45339000Y12700000D03*
X45339000Y14986000D03*
X62611000Y14986000D03*
X62611000Y17272000D03*
X62611000Y12700000D03*
X45466000Y20828000D03*
X50038000Y20828000D03*
X57912000Y20828000D03*
X62484000Y20828000D03*
X51943000Y-1016000D03*
X56007000Y-1016000D03*
X57023000Y-1016000D03*
X50927000Y-1016000D03*
X57531000Y3810000D03*
X53975000Y3810000D03*
X52197000Y3810000D03*
X52959000Y-1016000D03*
X53975000Y-1016000D03*
X54991000Y-1016000D03*
X53975000Y2032000D03*
X52959000Y2032000D03*
X56007000Y2032000D03*
X51943000Y2032000D03*
X54991000Y2032000D03*
X50927000Y2032000D03*
X57023000Y2032000D03*
X56769000Y-38481000D03*
X48895000Y-38481000D03*
X56642000Y-43434000D03*
X51308000Y-43434000D03*
X50927000Y-35560000D03*
X49276000Y-35560000D03*
X58420000Y-34798000D03*
X48133000Y-104775000D03*
X48133000Y-98806000D03*
X58039000Y-98806000D03*
X58039000Y-104775000D03*
X47625000Y-83248500D03*
X47625000Y-92265500D03*
X57531000Y-92265500D03*
X60833000Y-78359000D03*
X57023000Y-78359000D03*
X47625000Y-119951500D03*
X47625000Y-117792500D03*
X49403000Y-108013500D03*
X58547000Y-113919000D03*
X56007000Y-113919000D03*
X56007000Y-112649000D03*
X57277000Y-112649000D03*
X58547000Y-112649000D03*
X58547000Y-115062000D03*
X57277000Y-115062000D03*
X56007000Y-115062000D03*
X56007000Y-116205000D03*
X57277000Y-116205000D03*
X58547000Y-116205000D03*
X54737000Y-116205000D03*
X54737000Y-115062000D03*
X54737000Y-113919000D03*
X54737000Y-112649000D03*
X58547000Y-111506000D03*
X56007000Y-111506000D03*
X54737000Y-111506000D03*
X57277000Y-111506000D03*
X56007000Y-110363000D03*
X54737000Y-110363000D03*
X58547000Y-110363000D03*
X57277000Y-110363000D03*
X57277000Y-117475000D03*
X56007000Y-117475000D03*
X58547000Y-117475000D03*
X54737000Y-117475000D03*
X60706000Y3048000D03*
X61976000Y-61849000D03*
X61849000Y-68580000D03*
X60962150Y-84244057D03*
X52006500Y-64706500D03*
X53276500Y-64706500D03*
X60388500Y-87820500D03*
X61974980Y-80264000D03*
X61925200Y-83108800D03*
X47244000Y-101282500D03*
X47244000Y-102298500D03*
X54546500Y-64706500D03*
X47244000Y-103314500D03*
X47244000Y-100266500D03*
D21*
X53975000Y12466000D02*
X53975000Y14716000D01*
X53975000Y12466000D02*
X55860000Y12466000D01*
X53975000Y12466000D02*
X52325000Y12466000D01*
D22*
X63149990Y2763010D02*
X62865000Y3048000D01*
X61976000Y-61849000D02*
X63149990Y-60675010D01*
X63149990Y-60482990D02*
X63149990Y2763010D01*
X63149990Y-60675010D02*
X63149990Y-60482990D01*
X60706000Y3048000D02*
X62865000Y3048000D01*
X62699980Y-69430980D02*
X61849000Y-68580000D01*
X62699980Y-127927020D02*
X62699980Y-69430980D01*
X62484000Y-128143000D02*
X62699980Y-127927020D01*
X60330199Y-128932895D02*
X61120094Y-128143000D01*
X61120094Y-128143000D02*
X62484000Y-128143000D01*
X60330199Y-130815199D02*
X60330199Y-128932895D01*
X61595000Y-132080000D02*
X60330199Y-130815199D01*
X60325000Y-137761906D02*
X60325000Y-135858316D01*
X61595000Y-139031906D02*
X60325000Y-137761906D01*
X61595000Y-139700000D02*
X61595000Y-139031906D01*
X60325000Y-135858316D02*
X59874990Y-135408306D01*
X59874990Y-133504716D02*
X59424980Y-133054706D01*
X59874990Y-135408306D02*
X59874990Y-133504716D01*
X59424980Y-131819209D02*
X58980171Y-131374397D01*
X59424980Y-133054706D02*
X59424980Y-131819209D01*
X58980172Y-128373692D02*
X60560894Y-126792970D01*
X58980171Y-131374397D02*
X58980172Y-128373692D01*
X61294030Y-126792970D02*
X61349950Y-126737050D01*
X60560894Y-126792970D02*
X61294030Y-126792970D01*
X61349950Y-126737050D02*
X61349950Y-88900000D01*
X61349950Y-84631857D02*
X60962150Y-84244057D01*
X61349950Y-88900000D02*
X61349950Y-84631857D01*
X61595000Y-147320000D02*
X61595000Y-146651906D01*
X60388500Y-87820500D02*
X60788499Y-88220499D01*
X60899940Y-88331940D02*
X60388500Y-87820500D01*
X60899940Y-126298060D02*
X60899940Y-88331940D01*
X60855040Y-126342960D02*
X60899940Y-126298060D01*
X60374494Y-126342960D02*
X60855040Y-126342960D01*
X58974970Y-132005609D02*
X58530163Y-131560797D01*
X58974970Y-133241106D02*
X58974970Y-132005609D01*
X60106839Y-142240000D02*
X58449990Y-140583151D01*
X58530163Y-131560797D02*
X58530163Y-128187291D01*
X59424980Y-133691116D02*
X58974970Y-133241106D01*
X59874990Y-137391849D02*
X59874990Y-136044716D01*
X59424980Y-135594706D02*
X59424980Y-133691116D01*
X59874990Y-136044716D02*
X59424980Y-135594706D01*
X58530163Y-128187291D02*
X60374494Y-126342960D01*
X58449990Y-138816849D02*
X59874990Y-137391849D01*
X61595000Y-142240000D02*
X60106839Y-142240000D01*
X58449990Y-140583151D02*
X58449990Y-138816849D01*
X60325000Y-135221906D02*
X60325000Y-133318316D01*
X61595000Y-136491906D02*
X60325000Y-135221906D01*
X61595000Y-137160000D02*
X61595000Y-136491906D01*
X60325000Y-133318316D02*
X59874990Y-132868306D01*
X59430181Y-128560093D02*
X60747294Y-127242980D01*
X59430180Y-131187998D02*
X59430181Y-128560093D01*
X59874990Y-131632810D02*
X59430180Y-131187998D01*
X59874990Y-132868306D02*
X59874990Y-131632810D01*
X61799960Y-127226840D02*
X61799960Y-126551400D01*
X61783820Y-127242980D02*
X61799960Y-127226840D01*
X60747294Y-127242980D02*
X61783820Y-127242980D01*
X61733371Y-83833801D02*
X61577199Y-83833801D01*
X61799960Y-83900390D02*
X61733371Y-83833801D01*
X61577199Y-83833801D02*
X61200199Y-83456801D01*
X61799960Y-126551400D02*
X61799960Y-83900390D01*
X61200199Y-81038781D02*
X61974980Y-80264000D01*
X61200199Y-81674801D02*
X61200199Y-81038781D01*
X61200199Y-83456801D02*
X61200199Y-81674801D01*
X60325000Y-132681906D02*
X60325000Y-131446410D01*
X61595000Y-133951906D02*
X60325000Y-132681906D01*
X61595000Y-134620000D02*
X61595000Y-133951906D01*
X59880190Y-128746494D02*
X60933694Y-127692990D01*
X59880189Y-131001599D02*
X59880190Y-128746494D01*
X60325000Y-131446410D02*
X59880189Y-131001599D01*
X60933694Y-127692990D02*
X62249970Y-127692990D01*
X62249970Y-127692990D02*
X62249970Y-126365000D01*
X62249970Y-126365000D02*
X62249970Y-83713990D01*
X61925200Y-83389220D02*
X62127890Y-83591910D01*
X61925200Y-83108800D02*
X61925200Y-83389220D01*
X62127890Y-83591910D02*
X61974980Y-83439000D01*
X62249970Y-83713990D02*
X62127890Y-83591910D01*
X45250020Y-128816020D02*
X45250020Y-127821400D01*
X45974000Y-129540000D02*
X45250020Y-128816020D01*
X46355000Y-129540000D02*
X45974000Y-129540000D01*
X45250020Y-102393295D02*
X45250020Y-102527020D01*
X45250020Y-127821400D02*
X45250020Y-102527020D01*
X45250020Y-102527020D02*
X45250020Y-101434980D01*
X45402500Y-101282500D02*
X47244000Y-101282500D01*
X45250020Y-101434980D02*
X45402500Y-101282500D01*
X47619801Y-130815199D02*
X47619801Y-128932895D01*
X45700030Y-127013124D02*
X45700030Y-102762970D01*
X46355000Y-132080000D02*
X47619801Y-130815199D01*
X45700030Y-102762970D02*
X46164500Y-102298500D01*
X46164500Y-102298500D02*
X47244000Y-102298500D01*
X47619801Y-128932895D02*
X45700030Y-127013124D01*
X53372011Y-63531489D02*
X52197000Y-64706500D01*
X52197000Y-64706500D02*
X52006500Y-64706500D01*
X61595000Y-149860000D02*
X63149990Y-148305010D01*
X62574001Y-68668591D02*
X62574001Y-68231999D01*
X57873491Y-63531489D02*
X53372011Y-63531489D01*
X62574001Y-68231999D02*
X57873491Y-63531489D01*
X62962420Y-69057010D02*
X62833955Y-68928545D01*
X62833955Y-68928545D02*
X63149990Y-69244580D01*
X63149990Y-69244580D02*
X63149990Y-69690490D01*
X63149990Y-148305010D02*
X63149990Y-69690490D01*
X62833955Y-68928545D02*
X62574001Y-68668591D01*
X57999980Y-140769551D02*
X60330199Y-143099770D01*
X57999981Y-138630448D02*
X57999980Y-140769551D01*
X59424980Y-137205449D02*
X57999981Y-138630448D01*
X60330199Y-143099770D02*
X60330199Y-146055199D01*
X59424980Y-136231116D02*
X59424980Y-137205449D01*
X58974970Y-135781106D02*
X59424980Y-136231116D01*
X61123999Y-68928001D02*
X62249970Y-70053972D01*
X60750189Y-80415789D02*
X60750189Y-83267811D01*
X58974970Y-133877516D02*
X58974970Y-135781106D01*
X58524960Y-133427506D02*
X58974970Y-133877516D01*
X58524960Y-132192004D02*
X58524960Y-133427506D01*
X58080154Y-128000890D02*
X58080153Y-131747197D01*
X60416050Y-125892950D02*
X60188094Y-125892950D01*
X60330199Y-146055199D02*
X61595000Y-147320000D01*
X62249970Y-78916008D02*
X60750189Y-80415789D01*
X60449930Y-125859070D02*
X60416050Y-125892950D01*
X60449930Y-88954932D02*
X60449930Y-125859070D01*
X59663499Y-88168501D02*
X60449930Y-88954932D01*
X59663499Y-87466001D02*
X59663499Y-88168501D01*
X60237149Y-86892351D02*
X59663499Y-87466001D01*
X54198499Y-63981499D02*
X57687091Y-63981499D01*
X57687091Y-63981499D02*
X61123999Y-67418407D01*
X60750189Y-83267811D02*
X60237149Y-83780851D01*
X61123999Y-67418407D02*
X61123999Y-68928001D01*
X58080153Y-131747197D02*
X58524960Y-132192004D01*
X60237149Y-83780851D02*
X60237149Y-86892351D01*
X53473498Y-64706500D02*
X54198499Y-63981499D01*
X60188094Y-125892950D02*
X58080154Y-128000890D01*
X62249970Y-70053972D02*
X62249970Y-78916008D01*
X53276500Y-64706500D02*
X53473498Y-64706500D01*
X60673989Y-69114401D02*
X60673989Y-67604807D01*
X60300180Y-80229388D02*
X61799960Y-78729608D01*
X59787140Y-83594450D02*
X60300179Y-83081411D01*
X61799960Y-70240372D02*
X60673989Y-69114401D01*
X59213490Y-87279600D02*
X59787139Y-86705951D01*
X59999920Y-125444714D02*
X59999920Y-89141332D01*
X57630144Y-131933596D02*
X57630145Y-127814489D01*
X57630145Y-127814489D02*
X59999920Y-125444714D01*
X59787139Y-86705951D02*
X59787140Y-83594450D01*
X58524960Y-135967506D02*
X58524960Y-134063916D01*
X58074950Y-132378404D02*
X57630144Y-131933596D01*
X46482000Y-164719000D02*
X59626500Y-164719000D01*
X58074950Y-133613906D02*
X58074950Y-132378404D01*
X58524960Y-134063916D02*
X58074950Y-133613906D01*
X58974970Y-137019049D02*
X58974970Y-136417516D01*
X58974970Y-136417516D02*
X58524960Y-135967506D01*
X61799960Y-78729608D02*
X61799960Y-70240372D01*
X60325000Y-146686410D02*
X59880189Y-146241599D01*
X57549971Y-140955950D02*
X57549972Y-138444047D01*
X59880189Y-146241599D02*
X59880189Y-143286170D01*
X59213489Y-88354901D02*
X59213490Y-87279600D01*
X46355000Y-142908094D02*
X44958000Y-144305094D01*
X60325000Y-164020500D02*
X60325000Y-146686410D01*
X59626500Y-164719000D02*
X60325000Y-164020500D01*
X44958000Y-144305094D02*
X44958000Y-163195000D01*
X44958000Y-163195000D02*
X46482000Y-164719000D01*
X59999920Y-89141332D02*
X59213489Y-88354901D01*
X60300179Y-83081411D02*
X60300180Y-80229388D01*
X57549972Y-138444047D02*
X58974970Y-137019049D01*
X59880189Y-143286170D02*
X57549971Y-140955950D01*
X46355000Y-142240000D02*
X46355000Y-142908094D01*
X57775682Y-64706500D02*
X58701091Y-65631909D01*
X54546500Y-64706500D02*
X57775682Y-64706500D01*
X58701091Y-65631909D02*
X58474182Y-65405000D01*
X60673989Y-67604807D02*
X58701091Y-65631909D01*
X46291500Y-103314500D02*
X47244000Y-103314500D01*
X48069810Y-128746494D02*
X46150040Y-126826724D01*
X46150040Y-126826724D02*
X46150040Y-103455960D01*
X48069811Y-131001599D02*
X48069810Y-128746494D01*
X47619801Y-131451609D02*
X48069811Y-131001599D01*
X46150040Y-103455960D02*
X46291500Y-103314500D01*
X47619801Y-135895199D02*
X47619801Y-131451609D01*
X46355000Y-137160000D02*
X47619801Y-135895199D01*
X45025923Y-139700000D02*
X46355000Y-139700000D01*
X44800010Y-139474087D02*
X45025923Y-139700000D01*
X44800010Y-101092000D02*
X44800010Y-139474087D01*
X45625510Y-100266500D02*
X44800010Y-101092000D01*
X47244000Y-100266500D02*
X45625510Y-100266500D01*
D23*
G36*
X62840001Y3809214D02*
G01*
X62827678Y3808000D01*
X61409711Y3808000D01*
X61365774Y3851937D01*
X61196256Y3965205D01*
X61007898Y4043226D01*
X60807939Y4083000D01*
X60604061Y4083000D01*
X60404102Y4043226D01*
X60215744Y3965205D01*
X60046226Y3851937D01*
X59902063Y3707774D01*
X59788795Y3538256D01*
X59710774Y3349898D01*
X59671000Y3149939D01*
X59671000Y2946061D01*
X59710774Y2746102D01*
X59788795Y2557744D01*
X59902063Y2388226D01*
X60046226Y2244063D01*
X60215744Y2130795D01*
X60404102Y2052774D01*
X60604061Y2013000D01*
X60807939Y2013000D01*
X61007898Y2052774D01*
X61196256Y2130795D01*
X61365774Y2244063D01*
X61409711Y2288000D01*
X62389991Y2288000D01*
X62389990Y-60360208D01*
X61936199Y-60814000D01*
X61874061Y-60814000D01*
X61674102Y-60853774D01*
X61485744Y-60931795D01*
X61316226Y-61045063D01*
X61172063Y-61189226D01*
X61058795Y-61358744D01*
X60980774Y-61547102D01*
X60941000Y-61747061D01*
X60941000Y-61950939D01*
X60980774Y-62150898D01*
X61058795Y-62339256D01*
X61172063Y-62508774D01*
X61316226Y-62652937D01*
X61485744Y-62766205D01*
X61674102Y-62844226D01*
X61874061Y-62884000D01*
X62077939Y-62884000D01*
X62277898Y-62844226D01*
X62466256Y-62766205D01*
X62635774Y-62652937D01*
X62779937Y-62508774D01*
X62840000Y-62418882D01*
X62840000Y-67423197D01*
X58437295Y-63020492D01*
X58413492Y-62991488D01*
X58297767Y-62896515D01*
X58165738Y-62825943D01*
X58022477Y-62782486D01*
X57910824Y-62771489D01*
X57910813Y-62771489D01*
X57873491Y-62767813D01*
X57836169Y-62771489D01*
X53409333Y-62771489D01*
X53372010Y-62767813D01*
X53334687Y-62771489D01*
X53334678Y-62771489D01*
X53223025Y-62782486D01*
X53079764Y-62825943D01*
X52947735Y-62896515D01*
X52947733Y-62896516D01*
X52947734Y-62896516D01*
X52861007Y-62967690D01*
X52861003Y-62967694D01*
X52832010Y-62991488D01*
X52808216Y-63020481D01*
X52149109Y-63679590D01*
X52108439Y-63671500D01*
X51904561Y-63671500D01*
X51704602Y-63711274D01*
X51516244Y-63789295D01*
X51346726Y-63902563D01*
X51202563Y-64046726D01*
X51089295Y-64216244D01*
X51011274Y-64404602D01*
X50971500Y-64604561D01*
X50971500Y-64808439D01*
X51011274Y-65008398D01*
X51089295Y-65196756D01*
X51202563Y-65366274D01*
X51346726Y-65510437D01*
X51516244Y-65623705D01*
X51704602Y-65701726D01*
X51904561Y-65741500D01*
X52108439Y-65741500D01*
X52308398Y-65701726D01*
X52496756Y-65623705D01*
X52641500Y-65526990D01*
X52786244Y-65623705D01*
X52974602Y-65701726D01*
X53174561Y-65741500D01*
X53378439Y-65741500D01*
X53578398Y-65701726D01*
X53766756Y-65623705D01*
X53911500Y-65526990D01*
X54056244Y-65623705D01*
X54244602Y-65701726D01*
X54444561Y-65741500D01*
X54648439Y-65741500D01*
X54848398Y-65701726D01*
X55036756Y-65623705D01*
X55206274Y-65510437D01*
X55250211Y-65466500D01*
X57460881Y-65466500D01*
X58190088Y-66195708D01*
X58190093Y-66195712D01*
X59913990Y-67919610D01*
X59913989Y-69077078D01*
X59910313Y-69114401D01*
X59913989Y-69151723D01*
X59913989Y-69151733D01*
X59924986Y-69263386D01*
X59961554Y-69383937D01*
X59968443Y-69406647D01*
X60039015Y-69538677D01*
X60072900Y-69579965D01*
X60133988Y-69654402D01*
X60162991Y-69678204D01*
X61039961Y-70555176D01*
X61039960Y-78414806D01*
X59789178Y-79665589D01*
X59760180Y-79689387D01*
X59736382Y-79718385D01*
X59736381Y-79718386D01*
X59665206Y-79805112D01*
X59594634Y-79937142D01*
X59551178Y-80080403D01*
X59536504Y-80229388D01*
X59540181Y-80266720D01*
X59540179Y-82766609D01*
X59276138Y-83030651D01*
X59247140Y-83054449D01*
X59223342Y-83083447D01*
X59223341Y-83083448D01*
X59152166Y-83170174D01*
X59081594Y-83302204D01*
X59059920Y-83373657D01*
X59038138Y-83445464D01*
X59029004Y-83538205D01*
X59023464Y-83594450D01*
X59027141Y-83631782D01*
X59027139Y-86391149D01*
X58702488Y-86715801D01*
X58673490Y-86739599D01*
X58649692Y-86768597D01*
X58649691Y-86768598D01*
X58578516Y-86855324D01*
X58507944Y-86987354D01*
X58482420Y-87071498D01*
X58464606Y-87130227D01*
X58464488Y-87130615D01*
X58449814Y-87279600D01*
X58453491Y-87316931D01*
X58453489Y-88317577D01*
X58449813Y-88354901D01*
X58453489Y-88392223D01*
X58453489Y-88392233D01*
X58464486Y-88503886D01*
X58494045Y-88601331D01*
X58507943Y-88647147D01*
X58578515Y-88779177D01*
X58635888Y-88849085D01*
X58673488Y-88894901D01*
X58702485Y-88918699D01*
X59239921Y-89456135D01*
X59239920Y-125129912D01*
X57119143Y-127250690D01*
X57090145Y-127274488D01*
X57066347Y-127303486D01*
X57066346Y-127303487D01*
X56995171Y-127390213D01*
X56924599Y-127522243D01*
X56894325Y-127622047D01*
X56881143Y-127665503D01*
X56875901Y-127718724D01*
X56866469Y-127814489D01*
X56870146Y-127851821D01*
X56870144Y-131896272D01*
X56866468Y-131933595D01*
X56870144Y-131970920D01*
X56870144Y-131970928D01*
X56881141Y-132082581D01*
X56924598Y-132225842D01*
X56966646Y-132304507D01*
X56995169Y-132357870D01*
X57026860Y-132396486D01*
X57090143Y-132473596D01*
X57119139Y-132497393D01*
X57314951Y-132693205D01*
X57314950Y-133576583D01*
X57311274Y-133613906D01*
X57314950Y-133651228D01*
X57314950Y-133651238D01*
X57325947Y-133762891D01*
X57354894Y-133858317D01*
X57369404Y-133906152D01*
X57439976Y-134038182D01*
X57459917Y-134062480D01*
X57534949Y-134153907D01*
X57563953Y-134177710D01*
X57764961Y-134378718D01*
X57764960Y-135930183D01*
X57761284Y-135967506D01*
X57764960Y-136004828D01*
X57764960Y-136004838D01*
X57775957Y-136116491D01*
X57810292Y-136229680D01*
X57819414Y-136259752D01*
X57889986Y-136391782D01*
X57908263Y-136414052D01*
X57984959Y-136507507D01*
X58013963Y-136531310D01*
X58200935Y-136718282D01*
X57038970Y-137880248D01*
X57009972Y-137904046D01*
X56986174Y-137933044D01*
X56986173Y-137933045D01*
X56914998Y-138019771D01*
X56844426Y-138151801D01*
X56827933Y-138206173D01*
X56800970Y-138295061D01*
X56789973Y-138406714D01*
X56786296Y-138444047D01*
X56789973Y-138481379D01*
X56789971Y-140918627D01*
X56786295Y-140955950D01*
X56789971Y-140993272D01*
X56789971Y-140993282D01*
X56800968Y-141104935D01*
X56844425Y-141248196D01*
X56914997Y-141380225D01*
X57009970Y-141495950D01*
X57038968Y-141519748D01*
X59120190Y-143600973D01*
X59120189Y-146204276D01*
X59116513Y-146241599D01*
X59120189Y-146278921D01*
X59120189Y-146278931D01*
X59131186Y-146390584D01*
X59165262Y-146502920D01*
X59174643Y-146533845D01*
X59245215Y-146665875D01*
X59262068Y-146686410D01*
X59340188Y-146781600D01*
X59369192Y-146805403D01*
X59565001Y-147001212D01*
X59565001Y-150010173D01*
X59536676Y-149991247D01*
X59302821Y-149894381D01*
X59054561Y-149845000D01*
X58801439Y-149845000D01*
X58553179Y-149894381D01*
X58319324Y-149991247D01*
X58108860Y-150131875D01*
X57929875Y-150310860D01*
X57789247Y-150521324D01*
X57692381Y-150755179D01*
X57643000Y-151003439D01*
X57643000Y-151256561D01*
X57692381Y-151504821D01*
X57789247Y-151738676D01*
X57929875Y-151949140D01*
X58108860Y-152128125D01*
X58319324Y-152268753D01*
X58553179Y-152365619D01*
X58801439Y-152415000D01*
X59054561Y-152415000D01*
X59302821Y-152365619D01*
X59536676Y-152268753D01*
X59565001Y-152249827D01*
X59565000Y-163705698D01*
X59311699Y-163959000D01*
X47089056Y-163959000D01*
X47179377Y-163910723D01*
X47267871Y-163652476D01*
X46355000Y-162739605D01*
X46340858Y-162753748D01*
X46161253Y-162574143D01*
X46175395Y-162560000D01*
X46534605Y-162560000D01*
X47447476Y-163472871D01*
X47705723Y-163384377D01*
X47840597Y-163105024D01*
X47918381Y-162804725D01*
X47936084Y-162495023D01*
X47893027Y-162187816D01*
X47790865Y-161894914D01*
X47705723Y-161735623D01*
X47447476Y-161647129D01*
X46534605Y-162560000D01*
X46175395Y-162560000D01*
X46161253Y-162545858D01*
X46340858Y-162366253D01*
X46355000Y-162380395D01*
X47267871Y-161467524D01*
X47222286Y-161334495D01*
X47358877Y-161243227D01*
X47578227Y-161023877D01*
X47750570Y-160765948D01*
X47869282Y-160479352D01*
X47929800Y-160175104D01*
X47929800Y-159864896D01*
X47869282Y-159560648D01*
X47750570Y-159274052D01*
X47578227Y-159016123D01*
X47358877Y-158796773D01*
X47348741Y-158790000D01*
X50531928Y-158790000D01*
X50544188Y-158914482D01*
X50580498Y-159034180D01*
X50639463Y-159144494D01*
X50718815Y-159241185D01*
X50815506Y-159320537D01*
X50925820Y-159379502D01*
X51045518Y-159415812D01*
X51170000Y-159428072D01*
X51784250Y-159425000D01*
X51943000Y-159266250D01*
X51943000Y-157117000D01*
X52197000Y-157117000D01*
X52197000Y-159266250D01*
X52355750Y-159425000D01*
X52970000Y-159428072D01*
X53094482Y-159415812D01*
X53214180Y-159379502D01*
X53324494Y-159320537D01*
X53421185Y-159241185D01*
X53500537Y-159144494D01*
X53559502Y-159034180D01*
X53595812Y-158914482D01*
X53608072Y-158790000D01*
X53605000Y-157275750D01*
X53446250Y-157117000D01*
X52197000Y-157117000D01*
X51943000Y-157117000D01*
X50693750Y-157117000D01*
X50535000Y-157275750D01*
X50531928Y-158790000D01*
X47348741Y-158790000D01*
X47288876Y-158750000D01*
X47358877Y-158703227D01*
X47578227Y-158483877D01*
X47750570Y-158225948D01*
X47869282Y-157939352D01*
X47929800Y-157635104D01*
X47929800Y-157324896D01*
X47869282Y-157020648D01*
X47750570Y-156734052D01*
X47578227Y-156476123D01*
X47358877Y-156256773D01*
X47288876Y-156210000D01*
X47358877Y-156163227D01*
X47578227Y-155943877D01*
X47750570Y-155685948D01*
X47869282Y-155399352D01*
X47910924Y-155190000D01*
X50531928Y-155190000D01*
X50535000Y-156704250D01*
X50693750Y-156863000D01*
X51943000Y-156863000D01*
X51943000Y-154713750D01*
X52197000Y-154713750D01*
X52197000Y-156863000D01*
X53446250Y-156863000D01*
X53605000Y-156704250D01*
X53606399Y-156014593D01*
X54345000Y-156014593D01*
X54345000Y-157965408D01*
X54367211Y-158190913D01*
X54454984Y-158480261D01*
X54597520Y-158746927D01*
X54789340Y-158980661D01*
X55023074Y-159172481D01*
X55289740Y-159315017D01*
X55579088Y-159402790D01*
X55880000Y-159432427D01*
X56180913Y-159402790D01*
X56470261Y-159315017D01*
X56736927Y-159172481D01*
X56970661Y-158980661D01*
X57162481Y-158746927D01*
X57305017Y-158480261D01*
X57392790Y-158190913D01*
X57415000Y-157965408D01*
X57415000Y-156014592D01*
X57392790Y-155789087D01*
X57305017Y-155499739D01*
X57162481Y-155233073D01*
X56970661Y-154999339D01*
X56736926Y-154807519D01*
X56470260Y-154664983D01*
X56180912Y-154577210D01*
X55880000Y-154547573D01*
X55579087Y-154577210D01*
X55289739Y-154664983D01*
X55023073Y-154807519D01*
X54789339Y-154999339D01*
X54597519Y-155233074D01*
X54454983Y-155499740D01*
X54367210Y-155789088D01*
X54345000Y-156014593D01*
X53606399Y-156014593D01*
X53608072Y-155190000D01*
X53595812Y-155065518D01*
X53559502Y-154945820D01*
X53500537Y-154835506D01*
X53421185Y-154738815D01*
X53324494Y-154659463D01*
X53214180Y-154600498D01*
X53094482Y-154564188D01*
X52970000Y-154551928D01*
X52355750Y-154555000D01*
X52197000Y-154713750D01*
X51943000Y-154713750D01*
X51784250Y-154555000D01*
X51170000Y-154551928D01*
X51045518Y-154564188D01*
X50925820Y-154600498D01*
X50815506Y-154659463D01*
X50718815Y-154738815D01*
X50639463Y-154835506D01*
X50580498Y-154945820D01*
X50544188Y-155065518D01*
X50531928Y-155190000D01*
X47910924Y-155190000D01*
X47929800Y-155095104D01*
X47929800Y-154784896D01*
X47869282Y-154480648D01*
X47750570Y-154194052D01*
X47578227Y-153936123D01*
X47358877Y-153716773D01*
X47288876Y-153670000D01*
X47358877Y-153623227D01*
X47578227Y-153403877D01*
X47750570Y-153145948D01*
X47869282Y-152859352D01*
X47929800Y-152555104D01*
X47929800Y-152244896D01*
X47869282Y-151940648D01*
X47833533Y-151854342D01*
X47896875Y-151949140D01*
X48075860Y-152128125D01*
X48286324Y-152268753D01*
X48520179Y-152365619D01*
X48768439Y-152415000D01*
X49021561Y-152415000D01*
X49269821Y-152365619D01*
X49503676Y-152268753D01*
X49714140Y-152128125D01*
X49893125Y-151949140D01*
X50033753Y-151738676D01*
X50130619Y-151504821D01*
X50180000Y-151256561D01*
X50180000Y-151003439D01*
X50130619Y-150755179D01*
X50033753Y-150521324D01*
X49893125Y-150310860D01*
X49714140Y-150131875D01*
X49503676Y-149991247D01*
X49269821Y-149894381D01*
X49021561Y-149845000D01*
X48768439Y-149845000D01*
X48520179Y-149894381D01*
X48286324Y-149991247D01*
X48075860Y-150131875D01*
X47896875Y-150310860D01*
X47833533Y-150405658D01*
X47869282Y-150319352D01*
X47929800Y-150015104D01*
X47929800Y-149704896D01*
X47869282Y-149400648D01*
X47750570Y-149114052D01*
X47578227Y-148856123D01*
X47358877Y-148636773D01*
X47288876Y-148590000D01*
X47358877Y-148543227D01*
X47578227Y-148323877D01*
X47750570Y-148065948D01*
X47869282Y-147779352D01*
X47929800Y-147475104D01*
X47929800Y-147164896D01*
X47869282Y-146860648D01*
X47750570Y-146574052D01*
X47578227Y-146316123D01*
X47358877Y-146096773D01*
X47288876Y-146050000D01*
X47358877Y-146003227D01*
X47518606Y-145843498D01*
X47543168Y-145889449D01*
X47697499Y-146077502D01*
X47885552Y-146231833D01*
X48100100Y-146346511D01*
X48332899Y-146417130D01*
X48575000Y-146440975D01*
X48817102Y-146417130D01*
X49049901Y-146346511D01*
X49264449Y-146231833D01*
X49452502Y-146077502D01*
X49606833Y-145889449D01*
X49721511Y-145674901D01*
X49792130Y-145442102D01*
X49810000Y-145260665D01*
X49810000Y-144139335D01*
X49792130Y-143957898D01*
X49721511Y-143725099D01*
X49606833Y-143510551D01*
X49452502Y-143322498D01*
X49264448Y-143168167D01*
X49049900Y-143053489D01*
X48817101Y-142982870D01*
X48575000Y-142959025D01*
X48332898Y-142982870D01*
X48100099Y-143053489D01*
X47885551Y-143168167D01*
X47697498Y-143322498D01*
X47543167Y-143510552D01*
X47462874Y-143660770D01*
X47358877Y-143556773D01*
X47288876Y-143510000D01*
X47358877Y-143463227D01*
X47578227Y-143243877D01*
X47750570Y-142985948D01*
X47869282Y-142699352D01*
X47929800Y-142395104D01*
X47929800Y-142084896D01*
X47869282Y-141780648D01*
X47750570Y-141494052D01*
X47578227Y-141236123D01*
X47358877Y-141016773D01*
X47288876Y-140970000D01*
X47358877Y-140923227D01*
X47578227Y-140703877D01*
X47750570Y-140445948D01*
X47869282Y-140159352D01*
X47929800Y-139855104D01*
X47929800Y-139544896D01*
X47869282Y-139240648D01*
X47750570Y-138954052D01*
X47578227Y-138696123D01*
X47358877Y-138476773D01*
X47288876Y-138430000D01*
X47358877Y-138383227D01*
X47578227Y-138163877D01*
X47750570Y-137905948D01*
X47869282Y-137619352D01*
X47929800Y-137315104D01*
X47929800Y-137004896D01*
X47872579Y-136717223D01*
X48130805Y-136458997D01*
X48159802Y-136435200D01*
X48206179Y-136378690D01*
X48332899Y-136417130D01*
X48575000Y-136440975D01*
X48817102Y-136417130D01*
X49049901Y-136346511D01*
X49264449Y-136231833D01*
X49452502Y-136077502D01*
X49606833Y-135889449D01*
X49721511Y-135674901D01*
X49792130Y-135442102D01*
X49810000Y-135260665D01*
X49810000Y-134139335D01*
X49792130Y-133957898D01*
X49721511Y-133725099D01*
X49606833Y-133510551D01*
X49452502Y-133322498D01*
X49264448Y-133168167D01*
X49049900Y-133053489D01*
X48817101Y-132982870D01*
X48575000Y-132959025D01*
X48379801Y-132978250D01*
X48379801Y-131766410D01*
X48580814Y-131565397D01*
X48609812Y-131541599D01*
X48660165Y-131480244D01*
X48704784Y-131425876D01*
X48775357Y-131293846D01*
X48808497Y-131184594D01*
X48818814Y-131150584D01*
X48829811Y-131038931D01*
X48829811Y-131038923D01*
X48833487Y-131001600D01*
X48829811Y-130964277D01*
X48829809Y-128783829D01*
X48833486Y-128746494D01*
X48818813Y-128597508D01*
X48775356Y-128454247D01*
X48704784Y-128322218D01*
X48633609Y-128235491D01*
X48633604Y-128235486D01*
X48609810Y-128206493D01*
X48580817Y-128182699D01*
X46910040Y-126511923D01*
X46910040Y-126028148D01*
X51951457Y-126028148D01*
X52227627Y-126446118D01*
X52772557Y-126736649D01*
X53363696Y-126915287D01*
X53978328Y-126975168D01*
X54592831Y-126913990D01*
X55183592Y-126734103D01*
X55722373Y-126446118D01*
X55998543Y-126028148D01*
X53975000Y-124004605D01*
X51951457Y-126028148D01*
X46910040Y-126028148D01*
X46910040Y-123828328D01*
X50824832Y-123828328D01*
X50886010Y-124442831D01*
X51065897Y-125033592D01*
X51353882Y-125572373D01*
X51771852Y-125848543D01*
X53795395Y-123825000D01*
X54154605Y-123825000D01*
X56178148Y-125848543D01*
X56596118Y-125572373D01*
X56886649Y-125027443D01*
X57065287Y-124436304D01*
X57125168Y-123821672D01*
X57063990Y-123207169D01*
X56884103Y-122616408D01*
X56596118Y-122077627D01*
X56178148Y-121801457D01*
X54154605Y-123825000D01*
X53795395Y-123825000D01*
X51771852Y-121801457D01*
X51353882Y-122077627D01*
X51063351Y-122622557D01*
X50884713Y-123213696D01*
X50824832Y-123828328D01*
X46910040Y-123828328D01*
X46910040Y-121621852D01*
X51951457Y-121621852D01*
X53975000Y-123645395D01*
X55998543Y-121621852D01*
X55722373Y-121203882D01*
X55177443Y-120913351D01*
X54586304Y-120734713D01*
X53971672Y-120674832D01*
X53357169Y-120736010D01*
X52766408Y-120915897D01*
X52227627Y-121203882D01*
X51951457Y-121621852D01*
X46910040Y-121621852D01*
X46910040Y-104296445D01*
X46942102Y-104309726D01*
X47142061Y-104349500D01*
X47345939Y-104349500D01*
X47545898Y-104309726D01*
X47734256Y-104231705D01*
X47903774Y-104118437D01*
X48047937Y-103974274D01*
X48161205Y-103804756D01*
X48239226Y-103616398D01*
X48279000Y-103416439D01*
X48279000Y-103212561D01*
X48239226Y-103012602D01*
X48161205Y-102824244D01*
X48149349Y-102806500D01*
X48161205Y-102788756D01*
X48239226Y-102600398D01*
X48279000Y-102400439D01*
X48279000Y-102196561D01*
X48239226Y-101996602D01*
X48161205Y-101808244D01*
X48149349Y-101790500D01*
X48161205Y-101772756D01*
X48239226Y-101584398D01*
X48279000Y-101384439D01*
X48279000Y-101180561D01*
X48239226Y-100980602D01*
X48161205Y-100792244D01*
X48149349Y-100774500D01*
X48161205Y-100756756D01*
X48239226Y-100568398D01*
X48279000Y-100368439D01*
X48279000Y-100164561D01*
X48239226Y-99964602D01*
X48161205Y-99776244D01*
X48047937Y-99606726D01*
X47903774Y-99462563D01*
X47734256Y-99349295D01*
X47545898Y-99271274D01*
X47345939Y-99231500D01*
X47142061Y-99231500D01*
X46942102Y-99271274D01*
X46753744Y-99349295D01*
X46584226Y-99462563D01*
X46540289Y-99506500D01*
X45662832Y-99506500D01*
X45625509Y-99502824D01*
X45588186Y-99506500D01*
X45588177Y-99506500D01*
X45476524Y-99517497D01*
X45333263Y-99560954D01*
X45201234Y-99631526D01*
X45110000Y-99706400D01*
X45110000Y-75228148D01*
X51951457Y-75228148D01*
X52227627Y-75646118D01*
X52772557Y-75936649D01*
X53363696Y-76115287D01*
X53978328Y-76175168D01*
X54592831Y-76113990D01*
X55183592Y-75934103D01*
X55722373Y-75646118D01*
X55998543Y-75228148D01*
X53975000Y-73204605D01*
X51951457Y-75228148D01*
X45110000Y-75228148D01*
X45110000Y-73028328D01*
X50824832Y-73028328D01*
X50886010Y-73642831D01*
X51065897Y-74233592D01*
X51353882Y-74772373D01*
X51771852Y-75048543D01*
X53795395Y-73025000D01*
X54154605Y-73025000D01*
X56178148Y-75048543D01*
X56596118Y-74772373D01*
X56886649Y-74227443D01*
X57065287Y-73636304D01*
X57125168Y-73021672D01*
X57063990Y-72407169D01*
X56884103Y-71816408D01*
X56596118Y-71277627D01*
X56178148Y-71001457D01*
X54154605Y-73025000D01*
X53795395Y-73025000D01*
X51771852Y-71001457D01*
X51353882Y-71277627D01*
X51063351Y-71822557D01*
X50884713Y-72413696D01*
X50824832Y-73028328D01*
X45110000Y-73028328D01*
X45110000Y-70821852D01*
X51951457Y-70821852D01*
X53975000Y-72845395D01*
X55998543Y-70821852D01*
X55722373Y-70403882D01*
X55177443Y-70113351D01*
X54586304Y-69934713D01*
X53971672Y-69874832D01*
X53357169Y-69936010D01*
X52766408Y-70115897D01*
X52227627Y-70403882D01*
X51951457Y-70821852D01*
X45110000Y-70821852D01*
X45110000Y-59895897D01*
X48173208Y-59895897D01*
X48250843Y-60144972D01*
X48514883Y-60270871D01*
X48798411Y-60342839D01*
X49090531Y-60358111D01*
X49380019Y-60316099D01*
X49655747Y-60218419D01*
X49793157Y-60144972D01*
X49870792Y-59895897D01*
X58079208Y-59895897D01*
X58156843Y-60144972D01*
X58420883Y-60270871D01*
X58704411Y-60342839D01*
X58996531Y-60358111D01*
X59286019Y-60316099D01*
X59561747Y-60218419D01*
X59699157Y-60144972D01*
X59776792Y-59895897D01*
X58928000Y-59047105D01*
X58079208Y-59895897D01*
X49870792Y-59895897D01*
X49022000Y-59047105D01*
X48173208Y-59895897D01*
X45110000Y-59895897D01*
X45110000Y-58936031D01*
X47531389Y-58936031D01*
X47573401Y-59225519D01*
X47671081Y-59501247D01*
X47744528Y-59638657D01*
X47993603Y-59716292D01*
X48842395Y-58867500D01*
X49201605Y-58867500D01*
X50050397Y-59716292D01*
X50299472Y-59638657D01*
X50425371Y-59374617D01*
X50497339Y-59091089D01*
X50505445Y-58936031D01*
X57437389Y-58936031D01*
X57479401Y-59225519D01*
X57577081Y-59501247D01*
X57650528Y-59638657D01*
X57899603Y-59716292D01*
X58748395Y-58867500D01*
X59107605Y-58867500D01*
X59956397Y-59716292D01*
X60205472Y-59638657D01*
X60331371Y-59374617D01*
X60403339Y-59091089D01*
X60418611Y-58798969D01*
X60376599Y-58509481D01*
X60278919Y-58233753D01*
X60205472Y-58096343D01*
X59956397Y-58018708D01*
X59107605Y-58867500D01*
X58748395Y-58867500D01*
X57899603Y-58018708D01*
X57650528Y-58096343D01*
X57524629Y-58360383D01*
X57452661Y-58643911D01*
X57437389Y-58936031D01*
X50505445Y-58936031D01*
X50512611Y-58798969D01*
X50470599Y-58509481D01*
X50372919Y-58233753D01*
X50299472Y-58096343D01*
X50050397Y-58018708D01*
X49201605Y-58867500D01*
X48842395Y-58867500D01*
X47993603Y-58018708D01*
X47744528Y-58096343D01*
X47618629Y-58360383D01*
X47546661Y-58643911D01*
X47531389Y-58936031D01*
X45110000Y-58936031D01*
X45110000Y-57839103D01*
X48173208Y-57839103D01*
X49022000Y-58687895D01*
X49870792Y-57839103D01*
X58079208Y-57839103D01*
X58928000Y-58687895D01*
X59776792Y-57839103D01*
X59699157Y-57590028D01*
X59435117Y-57464129D01*
X59151589Y-57392161D01*
X58859469Y-57376889D01*
X58569981Y-57418901D01*
X58294253Y-57516581D01*
X58156843Y-57590028D01*
X58079208Y-57839103D01*
X49870792Y-57839103D01*
X49793157Y-57590028D01*
X49529117Y-57464129D01*
X49245589Y-57392161D01*
X48953469Y-57376889D01*
X48663981Y-57418901D01*
X48388253Y-57516581D01*
X48250843Y-57590028D01*
X48173208Y-57839103D01*
X45110000Y-57839103D01*
X45110000Y-55621240D01*
X47537000Y-55621240D01*
X47537000Y-55913760D01*
X47594068Y-56200658D01*
X47706010Y-56470911D01*
X47868525Y-56714132D01*
X48075368Y-56920975D01*
X48318589Y-57083490D01*
X48588842Y-57195432D01*
X48875740Y-57252500D01*
X49168260Y-57252500D01*
X49455158Y-57195432D01*
X49725411Y-57083490D01*
X49968632Y-56920975D01*
X50175475Y-56714132D01*
X50337990Y-56470911D01*
X50449932Y-56200658D01*
X50507000Y-55913760D01*
X50507000Y-55621240D01*
X57443000Y-55621240D01*
X57443000Y-55913760D01*
X57500068Y-56200658D01*
X57612010Y-56470911D01*
X57774525Y-56714132D01*
X57981368Y-56920975D01*
X58224589Y-57083490D01*
X58494842Y-57195432D01*
X58781740Y-57252500D01*
X59074260Y-57252500D01*
X59361158Y-57195432D01*
X59631411Y-57083490D01*
X59874632Y-56920975D01*
X60081475Y-56714132D01*
X60243990Y-56470911D01*
X60355932Y-56200658D01*
X60413000Y-55913760D01*
X60413000Y-55621240D01*
X60355932Y-55334342D01*
X60243990Y-55064089D01*
X60081475Y-54820868D01*
X59874632Y-54614025D01*
X59631411Y-54451510D01*
X59361158Y-54339568D01*
X59074260Y-54282500D01*
X58781740Y-54282500D01*
X58494842Y-54339568D01*
X58224589Y-54451510D01*
X57981368Y-54614025D01*
X57774525Y-54820868D01*
X57612010Y-55064089D01*
X57500068Y-55334342D01*
X57443000Y-55621240D01*
X50507000Y-55621240D01*
X50449932Y-55334342D01*
X50337990Y-55064089D01*
X50175475Y-54820868D01*
X49968632Y-54614025D01*
X49725411Y-54451510D01*
X49455158Y-54339568D01*
X49168260Y-54282500D01*
X48875740Y-54282500D01*
X48588842Y-54339568D01*
X48318589Y-54451510D01*
X48075368Y-54614025D01*
X47868525Y-54820868D01*
X47706010Y-55064089D01*
X47594068Y-55334342D01*
X47537000Y-55621240D01*
X45110000Y-55621240D01*
X45110000Y-47321240D01*
X47537000Y-47321240D01*
X47537000Y-47613760D01*
X47594068Y-47900658D01*
X47706010Y-48170911D01*
X47868525Y-48414132D01*
X48075368Y-48620975D01*
X48318589Y-48783490D01*
X48588842Y-48895432D01*
X48875740Y-48952500D01*
X49168260Y-48952500D01*
X49455158Y-48895432D01*
X49725411Y-48783490D01*
X49968632Y-48620975D01*
X50175475Y-48414132D01*
X50337990Y-48170911D01*
X50449932Y-47900658D01*
X50507000Y-47613760D01*
X50507000Y-47321240D01*
X57443000Y-47321240D01*
X57443000Y-47613760D01*
X57500068Y-47900658D01*
X57612010Y-48170911D01*
X57774525Y-48414132D01*
X57981368Y-48620975D01*
X58224589Y-48783490D01*
X58494842Y-48895432D01*
X58781740Y-48952500D01*
X59074260Y-48952500D01*
X59361158Y-48895432D01*
X59631411Y-48783490D01*
X59874632Y-48620975D01*
X60081475Y-48414132D01*
X60243990Y-48170911D01*
X60355932Y-47900658D01*
X60413000Y-47613760D01*
X60413000Y-47321240D01*
X60355932Y-47034342D01*
X60243990Y-46764089D01*
X60081475Y-46520868D01*
X59874632Y-46314025D01*
X59631411Y-46151510D01*
X59361158Y-46039568D01*
X59074260Y-45982500D01*
X58781740Y-45982500D01*
X58494842Y-46039568D01*
X58224589Y-46151510D01*
X57981368Y-46314025D01*
X57774525Y-46520868D01*
X57612010Y-46764089D01*
X57500068Y-47034342D01*
X57443000Y-47321240D01*
X50507000Y-47321240D01*
X50449932Y-47034342D01*
X50337990Y-46764089D01*
X50175475Y-46520868D01*
X49968632Y-46314025D01*
X49725411Y-46151510D01*
X49455158Y-46039568D01*
X49168260Y-45982500D01*
X48875740Y-45982500D01*
X48588842Y-46039568D01*
X48318589Y-46151510D01*
X48075368Y-46314025D01*
X47868525Y-46520868D01*
X47706010Y-46764089D01*
X47594068Y-47034342D01*
X47537000Y-47321240D01*
X45110000Y-47321240D01*
X45110000Y-24428148D01*
X51951457Y-24428148D01*
X52227627Y-24846118D01*
X52772557Y-25136649D01*
X53363696Y-25315287D01*
X53978328Y-25375168D01*
X54592831Y-25313990D01*
X55183592Y-25134103D01*
X55722373Y-24846118D01*
X55998543Y-24428148D01*
X53975000Y-22404605D01*
X51951457Y-24428148D01*
X45110000Y-24428148D01*
X45110000Y-22228328D01*
X50824832Y-22228328D01*
X50886010Y-22842831D01*
X51065897Y-23433592D01*
X51353882Y-23972373D01*
X51771852Y-24248543D01*
X53795395Y-22225000D01*
X54154605Y-22225000D01*
X56178148Y-24248543D01*
X56596118Y-23972373D01*
X56886649Y-23427443D01*
X57065287Y-22836304D01*
X57125168Y-22221672D01*
X57063990Y-21607169D01*
X56884103Y-21016408D01*
X56596118Y-20477627D01*
X56178148Y-20201457D01*
X54154605Y-22225000D01*
X53795395Y-22225000D01*
X51771852Y-20201457D01*
X51353882Y-20477627D01*
X51063351Y-21022557D01*
X50884713Y-21613696D01*
X50824832Y-22228328D01*
X45110000Y-22228328D01*
X45110000Y-20021852D01*
X51951457Y-20021852D01*
X53975000Y-22045395D01*
X55998543Y-20021852D01*
X55722373Y-19603882D01*
X55177443Y-19313351D01*
X54586304Y-19134713D01*
X53971672Y-19074832D01*
X53357169Y-19136010D01*
X52766408Y-19315897D01*
X52227627Y-19603882D01*
X51951457Y-20021852D01*
X45110000Y-20021852D01*
X45110000Y15066000D01*
X47836928Y15066000D01*
X47840000Y12751750D01*
X47998750Y12593000D01*
X48331605Y12593000D01*
X48320064Y12581459D01*
X48326345Y12466000D01*
X48320064Y12350541D01*
X48331605Y12339000D01*
X47998750Y12339000D01*
X47840000Y12180250D01*
X47836928Y9866000D01*
X47849188Y9741518D01*
X47885498Y9621820D01*
X47944463Y9511506D01*
X48023815Y9414815D01*
X48120506Y9335463D01*
X48230820Y9276498D01*
X48350518Y9240188D01*
X48475000Y9227928D01*
X53689250Y9231000D01*
X53763130Y9304880D01*
X53881176Y9281172D01*
X54065355Y9280829D01*
X54186965Y9304785D01*
X54260750Y9231000D01*
X59475000Y9227928D01*
X59599482Y9240188D01*
X59719180Y9276498D01*
X59829494Y9335463D01*
X59926185Y9414815D01*
X60005537Y9511506D01*
X60064502Y9621820D01*
X60100812Y9741518D01*
X60113072Y9866000D01*
X60110000Y12180250D01*
X59951250Y12339000D01*
X59618395Y12339000D01*
X59629936Y12350541D01*
X59623655Y12466000D01*
X59629936Y12581459D01*
X59618395Y12593000D01*
X59951250Y12593000D01*
X60110000Y12751750D01*
X60113072Y15066000D01*
X60100812Y15190482D01*
X60064502Y15310180D01*
X60005537Y15420494D01*
X59926185Y15517185D01*
X59829494Y15596537D01*
X59719180Y15655502D01*
X59599482Y15691812D01*
X59475000Y15704072D01*
X54260750Y15701000D01*
X54186870Y15627120D01*
X54068824Y15650828D01*
X53884645Y15651171D01*
X53763035Y15627215D01*
X53689250Y15701000D01*
X48475000Y15704072D01*
X48350518Y15691812D01*
X48230820Y15655502D01*
X48120506Y15596537D01*
X48023815Y15517185D01*
X47944463Y15420494D01*
X47885498Y15310180D01*
X47849188Y15190482D01*
X47836928Y15066000D01*
X45110000Y15066000D01*
X45110000Y26371852D01*
X51951457Y26371852D01*
X52227627Y25953882D01*
X52772557Y25663351D01*
X53363696Y25484713D01*
X53978328Y25424832D01*
X54592831Y25486010D01*
X55183592Y25665897D01*
X55722373Y25953882D01*
X55998543Y26371852D01*
X53975000Y28395395D01*
X51951457Y26371852D01*
X45110000Y26371852D01*
X45110000Y28571672D01*
X50824832Y28571672D01*
X50886010Y27957169D01*
X51065897Y27366408D01*
X51353882Y26827627D01*
X51771852Y26551457D01*
X53795395Y28575000D01*
X54154605Y28575000D01*
X56178148Y26551457D01*
X56596118Y26827627D01*
X56886649Y27372557D01*
X57065287Y27963696D01*
X57125168Y28578328D01*
X57063990Y29192831D01*
X56884103Y29783592D01*
X56596118Y30322373D01*
X56178148Y30598543D01*
X54154605Y28575000D01*
X53795395Y28575000D01*
X51771852Y30598543D01*
X51353882Y30322373D01*
X51063351Y29777443D01*
X50884713Y29186304D01*
X50824832Y28571672D01*
X45110000Y28571672D01*
X45110000Y30778148D01*
X51951457Y30778148D01*
X53975000Y28754605D01*
X55998543Y30778148D01*
X55722373Y31196118D01*
X55177443Y31486649D01*
X54586304Y31665287D01*
X53971672Y31725168D01*
X53357169Y31663990D01*
X52766408Y31484103D01*
X52227627Y31196118D01*
X51951457Y30778148D01*
X45110000Y30778148D01*
X45110000Y32511561D01*
X47864000Y32511561D01*
X47864000Y32258439D01*
X47913381Y32010179D01*
X48010247Y31776324D01*
X48150875Y31565860D01*
X48329860Y31386875D01*
X48540324Y31246247D01*
X48774179Y31149381D01*
X49022439Y31100000D01*
X49275561Y31100000D01*
X49523821Y31149381D01*
X49757676Y31246247D01*
X49968140Y31386875D01*
X50147125Y31565860D01*
X50287753Y31776324D01*
X50384619Y32010179D01*
X50434000Y32258439D01*
X50434000Y32511561D01*
X57516000Y32511561D01*
X57516000Y32258439D01*
X57565381Y32010179D01*
X57662247Y31776324D01*
X57802875Y31565860D01*
X57981860Y31386875D01*
X58192324Y31246247D01*
X58426179Y31149381D01*
X58674439Y31100000D01*
X58927561Y31100000D01*
X59175821Y31149381D01*
X59409676Y31246247D01*
X59620140Y31386875D01*
X59799125Y31565860D01*
X59939753Y31776324D01*
X60036619Y32010179D01*
X60086000Y32258439D01*
X60086000Y32511561D01*
X60036619Y32759821D01*
X59939753Y32993676D01*
X59799125Y33204140D01*
X59620140Y33383125D01*
X59409676Y33523753D01*
X59175821Y33620619D01*
X58927561Y33670000D01*
X58674439Y33670000D01*
X58426179Y33620619D01*
X58192324Y33523753D01*
X57981860Y33383125D01*
X57802875Y33204140D01*
X57662247Y32993676D01*
X57565381Y32759821D01*
X57516000Y32511561D01*
X50434000Y32511561D01*
X50384619Y32759821D01*
X50287753Y32993676D01*
X50147125Y33204140D01*
X49968140Y33383125D01*
X49757676Y33523753D01*
X49523821Y33620619D01*
X49275561Y33670000D01*
X49022439Y33670000D01*
X48774179Y33620619D01*
X48540324Y33523753D01*
X48329860Y33383125D01*
X48150875Y33204140D01*
X48010247Y32993676D01*
X47913381Y32759821D01*
X47864000Y32511561D01*
X45110000Y32511561D01*
X45110000Y40490408D01*
X45709000Y40490408D01*
X45709000Y38539593D01*
X45731210Y38314088D01*
X45818983Y38024740D01*
X45961519Y37758074D01*
X46153339Y37524339D01*
X46387073Y37332519D01*
X46653739Y37189983D01*
X46943087Y37102210D01*
X47244000Y37072573D01*
X47544912Y37102210D01*
X47834260Y37189983D01*
X48100926Y37332519D01*
X48334661Y37524339D01*
X48526481Y37758073D01*
X48669017Y38024739D01*
X48756790Y38314087D01*
X48779000Y38539592D01*
X48779000Y40490408D01*
X48756790Y40715913D01*
X48669017Y41005261D01*
X48637086Y41065000D01*
X49515928Y41065000D01*
X49515928Y37965000D01*
X49532992Y37791746D01*
X49583528Y37625150D01*
X49665595Y37471614D01*
X49776038Y37337038D01*
X49910614Y37226595D01*
X50064150Y37144528D01*
X50230746Y37093992D01*
X50404000Y37076928D01*
X51704000Y37076928D01*
X51877254Y37093992D01*
X52043850Y37144528D01*
X52197386Y37226595D01*
X52331962Y37337038D01*
X52442405Y37471614D01*
X52524472Y37625150D01*
X52575008Y37791746D01*
X52592072Y37965000D01*
X52592072Y40490408D01*
X55361000Y40490408D01*
X55361000Y38539593D01*
X55383210Y38314088D01*
X55470983Y38024740D01*
X55613519Y37758074D01*
X55805339Y37524339D01*
X56039073Y37332519D01*
X56305739Y37189983D01*
X56595087Y37102210D01*
X56896000Y37072573D01*
X57196912Y37102210D01*
X57486260Y37189983D01*
X57752926Y37332519D01*
X57986661Y37524339D01*
X58178481Y37758073D01*
X58321017Y38024739D01*
X58408790Y38314087D01*
X58431000Y38539592D01*
X58431000Y40490408D01*
X58408790Y40715913D01*
X58321017Y41005261D01*
X58289086Y41065000D01*
X59167928Y41065000D01*
X59167928Y37965000D01*
X59184992Y37791746D01*
X59235528Y37625150D01*
X59317595Y37471614D01*
X59428038Y37337038D01*
X59562614Y37226595D01*
X59716150Y37144528D01*
X59882746Y37093992D01*
X60056000Y37076928D01*
X61356000Y37076928D01*
X61529254Y37093992D01*
X61695850Y37144528D01*
X61849386Y37226595D01*
X61983962Y37337038D01*
X62094405Y37471614D01*
X62176472Y37625150D01*
X62227008Y37791746D01*
X62244072Y37965000D01*
X62244072Y41065000D01*
X62227008Y41238254D01*
X62176472Y41404850D01*
X62094405Y41558386D01*
X61983962Y41692962D01*
X61849386Y41803405D01*
X61695850Y41885472D01*
X61529254Y41936008D01*
X61356000Y41953072D01*
X60056000Y41953072D01*
X59882746Y41936008D01*
X59716150Y41885472D01*
X59562614Y41803405D01*
X59428038Y41692962D01*
X59317595Y41558386D01*
X59235528Y41404850D01*
X59184992Y41238254D01*
X59167928Y41065000D01*
X58289086Y41065000D01*
X58178481Y41271927D01*
X57986661Y41505661D01*
X57752927Y41697481D01*
X57486261Y41840017D01*
X57196913Y41927790D01*
X56896000Y41957427D01*
X56595088Y41927790D01*
X56305740Y41840017D01*
X56039074Y41697481D01*
X55805340Y41505661D01*
X55613520Y41271927D01*
X55470984Y41005261D01*
X55383211Y40715913D01*
X55361000Y40490408D01*
X52592072Y40490408D01*
X52592072Y41065000D01*
X52575008Y41238254D01*
X52524472Y41404850D01*
X52442405Y41558386D01*
X52331962Y41692962D01*
X52197386Y41803405D01*
X52043850Y41885472D01*
X51877254Y41936008D01*
X51704000Y41953072D01*
X50404000Y41953072D01*
X50230746Y41936008D01*
X50064150Y41885472D01*
X49910614Y41803405D01*
X49776038Y41692962D01*
X49665595Y41558386D01*
X49583528Y41404850D01*
X49532992Y41238254D01*
X49515928Y41065000D01*
X48637086Y41065000D01*
X48526481Y41271927D01*
X48334661Y41505661D01*
X48100927Y41697481D01*
X47834261Y41840017D01*
X47544913Y41927790D01*
X47244000Y41957427D01*
X46943088Y41927790D01*
X46653740Y41840017D01*
X46387074Y41697481D01*
X46153340Y41505661D01*
X45961520Y41271927D01*
X45818984Y41005261D01*
X45731211Y40715913D01*
X45709000Y40490408D01*
X45110000Y40490408D01*
X45110000Y46965000D01*
X62840001Y46965000D01*
X62840001Y3809214D01*
X62840001Y3809214D01*
G37*
X62840001Y3809214D02*
X62827678Y3808000D01*
X61409711Y3808000D01*
X61365774Y3851937D01*
X61196256Y3965205D01*
X61007898Y4043226D01*
X60807939Y4083000D01*
X60604061Y4083000D01*
X60404102Y4043226D01*
X60215744Y3965205D01*
X60046226Y3851937D01*
X59902063Y3707774D01*
X59788795Y3538256D01*
X59710774Y3349898D01*
X59671000Y3149939D01*
X59671000Y2946061D01*
X59710774Y2746102D01*
X59788795Y2557744D01*
X59902063Y2388226D01*
X60046226Y2244063D01*
X60215744Y2130795D01*
X60404102Y2052774D01*
X60604061Y2013000D01*
X60807939Y2013000D01*
X61007898Y2052774D01*
X61196256Y2130795D01*
X61365774Y2244063D01*
X61409711Y2288000D01*
X62389991Y2288000D01*
X62389990Y-60360208D01*
X61936199Y-60814000D01*
X61874061Y-60814000D01*
X61674102Y-60853774D01*
X61485744Y-60931795D01*
X61316226Y-61045063D01*
X61172063Y-61189226D01*
X61058795Y-61358744D01*
X60980774Y-61547102D01*
X60941000Y-61747061D01*
X60941000Y-61950939D01*
X60980774Y-62150898D01*
X61058795Y-62339256D01*
X61172063Y-62508774D01*
X61316226Y-62652937D01*
X61485744Y-62766205D01*
X61674102Y-62844226D01*
X61874061Y-62884000D01*
X62077939Y-62884000D01*
X62277898Y-62844226D01*
X62466256Y-62766205D01*
X62635774Y-62652937D01*
X62779937Y-62508774D01*
X62840000Y-62418882D01*
X62840000Y-67423197D01*
X58437295Y-63020492D01*
X58413492Y-62991488D01*
X58297767Y-62896515D01*
X58165738Y-62825943D01*
X58022477Y-62782486D01*
X57910824Y-62771489D01*
X57910813Y-62771489D01*
X57873491Y-62767813D01*
X57836169Y-62771489D01*
X53409333Y-62771489D01*
X53372010Y-62767813D01*
X53334687Y-62771489D01*
X53334678Y-62771489D01*
X53223025Y-62782486D01*
X53079764Y-62825943D01*
X52947735Y-62896515D01*
X52947733Y-62896516D01*
X52947734Y-62896516D01*
X52861007Y-62967690D01*
X52861003Y-62967694D01*
X52832010Y-62991488D01*
X52808216Y-63020481D01*
X52149109Y-63679590D01*
X52108439Y-63671500D01*
X51904561Y-63671500D01*
X51704602Y-63711274D01*
X51516244Y-63789295D01*
X51346726Y-63902563D01*
X51202563Y-64046726D01*
X51089295Y-64216244D01*
X51011274Y-64404602D01*
X50971500Y-64604561D01*
X50971500Y-64808439D01*
X51011274Y-65008398D01*
X51089295Y-65196756D01*
X51202563Y-65366274D01*
X51346726Y-65510437D01*
X51516244Y-65623705D01*
X51704602Y-65701726D01*
X51904561Y-65741500D01*
X52108439Y-65741500D01*
X52308398Y-65701726D01*
X52496756Y-65623705D01*
X52641500Y-65526990D01*
X52786244Y-65623705D01*
X52974602Y-65701726D01*
X53174561Y-65741500D01*
X53378439Y-65741500D01*
X53578398Y-65701726D01*
X53766756Y-65623705D01*
X53911500Y-65526990D01*
X54056244Y-65623705D01*
X54244602Y-65701726D01*
X54444561Y-65741500D01*
X54648439Y-65741500D01*
X54848398Y-65701726D01*
X55036756Y-65623705D01*
X55206274Y-65510437D01*
X55250211Y-65466500D01*
X57460881Y-65466500D01*
X58190088Y-66195708D01*
X58190093Y-66195712D01*
X59913990Y-67919610D01*
X59913989Y-69077078D01*
X59910313Y-69114401D01*
X59913989Y-69151723D01*
X59913989Y-69151733D01*
X59924986Y-69263386D01*
X59961554Y-69383937D01*
X59968443Y-69406647D01*
X60039015Y-69538677D01*
X60072900Y-69579965D01*
X60133988Y-69654402D01*
X60162991Y-69678204D01*
X61039961Y-70555176D01*
X61039960Y-78414806D01*
X59789178Y-79665589D01*
X59760180Y-79689387D01*
X59736382Y-79718385D01*
X59736381Y-79718386D01*
X59665206Y-79805112D01*
X59594634Y-79937142D01*
X59551178Y-80080403D01*
X59536504Y-80229388D01*
X59540181Y-80266720D01*
X59540179Y-82766609D01*
X59276138Y-83030651D01*
X59247140Y-83054449D01*
X59223342Y-83083447D01*
X59223341Y-83083448D01*
X59152166Y-83170174D01*
X59081594Y-83302204D01*
X59059920Y-83373657D01*
X59038138Y-83445464D01*
X59029004Y-83538205D01*
X59023464Y-83594450D01*
X59027141Y-83631782D01*
X59027139Y-86391149D01*
X58702488Y-86715801D01*
X58673490Y-86739599D01*
X58649692Y-86768597D01*
X58649691Y-86768598D01*
X58578516Y-86855324D01*
X58507944Y-86987354D01*
X58482420Y-87071498D01*
X58464606Y-87130227D01*
X58464488Y-87130615D01*
X58449814Y-87279600D01*
X58453491Y-87316931D01*
X58453489Y-88317577D01*
X58449813Y-88354901D01*
X58453489Y-88392223D01*
X58453489Y-88392233D01*
X58464486Y-88503886D01*
X58494045Y-88601331D01*
X58507943Y-88647147D01*
X58578515Y-88779177D01*
X58635888Y-88849085D01*
X58673488Y-88894901D01*
X58702485Y-88918699D01*
X59239921Y-89456135D01*
X59239920Y-125129912D01*
X57119143Y-127250690D01*
X57090145Y-127274488D01*
X57066347Y-127303486D01*
X57066346Y-127303487D01*
X56995171Y-127390213D01*
X56924599Y-127522243D01*
X56894325Y-127622047D01*
X56881143Y-127665503D01*
X56875901Y-127718724D01*
X56866469Y-127814489D01*
X56870146Y-127851821D01*
X56870144Y-131896272D01*
X56866468Y-131933595D01*
X56870144Y-131970920D01*
X56870144Y-131970928D01*
X56881141Y-132082581D01*
X56924598Y-132225842D01*
X56966646Y-132304507D01*
X56995169Y-132357870D01*
X57026860Y-132396486D01*
X57090143Y-132473596D01*
X57119139Y-132497393D01*
X57314951Y-132693205D01*
X57314950Y-133576583D01*
X57311274Y-133613906D01*
X57314950Y-133651228D01*
X57314950Y-133651238D01*
X57325947Y-133762891D01*
X57354894Y-133858317D01*
X57369404Y-133906152D01*
X57439976Y-134038182D01*
X57459917Y-134062480D01*
X57534949Y-134153907D01*
X57563953Y-134177710D01*
X57764961Y-134378718D01*
X57764960Y-135930183D01*
X57761284Y-135967506D01*
X57764960Y-136004828D01*
X57764960Y-136004838D01*
X57775957Y-136116491D01*
X57810292Y-136229680D01*
X57819414Y-136259752D01*
X57889986Y-136391782D01*
X57908263Y-136414052D01*
X57984959Y-136507507D01*
X58013963Y-136531310D01*
X58200935Y-136718282D01*
X57038970Y-137880248D01*
X57009972Y-137904046D01*
X56986174Y-137933044D01*
X56986173Y-137933045D01*
X56914998Y-138019771D01*
X56844426Y-138151801D01*
X56827933Y-138206173D01*
X56800970Y-138295061D01*
X56789973Y-138406714D01*
X56786296Y-138444047D01*
X56789973Y-138481379D01*
X56789971Y-140918627D01*
X56786295Y-140955950D01*
X56789971Y-140993272D01*
X56789971Y-140993282D01*
X56800968Y-141104935D01*
X56844425Y-141248196D01*
X56914997Y-141380225D01*
X57009970Y-141495950D01*
X57038968Y-141519748D01*
X59120190Y-143600973D01*
X59120189Y-146204276D01*
X59116513Y-146241599D01*
X59120189Y-146278921D01*
X59120189Y-146278931D01*
X59131186Y-146390584D01*
X59165262Y-146502920D01*
X59174643Y-146533845D01*
X59245215Y-146665875D01*
X59262068Y-146686410D01*
X59340188Y-146781600D01*
X59369192Y-146805403D01*
X59565001Y-147001212D01*
X59565001Y-150010173D01*
X59536676Y-149991247D01*
X59302821Y-149894381D01*
X59054561Y-149845000D01*
X58801439Y-149845000D01*
X58553179Y-149894381D01*
X58319324Y-149991247D01*
X58108860Y-150131875D01*
X57929875Y-150310860D01*
X57789247Y-150521324D01*
X57692381Y-150755179D01*
X57643000Y-151003439D01*
X57643000Y-151256561D01*
X57692381Y-151504821D01*
X57789247Y-151738676D01*
X57929875Y-151949140D01*
X58108860Y-152128125D01*
X58319324Y-152268753D01*
X58553179Y-152365619D01*
X58801439Y-152415000D01*
X59054561Y-152415000D01*
X59302821Y-152365619D01*
X59536676Y-152268753D01*
X59565001Y-152249827D01*
X59565000Y-163705698D01*
X59311699Y-163959000D01*
X47089056Y-163959000D01*
X47179377Y-163910723D01*
X47267871Y-163652476D01*
X46355000Y-162739605D01*
X46340858Y-162753748D01*
X46161253Y-162574143D01*
X46175395Y-162560000D01*
X46534605Y-162560000D01*
X47447476Y-163472871D01*
X47705723Y-163384377D01*
X47840597Y-163105024D01*
X47918381Y-162804725D01*
X47936084Y-162495023D01*
X47893027Y-162187816D01*
X47790865Y-161894914D01*
X47705723Y-161735623D01*
X47447476Y-161647129D01*
X46534605Y-162560000D01*
X46175395Y-162560000D01*
X46161253Y-162545858D01*
X46340858Y-162366253D01*
X46355000Y-162380395D01*
X47267871Y-161467524D01*
X47222286Y-161334495D01*
X47358877Y-161243227D01*
X47578227Y-161023877D01*
X47750570Y-160765948D01*
X47869282Y-160479352D01*
X47929800Y-160175104D01*
X47929800Y-159864896D01*
X47869282Y-159560648D01*
X47750570Y-159274052D01*
X47578227Y-159016123D01*
X47358877Y-158796773D01*
X47348741Y-158790000D01*
X50531928Y-158790000D01*
X50544188Y-158914482D01*
X50580498Y-159034180D01*
X50639463Y-159144494D01*
X50718815Y-159241185D01*
X50815506Y-159320537D01*
X50925820Y-159379502D01*
X51045518Y-159415812D01*
X51170000Y-159428072D01*
X51784250Y-159425000D01*
X51943000Y-159266250D01*
X51943000Y-157117000D01*
X52197000Y-157117000D01*
X52197000Y-159266250D01*
X52355750Y-159425000D01*
X52970000Y-159428072D01*
X53094482Y-159415812D01*
X53214180Y-159379502D01*
X53324494Y-159320537D01*
X53421185Y-159241185D01*
X53500537Y-159144494D01*
X53559502Y-159034180D01*
X53595812Y-158914482D01*
X53608072Y-158790000D01*
X53605000Y-157275750D01*
X53446250Y-157117000D01*
X52197000Y-157117000D01*
X51943000Y-157117000D01*
X50693750Y-157117000D01*
X50535000Y-157275750D01*
X50531928Y-158790000D01*
X47348741Y-158790000D01*
X47288876Y-158750000D01*
X47358877Y-158703227D01*
X47578227Y-158483877D01*
X47750570Y-158225948D01*
X47869282Y-157939352D01*
X47929800Y-157635104D01*
X47929800Y-157324896D01*
X47869282Y-157020648D01*
X47750570Y-156734052D01*
X47578227Y-156476123D01*
X47358877Y-156256773D01*
X47288876Y-156210000D01*
X47358877Y-156163227D01*
X47578227Y-155943877D01*
X47750570Y-155685948D01*
X47869282Y-155399352D01*
X47910924Y-155190000D01*
X50531928Y-155190000D01*
X50535000Y-156704250D01*
X50693750Y-156863000D01*
X51943000Y-156863000D01*
X51943000Y-154713750D01*
X52197000Y-154713750D01*
X52197000Y-156863000D01*
X53446250Y-156863000D01*
X53605000Y-156704250D01*
X53606399Y-156014593D01*
X54345000Y-156014593D01*
X54345000Y-157965408D01*
X54367211Y-158190913D01*
X54454984Y-158480261D01*
X54597520Y-158746927D01*
X54789340Y-158980661D01*
X55023074Y-159172481D01*
X55289740Y-159315017D01*
X55579088Y-159402790D01*
X55880000Y-159432427D01*
X56180913Y-159402790D01*
X56470261Y-159315017D01*
X56736927Y-159172481D01*
X56970661Y-158980661D01*
X57162481Y-158746927D01*
X57305017Y-158480261D01*
X57392790Y-158190913D01*
X57415000Y-157965408D01*
X57415000Y-156014592D01*
X57392790Y-155789087D01*
X57305017Y-155499739D01*
X57162481Y-155233073D01*
X56970661Y-154999339D01*
X56736926Y-154807519D01*
X56470260Y-154664983D01*
X56180912Y-154577210D01*
X55880000Y-154547573D01*
X55579087Y-154577210D01*
X55289739Y-154664983D01*
X55023073Y-154807519D01*
X54789339Y-154999339D01*
X54597519Y-155233074D01*
X54454983Y-155499740D01*
X54367210Y-155789088D01*
X54345000Y-156014593D01*
X53606399Y-156014593D01*
X53608072Y-155190000D01*
X53595812Y-155065518D01*
X53559502Y-154945820D01*
X53500537Y-154835506D01*
X53421185Y-154738815D01*
X53324494Y-154659463D01*
X53214180Y-154600498D01*
X53094482Y-154564188D01*
X52970000Y-154551928D01*
X52355750Y-154555000D01*
X52197000Y-154713750D01*
X51943000Y-154713750D01*
X51784250Y-154555000D01*
X51170000Y-154551928D01*
X51045518Y-154564188D01*
X50925820Y-154600498D01*
X50815506Y-154659463D01*
X50718815Y-154738815D01*
X50639463Y-154835506D01*
X50580498Y-154945820D01*
X50544188Y-155065518D01*
X50531928Y-155190000D01*
X47910924Y-155190000D01*
X47929800Y-155095104D01*
X47929800Y-154784896D01*
X47869282Y-154480648D01*
X47750570Y-154194052D01*
X47578227Y-153936123D01*
X47358877Y-153716773D01*
X47288876Y-153670000D01*
X47358877Y-153623227D01*
X47578227Y-153403877D01*
X47750570Y-153145948D01*
X47869282Y-152859352D01*
X47929800Y-152555104D01*
X47929800Y-152244896D01*
X47869282Y-151940648D01*
X47833533Y-151854342D01*
X47896875Y-151949140D01*
X48075860Y-152128125D01*
X48286324Y-152268753D01*
X48520179Y-152365619D01*
X48768439Y-152415000D01*
X49021561Y-152415000D01*
X49269821Y-152365619D01*
X49503676Y-152268753D01*
X49714140Y-152128125D01*
X49893125Y-151949140D01*
X50033753Y-151738676D01*
X50130619Y-151504821D01*
X50180000Y-151256561D01*
X50180000Y-151003439D01*
X50130619Y-150755179D01*
X50033753Y-150521324D01*
X49893125Y-150310860D01*
X49714140Y-150131875D01*
X49503676Y-149991247D01*
X49269821Y-149894381D01*
X49021561Y-149845000D01*
X48768439Y-149845000D01*
X48520179Y-149894381D01*
X48286324Y-149991247D01*
X48075860Y-150131875D01*
X47896875Y-150310860D01*
X47833533Y-150405658D01*
X47869282Y-150319352D01*
X47929800Y-150015104D01*
X47929800Y-149704896D01*
X47869282Y-149400648D01*
X47750570Y-149114052D01*
X47578227Y-148856123D01*
X47358877Y-148636773D01*
X47288876Y-148590000D01*
X47358877Y-148543227D01*
X47578227Y-148323877D01*
X47750570Y-148065948D01*
X47869282Y-147779352D01*
X47929800Y-147475104D01*
X47929800Y-147164896D01*
X47869282Y-146860648D01*
X47750570Y-146574052D01*
X47578227Y-146316123D01*
X47358877Y-146096773D01*
X47288876Y-146050000D01*
X47358877Y-146003227D01*
X47518606Y-145843498D01*
X47543168Y-145889449D01*
X47697499Y-146077502D01*
X47885552Y-146231833D01*
X48100100Y-146346511D01*
X48332899Y-146417130D01*
X48575000Y-146440975D01*
X48817102Y-146417130D01*
X49049901Y-146346511D01*
X49264449Y-146231833D01*
X49452502Y-146077502D01*
X49606833Y-145889449D01*
X49721511Y-145674901D01*
X49792130Y-145442102D01*
X49810000Y-145260665D01*
X49810000Y-144139335D01*
X49792130Y-143957898D01*
X49721511Y-143725099D01*
X49606833Y-143510551D01*
X49452502Y-143322498D01*
X49264448Y-143168167D01*
X49049900Y-143053489D01*
X48817101Y-142982870D01*
X48575000Y-142959025D01*
X48332898Y-142982870D01*
X48100099Y-143053489D01*
X47885551Y-143168167D01*
X47697498Y-143322498D01*
X47543167Y-143510552D01*
X47462874Y-143660770D01*
X47358877Y-143556773D01*
X47288876Y-143510000D01*
X47358877Y-143463227D01*
X47578227Y-143243877D01*
X47750570Y-142985948D01*
X47869282Y-142699352D01*
X47929800Y-142395104D01*
X47929800Y-142084896D01*
X47869282Y-141780648D01*
X47750570Y-141494052D01*
X47578227Y-141236123D01*
X47358877Y-141016773D01*
X47288876Y-140970000D01*
X47358877Y-140923227D01*
X47578227Y-140703877D01*
X47750570Y-140445948D01*
X47869282Y-140159352D01*
X47929800Y-139855104D01*
X47929800Y-139544896D01*
X47869282Y-139240648D01*
X47750570Y-138954052D01*
X47578227Y-138696123D01*
X47358877Y-138476773D01*
X47288876Y-138430000D01*
X47358877Y-138383227D01*
X47578227Y-138163877D01*
X47750570Y-137905948D01*
X47869282Y-137619352D01*
X47929800Y-137315104D01*
X47929800Y-137004896D01*
X47872579Y-136717223D01*
X48130805Y-136458997D01*
X48159802Y-136435200D01*
X48206179Y-136378690D01*
X48332899Y-136417130D01*
X48575000Y-136440975D01*
X48817102Y-136417130D01*
X49049901Y-136346511D01*
X49264449Y-136231833D01*
X49452502Y-136077502D01*
X49606833Y-135889449D01*
X49721511Y-135674901D01*
X49792130Y-135442102D01*
X49810000Y-135260665D01*
X49810000Y-134139335D01*
X49792130Y-133957898D01*
X49721511Y-133725099D01*
X49606833Y-133510551D01*
X49452502Y-133322498D01*
X49264448Y-133168167D01*
X49049900Y-133053489D01*
X48817101Y-132982870D01*
X48575000Y-132959025D01*
X48379801Y-132978250D01*
X48379801Y-131766410D01*
X48580814Y-131565397D01*
X48609812Y-131541599D01*
X48660165Y-131480244D01*
X48704784Y-131425876D01*
X48775357Y-131293846D01*
X48808497Y-131184594D01*
X48818814Y-131150584D01*
X48829811Y-131038931D01*
X48829811Y-131038923D01*
X48833487Y-131001600D01*
X48829811Y-130964277D01*
X48829809Y-128783829D01*
X48833486Y-128746494D01*
X48818813Y-128597508D01*
X48775356Y-128454247D01*
X48704784Y-128322218D01*
X48633609Y-128235491D01*
X48633604Y-128235486D01*
X48609810Y-128206493D01*
X48580817Y-128182699D01*
X46910040Y-126511923D01*
X46910040Y-126028148D01*
X51951457Y-126028148D01*
X52227627Y-126446118D01*
X52772557Y-126736649D01*
X53363696Y-126915287D01*
X53978328Y-126975168D01*
X54592831Y-126913990D01*
X55183592Y-126734103D01*
X55722373Y-126446118D01*
X55998543Y-126028148D01*
X53975000Y-124004605D01*
X51951457Y-126028148D01*
X46910040Y-126028148D01*
X46910040Y-123828328D01*
X50824832Y-123828328D01*
X50886010Y-124442831D01*
X51065897Y-125033592D01*
X51353882Y-125572373D01*
X51771852Y-125848543D01*
X53795395Y-123825000D01*
X54154605Y-123825000D01*
X56178148Y-125848543D01*
X56596118Y-125572373D01*
X56886649Y-125027443D01*
X57065287Y-124436304D01*
X57125168Y-123821672D01*
X57063990Y-123207169D01*
X56884103Y-122616408D01*
X56596118Y-122077627D01*
X56178148Y-121801457D01*
X54154605Y-123825000D01*
X53795395Y-123825000D01*
X51771852Y-121801457D01*
X51353882Y-122077627D01*
X51063351Y-122622557D01*
X50884713Y-123213696D01*
X50824832Y-123828328D01*
X46910040Y-123828328D01*
X46910040Y-121621852D01*
X51951457Y-121621852D01*
X53975000Y-123645395D01*
X55998543Y-121621852D01*
X55722373Y-121203882D01*
X55177443Y-120913351D01*
X54586304Y-120734713D01*
X53971672Y-120674832D01*
X53357169Y-120736010D01*
X52766408Y-120915897D01*
X52227627Y-121203882D01*
X51951457Y-121621852D01*
X46910040Y-121621852D01*
X46910040Y-104296445D01*
X46942102Y-104309726D01*
X47142061Y-104349500D01*
X47345939Y-104349500D01*
X47545898Y-104309726D01*
X47734256Y-104231705D01*
X47903774Y-104118437D01*
X48047937Y-103974274D01*
X48161205Y-103804756D01*
X48239226Y-103616398D01*
X48279000Y-103416439D01*
X48279000Y-103212561D01*
X48239226Y-103012602D01*
X48161205Y-102824244D01*
X48149349Y-102806500D01*
X48161205Y-102788756D01*
X48239226Y-102600398D01*
X48279000Y-102400439D01*
X48279000Y-102196561D01*
X48239226Y-101996602D01*
X48161205Y-101808244D01*
X48149349Y-101790500D01*
X48161205Y-101772756D01*
X48239226Y-101584398D01*
X48279000Y-101384439D01*
X48279000Y-101180561D01*
X48239226Y-100980602D01*
X48161205Y-100792244D01*
X48149349Y-100774500D01*
X48161205Y-100756756D01*
X48239226Y-100568398D01*
X48279000Y-100368439D01*
X48279000Y-100164561D01*
X48239226Y-99964602D01*
X48161205Y-99776244D01*
X48047937Y-99606726D01*
X47903774Y-99462563D01*
X47734256Y-99349295D01*
X47545898Y-99271274D01*
X47345939Y-99231500D01*
X47142061Y-99231500D01*
X46942102Y-99271274D01*
X46753744Y-99349295D01*
X46584226Y-99462563D01*
X46540289Y-99506500D01*
X45662832Y-99506500D01*
X45625509Y-99502824D01*
X45588186Y-99506500D01*
X45588177Y-99506500D01*
X45476524Y-99517497D01*
X45333263Y-99560954D01*
X45201234Y-99631526D01*
X45110000Y-99706400D01*
X45110000Y-75228148D01*
X51951457Y-75228148D01*
X52227627Y-75646118D01*
X52772557Y-75936649D01*
X53363696Y-76115287D01*
X53978328Y-76175168D01*
X54592831Y-76113990D01*
X55183592Y-75934103D01*
X55722373Y-75646118D01*
X55998543Y-75228148D01*
X53975000Y-73204605D01*
X51951457Y-75228148D01*
X45110000Y-75228148D01*
X45110000Y-73028328D01*
X50824832Y-73028328D01*
X50886010Y-73642831D01*
X51065897Y-74233592D01*
X51353882Y-74772373D01*
X51771852Y-75048543D01*
X53795395Y-73025000D01*
X54154605Y-73025000D01*
X56178148Y-75048543D01*
X56596118Y-74772373D01*
X56886649Y-74227443D01*
X57065287Y-73636304D01*
X57125168Y-73021672D01*
X57063990Y-72407169D01*
X56884103Y-71816408D01*
X56596118Y-71277627D01*
X56178148Y-71001457D01*
X54154605Y-73025000D01*
X53795395Y-73025000D01*
X51771852Y-71001457D01*
X51353882Y-71277627D01*
X51063351Y-71822557D01*
X50884713Y-72413696D01*
X50824832Y-73028328D01*
X45110000Y-73028328D01*
X45110000Y-70821852D01*
X51951457Y-70821852D01*
X53975000Y-72845395D01*
X55998543Y-70821852D01*
X55722373Y-70403882D01*
X55177443Y-70113351D01*
X54586304Y-69934713D01*
X53971672Y-69874832D01*
X53357169Y-69936010D01*
X52766408Y-70115897D01*
X52227627Y-70403882D01*
X51951457Y-70821852D01*
X45110000Y-70821852D01*
X45110000Y-59895897D01*
X48173208Y-59895897D01*
X48250843Y-60144972D01*
X48514883Y-60270871D01*
X48798411Y-60342839D01*
X49090531Y-60358111D01*
X49380019Y-60316099D01*
X49655747Y-60218419D01*
X49793157Y-60144972D01*
X49870792Y-59895897D01*
X58079208Y-59895897D01*
X58156843Y-60144972D01*
X58420883Y-60270871D01*
X58704411Y-60342839D01*
X58996531Y-60358111D01*
X59286019Y-60316099D01*
X59561747Y-60218419D01*
X59699157Y-60144972D01*
X59776792Y-59895897D01*
X58928000Y-59047105D01*
X58079208Y-59895897D01*
X49870792Y-59895897D01*
X49022000Y-59047105D01*
X48173208Y-59895897D01*
X45110000Y-59895897D01*
X45110000Y-58936031D01*
X47531389Y-58936031D01*
X47573401Y-59225519D01*
X47671081Y-59501247D01*
X47744528Y-59638657D01*
X47993603Y-59716292D01*
X48842395Y-58867500D01*
X49201605Y-58867500D01*
X50050397Y-59716292D01*
X50299472Y-59638657D01*
X50425371Y-59374617D01*
X50497339Y-59091089D01*
X50505445Y-58936031D01*
X57437389Y-58936031D01*
X57479401Y-59225519D01*
X57577081Y-59501247D01*
X57650528Y-59638657D01*
X57899603Y-59716292D01*
X58748395Y-58867500D01*
X59107605Y-58867500D01*
X59956397Y-59716292D01*
X60205472Y-59638657D01*
X60331371Y-59374617D01*
X60403339Y-59091089D01*
X60418611Y-58798969D01*
X60376599Y-58509481D01*
X60278919Y-58233753D01*
X60205472Y-58096343D01*
X59956397Y-58018708D01*
X59107605Y-58867500D01*
X58748395Y-58867500D01*
X57899603Y-58018708D01*
X57650528Y-58096343D01*
X57524629Y-58360383D01*
X57452661Y-58643911D01*
X57437389Y-58936031D01*
X50505445Y-58936031D01*
X50512611Y-58798969D01*
X50470599Y-58509481D01*
X50372919Y-58233753D01*
X50299472Y-58096343D01*
X50050397Y-58018708D01*
X49201605Y-58867500D01*
X48842395Y-58867500D01*
X47993603Y-58018708D01*
X47744528Y-58096343D01*
X47618629Y-58360383D01*
X47546661Y-58643911D01*
X47531389Y-58936031D01*
X45110000Y-58936031D01*
X45110000Y-57839103D01*
X48173208Y-57839103D01*
X49022000Y-58687895D01*
X49870792Y-57839103D01*
X58079208Y-57839103D01*
X58928000Y-58687895D01*
X59776792Y-57839103D01*
X59699157Y-57590028D01*
X59435117Y-57464129D01*
X59151589Y-57392161D01*
X58859469Y-57376889D01*
X58569981Y-57418901D01*
X58294253Y-57516581D01*
X58156843Y-57590028D01*
X58079208Y-57839103D01*
X49870792Y-57839103D01*
X49793157Y-57590028D01*
X49529117Y-57464129D01*
X49245589Y-57392161D01*
X48953469Y-57376889D01*
X48663981Y-57418901D01*
X48388253Y-57516581D01*
X48250843Y-57590028D01*
X48173208Y-57839103D01*
X45110000Y-57839103D01*
X45110000Y-55621240D01*
X47537000Y-55621240D01*
X47537000Y-55913760D01*
X47594068Y-56200658D01*
X47706010Y-56470911D01*
X47868525Y-56714132D01*
X48075368Y-56920975D01*
X48318589Y-57083490D01*
X48588842Y-57195432D01*
X48875740Y-57252500D01*
X49168260Y-57252500D01*
X49455158Y-57195432D01*
X49725411Y-57083490D01*
X49968632Y-56920975D01*
X50175475Y-56714132D01*
X50337990Y-56470911D01*
X50449932Y-56200658D01*
X50507000Y-55913760D01*
X50507000Y-55621240D01*
X57443000Y-55621240D01*
X57443000Y-55913760D01*
X57500068Y-56200658D01*
X57612010Y-56470911D01*
X57774525Y-56714132D01*
X57981368Y-56920975D01*
X58224589Y-57083490D01*
X58494842Y-57195432D01*
X58781740Y-57252500D01*
X59074260Y-57252500D01*
X59361158Y-57195432D01*
X59631411Y-57083490D01*
X59874632Y-56920975D01*
X60081475Y-56714132D01*
X60243990Y-56470911D01*
X60355932Y-56200658D01*
X60413000Y-55913760D01*
X60413000Y-55621240D01*
X60355932Y-55334342D01*
X60243990Y-55064089D01*
X60081475Y-54820868D01*
X59874632Y-54614025D01*
X59631411Y-54451510D01*
X59361158Y-54339568D01*
X59074260Y-54282500D01*
X58781740Y-54282500D01*
X58494842Y-54339568D01*
X58224589Y-54451510D01*
X57981368Y-54614025D01*
X57774525Y-54820868D01*
X57612010Y-55064089D01*
X57500068Y-55334342D01*
X57443000Y-55621240D01*
X50507000Y-55621240D01*
X50449932Y-55334342D01*
X50337990Y-55064089D01*
X50175475Y-54820868D01*
X49968632Y-54614025D01*
X49725411Y-54451510D01*
X49455158Y-54339568D01*
X49168260Y-54282500D01*
X48875740Y-54282500D01*
X48588842Y-54339568D01*
X48318589Y-54451510D01*
X48075368Y-54614025D01*
X47868525Y-54820868D01*
X47706010Y-55064089D01*
X47594068Y-55334342D01*
X47537000Y-55621240D01*
X45110000Y-55621240D01*
X45110000Y-47321240D01*
X47537000Y-47321240D01*
X47537000Y-47613760D01*
X47594068Y-47900658D01*
X47706010Y-48170911D01*
X47868525Y-48414132D01*
X48075368Y-48620975D01*
X48318589Y-48783490D01*
X48588842Y-48895432D01*
X48875740Y-48952500D01*
X49168260Y-48952500D01*
X49455158Y-48895432D01*
X49725411Y-48783490D01*
X49968632Y-48620975D01*
X50175475Y-48414132D01*
X50337990Y-48170911D01*
X50449932Y-47900658D01*
X50507000Y-47613760D01*
X50507000Y-47321240D01*
X57443000Y-47321240D01*
X57443000Y-47613760D01*
X57500068Y-47900658D01*
X57612010Y-48170911D01*
X57774525Y-48414132D01*
X57981368Y-48620975D01*
X58224589Y-48783490D01*
X58494842Y-48895432D01*
X58781740Y-48952500D01*
X59074260Y-48952500D01*
X59361158Y-48895432D01*
X59631411Y-48783490D01*
X59874632Y-48620975D01*
X60081475Y-48414132D01*
X60243990Y-48170911D01*
X60355932Y-47900658D01*
X60413000Y-47613760D01*
X60413000Y-47321240D01*
X60355932Y-47034342D01*
X60243990Y-46764089D01*
X60081475Y-46520868D01*
X59874632Y-46314025D01*
X59631411Y-46151510D01*
X59361158Y-46039568D01*
X59074260Y-45982500D01*
X58781740Y-45982500D01*
X58494842Y-46039568D01*
X58224589Y-46151510D01*
X57981368Y-46314025D01*
X57774525Y-46520868D01*
X57612010Y-46764089D01*
X57500068Y-47034342D01*
X57443000Y-47321240D01*
X50507000Y-47321240D01*
X50449932Y-47034342D01*
X50337990Y-46764089D01*
X50175475Y-46520868D01*
X49968632Y-46314025D01*
X49725411Y-46151510D01*
X49455158Y-46039568D01*
X49168260Y-45982500D01*
X48875740Y-45982500D01*
X48588842Y-46039568D01*
X48318589Y-46151510D01*
X48075368Y-46314025D01*
X47868525Y-46520868D01*
X47706010Y-46764089D01*
X47594068Y-47034342D01*
X47537000Y-47321240D01*
X45110000Y-47321240D01*
X45110000Y-24428148D01*
X51951457Y-24428148D01*
X52227627Y-24846118D01*
X52772557Y-25136649D01*
X53363696Y-25315287D01*
X53978328Y-25375168D01*
X54592831Y-25313990D01*
X55183592Y-25134103D01*
X55722373Y-24846118D01*
X55998543Y-24428148D01*
X53975000Y-22404605D01*
X51951457Y-24428148D01*
X45110000Y-24428148D01*
X45110000Y-22228328D01*
X50824832Y-22228328D01*
X50886010Y-22842831D01*
X51065897Y-23433592D01*
X51353882Y-23972373D01*
X51771852Y-24248543D01*
X53795395Y-22225000D01*
X54154605Y-22225000D01*
X56178148Y-24248543D01*
X56596118Y-23972373D01*
X56886649Y-23427443D01*
X57065287Y-22836304D01*
X57125168Y-22221672D01*
X57063990Y-21607169D01*
X56884103Y-21016408D01*
X56596118Y-20477627D01*
X56178148Y-20201457D01*
X54154605Y-22225000D01*
X53795395Y-22225000D01*
X51771852Y-20201457D01*
X51353882Y-20477627D01*
X51063351Y-21022557D01*
X50884713Y-21613696D01*
X50824832Y-22228328D01*
X45110000Y-22228328D01*
X45110000Y-20021852D01*
X51951457Y-20021852D01*
X53975000Y-22045395D01*
X55998543Y-20021852D01*
X55722373Y-19603882D01*
X55177443Y-19313351D01*
X54586304Y-19134713D01*
X53971672Y-19074832D01*
X53357169Y-19136010D01*
X52766408Y-19315897D01*
X52227627Y-19603882D01*
X51951457Y-20021852D01*
X45110000Y-20021852D01*
X45110000Y15066000D01*
X47836928Y15066000D01*
X47840000Y12751750D01*
X47998750Y12593000D01*
X48331605Y12593000D01*
X48320064Y12581459D01*
X48326345Y12466000D01*
X48320064Y12350541D01*
X48331605Y12339000D01*
X47998750Y12339000D01*
X47840000Y12180250D01*
X47836928Y9866000D01*
X47849188Y9741518D01*
X47885498Y9621820D01*
X47944463Y9511506D01*
X48023815Y9414815D01*
X48120506Y9335463D01*
X48230820Y9276498D01*
X48350518Y9240188D01*
X48475000Y9227928D01*
X53689250Y9231000D01*
X53763130Y9304880D01*
X53881176Y9281172D01*
X54065355Y9280829D01*
X54186965Y9304785D01*
X54260750Y9231000D01*
X59475000Y9227928D01*
X59599482Y9240188D01*
X59719180Y9276498D01*
X59829494Y9335463D01*
X59926185Y9414815D01*
X60005537Y9511506D01*
X60064502Y9621820D01*
X60100812Y9741518D01*
X60113072Y9866000D01*
X60110000Y12180250D01*
X59951250Y12339000D01*
X59618395Y12339000D01*
X59629936Y12350541D01*
X59623655Y12466000D01*
X59629936Y12581459D01*
X59618395Y12593000D01*
X59951250Y12593000D01*
X60110000Y12751750D01*
X60113072Y15066000D01*
X60100812Y15190482D01*
X60064502Y15310180D01*
X60005537Y15420494D01*
X59926185Y15517185D01*
X59829494Y15596537D01*
X59719180Y15655502D01*
X59599482Y15691812D01*
X59475000Y15704072D01*
X54260750Y15701000D01*
X54186870Y15627120D01*
X54068824Y15650828D01*
X53884645Y15651171D01*
X53763035Y15627215D01*
X53689250Y15701000D01*
X48475000Y15704072D01*
X48350518Y15691812D01*
X48230820Y15655502D01*
X48120506Y15596537D01*
X48023815Y15517185D01*
X47944463Y15420494D01*
X47885498Y15310180D01*
X47849188Y15190482D01*
X47836928Y15066000D01*
X45110000Y15066000D01*
X45110000Y26371852D01*
X51951457Y26371852D01*
X52227627Y25953882D01*
X52772557Y25663351D01*
X53363696Y25484713D01*
X53978328Y25424832D01*
X54592831Y25486010D01*
X55183592Y25665897D01*
X55722373Y25953882D01*
X55998543Y26371852D01*
X53975000Y28395395D01*
X51951457Y26371852D01*
X45110000Y26371852D01*
X45110000Y28571672D01*
X50824832Y28571672D01*
X50886010Y27957169D01*
X51065897Y27366408D01*
X51353882Y26827627D01*
X51771852Y26551457D01*
X53795395Y28575000D01*
X54154605Y28575000D01*
X56178148Y26551457D01*
X56596118Y26827627D01*
X56886649Y27372557D01*
X57065287Y27963696D01*
X57125168Y28578328D01*
X57063990Y29192831D01*
X56884103Y29783592D01*
X56596118Y30322373D01*
X56178148Y30598543D01*
X54154605Y28575000D01*
X53795395Y28575000D01*
X51771852Y30598543D01*
X51353882Y30322373D01*
X51063351Y29777443D01*
X50884713Y29186304D01*
X50824832Y28571672D01*
X45110000Y28571672D01*
X45110000Y30778148D01*
X51951457Y30778148D01*
X53975000Y28754605D01*
X55998543Y30778148D01*
X55722373Y31196118D01*
X55177443Y31486649D01*
X54586304Y31665287D01*
X53971672Y31725168D01*
X53357169Y31663990D01*
X52766408Y31484103D01*
X52227627Y31196118D01*
X51951457Y30778148D01*
X45110000Y30778148D01*
X45110000Y32511561D01*
X47864000Y32511561D01*
X47864000Y32258439D01*
X47913381Y32010179D01*
X48010247Y31776324D01*
X48150875Y31565860D01*
X48329860Y31386875D01*
X48540324Y31246247D01*
X48774179Y31149381D01*
X49022439Y31100000D01*
X49275561Y31100000D01*
X49523821Y31149381D01*
X49757676Y31246247D01*
X49968140Y31386875D01*
X50147125Y31565860D01*
X50287753Y31776324D01*
X50384619Y32010179D01*
X50434000Y32258439D01*
X50434000Y32511561D01*
X57516000Y32511561D01*
X57516000Y32258439D01*
X57565381Y32010179D01*
X57662247Y31776324D01*
X57802875Y31565860D01*
X57981860Y31386875D01*
X58192324Y31246247D01*
X58426179Y31149381D01*
X58674439Y31100000D01*
X58927561Y31100000D01*
X59175821Y31149381D01*
X59409676Y31246247D01*
X59620140Y31386875D01*
X59799125Y31565860D01*
X59939753Y31776324D01*
X60036619Y32010179D01*
X60086000Y32258439D01*
X60086000Y32511561D01*
X60036619Y32759821D01*
X59939753Y32993676D01*
X59799125Y33204140D01*
X59620140Y33383125D01*
X59409676Y33523753D01*
X59175821Y33620619D01*
X58927561Y33670000D01*
X58674439Y33670000D01*
X58426179Y33620619D01*
X58192324Y33523753D01*
X57981860Y33383125D01*
X57802875Y33204140D01*
X57662247Y32993676D01*
X57565381Y32759821D01*
X57516000Y32511561D01*
X50434000Y32511561D01*
X50384619Y32759821D01*
X50287753Y32993676D01*
X50147125Y33204140D01*
X49968140Y33383125D01*
X49757676Y33523753D01*
X49523821Y33620619D01*
X49275561Y33670000D01*
X49022439Y33670000D01*
X48774179Y33620619D01*
X48540324Y33523753D01*
X48329860Y33383125D01*
X48150875Y33204140D01*
X48010247Y32993676D01*
X47913381Y32759821D01*
X47864000Y32511561D01*
X45110000Y32511561D01*
X45110000Y40490408D01*
X45709000Y40490408D01*
X45709000Y38539593D01*
X45731210Y38314088D01*
X45818983Y38024740D01*
X45961519Y37758074D01*
X46153339Y37524339D01*
X46387073Y37332519D01*
X46653739Y37189983D01*
X46943087Y37102210D01*
X47244000Y37072573D01*
X47544912Y37102210D01*
X47834260Y37189983D01*
X48100926Y37332519D01*
X48334661Y37524339D01*
X48526481Y37758073D01*
X48669017Y38024739D01*
X48756790Y38314087D01*
X48779000Y38539592D01*
X48779000Y40490408D01*
X48756790Y40715913D01*
X48669017Y41005261D01*
X48637086Y41065000D01*
X49515928Y41065000D01*
X49515928Y37965000D01*
X49532992Y37791746D01*
X49583528Y37625150D01*
X49665595Y37471614D01*
X49776038Y37337038D01*
X49910614Y37226595D01*
X50064150Y37144528D01*
X50230746Y37093992D01*
X50404000Y37076928D01*
X51704000Y37076928D01*
X51877254Y37093992D01*
X52043850Y37144528D01*
X52197386Y37226595D01*
X52331962Y37337038D01*
X52442405Y37471614D01*
X52524472Y37625150D01*
X52575008Y37791746D01*
X52592072Y37965000D01*
X52592072Y40490408D01*
X55361000Y40490408D01*
X55361000Y38539593D01*
X55383210Y38314088D01*
X55470983Y38024740D01*
X55613519Y37758074D01*
X55805339Y37524339D01*
X56039073Y37332519D01*
X56305739Y37189983D01*
X56595087Y37102210D01*
X56896000Y37072573D01*
X57196912Y37102210D01*
X57486260Y37189983D01*
X57752926Y37332519D01*
X57986661Y37524339D01*
X58178481Y37758073D01*
X58321017Y38024739D01*
X58408790Y38314087D01*
X58431000Y38539592D01*
X58431000Y40490408D01*
X58408790Y40715913D01*
X58321017Y41005261D01*
X58289086Y41065000D01*
X59167928Y41065000D01*
X59167928Y37965000D01*
X59184992Y37791746D01*
X59235528Y37625150D01*
X59317595Y37471614D01*
X59428038Y37337038D01*
X59562614Y37226595D01*
X59716150Y37144528D01*
X59882746Y37093992D01*
X60056000Y37076928D01*
X61356000Y37076928D01*
X61529254Y37093992D01*
X61695850Y37144528D01*
X61849386Y37226595D01*
X61983962Y37337038D01*
X62094405Y37471614D01*
X62176472Y37625150D01*
X62227008Y37791746D01*
X62244072Y37965000D01*
X62244072Y41065000D01*
X62227008Y41238254D01*
X62176472Y41404850D01*
X62094405Y41558386D01*
X61983962Y41692962D01*
X61849386Y41803405D01*
X61695850Y41885472D01*
X61529254Y41936008D01*
X61356000Y41953072D01*
X60056000Y41953072D01*
X59882746Y41936008D01*
X59716150Y41885472D01*
X59562614Y41803405D01*
X59428038Y41692962D01*
X59317595Y41558386D01*
X59235528Y41404850D01*
X59184992Y41238254D01*
X59167928Y41065000D01*
X58289086Y41065000D01*
X58178481Y41271927D01*
X57986661Y41505661D01*
X57752927Y41697481D01*
X57486261Y41840017D01*
X57196913Y41927790D01*
X56896000Y41957427D01*
X56595088Y41927790D01*
X56305740Y41840017D01*
X56039074Y41697481D01*
X55805340Y41505661D01*
X55613520Y41271927D01*
X55470984Y41005261D01*
X55383211Y40715913D01*
X55361000Y40490408D01*
X52592072Y40490408D01*
X52592072Y41065000D01*
X52575008Y41238254D01*
X52524472Y41404850D01*
X52442405Y41558386D01*
X52331962Y41692962D01*
X52197386Y41803405D01*
X52043850Y41885472D01*
X51877254Y41936008D01*
X51704000Y41953072D01*
X50404000Y41953072D01*
X50230746Y41936008D01*
X50064150Y41885472D01*
X49910614Y41803405D01*
X49776038Y41692962D01*
X49665595Y41558386D01*
X49583528Y41404850D01*
X49532992Y41238254D01*
X49515928Y41065000D01*
X48637086Y41065000D01*
X48526481Y41271927D01*
X48334661Y41505661D01*
X48100927Y41697481D01*
X47834261Y41840017D01*
X47544913Y41927790D01*
X47244000Y41957427D01*
X46943088Y41927790D01*
X46653740Y41840017D01*
X46387074Y41697481D01*
X46153340Y41505661D01*
X45961520Y41271927D01*
X45818984Y41005261D01*
X45731211Y40715913D01*
X45709000Y40490408D01*
X45110000Y40490408D01*
X45110000Y46965000D01*
X62840001Y46965000D01*
X62840001Y3809214D01*
G36*
X54102000Y10296890D02*
G01*
X54102000Y10135110D01*
X53989143Y10022253D01*
X53975000Y10036395D01*
X53960858Y10022253D01*
X53848000Y10135110D01*
X53848000Y10296890D01*
X53960858Y10409748D01*
X53975000Y10395605D01*
X53989143Y10409748D01*
X54102000Y10296890D01*
X54102000Y10296890D01*
G37*
X54102000Y10296890D02*
X54102000Y10135110D01*
X53989143Y10022253D01*
X53975000Y10036395D01*
X53960858Y10022253D01*
X53848000Y10135110D01*
X53848000Y10296890D01*
X53960858Y10409748D01*
X53975000Y10395605D01*
X53989143Y10409748D01*
X54102000Y10296890D01*
G36*
X54102000Y11635110D02*
G01*
X53989143Y11522253D01*
X53975000Y11536395D01*
X53960858Y11522253D01*
X53848000Y11635110D01*
X53848000Y12022605D01*
X53975000Y11895605D01*
X54102000Y12022605D01*
X54102000Y11635110D01*
X54102000Y11635110D01*
G37*
X54102000Y11635110D02*
X53989143Y11522253D01*
X53975000Y11536395D01*
X53960858Y11522253D01*
X53848000Y11635110D01*
X53848000Y12022605D01*
X53975000Y11895605D01*
X54102000Y12022605D01*
X54102000Y11635110D01*
G36*
X56120064Y12581459D02*
G01*
X56126345Y12466000D01*
X56120064Y12350541D01*
X56131605Y12339000D01*
X55718395Y12339000D01*
X55729936Y12350541D01*
X55723655Y12466000D01*
X55729936Y12581459D01*
X55718395Y12593000D01*
X56131605Y12593000D01*
X56120064Y12581459D01*
X56120064Y12581459D01*
G37*
X56120064Y12581459D02*
X56126345Y12466000D01*
X56120064Y12350541D01*
X56131605Y12339000D01*
X55718395Y12339000D01*
X55729936Y12350541D01*
X55723655Y12466000D01*
X55729936Y12581459D01*
X55718395Y12593000D01*
X56131605Y12593000D01*
X56120064Y12581459D01*
G36*
X52220064Y12581459D02*
G01*
X52226345Y12466000D01*
X52220064Y12350541D01*
X52231605Y12339000D01*
X51818395Y12339000D01*
X51829936Y12350541D01*
X51823655Y12466000D01*
X51829936Y12581459D01*
X51818395Y12593000D01*
X52231605Y12593000D01*
X52220064Y12581459D01*
X52220064Y12581459D01*
G37*
X52220064Y12581459D02*
X52226345Y12466000D01*
X52220064Y12350541D01*
X52231605Y12339000D01*
X51818395Y12339000D01*
X51829936Y12350541D01*
X51823655Y12466000D01*
X51829936Y12581459D01*
X51818395Y12593000D01*
X52231605Y12593000D01*
X52220064Y12581459D01*
G36*
X54102000Y13296890D02*
G01*
X54102000Y12909395D01*
X53975000Y13036395D01*
X53848000Y12909395D01*
X53848000Y13296890D01*
X53960858Y13409748D01*
X53975000Y13395605D01*
X53989143Y13409748D01*
X54102000Y13296890D01*
X54102000Y13296890D01*
G37*
X54102000Y13296890D02*
X54102000Y12909395D01*
X53975000Y13036395D01*
X53848000Y12909395D01*
X53848000Y13296890D01*
X53960858Y13409748D01*
X53975000Y13395605D01*
X53989143Y13409748D01*
X54102000Y13296890D01*
G36*
X54102000Y14796890D02*
G01*
X54102000Y14635110D01*
X53989143Y14522253D01*
X53975000Y14536395D01*
X53960858Y14522253D01*
X53848000Y14635110D01*
X53848000Y14796890D01*
X53960858Y14909748D01*
X53975000Y14895605D01*
X53989143Y14909748D01*
X54102000Y14796890D01*
X54102000Y14796890D01*
G37*
X54102000Y14796890D02*
X54102000Y14635110D01*
X53989143Y14522253D01*
X53975000Y14536395D01*
X53960858Y14522253D01*
X53848000Y14635110D01*
X53848000Y14796890D01*
X53960858Y14909748D01*
X53975000Y14895605D01*
X53989143Y14909748D01*
X54102000Y14796890D01*
M02*
