G04 #@! TF.GenerationSoftware,KiCad,Pcbnew,(5.1.2-1)-1*
G04 #@! TF.CreationDate,2024-05-29T22:12:33-04:00*
G04 #@! TF.ProjectId,FlailDriver,466c6169-6c44-4726-9976-65722e6b6963,rev?*
G04 #@! TF.SameCoordinates,Original*
G04 #@! TF.FileFunction,Legend,Top*
G04 #@! TF.FilePolarity,Positive*
%FSLAX46Y46*%
G04 Gerber Fmt 4.6, Leading zero omitted, Abs format (unit mm)*
G04 Created by KiCad (PCBNEW (5.1.2-1)-1) date 2024-05-29 22:12:33*
%MOMM*%
%LPD*%
G04 APERTURE LIST*
%ADD10C,0.112500*%
%ADD11C,0.075000*%
%ADD12C,0.120000*%
%ADD13C,0.203200*%
%ADD14C,0.150000*%
%ADD15C,0.100000*%
%ADD16C,0.062500*%
G04 APERTURE END LIST*
D10*
X51689421Y-78706446D02*
X52046564Y-78706446D01*
X51617993Y-78920731D02*
X51867993Y-78170731D01*
X52117993Y-78920731D01*
X52367993Y-78170731D02*
X52367993Y-78777874D01*
X52403707Y-78849303D01*
X52439421Y-78885017D01*
X52510850Y-78920731D01*
X52653707Y-78920731D01*
X52725136Y-78885017D01*
X52760850Y-78849303D01*
X52796564Y-78777874D01*
X52796564Y-78170731D01*
X53082278Y-78170731D02*
X53582278Y-78920731D01*
X53582278Y-78170731D02*
X53082278Y-78920731D01*
X54582278Y-78170731D02*
X54725136Y-78170731D01*
X54796564Y-78206446D01*
X54867993Y-78277874D01*
X54903707Y-78420731D01*
X54903707Y-78670731D01*
X54867993Y-78813588D01*
X54796564Y-78885017D01*
X54725136Y-78920731D01*
X54582278Y-78920731D01*
X54510850Y-78885017D01*
X54439421Y-78813588D01*
X54403707Y-78670731D01*
X54403707Y-78420731D01*
X54439421Y-78277874D01*
X54510850Y-78206446D01*
X54582278Y-78170731D01*
X55225136Y-78170731D02*
X55225136Y-78777874D01*
X55260850Y-78849303D01*
X55296564Y-78885017D01*
X55367993Y-78920731D01*
X55510850Y-78920731D01*
X55582278Y-78885017D01*
X55617993Y-78849303D01*
X55653707Y-78777874D01*
X55653707Y-78170731D01*
X55903707Y-78170731D02*
X56332278Y-78170731D01*
X56117993Y-78920731D02*
X56117993Y-78170731D01*
X50615857Y-151691571D02*
X51187285Y-151691571D01*
X52115857Y-151977285D02*
X52115857Y-151227285D01*
X52401571Y-151227285D01*
X52473000Y-151263000D01*
X52508714Y-151298714D01*
X52544428Y-151370142D01*
X52544428Y-151477285D01*
X52508714Y-151548714D01*
X52473000Y-151584428D01*
X52401571Y-151620142D01*
X52115857Y-151620142D01*
X53008714Y-151227285D02*
X53151571Y-151227285D01*
X53223000Y-151263000D01*
X53294428Y-151334428D01*
X53330142Y-151477285D01*
X53330142Y-151727285D01*
X53294428Y-151870142D01*
X53223000Y-151941571D01*
X53151571Y-151977285D01*
X53008714Y-151977285D01*
X52937285Y-151941571D01*
X52865857Y-151870142D01*
X52830142Y-151727285D01*
X52830142Y-151477285D01*
X52865857Y-151334428D01*
X52937285Y-151263000D01*
X53008714Y-151227285D01*
X53580142Y-151227285D02*
X53758714Y-151977285D01*
X53901571Y-151441571D01*
X54044428Y-151977285D01*
X54223000Y-151227285D01*
X54508714Y-151584428D02*
X54758714Y-151584428D01*
X54865857Y-151977285D02*
X54508714Y-151977285D01*
X54508714Y-151227285D01*
X54865857Y-151227285D01*
X55615857Y-151977285D02*
X55365857Y-151620142D01*
X55187285Y-151977285D02*
X55187285Y-151227285D01*
X55473000Y-151227285D01*
X55544428Y-151263000D01*
X55580142Y-151298714D01*
X55615857Y-151370142D01*
X55615857Y-151477285D01*
X55580142Y-151548714D01*
X55544428Y-151584428D01*
X55473000Y-151620142D01*
X55187285Y-151620142D01*
X56508714Y-151691571D02*
X57080142Y-151691571D01*
X56794428Y-151977285D02*
X56794428Y-151405857D01*
X55872428Y33982428D02*
X56443857Y33982428D01*
X56158142Y33696714D02*
X56158142Y34268142D01*
X57801000Y33696714D02*
X57551000Y34053857D01*
X57372428Y33696714D02*
X57372428Y34446714D01*
X57658142Y34446714D01*
X57729571Y34411000D01*
X57765285Y34375285D01*
X57801000Y34303857D01*
X57801000Y34196714D01*
X57765285Y34125285D01*
X57729571Y34089571D01*
X57658142Y34053857D01*
X57372428Y34053857D01*
X58122428Y33696714D02*
X58122428Y34446714D01*
X58872428Y34411000D02*
X58801000Y34446714D01*
X58693857Y34446714D01*
X58586714Y34411000D01*
X58515285Y34339571D01*
X58479571Y34268142D01*
X58443857Y34125285D01*
X58443857Y34018142D01*
X58479571Y33875285D01*
X58515285Y33803857D01*
X58586714Y33732428D01*
X58693857Y33696714D01*
X58765285Y33696714D01*
X58872428Y33732428D01*
X58908142Y33768142D01*
X58908142Y34018142D01*
X58765285Y34018142D01*
X59229571Y33696714D02*
X59229571Y34446714D01*
X59229571Y34089571D02*
X59658142Y34089571D01*
X59658142Y33696714D02*
X59658142Y34446714D01*
X59908142Y34446714D02*
X60336714Y34446714D01*
X60122428Y33696714D02*
X60122428Y34446714D01*
X61158142Y33982428D02*
X61729571Y33982428D01*
X45524000Y33982428D02*
X46095428Y33982428D01*
X45809714Y33696714D02*
X45809714Y34268142D01*
X47381142Y33696714D02*
X47024000Y33696714D01*
X47024000Y34446714D01*
X48166857Y34482428D02*
X47524000Y33518142D01*
X48416857Y33696714D02*
X48416857Y34446714D01*
X48666857Y33911000D01*
X48916857Y34446714D01*
X48916857Y33696714D01*
X49416857Y34446714D02*
X49559714Y34446714D01*
X49631142Y34411000D01*
X49702571Y34339571D01*
X49738285Y34196714D01*
X49738285Y33946714D01*
X49702571Y33803857D01*
X49631142Y33732428D01*
X49559714Y33696714D01*
X49416857Y33696714D01*
X49345428Y33732428D01*
X49274000Y33803857D01*
X49238285Y33946714D01*
X49238285Y34196714D01*
X49274000Y34339571D01*
X49345428Y34411000D01*
X49416857Y34446714D01*
X50059714Y33696714D02*
X50059714Y34446714D01*
X50488285Y33696714D01*
X50488285Y34446714D01*
X50988285Y34446714D02*
X51131142Y34446714D01*
X51202571Y34411000D01*
X51274000Y34339571D01*
X51309714Y34196714D01*
X51309714Y33946714D01*
X51274000Y33803857D01*
X51202571Y33732428D01*
X51131142Y33696714D01*
X50988285Y33696714D01*
X50916857Y33732428D01*
X50845428Y33803857D01*
X50809714Y33946714D01*
X50809714Y34196714D01*
X50845428Y34339571D01*
X50916857Y34411000D01*
X50988285Y34446714D01*
X52202571Y33982428D02*
X52774000Y33982428D01*
X57838714Y-94032607D02*
X57803000Y-94068321D01*
X57695857Y-94104035D01*
X57624428Y-94104035D01*
X57517285Y-94068321D01*
X57445857Y-93996892D01*
X57410142Y-93925464D01*
X57374428Y-93782607D01*
X57374428Y-93675464D01*
X57410142Y-93532607D01*
X57445857Y-93461178D01*
X57517285Y-93389750D01*
X57624428Y-93354035D01*
X57695857Y-93354035D01*
X57803000Y-93389750D01*
X57838714Y-93425464D01*
X58053000Y-93354035D02*
X58481571Y-93354035D01*
X58267285Y-94104035D02*
X58267285Y-93354035D01*
X59160142Y-94104035D02*
X58910142Y-93746892D01*
X58731571Y-94104035D02*
X58731571Y-93354035D01*
X59017285Y-93354035D01*
X59088714Y-93389750D01*
X59124428Y-93425464D01*
X59160142Y-93496892D01*
X59160142Y-93604035D01*
X59124428Y-93675464D01*
X59088714Y-93711178D01*
X59017285Y-93746892D01*
X58731571Y-93746892D01*
X59838714Y-94104035D02*
X59481571Y-94104035D01*
X59481571Y-93354035D01*
X60053000Y-93425464D02*
X60088714Y-93389750D01*
X60160142Y-93354035D01*
X60338714Y-93354035D01*
X60410142Y-93389750D01*
X60445857Y-93425464D01*
X60481571Y-93496892D01*
X60481571Y-93568321D01*
X60445857Y-93675464D01*
X60017285Y-94104035D01*
X60481571Y-94104035D01*
X47932714Y-94032607D02*
X47897000Y-94068321D01*
X47789857Y-94104035D01*
X47718428Y-94104035D01*
X47611285Y-94068321D01*
X47539857Y-93996892D01*
X47504142Y-93925464D01*
X47468428Y-93782607D01*
X47468428Y-93675464D01*
X47504142Y-93532607D01*
X47539857Y-93461178D01*
X47611285Y-93389750D01*
X47718428Y-93354035D01*
X47789857Y-93354035D01*
X47897000Y-93389750D01*
X47932714Y-93425464D01*
X48147000Y-93354035D02*
X48575571Y-93354035D01*
X48361285Y-94104035D02*
X48361285Y-93354035D01*
X49254142Y-94104035D02*
X49004142Y-93746892D01*
X48825571Y-94104035D02*
X48825571Y-93354035D01*
X49111285Y-93354035D01*
X49182714Y-93389750D01*
X49218428Y-93425464D01*
X49254142Y-93496892D01*
X49254142Y-93604035D01*
X49218428Y-93675464D01*
X49182714Y-93711178D01*
X49111285Y-93746892D01*
X48825571Y-93746892D01*
X49932714Y-94104035D02*
X49575571Y-94104035D01*
X49575571Y-93354035D01*
X50575571Y-94104035D02*
X50147000Y-94104035D01*
X50361285Y-94104035D02*
X50361285Y-93354035D01*
X50289857Y-93461178D01*
X50218428Y-93532607D01*
X50147000Y-93568321D01*
X57660142Y-85887785D02*
X57660142Y-85137785D01*
X57910142Y-85673500D01*
X58160142Y-85137785D01*
X58160142Y-85887785D01*
X58517285Y-85137785D02*
X58517285Y-85744928D01*
X58553000Y-85816357D01*
X58588714Y-85852071D01*
X58660142Y-85887785D01*
X58803000Y-85887785D01*
X58874428Y-85852071D01*
X58910142Y-85816357D01*
X58945857Y-85744928D01*
X58945857Y-85137785D01*
X59195857Y-85137785D02*
X59624428Y-85137785D01*
X59410142Y-85887785D02*
X59410142Y-85137785D01*
X59874428Y-85494928D02*
X60124428Y-85494928D01*
X60231571Y-85887785D02*
X59874428Y-85887785D01*
X59874428Y-85137785D01*
X60231571Y-85137785D01*
X48075571Y-85137785D02*
X48325571Y-85887785D01*
X48575571Y-85137785D01*
X48968428Y-85137785D02*
X49111285Y-85137785D01*
X49182714Y-85173500D01*
X49254142Y-85244928D01*
X49289857Y-85387785D01*
X49289857Y-85637785D01*
X49254142Y-85780642D01*
X49182714Y-85852071D01*
X49111285Y-85887785D01*
X48968428Y-85887785D01*
X48897000Y-85852071D01*
X48825571Y-85780642D01*
X48789857Y-85637785D01*
X48789857Y-85387785D01*
X48825571Y-85244928D01*
X48897000Y-85173500D01*
X48968428Y-85137785D01*
X49968428Y-85887785D02*
X49611285Y-85887785D01*
X49611285Y-85137785D01*
X57874428Y-101712178D02*
X57624428Y-101712178D01*
X57624428Y-102105035D02*
X57624428Y-101355035D01*
X57981571Y-101355035D01*
X58267285Y-101355035D02*
X58267285Y-101962178D01*
X58303000Y-102033607D01*
X58338714Y-102069321D01*
X58410142Y-102105035D01*
X58553000Y-102105035D01*
X58624428Y-102069321D01*
X58660142Y-102033607D01*
X58695857Y-101962178D01*
X58695857Y-101355035D01*
X59053000Y-102105035D02*
X59053000Y-101355035D01*
X59481571Y-102105035D01*
X59481571Y-101355035D01*
X60267285Y-102033607D02*
X60231571Y-102069321D01*
X60124428Y-102105035D01*
X60053000Y-102105035D01*
X59945857Y-102069321D01*
X59874428Y-101997892D01*
X59838714Y-101926464D01*
X59803000Y-101783607D01*
X59803000Y-101676464D01*
X59838714Y-101533607D01*
X59874428Y-101462178D01*
X59945857Y-101390750D01*
X60053000Y-101355035D01*
X60124428Y-101355035D01*
X60231571Y-101390750D01*
X60267285Y-101426464D01*
X47879142Y-101355035D02*
X48307714Y-101355035D01*
X48093428Y-102105035D02*
X48093428Y-101355035D01*
X48986285Y-102105035D02*
X48736285Y-101747892D01*
X48557714Y-102105035D02*
X48557714Y-101355035D01*
X48843428Y-101355035D01*
X48914857Y-101390750D01*
X48950571Y-101426464D01*
X48986285Y-101497892D01*
X48986285Y-101605035D01*
X48950571Y-101676464D01*
X48914857Y-101712178D01*
X48843428Y-101747892D01*
X48557714Y-101747892D01*
X49307714Y-102105035D02*
X49307714Y-101355035D01*
X50057714Y-101390750D02*
X49986285Y-101355035D01*
X49879142Y-101355035D01*
X49772000Y-101390750D01*
X49700571Y-101462178D01*
X49664857Y-101533607D01*
X49629142Y-101676464D01*
X49629142Y-101783607D01*
X49664857Y-101926464D01*
X49700571Y-101997892D01*
X49772000Y-102069321D01*
X49879142Y-102105035D01*
X49950571Y-102105035D01*
X50057714Y-102069321D01*
X50093428Y-102033607D01*
X50093428Y-101783607D01*
X49950571Y-101783607D01*
X57928000Y-45678285D02*
X57678000Y-45321142D01*
X57499428Y-45678285D02*
X57499428Y-44928285D01*
X57785142Y-44928285D01*
X57856571Y-44964000D01*
X57892285Y-44999714D01*
X57928000Y-45071142D01*
X57928000Y-45178285D01*
X57892285Y-45249714D01*
X57856571Y-45285428D01*
X57785142Y-45321142D01*
X57499428Y-45321142D01*
X58249428Y-45678285D02*
X58249428Y-44928285D01*
X58999428Y-44964000D02*
X58928000Y-44928285D01*
X58820857Y-44928285D01*
X58713714Y-44964000D01*
X58642285Y-45035428D01*
X58606571Y-45106857D01*
X58570857Y-45249714D01*
X58570857Y-45356857D01*
X58606571Y-45499714D01*
X58642285Y-45571142D01*
X58713714Y-45642571D01*
X58820857Y-45678285D01*
X58892285Y-45678285D01*
X58999428Y-45642571D01*
X59035142Y-45606857D01*
X59035142Y-45356857D01*
X58892285Y-45356857D01*
X59356571Y-45678285D02*
X59356571Y-44928285D01*
X59356571Y-45285428D02*
X59785142Y-45285428D01*
X59785142Y-45678285D02*
X59785142Y-44928285D01*
X60035142Y-44928285D02*
X60463714Y-44928285D01*
X60249428Y-45678285D02*
X60249428Y-44928285D01*
X47254142Y-25612285D02*
X46897000Y-25612285D01*
X46897000Y-24862285D01*
X48039857Y-24826571D02*
X47397000Y-25790857D01*
X48289857Y-25612285D02*
X48289857Y-24862285D01*
X48539857Y-25398000D01*
X48789857Y-24862285D01*
X48789857Y-25612285D01*
X49289857Y-24862285D02*
X49432714Y-24862285D01*
X49504142Y-24898000D01*
X49575571Y-24969428D01*
X49611285Y-25112285D01*
X49611285Y-25362285D01*
X49575571Y-25505142D01*
X49504142Y-25576571D01*
X49432714Y-25612285D01*
X49289857Y-25612285D01*
X49218428Y-25576571D01*
X49147000Y-25505142D01*
X49111285Y-25362285D01*
X49111285Y-25112285D01*
X49147000Y-24969428D01*
X49218428Y-24898000D01*
X49289857Y-24862285D01*
X49932714Y-25612285D02*
X49932714Y-24862285D01*
X50361285Y-25612285D01*
X50361285Y-24862285D01*
X50861285Y-24862285D02*
X51004142Y-24862285D01*
X51075571Y-24898000D01*
X51147000Y-24969428D01*
X51182714Y-25112285D01*
X51182714Y-25362285D01*
X51147000Y-25505142D01*
X51075571Y-25576571D01*
X51004142Y-25612285D01*
X50861285Y-25612285D01*
X50789857Y-25576571D01*
X50718428Y-25505142D01*
X50682714Y-25362285D01*
X50682714Y-25112285D01*
X50718428Y-24969428D01*
X50789857Y-24898000D01*
X50861285Y-24862285D01*
X58055000Y-25612285D02*
X57805000Y-25255142D01*
X57626428Y-25612285D02*
X57626428Y-24862285D01*
X57912142Y-24862285D01*
X57983571Y-24898000D01*
X58019285Y-24933714D01*
X58055000Y-25005142D01*
X58055000Y-25112285D01*
X58019285Y-25183714D01*
X57983571Y-25219428D01*
X57912142Y-25255142D01*
X57626428Y-25255142D01*
X58376428Y-25612285D02*
X58376428Y-24862285D01*
X59126428Y-24898000D02*
X59055000Y-24862285D01*
X58947857Y-24862285D01*
X58840714Y-24898000D01*
X58769285Y-24969428D01*
X58733571Y-25040857D01*
X58697857Y-25183714D01*
X58697857Y-25290857D01*
X58733571Y-25433714D01*
X58769285Y-25505142D01*
X58840714Y-25576571D01*
X58947857Y-25612285D01*
X59019285Y-25612285D01*
X59126428Y-25576571D01*
X59162142Y-25540857D01*
X59162142Y-25290857D01*
X59019285Y-25290857D01*
X59483571Y-25612285D02*
X59483571Y-24862285D01*
X59483571Y-25219428D02*
X59912142Y-25219428D01*
X59912142Y-25612285D02*
X59912142Y-24862285D01*
X60162142Y-24862285D02*
X60590714Y-24862285D01*
X60376428Y-25612285D02*
X60376428Y-24862285D01*
X47254142Y-45678285D02*
X46897000Y-45678285D01*
X46897000Y-44928285D01*
X48039857Y-44892571D02*
X47397000Y-45856857D01*
X48289857Y-45678285D02*
X48289857Y-44928285D01*
X48539857Y-45464000D01*
X48789857Y-44928285D01*
X48789857Y-45678285D01*
X49289857Y-44928285D02*
X49432714Y-44928285D01*
X49504142Y-44964000D01*
X49575571Y-45035428D01*
X49611285Y-45178285D01*
X49611285Y-45428285D01*
X49575571Y-45571142D01*
X49504142Y-45642571D01*
X49432714Y-45678285D01*
X49289857Y-45678285D01*
X49218428Y-45642571D01*
X49147000Y-45571142D01*
X49111285Y-45428285D01*
X49111285Y-45178285D01*
X49147000Y-45035428D01*
X49218428Y-44964000D01*
X49289857Y-44928285D01*
X49932714Y-45678285D02*
X49932714Y-44928285D01*
X50361285Y-45678285D01*
X50361285Y-44928285D01*
X50861285Y-44928285D02*
X51004142Y-44928285D01*
X51075571Y-44964000D01*
X51147000Y-45035428D01*
X51182714Y-45178285D01*
X51182714Y-45428285D01*
X51147000Y-45571142D01*
X51075571Y-45642571D01*
X51004142Y-45678285D01*
X50861285Y-45678285D01*
X50789857Y-45642571D01*
X50718428Y-45571142D01*
X50682714Y-45428285D01*
X50682714Y-45178285D01*
X50718428Y-45035428D01*
X50789857Y-44964000D01*
X50861285Y-44928285D01*
D11*
X51986904Y-3687000D02*
X51939285Y-3663190D01*
X51867857Y-3663190D01*
X51796428Y-3687000D01*
X51748809Y-3734619D01*
X51725000Y-3782238D01*
X51701190Y-3877476D01*
X51701190Y-3948904D01*
X51725000Y-4044142D01*
X51748809Y-4091761D01*
X51796428Y-4139380D01*
X51867857Y-4163190D01*
X51915476Y-4163190D01*
X51986904Y-4139380D01*
X52010714Y-4115571D01*
X52010714Y-3948904D01*
X51915476Y-3948904D01*
X52201190Y-4020333D02*
X52439285Y-4020333D01*
X52153571Y-4163190D02*
X52320238Y-3663190D01*
X52486904Y-4163190D01*
X52653571Y-4163190D02*
X52653571Y-3663190D01*
X52891666Y-4163190D02*
X52891666Y-3663190D01*
X53177380Y-4163190D01*
X53177380Y-3663190D01*
X53296428Y-4210809D02*
X53677380Y-4210809D01*
X53772619Y-4139380D02*
X53844047Y-4163190D01*
X53963095Y-4163190D01*
X54010714Y-4139380D01*
X54034523Y-4115571D01*
X54058333Y-4067952D01*
X54058333Y-4020333D01*
X54034523Y-3972714D01*
X54010714Y-3948904D01*
X53963095Y-3925095D01*
X53867857Y-3901285D01*
X53820238Y-3877476D01*
X53796428Y-3853666D01*
X53772619Y-3806047D01*
X53772619Y-3758428D01*
X53796428Y-3710809D01*
X53820238Y-3687000D01*
X53867857Y-3663190D01*
X53986904Y-3663190D01*
X54058333Y-3687000D01*
X54272619Y-3901285D02*
X54439285Y-3901285D01*
X54510714Y-4163190D02*
X54272619Y-4163190D01*
X54272619Y-3663190D01*
X54510714Y-3663190D01*
X54963095Y-4163190D02*
X54725000Y-4163190D01*
X54725000Y-3663190D01*
X55129761Y-3901285D02*
X55296428Y-3901285D01*
X55367857Y-4163190D02*
X55129761Y-4163190D01*
X55129761Y-3663190D01*
X55367857Y-3663190D01*
X55867857Y-4115571D02*
X55844047Y-4139380D01*
X55772619Y-4163190D01*
X55725000Y-4163190D01*
X55653571Y-4139380D01*
X55605952Y-4091761D01*
X55582142Y-4044142D01*
X55558333Y-3948904D01*
X55558333Y-3877476D01*
X55582142Y-3782238D01*
X55605952Y-3734619D01*
X55653571Y-3687000D01*
X55725000Y-3663190D01*
X55772619Y-3663190D01*
X55844047Y-3687000D01*
X55867857Y-3710809D01*
X56010714Y-3663190D02*
X56296428Y-3663190D01*
X56153571Y-4163190D02*
X56153571Y-3663190D01*
X56880238Y-13823190D02*
X57189761Y-13823190D01*
X57023095Y-14013666D01*
X57094523Y-14013666D01*
X57142142Y-14037476D01*
X57165952Y-14061285D01*
X57189761Y-14108904D01*
X57189761Y-14227952D01*
X57165952Y-14275571D01*
X57142142Y-14299380D01*
X57094523Y-14323190D01*
X56951666Y-14323190D01*
X56904047Y-14299380D01*
X56880238Y-14275571D01*
X57618333Y-13823190D02*
X57523095Y-13823190D01*
X57475476Y-13847000D01*
X57451666Y-13870809D01*
X57404047Y-13942238D01*
X57380238Y-14037476D01*
X57380238Y-14227952D01*
X57404047Y-14275571D01*
X57427857Y-14299380D01*
X57475476Y-14323190D01*
X57570714Y-14323190D01*
X57618333Y-14299380D01*
X57642142Y-14275571D01*
X57665952Y-14227952D01*
X57665952Y-14108904D01*
X57642142Y-14061285D01*
X57618333Y-14037476D01*
X57570714Y-14013666D01*
X57475476Y-14013666D01*
X57427857Y-14037476D01*
X57404047Y-14061285D01*
X57380238Y-14108904D01*
X57880238Y-14323190D02*
X57880238Y-13823190D01*
X57999285Y-13823190D01*
X58070714Y-13847000D01*
X58118333Y-13894619D01*
X58142142Y-13942238D01*
X58165952Y-14037476D01*
X58165952Y-14108904D01*
X58142142Y-14204142D01*
X58118333Y-14251761D01*
X58070714Y-14299380D01*
X57999285Y-14323190D01*
X57880238Y-14323190D01*
X58546904Y-14061285D02*
X58618333Y-14085095D01*
X58642142Y-14108904D01*
X58665952Y-14156523D01*
X58665952Y-14227952D01*
X58642142Y-14275571D01*
X58618333Y-14299380D01*
X58570714Y-14323190D01*
X58380238Y-14323190D01*
X58380238Y-13823190D01*
X58546904Y-13823190D01*
X58594523Y-13847000D01*
X58618333Y-13870809D01*
X58642142Y-13918428D01*
X58642142Y-13966047D01*
X58618333Y-14013666D01*
X58594523Y-14037476D01*
X58546904Y-14061285D01*
X58380238Y-14061285D01*
X54340238Y-13823190D02*
X54649761Y-13823190D01*
X54483095Y-14013666D01*
X54554523Y-14013666D01*
X54602142Y-14037476D01*
X54625952Y-14061285D01*
X54649761Y-14108904D01*
X54649761Y-14227952D01*
X54625952Y-14275571D01*
X54602142Y-14299380D01*
X54554523Y-14323190D01*
X54411666Y-14323190D01*
X54364047Y-14299380D01*
X54340238Y-14275571D01*
X54840238Y-13870809D02*
X54864047Y-13847000D01*
X54911666Y-13823190D01*
X55030714Y-13823190D01*
X55078333Y-13847000D01*
X55102142Y-13870809D01*
X55125952Y-13918428D01*
X55125952Y-13966047D01*
X55102142Y-14037476D01*
X54816428Y-14323190D01*
X55125952Y-14323190D01*
X55340238Y-14323190D02*
X55340238Y-13823190D01*
X55459285Y-13823190D01*
X55530714Y-13847000D01*
X55578333Y-13894619D01*
X55602142Y-13942238D01*
X55625952Y-14037476D01*
X55625952Y-14108904D01*
X55602142Y-14204142D01*
X55578333Y-14251761D01*
X55530714Y-14299380D01*
X55459285Y-14323190D01*
X55340238Y-14323190D01*
X56006904Y-14061285D02*
X56078333Y-14085095D01*
X56102142Y-14108904D01*
X56125952Y-14156523D01*
X56125952Y-14227952D01*
X56102142Y-14275571D01*
X56078333Y-14299380D01*
X56030714Y-14323190D01*
X55840238Y-14323190D01*
X55840238Y-13823190D01*
X56006904Y-13823190D01*
X56054523Y-13847000D01*
X56078333Y-13870809D01*
X56102142Y-13918428D01*
X56102142Y-13966047D01*
X56078333Y-14013666D01*
X56054523Y-14037476D01*
X56006904Y-14061285D01*
X55840238Y-14061285D01*
X51824047Y-13870809D02*
X51847857Y-13847000D01*
X51895476Y-13823190D01*
X52014523Y-13823190D01*
X52062142Y-13847000D01*
X52085952Y-13870809D01*
X52109761Y-13918428D01*
X52109761Y-13966047D01*
X52085952Y-14037476D01*
X51800238Y-14323190D01*
X52109761Y-14323190D01*
X52538333Y-13823190D02*
X52443095Y-13823190D01*
X52395476Y-13847000D01*
X52371666Y-13870809D01*
X52324047Y-13942238D01*
X52300238Y-14037476D01*
X52300238Y-14227952D01*
X52324047Y-14275571D01*
X52347857Y-14299380D01*
X52395476Y-14323190D01*
X52490714Y-14323190D01*
X52538333Y-14299380D01*
X52562142Y-14275571D01*
X52585952Y-14227952D01*
X52585952Y-14108904D01*
X52562142Y-14061285D01*
X52538333Y-14037476D01*
X52490714Y-14013666D01*
X52395476Y-14013666D01*
X52347857Y-14037476D01*
X52324047Y-14061285D01*
X52300238Y-14108904D01*
X52800238Y-14323190D02*
X52800238Y-13823190D01*
X52919285Y-13823190D01*
X52990714Y-13847000D01*
X53038333Y-13894619D01*
X53062142Y-13942238D01*
X53085952Y-14037476D01*
X53085952Y-14108904D01*
X53062142Y-14204142D01*
X53038333Y-14251761D01*
X52990714Y-14299380D01*
X52919285Y-14323190D01*
X52800238Y-14323190D01*
X53466904Y-14061285D02*
X53538333Y-14085095D01*
X53562142Y-14108904D01*
X53585952Y-14156523D01*
X53585952Y-14227952D01*
X53562142Y-14275571D01*
X53538333Y-14299380D01*
X53490714Y-14323190D01*
X53300238Y-14323190D01*
X53300238Y-13823190D01*
X53466904Y-13823190D01*
X53514523Y-13847000D01*
X53538333Y-13870809D01*
X53562142Y-13918428D01*
X53562142Y-13966047D01*
X53538333Y-14013666D01*
X53514523Y-14037476D01*
X53466904Y-14061285D01*
X53300238Y-14061285D01*
X49284047Y-13870809D02*
X49307857Y-13847000D01*
X49355476Y-13823190D01*
X49474523Y-13823190D01*
X49522142Y-13847000D01*
X49545952Y-13870809D01*
X49569761Y-13918428D01*
X49569761Y-13966047D01*
X49545952Y-14037476D01*
X49260238Y-14323190D01*
X49569761Y-14323190D01*
X49879285Y-13823190D02*
X49926904Y-13823190D01*
X49974523Y-13847000D01*
X49998333Y-13870809D01*
X50022142Y-13918428D01*
X50045952Y-14013666D01*
X50045952Y-14132714D01*
X50022142Y-14227952D01*
X49998333Y-14275571D01*
X49974523Y-14299380D01*
X49926904Y-14323190D01*
X49879285Y-14323190D01*
X49831666Y-14299380D01*
X49807857Y-14275571D01*
X49784047Y-14227952D01*
X49760238Y-14132714D01*
X49760238Y-14013666D01*
X49784047Y-13918428D01*
X49807857Y-13870809D01*
X49831666Y-13847000D01*
X49879285Y-13823190D01*
X50260238Y-14323190D02*
X50260238Y-13823190D01*
X50379285Y-13823190D01*
X50450714Y-13847000D01*
X50498333Y-13894619D01*
X50522142Y-13942238D01*
X50545952Y-14037476D01*
X50545952Y-14108904D01*
X50522142Y-14204142D01*
X50498333Y-14251761D01*
X50450714Y-14299380D01*
X50379285Y-14323190D01*
X50260238Y-14323190D01*
X50926904Y-14061285D02*
X50998333Y-14085095D01*
X51022142Y-14108904D01*
X51045952Y-14156523D01*
X51045952Y-14227952D01*
X51022142Y-14275571D01*
X50998333Y-14299380D01*
X50950714Y-14323190D01*
X50760238Y-14323190D01*
X50760238Y-13823190D01*
X50926904Y-13823190D01*
X50974523Y-13847000D01*
X50998333Y-13870809D01*
X51022142Y-13918428D01*
X51022142Y-13966047D01*
X50998333Y-14013666D01*
X50974523Y-14037476D01*
X50926904Y-14061285D01*
X50760238Y-14061285D01*
D12*
X49360000Y-155680000D02*
X49360000Y-165100000D01*
X49360000Y-165100000D02*
X58590000Y-165100000D01*
X51770000Y-154390000D02*
X52370000Y-154390000D01*
X58590000Y-165100000D02*
X58590000Y-155680000D01*
X53120000Y-155680000D02*
X54830000Y-155680000D01*
X52370000Y-154390000D02*
X52070000Y-154990000D01*
X52070000Y-154990000D02*
X51770000Y-154390000D01*
X58590000Y-155680000D02*
X56930000Y-155680000D01*
X49360000Y-155680000D02*
X51020000Y-155680000D01*
X49360000Y-161790000D02*
X58590000Y-161790000D01*
X57380000Y-159240000D02*
X56630000Y-159240000D01*
X57380000Y-154940000D02*
X57380000Y-159240000D01*
X56630000Y-154940000D02*
X57380000Y-154940000D01*
X56630000Y-154590000D02*
X56630000Y-154940000D01*
X57130000Y-154590000D02*
X56630000Y-154590000D01*
X57380000Y-153590000D02*
X57130000Y-154590000D01*
X54380000Y-153590000D02*
X57380000Y-153590000D01*
X54630000Y-154590000D02*
X54380000Y-153590000D01*
X55130000Y-154590000D02*
X54630000Y-154590000D01*
X55130000Y-154940000D02*
X55130000Y-154590000D01*
X54380000Y-154940000D02*
X55130000Y-154940000D01*
X54380000Y-159240000D02*
X54380000Y-154940000D01*
X55130000Y-159240000D02*
X54380000Y-159240000D01*
X53570000Y-159240000D02*
X52820000Y-159240000D01*
X53570000Y-154940000D02*
X53570000Y-159240000D01*
X52820000Y-154940000D02*
X53570000Y-154940000D01*
X52820000Y-154590000D02*
X52820000Y-154940000D01*
X53320000Y-154590000D02*
X52820000Y-154590000D01*
X53570000Y-153590000D02*
X53320000Y-154590000D01*
X50570000Y-153590000D02*
X53570000Y-153590000D01*
X50820000Y-154590000D02*
X50570000Y-153590000D01*
X51320000Y-154590000D02*
X50820000Y-154590000D01*
X51320000Y-154940000D02*
X51320000Y-154590000D01*
X50570000Y-154940000D02*
X51320000Y-154940000D01*
X50570000Y-159240000D02*
X50570000Y-154940000D01*
X51320000Y-159240000D02*
X50570000Y-159240000D01*
X58590000Y-152630000D02*
X49360000Y-152630000D01*
X58590000Y-160100000D02*
X58590000Y-152630000D01*
X49360000Y-160100000D02*
X58590000Y-160100000D01*
X49360000Y-152630000D02*
X49360000Y-160100000D01*
X56629647Y-159239845D02*
G75*
G03X55130000Y-159240000I-749647J-1700155D01*
G01*
X52819647Y-159239845D02*
G75*
G03X51320000Y-159240000I-749647J-1700155D01*
G01*
X53764000Y38205000D02*
X53764000Y47625000D01*
X53764000Y47625000D02*
X44534000Y47625000D01*
X51354000Y36915000D02*
X50754000Y36915000D01*
X44534000Y47625000D02*
X44534000Y38205000D01*
X50004000Y38205000D02*
X48294000Y38205000D01*
X50754000Y36915000D02*
X51054000Y37515000D01*
X51054000Y37515000D02*
X51354000Y36915000D01*
X44534000Y38205000D02*
X46194000Y38205000D01*
X53764000Y38205000D02*
X52104000Y38205000D01*
X53764000Y44315000D02*
X44534000Y44315000D01*
X45744000Y41765000D02*
X46494000Y41765000D01*
X45744000Y37465000D02*
X45744000Y41765000D01*
X46494000Y37465000D02*
X45744000Y37465000D01*
X46494000Y37115000D02*
X46494000Y37465000D01*
X45994000Y37115000D02*
X46494000Y37115000D01*
X45744000Y36115000D02*
X45994000Y37115000D01*
X48744000Y36115000D02*
X45744000Y36115000D01*
X48494000Y37115000D02*
X48744000Y36115000D01*
X47994000Y37115000D02*
X48494000Y37115000D01*
X47994000Y37465000D02*
X47994000Y37115000D01*
X48744000Y37465000D02*
X47994000Y37465000D01*
X48744000Y41765000D02*
X48744000Y37465000D01*
X47994000Y41765000D02*
X48744000Y41765000D01*
X49554000Y41765000D02*
X50304000Y41765000D01*
X49554000Y37465000D02*
X49554000Y41765000D01*
X50304000Y37465000D02*
X49554000Y37465000D01*
X50304000Y37115000D02*
X50304000Y37465000D01*
X49804000Y37115000D02*
X50304000Y37115000D01*
X49554000Y36115000D02*
X49804000Y37115000D01*
X52554000Y36115000D02*
X49554000Y36115000D01*
X52304000Y37115000D02*
X52554000Y36115000D01*
X51804000Y37115000D02*
X52304000Y37115000D01*
X51804000Y37465000D02*
X51804000Y37115000D01*
X52554000Y37465000D02*
X51804000Y37465000D01*
X52554000Y41765000D02*
X52554000Y37465000D01*
X51804000Y41765000D02*
X52554000Y41765000D01*
X44534000Y35155000D02*
X53764000Y35155000D01*
X44534000Y42625000D02*
X44534000Y35155000D01*
X53764000Y42625000D02*
X44534000Y42625000D01*
X53764000Y35155000D02*
X53764000Y42625000D01*
X46494353Y41764845D02*
G75*
G03X47994000Y41765000I749647J1700155D01*
G01*
X50304353Y41764845D02*
G75*
G03X51804000Y41765000I749647J1700155D01*
G01*
X63416000Y38205000D02*
X63416000Y47625000D01*
X63416000Y47625000D02*
X54186000Y47625000D01*
X61006000Y36915000D02*
X60406000Y36915000D01*
X54186000Y47625000D02*
X54186000Y38205000D01*
X59656000Y38205000D02*
X57946000Y38205000D01*
X60406000Y36915000D02*
X60706000Y37515000D01*
X60706000Y37515000D02*
X61006000Y36915000D01*
X54186000Y38205000D02*
X55846000Y38205000D01*
X63416000Y38205000D02*
X61756000Y38205000D01*
X63416000Y44315000D02*
X54186000Y44315000D01*
X55396000Y41765000D02*
X56146000Y41765000D01*
X55396000Y37465000D02*
X55396000Y41765000D01*
X56146000Y37465000D02*
X55396000Y37465000D01*
X56146000Y37115000D02*
X56146000Y37465000D01*
X55646000Y37115000D02*
X56146000Y37115000D01*
X55396000Y36115000D02*
X55646000Y37115000D01*
X58396000Y36115000D02*
X55396000Y36115000D01*
X58146000Y37115000D02*
X58396000Y36115000D01*
X57646000Y37115000D02*
X58146000Y37115000D01*
X57646000Y37465000D02*
X57646000Y37115000D01*
X58396000Y37465000D02*
X57646000Y37465000D01*
X58396000Y41765000D02*
X58396000Y37465000D01*
X57646000Y41765000D02*
X58396000Y41765000D01*
X59206000Y41765000D02*
X59956000Y41765000D01*
X59206000Y37465000D02*
X59206000Y41765000D01*
X59956000Y37465000D02*
X59206000Y37465000D01*
X59956000Y37115000D02*
X59956000Y37465000D01*
X59456000Y37115000D02*
X59956000Y37115000D01*
X59206000Y36115000D02*
X59456000Y37115000D01*
X62206000Y36115000D02*
X59206000Y36115000D01*
X61956000Y37115000D02*
X62206000Y36115000D01*
X61456000Y37115000D02*
X61956000Y37115000D01*
X61456000Y37465000D02*
X61456000Y37115000D01*
X62206000Y37465000D02*
X61456000Y37465000D01*
X62206000Y41765000D02*
X62206000Y37465000D01*
X61456000Y41765000D02*
X62206000Y41765000D01*
X54186000Y35155000D02*
X63416000Y35155000D01*
X54186000Y42625000D02*
X54186000Y35155000D01*
X63416000Y42625000D02*
X54186000Y42625000D01*
X63416000Y35155000D02*
X63416000Y42625000D01*
X56146353Y41764845D02*
G75*
G03X57646000Y41765000I749647J1700155D01*
G01*
X59956353Y41764845D02*
G75*
G03X61456000Y41765000I749647J1700155D01*
G01*
X52686000Y-2902000D02*
X52686000Y-552000D01*
X52686000Y3918000D02*
X52686000Y1568000D01*
X46930437Y3918000D02*
X52686000Y3918000D01*
X46930437Y-2902000D02*
X52686000Y-2902000D01*
X45866000Y-1837563D02*
X45866000Y-552000D01*
X45866000Y2853563D02*
X45866000Y1568000D01*
X45866000Y2853563D02*
X46930437Y3918000D01*
X45866000Y-1837563D02*
X46930437Y-2902000D01*
X44838500Y2355500D02*
X45626000Y2355500D01*
X45232250Y2749250D02*
X45232250Y1961750D01*
X62717750Y-1733250D02*
X62717750Y-945750D01*
X63111500Y-1339500D02*
X62324000Y-1339500D01*
X62084000Y2853563D02*
X61019563Y3918000D01*
X62084000Y-1837563D02*
X61019563Y-2902000D01*
X62084000Y-1837563D02*
X62084000Y-552000D01*
X62084000Y2853563D02*
X62084000Y1568000D01*
X61019563Y3918000D02*
X55264000Y3918000D01*
X61019563Y-2902000D02*
X55264000Y-2902000D01*
X55264000Y-2902000D02*
X55264000Y-552000D01*
X55264000Y3918000D02*
X55264000Y1568000D01*
X45975000Y-127225000D02*
X49275000Y-127225000D01*
X49275000Y-127225000D02*
X49275000Y-121825000D01*
X45975000Y-127225000D02*
X45975000Y-121825000D01*
X45903000Y10788000D02*
X45903000Y7928000D01*
X45903000Y7928000D02*
X47823000Y7928000D01*
X47823000Y7928000D02*
X47823000Y10788000D01*
X48662000Y22700064D02*
X48662000Y21495936D01*
X46842000Y22700064D02*
X46842000Y21495936D01*
X56536000Y22700064D02*
X56536000Y21495936D01*
X54716000Y22700064D02*
X54716000Y21495936D01*
X51414000Y22700064D02*
X51414000Y21495936D01*
X53234000Y22700064D02*
X53234000Y21495936D01*
X59288000Y22700064D02*
X59288000Y21495936D01*
X61108000Y22700064D02*
X61108000Y21495936D01*
X59115000Y-6397000D02*
X59115000Y-11597000D01*
X48835000Y-6397000D02*
X48835000Y-11597000D01*
X58545000Y-4957000D02*
X58545000Y-6397000D01*
X59115000Y-6397000D02*
X58545000Y-6397000D01*
X59115000Y-11597000D02*
X58545000Y-11597000D01*
X49405000Y-6397000D02*
X48835000Y-6397000D01*
X49405000Y-11597000D02*
X48835000Y-11597000D01*
X57025000Y-6397000D02*
X56005000Y-6397000D01*
X57025000Y-11597000D02*
X56005000Y-11597000D01*
X54485000Y-6397000D02*
X53465000Y-6397000D01*
X54485000Y-11597000D02*
X53465000Y-11597000D01*
X51945000Y-6397000D02*
X50925000Y-6397000D01*
X51945000Y-11597000D02*
X50925000Y-11597000D01*
X61720000Y-64445000D02*
X60260000Y-64445000D01*
X61720000Y-61285000D02*
X59560000Y-61285000D01*
X61720000Y-61285000D02*
X61720000Y-62215000D01*
X61720000Y-64445000D02*
X61720000Y-63515000D01*
D13*
X60198000Y-108941250D02*
G75*
G03X60198000Y-108941250I-1270000J0D01*
G01*
X61468000Y-107402010D02*
X61468000Y-110480490D01*
X60467240Y-106401250D02*
X61468000Y-107402010D01*
X57388760Y-106401250D02*
X60467240Y-106401250D01*
X56388000Y-107402010D02*
X57388760Y-106401250D01*
X56388000Y-110480490D02*
X56388000Y-107402010D01*
X57388760Y-111481250D02*
X56388000Y-110480490D01*
X60467240Y-111481250D02*
X57388760Y-111481250D01*
X61468000Y-110480490D02*
X60467240Y-111481250D01*
X51562000Y-110480490D02*
X50561240Y-111481250D01*
X50561240Y-111481250D02*
X47482760Y-111481250D01*
X47482760Y-111481250D02*
X46482000Y-110480490D01*
X46482000Y-110480490D02*
X46482000Y-107402010D01*
X46482000Y-107402010D02*
X47482760Y-106401250D01*
X47482760Y-106401250D02*
X50561240Y-106401250D01*
X50561240Y-106401250D02*
X51562000Y-107402010D01*
X51562000Y-107402010D02*
X51562000Y-110480490D01*
X50292000Y-108941250D02*
G75*
G03X50292000Y-108941250I-1270000J0D01*
G01*
D12*
X54947500Y-64516000D02*
X54947500Y-62566000D01*
X54947500Y-64516000D02*
X54947500Y-66466000D01*
X49827500Y-64516000D02*
X49827500Y-62566000D01*
X49827500Y-64516000D02*
X49827500Y-67966000D01*
X50038000Y-33952500D02*
X46588000Y-33952500D01*
X50038000Y-33952500D02*
X51988000Y-33952500D01*
X50038000Y-39072500D02*
X48088000Y-39072500D01*
X50038000Y-39072500D02*
X51988000Y-39072500D01*
X57912000Y-39072500D02*
X59862000Y-39072500D01*
X57912000Y-39072500D02*
X55962000Y-39072500D01*
X57912000Y-33952500D02*
X59862000Y-33952500D01*
X57912000Y-33952500D02*
X54462000Y-33952500D01*
D14*
X48575000Y8216000D02*
X48575000Y9291000D01*
X48575000Y9291000D02*
X48350000Y9291000D01*
X48350000Y9291000D02*
X48350000Y15641000D01*
X48350000Y15641000D02*
X48675000Y15641000D01*
X59275000Y9291000D02*
X59600000Y9291000D01*
X59600000Y9291000D02*
X59600000Y15641000D01*
X59600000Y15641000D02*
X59275000Y15641000D01*
D12*
X57910000Y-41294233D02*
X57910000Y-41636767D01*
X58930000Y-41294233D02*
X58930000Y-41636767D01*
X49020000Y-41294233D02*
X49020000Y-41636767D01*
X50040000Y-41294233D02*
X50040000Y-41636767D01*
X57042233Y-66169000D02*
X57384767Y-66169000D01*
X57042233Y-65149000D02*
X57384767Y-65149000D01*
X47834733Y-32065500D02*
X48177267Y-32065500D01*
X47834733Y-33085500D02*
X48177267Y-33085500D01*
X55708733Y-33085500D02*
X56051267Y-33085500D01*
X55708733Y-32065500D02*
X56051267Y-32065500D01*
X47390233Y-64391000D02*
X47732767Y-64391000D01*
X47390233Y-63371000D02*
X47732767Y-63371000D01*
X47390233Y-65149000D02*
X47732767Y-65149000D01*
X47390233Y-66169000D02*
X47732767Y-66169000D01*
X57042233Y-63371000D02*
X57384767Y-63371000D01*
X57042233Y-64391000D02*
X57384767Y-64391000D01*
X56263000Y6013267D02*
X56263000Y5670733D01*
X55243000Y6013267D02*
X55243000Y5670733D01*
X57021000Y6013267D02*
X57021000Y5670733D01*
X58041000Y6013267D02*
X58041000Y5670733D01*
X50929000Y6013267D02*
X50929000Y5670733D01*
X49909000Y6013267D02*
X49909000Y5670733D01*
X51687000Y6013267D02*
X51687000Y5670733D01*
X52707000Y6013267D02*
X52707000Y5670733D01*
X48135000Y-116113106D02*
X48135000Y-116455640D01*
X47115000Y-116113106D02*
X47115000Y-116455640D01*
X61597000Y9339733D02*
X61597000Y9682267D01*
X60577000Y9339733D02*
X60577000Y9682267D01*
X54485000Y6013267D02*
X54485000Y5670733D01*
X53465000Y6013267D02*
X53465000Y5670733D01*
X60835000Y-116455640D02*
X60835000Y-116113106D01*
X59815000Y-116455640D02*
X59815000Y-116113106D01*
X60115267Y-33085500D02*
X59772733Y-33085500D01*
X60115267Y-32065500D02*
X59772733Y-32065500D01*
X61550733Y14353000D02*
X61893267Y14353000D01*
X61550733Y13333000D02*
X61893267Y13333000D01*
X52241267Y-32065500D02*
X51898733Y-32065500D01*
X52241267Y-33085500D02*
X51898733Y-33085500D01*
X46399267Y15639000D02*
X46056733Y15639000D01*
X46399267Y16659000D02*
X46056733Y16659000D01*
X48558267Y19179000D02*
X48215733Y19179000D01*
X48558267Y18159000D02*
X48215733Y18159000D01*
X55924267Y19179000D02*
X55581733Y19179000D01*
X55924267Y18159000D02*
X55581733Y18159000D01*
X52241267Y18159000D02*
X51898733Y18159000D01*
X52241267Y19179000D02*
X51898733Y19179000D01*
X59607267Y18159000D02*
X59264733Y18159000D01*
X59607267Y19179000D02*
X59264733Y19179000D01*
X61550733Y15639000D02*
X61893267Y15639000D01*
X61550733Y16659000D02*
X61893267Y16659000D01*
X46399267Y14353000D02*
X46056733Y14353000D01*
X46399267Y13333000D02*
X46056733Y13333000D01*
X45976000Y23031267D02*
X45976000Y22688733D01*
X44956000Y23031267D02*
X44956000Y22688733D01*
X58422000Y23031267D02*
X58422000Y22688733D01*
X57402000Y23031267D02*
X57402000Y22688733D01*
X49528000Y23045267D02*
X49528000Y22702733D01*
X50548000Y23045267D02*
X50548000Y22702733D01*
X62994000Y23031267D02*
X62994000Y22688733D01*
X61974000Y23031267D02*
X61974000Y22688733D01*
X59688000Y-41636767D02*
X59688000Y-41294233D01*
X60708000Y-41636767D02*
X60708000Y-41294233D01*
X48262000Y-41636767D02*
X48262000Y-41294233D01*
X47242000Y-41636767D02*
X47242000Y-41294233D01*
X55374000Y-41636767D02*
X55374000Y-41294233D01*
X54354000Y-41636767D02*
X54354000Y-41294233D01*
X57152000Y-41294233D02*
X57152000Y-41636767D01*
X56132000Y-41294233D02*
X56132000Y-41636767D01*
X52576000Y-41636767D02*
X52576000Y-41294233D01*
X53596000Y-41636767D02*
X53596000Y-41294233D01*
X51818000Y-41294233D02*
X51818000Y-41636767D01*
X50798000Y-41294233D02*
X50798000Y-41636767D01*
X57042233Y-66927000D02*
X57384767Y-66927000D01*
X57042233Y-67947000D02*
X57384767Y-67947000D01*
X47732767Y-61593000D02*
X47390233Y-61593000D01*
X47732767Y-62613000D02*
X47390233Y-62613000D01*
X51687000Y-16808267D02*
X51687000Y-16465733D01*
X52707000Y-16808267D02*
X52707000Y-16465733D01*
X53465000Y-16808267D02*
X53465000Y-16465733D01*
X54485000Y-16808267D02*
X54485000Y-16465733D01*
X58799000Y-16808267D02*
X58799000Y-16465733D01*
X59819000Y-16808267D02*
X59819000Y-16465733D01*
X47732767Y-66927000D02*
X47390233Y-66927000D01*
X47732767Y-67947000D02*
X47390233Y-67947000D01*
X49909000Y-16465733D02*
X49909000Y-16808267D01*
X50929000Y-16465733D02*
X50929000Y-16808267D01*
X55243000Y-16465733D02*
X55243000Y-16808267D01*
X56263000Y-16465733D02*
X56263000Y-16808267D01*
X57021000Y-16465733D02*
X57021000Y-16808267D01*
X58041000Y-16465733D02*
X58041000Y-16808267D01*
X46353000Y6013267D02*
X46353000Y5670733D01*
X47373000Y6013267D02*
X47373000Y5670733D01*
X48131000Y-16808267D02*
X48131000Y-16465733D01*
X49151000Y-16808267D02*
X49151000Y-16465733D01*
X60788733Y-67947000D02*
X61131267Y-67947000D01*
X60788733Y-66927000D02*
X61131267Y-66927000D01*
X61131267Y-66169000D02*
X60788733Y-66169000D01*
X61131267Y-65149000D02*
X60788733Y-65149000D01*
X59819000Y5670733D02*
X59819000Y6013267D01*
X58799000Y5670733D02*
X58799000Y6013267D01*
X61597000Y6013267D02*
X61597000Y5670733D01*
X60577000Y6013267D02*
X60577000Y5670733D01*
X48131000Y5670733D02*
X48131000Y6013267D01*
X49151000Y5670733D02*
X49151000Y6013267D01*
X50022000Y-102710750D02*
X47162000Y-102710750D01*
X47162000Y-102710750D02*
X47162000Y-104630750D01*
X47162000Y-104630750D02*
X50022000Y-104630750D01*
X60788000Y-102710750D02*
X57928000Y-102710750D01*
X60788000Y-104630750D02*
X60788000Y-102710750D01*
X57928000Y-104630750D02*
X60788000Y-104630750D01*
X53342000Y-109112517D02*
X53342000Y-108769983D01*
X52322000Y-109112517D02*
X52322000Y-108769983D01*
X55628000Y-108769983D02*
X55628000Y-109112517D01*
X54608000Y-108769983D02*
X54608000Y-109112517D01*
D14*
X47522000Y-99193750D02*
X47522000Y-95443750D01*
X50522000Y-99193750D02*
X47522000Y-99193750D01*
X50522000Y-95443750D02*
X50522000Y-99193750D01*
X47522000Y-95443750D02*
X50522000Y-95443750D01*
X50822000Y-97193750D02*
G75*
G03X50822000Y-97193750I-1800000J0D01*
G01*
X60728000Y-97193750D02*
G75*
G03X60728000Y-97193750I-1800000J0D01*
G01*
X57428000Y-95443750D02*
X60428000Y-95443750D01*
X60428000Y-95443750D02*
X60428000Y-99193750D01*
X60428000Y-99193750D02*
X57428000Y-99193750D01*
X57428000Y-99193750D02*
X57428000Y-95443750D01*
X47522000Y-90977500D02*
X47522000Y-87227500D01*
X50522000Y-90977500D02*
X47522000Y-90977500D01*
X50522000Y-87227500D02*
X50522000Y-90977500D01*
X47522000Y-87227500D02*
X50522000Y-87227500D01*
X50822000Y-88977500D02*
G75*
G03X50822000Y-88977500I-1800000J0D01*
G01*
X47522000Y-30575000D02*
X47522000Y-26825000D01*
X50522000Y-30575000D02*
X47522000Y-30575000D01*
X50522000Y-26825000D02*
X50522000Y-30575000D01*
X47522000Y-26825000D02*
X50522000Y-26825000D01*
X50822000Y-28575000D02*
G75*
G03X50822000Y-28575000I-1800000J0D01*
G01*
X60728000Y-28575000D02*
G75*
G03X60728000Y-28575000I-1800000J0D01*
G01*
X57428000Y-26825000D02*
X60428000Y-26825000D01*
X60428000Y-26825000D02*
X60428000Y-30575000D01*
X60428000Y-30575000D02*
X57428000Y-30575000D01*
X57428000Y-30575000D02*
X57428000Y-26825000D01*
D13*
X53975000Y-121970800D02*
G75*
G03X53975000Y-125679200I0J-1854200D01*
G01*
X53975000Y-125679200D02*
G75*
G03X53975000Y-121970800I0J1854200D01*
G01*
X53975000Y-121970800D02*
G75*
G03X53975000Y-125679200I0J-1854200D01*
G01*
X53975000Y-125679200D02*
G75*
G03X53975000Y-121970800I0J1854200D01*
G01*
X53975000Y-74879200D02*
G75*
G03X53975000Y-71170800I0J1854200D01*
G01*
X53975000Y-71170800D02*
G75*
G03X53975000Y-74879200I0J-1854200D01*
G01*
X53975000Y-74879200D02*
G75*
G03X53975000Y-71170800I0J1854200D01*
G01*
X53975000Y-71170800D02*
G75*
G03X53975000Y-74879200I0J-1854200D01*
G01*
X53975000Y-20370800D02*
G75*
G03X53975000Y-24079200I0J-1854200D01*
G01*
X53975000Y-24079200D02*
G75*
G03X53975000Y-20370800I0J1854200D01*
G01*
X53975000Y-20370800D02*
G75*
G03X53975000Y-24079200I0J-1854200D01*
G01*
X53975000Y-24079200D02*
G75*
G03X53975000Y-20370800I0J1854200D01*
G01*
X53975000Y26720800D02*
G75*
G03X53975000Y30429200I0J1854200D01*
G01*
X53975000Y30429200D02*
G75*
G03X53975000Y26720800I0J-1854200D01*
G01*
X53975000Y26720800D02*
G75*
G03X53975000Y30429200I0J1854200D01*
G01*
X53975000Y30429200D02*
G75*
G03X53975000Y26720800I0J-1854200D01*
G01*
X60198000Y-88977500D02*
G75*
G03X60198000Y-88977500I-1270000J0D01*
G01*
X60467240Y-91517500D02*
X57388760Y-91517500D01*
X61468000Y-90516740D02*
X60467240Y-91517500D01*
X61468000Y-87438260D02*
X61468000Y-90516740D01*
X60467240Y-86437500D02*
X61468000Y-87438260D01*
X57388760Y-86437500D02*
X60467240Y-86437500D01*
X56388000Y-87438260D02*
X57388760Y-86437500D01*
X56388000Y-90516740D02*
X56388000Y-87438260D01*
X57388760Y-91517500D02*
X56388000Y-90516740D01*
D12*
X58675000Y-127225000D02*
X61975000Y-127225000D01*
X61975000Y-127225000D02*
X61975000Y-121825000D01*
X58675000Y-127225000D02*
X58675000Y-121825000D01*
D14*
X51275000Y-79359578D02*
X56675000Y-79359578D01*
X51275000Y-83359578D02*
X51275000Y-79359578D01*
X56675000Y-83359578D02*
X51275000Y-83359578D01*
X56675000Y-79359578D02*
X56675000Y-83359578D01*
D15*
X49454571Y186571D02*
X49478380Y162761D01*
X49502190Y91333D01*
X49502190Y43714D01*
X49478380Y-27714D01*
X49430761Y-75333D01*
X49383142Y-99142D01*
X49287904Y-122952D01*
X49216476Y-122952D01*
X49121238Y-99142D01*
X49073619Y-75333D01*
X49026000Y-27714D01*
X49002190Y43714D01*
X49002190Y91333D01*
X49026000Y162761D01*
X49049809Y186571D01*
X49049809Y377047D02*
X49026000Y400857D01*
X49002190Y448476D01*
X49002190Y567523D01*
X49026000Y615142D01*
X49049809Y638952D01*
X49097428Y662761D01*
X49145047Y662761D01*
X49216476Y638952D01*
X49502190Y353238D01*
X49502190Y662761D01*
X49502190Y900857D02*
X49502190Y996095D01*
X49478380Y1043714D01*
X49454571Y1067523D01*
X49383142Y1115142D01*
X49287904Y1138952D01*
X49097428Y1138952D01*
X49049809Y1115142D01*
X49026000Y1091333D01*
X49002190Y1043714D01*
X49002190Y948476D01*
X49026000Y900857D01*
X49049809Y877047D01*
X49097428Y853238D01*
X49216476Y853238D01*
X49264095Y877047D01*
X49287904Y900857D01*
X49311714Y948476D01*
X49311714Y1043714D01*
X49287904Y1091333D01*
X49264095Y1115142D01*
X49216476Y1138952D01*
X58852571Y186571D02*
X58876380Y162761D01*
X58900190Y91333D01*
X58900190Y43714D01*
X58876380Y-27714D01*
X58828761Y-75333D01*
X58781142Y-99142D01*
X58685904Y-122952D01*
X58614476Y-122952D01*
X58519238Y-99142D01*
X58471619Y-75333D01*
X58424000Y-27714D01*
X58400190Y43714D01*
X58400190Y91333D01*
X58424000Y162761D01*
X58447809Y186571D01*
X58400190Y353238D02*
X58400190Y662761D01*
X58590666Y496095D01*
X58590666Y567523D01*
X58614476Y615142D01*
X58638285Y638952D01*
X58685904Y662761D01*
X58804952Y662761D01*
X58852571Y638952D01*
X58876380Y615142D01*
X58900190Y567523D01*
X58900190Y424666D01*
X58876380Y377047D01*
X58852571Y353238D01*
X58447809Y853238D02*
X58424000Y877047D01*
X58400190Y924666D01*
X58400190Y1043714D01*
X58424000Y1091333D01*
X58447809Y1115142D01*
X58495428Y1138952D01*
X58543047Y1138952D01*
X58614476Y1115142D01*
X58900190Y829428D01*
X58900190Y1138952D01*
D14*
X46886904Y-124277380D02*
X46886904Y-123277380D01*
X47125000Y-123277380D01*
X47267857Y-123325000D01*
X47363095Y-123420238D01*
X47410714Y-123515476D01*
X47458333Y-123705952D01*
X47458333Y-123848809D01*
X47410714Y-124039285D01*
X47363095Y-124134523D01*
X47267857Y-124229761D01*
X47125000Y-124277380D01*
X46886904Y-124277380D01*
X48410714Y-124277380D02*
X47839285Y-124277380D01*
X48125000Y-124277380D02*
X48125000Y-123277380D01*
X48029761Y-123420238D01*
X47934523Y-123515476D01*
X47839285Y-123563095D01*
D11*
X46493952Y9561809D02*
X46493952Y10061809D01*
X46613000Y10061809D01*
X46684428Y10038000D01*
X46732047Y9990380D01*
X46755857Y9942761D01*
X46779666Y9847523D01*
X46779666Y9776095D01*
X46755857Y9680857D01*
X46732047Y9633238D01*
X46684428Y9585619D01*
X46613000Y9561809D01*
X46493952Y9561809D01*
X46970142Y10014190D02*
X46993952Y10038000D01*
X47041571Y10061809D01*
X47160619Y10061809D01*
X47208238Y10038000D01*
X47232047Y10014190D01*
X47255857Y9966571D01*
X47255857Y9918952D01*
X47232047Y9847523D01*
X46946333Y9561809D01*
X47255857Y9561809D01*
D15*
X47335333Y22133714D02*
X47168666Y22133714D01*
X47168666Y21871809D02*
X47168666Y22371809D01*
X47406761Y22371809D01*
X47763904Y22133714D02*
X47835333Y22109904D01*
X47859142Y22086095D01*
X47882952Y22038476D01*
X47882952Y21967047D01*
X47859142Y21919428D01*
X47835333Y21895619D01*
X47787714Y21871809D01*
X47597238Y21871809D01*
X47597238Y22371809D01*
X47763904Y22371809D01*
X47811523Y22348000D01*
X47835333Y22324190D01*
X47859142Y22276571D01*
X47859142Y22228952D01*
X47835333Y22181333D01*
X47811523Y22157523D01*
X47763904Y22133714D01*
X47597238Y22133714D01*
X48359142Y21871809D02*
X48073428Y21871809D01*
X48216285Y21871809D02*
X48216285Y22371809D01*
X48168666Y22300380D01*
X48121047Y22252761D01*
X48073428Y22228952D01*
X55209333Y22133714D02*
X55042666Y22133714D01*
X55042666Y21871809D02*
X55042666Y22371809D01*
X55280761Y22371809D01*
X55637904Y22133714D02*
X55709333Y22109904D01*
X55733142Y22086095D01*
X55756952Y22038476D01*
X55756952Y21967047D01*
X55733142Y21919428D01*
X55709333Y21895619D01*
X55661714Y21871809D01*
X55471238Y21871809D01*
X55471238Y22371809D01*
X55637904Y22371809D01*
X55685523Y22348000D01*
X55709333Y22324190D01*
X55733142Y22276571D01*
X55733142Y22228952D01*
X55709333Y22181333D01*
X55685523Y22157523D01*
X55637904Y22133714D01*
X55471238Y22133714D01*
X55947428Y22324190D02*
X55971238Y22348000D01*
X56018857Y22371809D01*
X56137904Y22371809D01*
X56185523Y22348000D01*
X56209333Y22324190D01*
X56233142Y22276571D01*
X56233142Y22228952D01*
X56209333Y22157523D01*
X55923619Y21871809D01*
X56233142Y21871809D01*
X51907333Y22133714D02*
X51740666Y22133714D01*
X51740666Y21871809D02*
X51740666Y22371809D01*
X51978761Y22371809D01*
X52335904Y22133714D02*
X52407333Y22109904D01*
X52431142Y22086095D01*
X52454952Y22038476D01*
X52454952Y21967047D01*
X52431142Y21919428D01*
X52407333Y21895619D01*
X52359714Y21871809D01*
X52169238Y21871809D01*
X52169238Y22371809D01*
X52335904Y22371809D01*
X52383523Y22348000D01*
X52407333Y22324190D01*
X52431142Y22276571D01*
X52431142Y22228952D01*
X52407333Y22181333D01*
X52383523Y22157523D01*
X52335904Y22133714D01*
X52169238Y22133714D01*
X52621619Y22371809D02*
X52931142Y22371809D01*
X52764476Y22181333D01*
X52835904Y22181333D01*
X52883523Y22157523D01*
X52907333Y22133714D01*
X52931142Y22086095D01*
X52931142Y21967047D01*
X52907333Y21919428D01*
X52883523Y21895619D01*
X52835904Y21871809D01*
X52693047Y21871809D01*
X52645428Y21895619D01*
X52621619Y21919428D01*
X59781333Y22133714D02*
X59614666Y22133714D01*
X59614666Y21871809D02*
X59614666Y22371809D01*
X59852761Y22371809D01*
X60209904Y22133714D02*
X60281333Y22109904D01*
X60305142Y22086095D01*
X60328952Y22038476D01*
X60328952Y21967047D01*
X60305142Y21919428D01*
X60281333Y21895619D01*
X60233714Y21871809D01*
X60043238Y21871809D01*
X60043238Y22371809D01*
X60209904Y22371809D01*
X60257523Y22348000D01*
X60281333Y22324190D01*
X60305142Y22276571D01*
X60305142Y22228952D01*
X60281333Y22181333D01*
X60257523Y22157523D01*
X60209904Y22133714D01*
X60043238Y22133714D01*
X60757523Y22205142D02*
X60757523Y21871809D01*
X60638476Y22395619D02*
X60519428Y22038476D01*
X60828952Y22038476D01*
D14*
X53641666Y-8449380D02*
X53641666Y-9163666D01*
X53594047Y-9306523D01*
X53498809Y-9401761D01*
X53355952Y-9449380D01*
X53260714Y-9449380D01*
X54546428Y-8782714D02*
X54546428Y-9449380D01*
X54308333Y-8401761D02*
X54070238Y-9116047D01*
X54689285Y-9116047D01*
D11*
X61233809Y-62912619D02*
X61210000Y-62960238D01*
X61162380Y-63007857D01*
X61090952Y-63079285D01*
X61067142Y-63126904D01*
X61067142Y-63174523D01*
X61186190Y-63150714D02*
X61162380Y-63198333D01*
X61114761Y-63245952D01*
X61019523Y-63269761D01*
X60852857Y-63269761D01*
X60757619Y-63245952D01*
X60710000Y-63198333D01*
X60686190Y-63150714D01*
X60686190Y-63055476D01*
X60710000Y-63007857D01*
X60757619Y-62960238D01*
X60852857Y-62936428D01*
X61019523Y-62936428D01*
X61114761Y-62960238D01*
X61162380Y-63007857D01*
X61186190Y-63055476D01*
X61186190Y-63150714D01*
X60686190Y-62484047D02*
X60686190Y-62722142D01*
X60924285Y-62745952D01*
X60900476Y-62722142D01*
X60876666Y-62674523D01*
X60876666Y-62555476D01*
X60900476Y-62507857D01*
X60924285Y-62484047D01*
X60971904Y-62460238D01*
X61090952Y-62460238D01*
X61138571Y-62484047D01*
X61162380Y-62507857D01*
X61186190Y-62555476D01*
X61186190Y-62674523D01*
X61162380Y-62722142D01*
X61138571Y-62745952D01*
D14*
X51839880Y-65277904D02*
X52649404Y-65277904D01*
X52744642Y-65230285D01*
X52792261Y-65182666D01*
X52839880Y-65087428D01*
X52839880Y-64896952D01*
X52792261Y-64801714D01*
X52744642Y-64754095D01*
X52649404Y-64706476D01*
X51839880Y-64706476D01*
X52839880Y-63706476D02*
X52839880Y-64277904D01*
X52839880Y-63992190D02*
X51839880Y-63992190D01*
X51982738Y-64087428D01*
X52077976Y-64182666D01*
X52125595Y-64277904D01*
X49276095Y-35964880D02*
X49276095Y-36774404D01*
X49323714Y-36869642D01*
X49371333Y-36917261D01*
X49466571Y-36964880D01*
X49657047Y-36964880D01*
X49752285Y-36917261D01*
X49799904Y-36869642D01*
X49847523Y-36774404D01*
X49847523Y-35964880D01*
X50276095Y-36060119D02*
X50323714Y-36012500D01*
X50418952Y-35964880D01*
X50657047Y-35964880D01*
X50752285Y-36012500D01*
X50799904Y-36060119D01*
X50847523Y-36155357D01*
X50847523Y-36250595D01*
X50799904Y-36393452D01*
X50228476Y-36964880D01*
X50847523Y-36964880D01*
X57150095Y-35964880D02*
X57150095Y-36774404D01*
X57197714Y-36869642D01*
X57245333Y-36917261D01*
X57340571Y-36964880D01*
X57531047Y-36964880D01*
X57626285Y-36917261D01*
X57673904Y-36869642D01*
X57721523Y-36774404D01*
X57721523Y-35964880D01*
X58102476Y-35964880D02*
X58721523Y-35964880D01*
X58388190Y-36345833D01*
X58531047Y-36345833D01*
X58626285Y-36393452D01*
X58673904Y-36441071D01*
X58721523Y-36536309D01*
X58721523Y-36774404D01*
X58673904Y-36869642D01*
X58626285Y-36917261D01*
X58531047Y-36964880D01*
X58245333Y-36964880D01*
X58150095Y-36917261D01*
X58102476Y-36869642D01*
X53213095Y13013619D02*
X53213095Y12204095D01*
X53260714Y12108857D01*
X53308333Y12061238D01*
X53403571Y12013619D01*
X53594047Y12013619D01*
X53689285Y12061238D01*
X53736904Y12108857D01*
X53784523Y12204095D01*
X53784523Y13013619D01*
X54689285Y13013619D02*
X54498809Y13013619D01*
X54403571Y12966000D01*
X54355952Y12918380D01*
X54260714Y12775523D01*
X54213095Y12585047D01*
X54213095Y12204095D01*
X54260714Y12108857D01*
X54308333Y12061238D01*
X54403571Y12013619D01*
X54594047Y12013619D01*
X54689285Y12061238D01*
X54736904Y12108857D01*
X54784523Y12204095D01*
X54784523Y12442190D01*
X54736904Y12537428D01*
X54689285Y12585047D01*
X54594047Y12632666D01*
X54403571Y12632666D01*
X54308333Y12585047D01*
X54260714Y12537428D01*
X54213095Y12442190D01*
D16*
X58378333Y-41554785D02*
X58366428Y-41566690D01*
X58330714Y-41578595D01*
X58306904Y-41578595D01*
X58271190Y-41566690D01*
X58247380Y-41542880D01*
X58235476Y-41519071D01*
X58223571Y-41471452D01*
X58223571Y-41435738D01*
X58235476Y-41388119D01*
X58247380Y-41364309D01*
X58271190Y-41340500D01*
X58306904Y-41328595D01*
X58330714Y-41328595D01*
X58366428Y-41340500D01*
X58378333Y-41352404D01*
X58616428Y-41578595D02*
X58473571Y-41578595D01*
X58545000Y-41578595D02*
X58545000Y-41328595D01*
X58521190Y-41364309D01*
X58497380Y-41388119D01*
X58473571Y-41400023D01*
X49488333Y-41554785D02*
X49476428Y-41566690D01*
X49440714Y-41578595D01*
X49416904Y-41578595D01*
X49381190Y-41566690D01*
X49357380Y-41542880D01*
X49345476Y-41519071D01*
X49333571Y-41471452D01*
X49333571Y-41435738D01*
X49345476Y-41388119D01*
X49357380Y-41364309D01*
X49381190Y-41340500D01*
X49416904Y-41328595D01*
X49440714Y-41328595D01*
X49476428Y-41340500D01*
X49488333Y-41352404D01*
X49583571Y-41352404D02*
X49595476Y-41340500D01*
X49619285Y-41328595D01*
X49678809Y-41328595D01*
X49702619Y-41340500D01*
X49714523Y-41352404D01*
X49726428Y-41376214D01*
X49726428Y-41400023D01*
X49714523Y-41435738D01*
X49571666Y-41578595D01*
X49726428Y-41578595D01*
X57302785Y-65700666D02*
X57314690Y-65712571D01*
X57326595Y-65748285D01*
X57326595Y-65772095D01*
X57314690Y-65807809D01*
X57290880Y-65831619D01*
X57267071Y-65843523D01*
X57219452Y-65855428D01*
X57183738Y-65855428D01*
X57136119Y-65843523D01*
X57112309Y-65831619D01*
X57088500Y-65807809D01*
X57076595Y-65772095D01*
X57076595Y-65748285D01*
X57088500Y-65712571D01*
X57100404Y-65700666D01*
X57076595Y-65617333D02*
X57076595Y-65462571D01*
X57171833Y-65545904D01*
X57171833Y-65510190D01*
X57183738Y-65486380D01*
X57195642Y-65474476D01*
X57219452Y-65462571D01*
X57278976Y-65462571D01*
X57302785Y-65474476D01*
X57314690Y-65486380D01*
X57326595Y-65510190D01*
X57326595Y-65581619D01*
X57314690Y-65605428D01*
X57302785Y-65617333D01*
X48095285Y-32617166D02*
X48107190Y-32629071D01*
X48119095Y-32664785D01*
X48119095Y-32688595D01*
X48107190Y-32724309D01*
X48083380Y-32748119D01*
X48059571Y-32760023D01*
X48011952Y-32771928D01*
X47976238Y-32771928D01*
X47928619Y-32760023D01*
X47904809Y-32748119D01*
X47881000Y-32724309D01*
X47869095Y-32688595D01*
X47869095Y-32664785D01*
X47881000Y-32629071D01*
X47892904Y-32617166D01*
X47952428Y-32402880D02*
X48119095Y-32402880D01*
X47857190Y-32462404D02*
X48035761Y-32521928D01*
X48035761Y-32367166D01*
X55969285Y-32617166D02*
X55981190Y-32629071D01*
X55993095Y-32664785D01*
X55993095Y-32688595D01*
X55981190Y-32724309D01*
X55957380Y-32748119D01*
X55933571Y-32760023D01*
X55885952Y-32771928D01*
X55850238Y-32771928D01*
X55802619Y-32760023D01*
X55778809Y-32748119D01*
X55755000Y-32724309D01*
X55743095Y-32688595D01*
X55743095Y-32664785D01*
X55755000Y-32629071D01*
X55766904Y-32617166D01*
X55743095Y-32390976D02*
X55743095Y-32510023D01*
X55862142Y-32521928D01*
X55850238Y-32510023D01*
X55838333Y-32486214D01*
X55838333Y-32426690D01*
X55850238Y-32402880D01*
X55862142Y-32390976D01*
X55885952Y-32379071D01*
X55945476Y-32379071D01*
X55969285Y-32390976D01*
X55981190Y-32402880D01*
X55993095Y-32426690D01*
X55993095Y-32486214D01*
X55981190Y-32510023D01*
X55969285Y-32521928D01*
X47650785Y-63922666D02*
X47662690Y-63934571D01*
X47674595Y-63970285D01*
X47674595Y-63994095D01*
X47662690Y-64029809D01*
X47638880Y-64053619D01*
X47615071Y-64065523D01*
X47567452Y-64077428D01*
X47531738Y-64077428D01*
X47484119Y-64065523D01*
X47460309Y-64053619D01*
X47436500Y-64029809D01*
X47424595Y-63994095D01*
X47424595Y-63970285D01*
X47436500Y-63934571D01*
X47448404Y-63922666D01*
X47424595Y-63708380D02*
X47424595Y-63756000D01*
X47436500Y-63779809D01*
X47448404Y-63791714D01*
X47484119Y-63815523D01*
X47531738Y-63827428D01*
X47626976Y-63827428D01*
X47650785Y-63815523D01*
X47662690Y-63803619D01*
X47674595Y-63779809D01*
X47674595Y-63732190D01*
X47662690Y-63708380D01*
X47650785Y-63696476D01*
X47626976Y-63684571D01*
X47567452Y-63684571D01*
X47543642Y-63696476D01*
X47531738Y-63708380D01*
X47519833Y-63732190D01*
X47519833Y-63779809D01*
X47531738Y-63803619D01*
X47543642Y-63815523D01*
X47567452Y-63827428D01*
X47650785Y-65700666D02*
X47662690Y-65712571D01*
X47674595Y-65748285D01*
X47674595Y-65772095D01*
X47662690Y-65807809D01*
X47638880Y-65831619D01*
X47615071Y-65843523D01*
X47567452Y-65855428D01*
X47531738Y-65855428D01*
X47484119Y-65843523D01*
X47460309Y-65831619D01*
X47436500Y-65807809D01*
X47424595Y-65772095D01*
X47424595Y-65748285D01*
X47436500Y-65712571D01*
X47448404Y-65700666D01*
X47424595Y-65617333D02*
X47424595Y-65450666D01*
X47674595Y-65557809D01*
X57302785Y-63922666D02*
X57314690Y-63934571D01*
X57326595Y-63970285D01*
X57326595Y-63994095D01*
X57314690Y-64029809D01*
X57290880Y-64053619D01*
X57267071Y-64065523D01*
X57219452Y-64077428D01*
X57183738Y-64077428D01*
X57136119Y-64065523D01*
X57112309Y-64053619D01*
X57088500Y-64029809D01*
X57076595Y-63994095D01*
X57076595Y-63970285D01*
X57088500Y-63934571D01*
X57100404Y-63922666D01*
X57183738Y-63779809D02*
X57171833Y-63803619D01*
X57159928Y-63815523D01*
X57136119Y-63827428D01*
X57124214Y-63827428D01*
X57100404Y-63815523D01*
X57088500Y-63803619D01*
X57076595Y-63779809D01*
X57076595Y-63732190D01*
X57088500Y-63708380D01*
X57100404Y-63696476D01*
X57124214Y-63684571D01*
X57136119Y-63684571D01*
X57159928Y-63696476D01*
X57171833Y-63708380D01*
X57183738Y-63732190D01*
X57183738Y-63779809D01*
X57195642Y-63803619D01*
X57207547Y-63815523D01*
X57231357Y-63827428D01*
X57278976Y-63827428D01*
X57302785Y-63815523D01*
X57314690Y-63803619D01*
X57326595Y-63779809D01*
X57326595Y-63732190D01*
X57314690Y-63708380D01*
X57302785Y-63696476D01*
X57278976Y-63684571D01*
X57231357Y-63684571D01*
X57207547Y-63696476D01*
X57195642Y-63708380D01*
X57183738Y-63732190D01*
X55711333Y5752714D02*
X55699428Y5740809D01*
X55663714Y5728904D01*
X55639904Y5728904D01*
X55604190Y5740809D01*
X55580380Y5764619D01*
X55568476Y5788428D01*
X55556571Y5836047D01*
X55556571Y5871761D01*
X55568476Y5919380D01*
X55580380Y5943190D01*
X55604190Y5967000D01*
X55639904Y5978904D01*
X55663714Y5978904D01*
X55699428Y5967000D01*
X55711333Y5955095D01*
X55830380Y5728904D02*
X55878000Y5728904D01*
X55901809Y5740809D01*
X55913714Y5752714D01*
X55937523Y5788428D01*
X55949428Y5836047D01*
X55949428Y5931285D01*
X55937523Y5955095D01*
X55925619Y5967000D01*
X55901809Y5978904D01*
X55854190Y5978904D01*
X55830380Y5967000D01*
X55818476Y5955095D01*
X55806571Y5931285D01*
X55806571Y5871761D01*
X55818476Y5847952D01*
X55830380Y5836047D01*
X55854190Y5824142D01*
X55901809Y5824142D01*
X55925619Y5836047D01*
X55937523Y5847952D01*
X55949428Y5871761D01*
X57370285Y5752714D02*
X57358380Y5740809D01*
X57322666Y5728904D01*
X57298857Y5728904D01*
X57263142Y5740809D01*
X57239333Y5764619D01*
X57227428Y5788428D01*
X57215523Y5836047D01*
X57215523Y5871761D01*
X57227428Y5919380D01*
X57239333Y5943190D01*
X57263142Y5967000D01*
X57298857Y5978904D01*
X57322666Y5978904D01*
X57358380Y5967000D01*
X57370285Y5955095D01*
X57608380Y5728904D02*
X57465523Y5728904D01*
X57536952Y5728904D02*
X57536952Y5978904D01*
X57513142Y5943190D01*
X57489333Y5919380D01*
X57465523Y5907476D01*
X57763142Y5978904D02*
X57786952Y5978904D01*
X57810761Y5967000D01*
X57822666Y5955095D01*
X57834571Y5931285D01*
X57846476Y5883666D01*
X57846476Y5824142D01*
X57834571Y5776523D01*
X57822666Y5752714D01*
X57810761Y5740809D01*
X57786952Y5728904D01*
X57763142Y5728904D01*
X57739333Y5740809D01*
X57727428Y5752714D01*
X57715523Y5776523D01*
X57703619Y5824142D01*
X57703619Y5883666D01*
X57715523Y5931285D01*
X57727428Y5955095D01*
X57739333Y5967000D01*
X57763142Y5978904D01*
X50258285Y5752714D02*
X50246380Y5740809D01*
X50210666Y5728904D01*
X50186857Y5728904D01*
X50151142Y5740809D01*
X50127333Y5764619D01*
X50115428Y5788428D01*
X50103523Y5836047D01*
X50103523Y5871761D01*
X50115428Y5919380D01*
X50127333Y5943190D01*
X50151142Y5967000D01*
X50186857Y5978904D01*
X50210666Y5978904D01*
X50246380Y5967000D01*
X50258285Y5955095D01*
X50496380Y5728904D02*
X50353523Y5728904D01*
X50424952Y5728904D02*
X50424952Y5978904D01*
X50401142Y5943190D01*
X50377333Y5919380D01*
X50353523Y5907476D01*
X50734476Y5728904D02*
X50591619Y5728904D01*
X50663047Y5728904D02*
X50663047Y5978904D01*
X50639238Y5943190D01*
X50615428Y5919380D01*
X50591619Y5907476D01*
X52036285Y5752714D02*
X52024380Y5740809D01*
X51988666Y5728904D01*
X51964857Y5728904D01*
X51929142Y5740809D01*
X51905333Y5764619D01*
X51893428Y5788428D01*
X51881523Y5836047D01*
X51881523Y5871761D01*
X51893428Y5919380D01*
X51905333Y5943190D01*
X51929142Y5967000D01*
X51964857Y5978904D01*
X51988666Y5978904D01*
X52024380Y5967000D01*
X52036285Y5955095D01*
X52274380Y5728904D02*
X52131523Y5728904D01*
X52202952Y5728904D02*
X52202952Y5978904D01*
X52179142Y5943190D01*
X52155333Y5919380D01*
X52131523Y5907476D01*
X52369619Y5955095D02*
X52381523Y5967000D01*
X52405333Y5978904D01*
X52464857Y5978904D01*
X52488666Y5967000D01*
X52500571Y5955095D01*
X52512476Y5931285D01*
X52512476Y5907476D01*
X52500571Y5871761D01*
X52357714Y5728904D01*
X52512476Y5728904D01*
X47464285Y-116373658D02*
X47452380Y-116385563D01*
X47416666Y-116397468D01*
X47392857Y-116397468D01*
X47357142Y-116385563D01*
X47333333Y-116361753D01*
X47321428Y-116337944D01*
X47309523Y-116290325D01*
X47309523Y-116254611D01*
X47321428Y-116206992D01*
X47333333Y-116183182D01*
X47357142Y-116159373D01*
X47392857Y-116147468D01*
X47416666Y-116147468D01*
X47452380Y-116159373D01*
X47464285Y-116171277D01*
X47702380Y-116397468D02*
X47559523Y-116397468D01*
X47630952Y-116397468D02*
X47630952Y-116147468D01*
X47607142Y-116183182D01*
X47583333Y-116206992D01*
X47559523Y-116218896D01*
X47785714Y-116147468D02*
X47940476Y-116147468D01*
X47857142Y-116242706D01*
X47892857Y-116242706D01*
X47916666Y-116254611D01*
X47928571Y-116266515D01*
X47940476Y-116290325D01*
X47940476Y-116349849D01*
X47928571Y-116373658D01*
X47916666Y-116385563D01*
X47892857Y-116397468D01*
X47821428Y-116397468D01*
X47797619Y-116385563D01*
X47785714Y-116373658D01*
X60926285Y9421714D02*
X60914380Y9409809D01*
X60878666Y9397904D01*
X60854857Y9397904D01*
X60819142Y9409809D01*
X60795333Y9433619D01*
X60783428Y9457428D01*
X60771523Y9505047D01*
X60771523Y9540761D01*
X60783428Y9588380D01*
X60795333Y9612190D01*
X60819142Y9636000D01*
X60854857Y9647904D01*
X60878666Y9647904D01*
X60914380Y9636000D01*
X60926285Y9624095D01*
X61164380Y9397904D02*
X61021523Y9397904D01*
X61092952Y9397904D02*
X61092952Y9647904D01*
X61069142Y9612190D01*
X61045333Y9588380D01*
X61021523Y9576476D01*
X61378666Y9564571D02*
X61378666Y9397904D01*
X61319142Y9659809D02*
X61259619Y9481238D01*
X61414380Y9481238D01*
X53814285Y5752714D02*
X53802380Y5740809D01*
X53766666Y5728904D01*
X53742857Y5728904D01*
X53707142Y5740809D01*
X53683333Y5764619D01*
X53671428Y5788428D01*
X53659523Y5836047D01*
X53659523Y5871761D01*
X53671428Y5919380D01*
X53683333Y5943190D01*
X53707142Y5967000D01*
X53742857Y5978904D01*
X53766666Y5978904D01*
X53802380Y5967000D01*
X53814285Y5955095D01*
X54052380Y5728904D02*
X53909523Y5728904D01*
X53980952Y5728904D02*
X53980952Y5978904D01*
X53957142Y5943190D01*
X53933333Y5919380D01*
X53909523Y5907476D01*
X54278571Y5978904D02*
X54159523Y5978904D01*
X54147619Y5859857D01*
X54159523Y5871761D01*
X54183333Y5883666D01*
X54242857Y5883666D01*
X54266666Y5871761D01*
X54278571Y5859857D01*
X54290476Y5836047D01*
X54290476Y5776523D01*
X54278571Y5752714D01*
X54266666Y5740809D01*
X54242857Y5728904D01*
X54183333Y5728904D01*
X54159523Y5740809D01*
X54147619Y5752714D01*
X60164285Y-116373658D02*
X60152380Y-116385563D01*
X60116666Y-116397468D01*
X60092857Y-116397468D01*
X60057142Y-116385563D01*
X60033333Y-116361753D01*
X60021428Y-116337944D01*
X60009523Y-116290325D01*
X60009523Y-116254611D01*
X60021428Y-116206992D01*
X60033333Y-116183182D01*
X60057142Y-116159373D01*
X60092857Y-116147468D01*
X60116666Y-116147468D01*
X60152380Y-116159373D01*
X60164285Y-116171277D01*
X60402380Y-116397468D02*
X60259523Y-116397468D01*
X60330952Y-116397468D02*
X60330952Y-116147468D01*
X60307142Y-116183182D01*
X60283333Y-116206992D01*
X60259523Y-116218896D01*
X60616666Y-116147468D02*
X60569047Y-116147468D01*
X60545238Y-116159373D01*
X60533333Y-116171277D01*
X60509523Y-116206992D01*
X60497619Y-116254611D01*
X60497619Y-116349849D01*
X60509523Y-116373658D01*
X60521428Y-116385563D01*
X60545238Y-116397468D01*
X60592857Y-116397468D01*
X60616666Y-116385563D01*
X60628571Y-116373658D01*
X60640476Y-116349849D01*
X60640476Y-116290325D01*
X60628571Y-116266515D01*
X60616666Y-116254611D01*
X60592857Y-116242706D01*
X60545238Y-116242706D01*
X60521428Y-116254611D01*
X60509523Y-116266515D01*
X60497619Y-116290325D01*
X60033285Y-32736214D02*
X60045190Y-32748119D01*
X60057095Y-32783833D01*
X60057095Y-32807642D01*
X60045190Y-32843357D01*
X60021380Y-32867166D01*
X59997571Y-32879071D01*
X59949952Y-32890976D01*
X59914238Y-32890976D01*
X59866619Y-32879071D01*
X59842809Y-32867166D01*
X59819000Y-32843357D01*
X59807095Y-32807642D01*
X59807095Y-32783833D01*
X59819000Y-32748119D01*
X59830904Y-32736214D01*
X60057095Y-32498119D02*
X60057095Y-32640976D01*
X60057095Y-32569547D02*
X59807095Y-32569547D01*
X59842809Y-32593357D01*
X59866619Y-32617166D01*
X59878523Y-32640976D01*
X59807095Y-32414785D02*
X59807095Y-32248119D01*
X60057095Y-32355261D01*
X61811285Y13682285D02*
X61823190Y13670380D01*
X61835095Y13634666D01*
X61835095Y13610857D01*
X61823190Y13575142D01*
X61799380Y13551333D01*
X61775571Y13539428D01*
X61727952Y13527523D01*
X61692238Y13527523D01*
X61644619Y13539428D01*
X61620809Y13551333D01*
X61597000Y13575142D01*
X61585095Y13610857D01*
X61585095Y13634666D01*
X61597000Y13670380D01*
X61608904Y13682285D01*
X61835095Y13920380D02*
X61835095Y13777523D01*
X61835095Y13848952D02*
X61585095Y13848952D01*
X61620809Y13825142D01*
X61644619Y13801333D01*
X61656523Y13777523D01*
X61692238Y14063238D02*
X61680333Y14039428D01*
X61668428Y14027523D01*
X61644619Y14015619D01*
X61632714Y14015619D01*
X61608904Y14027523D01*
X61597000Y14039428D01*
X61585095Y14063238D01*
X61585095Y14110857D01*
X61597000Y14134666D01*
X61608904Y14146571D01*
X61632714Y14158476D01*
X61644619Y14158476D01*
X61668428Y14146571D01*
X61680333Y14134666D01*
X61692238Y14110857D01*
X61692238Y14063238D01*
X61704142Y14039428D01*
X61716047Y14027523D01*
X61739857Y14015619D01*
X61787476Y14015619D01*
X61811285Y14027523D01*
X61823190Y14039428D01*
X61835095Y14063238D01*
X61835095Y14110857D01*
X61823190Y14134666D01*
X61811285Y14146571D01*
X61787476Y14158476D01*
X61739857Y14158476D01*
X61716047Y14146571D01*
X61704142Y14134666D01*
X61692238Y14110857D01*
X52159285Y-32736214D02*
X52171190Y-32748119D01*
X52183095Y-32783833D01*
X52183095Y-32807642D01*
X52171190Y-32843357D01*
X52147380Y-32867166D01*
X52123571Y-32879071D01*
X52075952Y-32890976D01*
X52040238Y-32890976D01*
X51992619Y-32879071D01*
X51968809Y-32867166D01*
X51945000Y-32843357D01*
X51933095Y-32807642D01*
X51933095Y-32783833D01*
X51945000Y-32748119D01*
X51956904Y-32736214D01*
X52183095Y-32498119D02*
X52183095Y-32640976D01*
X52183095Y-32569547D02*
X51933095Y-32569547D01*
X51968809Y-32593357D01*
X51992619Y-32617166D01*
X52004523Y-32640976D01*
X52183095Y-32379071D02*
X52183095Y-32331452D01*
X52171190Y-32307642D01*
X52159285Y-32295738D01*
X52123571Y-32271928D01*
X52075952Y-32260023D01*
X51980714Y-32260023D01*
X51956904Y-32271928D01*
X51945000Y-32283833D01*
X51933095Y-32307642D01*
X51933095Y-32355261D01*
X51945000Y-32379071D01*
X51956904Y-32390976D01*
X51980714Y-32402880D01*
X52040238Y-32402880D01*
X52064047Y-32390976D01*
X52075952Y-32379071D01*
X52087857Y-32355261D01*
X52087857Y-32307642D01*
X52075952Y-32283833D01*
X52064047Y-32271928D01*
X52040238Y-32260023D01*
X46317285Y15988285D02*
X46329190Y15976380D01*
X46341095Y15940666D01*
X46341095Y15916857D01*
X46329190Y15881142D01*
X46305380Y15857333D01*
X46281571Y15845428D01*
X46233952Y15833523D01*
X46198238Y15833523D01*
X46150619Y15845428D01*
X46126809Y15857333D01*
X46103000Y15881142D01*
X46091095Y15916857D01*
X46091095Y15940666D01*
X46103000Y15976380D01*
X46114904Y15988285D01*
X46114904Y16083523D02*
X46103000Y16095428D01*
X46091095Y16119238D01*
X46091095Y16178761D01*
X46103000Y16202571D01*
X46114904Y16214476D01*
X46138714Y16226380D01*
X46162523Y16226380D01*
X46198238Y16214476D01*
X46341095Y16071619D01*
X46341095Y16226380D01*
X46091095Y16381142D02*
X46091095Y16404952D01*
X46103000Y16428761D01*
X46114904Y16440666D01*
X46138714Y16452571D01*
X46186333Y16464476D01*
X46245857Y16464476D01*
X46293476Y16452571D01*
X46317285Y16440666D01*
X46329190Y16428761D01*
X46341095Y16404952D01*
X46341095Y16381142D01*
X46329190Y16357333D01*
X46317285Y16345428D01*
X46293476Y16333523D01*
X46245857Y16321619D01*
X46186333Y16321619D01*
X46138714Y16333523D01*
X46114904Y16345428D01*
X46103000Y16357333D01*
X46091095Y16381142D01*
X48476285Y18508285D02*
X48488190Y18496380D01*
X48500095Y18460666D01*
X48500095Y18436857D01*
X48488190Y18401142D01*
X48464380Y18377333D01*
X48440571Y18365428D01*
X48392952Y18353523D01*
X48357238Y18353523D01*
X48309619Y18365428D01*
X48285809Y18377333D01*
X48262000Y18401142D01*
X48250095Y18436857D01*
X48250095Y18460666D01*
X48262000Y18496380D01*
X48273904Y18508285D01*
X48273904Y18603523D02*
X48262000Y18615428D01*
X48250095Y18639238D01*
X48250095Y18698761D01*
X48262000Y18722571D01*
X48273904Y18734476D01*
X48297714Y18746380D01*
X48321523Y18746380D01*
X48357238Y18734476D01*
X48500095Y18591619D01*
X48500095Y18746380D01*
X48500095Y18984476D02*
X48500095Y18841619D01*
X48500095Y18913047D02*
X48250095Y18913047D01*
X48285809Y18889238D01*
X48309619Y18865428D01*
X48321523Y18841619D01*
X55842285Y18508285D02*
X55854190Y18496380D01*
X55866095Y18460666D01*
X55866095Y18436857D01*
X55854190Y18401142D01*
X55830380Y18377333D01*
X55806571Y18365428D01*
X55758952Y18353523D01*
X55723238Y18353523D01*
X55675619Y18365428D01*
X55651809Y18377333D01*
X55628000Y18401142D01*
X55616095Y18436857D01*
X55616095Y18460666D01*
X55628000Y18496380D01*
X55639904Y18508285D01*
X55639904Y18603523D02*
X55628000Y18615428D01*
X55616095Y18639238D01*
X55616095Y18698761D01*
X55628000Y18722571D01*
X55639904Y18734476D01*
X55663714Y18746380D01*
X55687523Y18746380D01*
X55723238Y18734476D01*
X55866095Y18591619D01*
X55866095Y18746380D01*
X55639904Y18841619D02*
X55628000Y18853523D01*
X55616095Y18877333D01*
X55616095Y18936857D01*
X55628000Y18960666D01*
X55639904Y18972571D01*
X55663714Y18984476D01*
X55687523Y18984476D01*
X55723238Y18972571D01*
X55866095Y18829714D01*
X55866095Y18984476D01*
X52159285Y18508285D02*
X52171190Y18496380D01*
X52183095Y18460666D01*
X52183095Y18436857D01*
X52171190Y18401142D01*
X52147380Y18377333D01*
X52123571Y18365428D01*
X52075952Y18353523D01*
X52040238Y18353523D01*
X51992619Y18365428D01*
X51968809Y18377333D01*
X51945000Y18401142D01*
X51933095Y18436857D01*
X51933095Y18460666D01*
X51945000Y18496380D01*
X51956904Y18508285D01*
X51956904Y18603523D02*
X51945000Y18615428D01*
X51933095Y18639238D01*
X51933095Y18698761D01*
X51945000Y18722571D01*
X51956904Y18734476D01*
X51980714Y18746380D01*
X52004523Y18746380D01*
X52040238Y18734476D01*
X52183095Y18591619D01*
X52183095Y18746380D01*
X51933095Y18829714D02*
X51933095Y18984476D01*
X52028333Y18901142D01*
X52028333Y18936857D01*
X52040238Y18960666D01*
X52052142Y18972571D01*
X52075952Y18984476D01*
X52135476Y18984476D01*
X52159285Y18972571D01*
X52171190Y18960666D01*
X52183095Y18936857D01*
X52183095Y18865428D01*
X52171190Y18841619D01*
X52159285Y18829714D01*
X59525285Y18508285D02*
X59537190Y18496380D01*
X59549095Y18460666D01*
X59549095Y18436857D01*
X59537190Y18401142D01*
X59513380Y18377333D01*
X59489571Y18365428D01*
X59441952Y18353523D01*
X59406238Y18353523D01*
X59358619Y18365428D01*
X59334809Y18377333D01*
X59311000Y18401142D01*
X59299095Y18436857D01*
X59299095Y18460666D01*
X59311000Y18496380D01*
X59322904Y18508285D01*
X59322904Y18603523D02*
X59311000Y18615428D01*
X59299095Y18639238D01*
X59299095Y18698761D01*
X59311000Y18722571D01*
X59322904Y18734476D01*
X59346714Y18746380D01*
X59370523Y18746380D01*
X59406238Y18734476D01*
X59549095Y18591619D01*
X59549095Y18746380D01*
X59382428Y18960666D02*
X59549095Y18960666D01*
X59287190Y18901142D02*
X59465761Y18841619D01*
X59465761Y18996380D01*
X61811285Y15988285D02*
X61823190Y15976380D01*
X61835095Y15940666D01*
X61835095Y15916857D01*
X61823190Y15881142D01*
X61799380Y15857333D01*
X61775571Y15845428D01*
X61727952Y15833523D01*
X61692238Y15833523D01*
X61644619Y15845428D01*
X61620809Y15857333D01*
X61597000Y15881142D01*
X61585095Y15916857D01*
X61585095Y15940666D01*
X61597000Y15976380D01*
X61608904Y15988285D01*
X61608904Y16083523D02*
X61597000Y16095428D01*
X61585095Y16119238D01*
X61585095Y16178761D01*
X61597000Y16202571D01*
X61608904Y16214476D01*
X61632714Y16226380D01*
X61656523Y16226380D01*
X61692238Y16214476D01*
X61835095Y16071619D01*
X61835095Y16226380D01*
X61585095Y16452571D02*
X61585095Y16333523D01*
X61704142Y16321619D01*
X61692238Y16333523D01*
X61680333Y16357333D01*
X61680333Y16416857D01*
X61692238Y16440666D01*
X61704142Y16452571D01*
X61727952Y16464476D01*
X61787476Y16464476D01*
X61811285Y16452571D01*
X61823190Y16440666D01*
X61835095Y16416857D01*
X61835095Y16357333D01*
X61823190Y16333523D01*
X61811285Y16321619D01*
X46317285Y13682285D02*
X46329190Y13670380D01*
X46341095Y13634666D01*
X46341095Y13610857D01*
X46329190Y13575142D01*
X46305380Y13551333D01*
X46281571Y13539428D01*
X46233952Y13527523D01*
X46198238Y13527523D01*
X46150619Y13539428D01*
X46126809Y13551333D01*
X46103000Y13575142D01*
X46091095Y13610857D01*
X46091095Y13634666D01*
X46103000Y13670380D01*
X46114904Y13682285D01*
X46114904Y13777523D02*
X46103000Y13789428D01*
X46091095Y13813238D01*
X46091095Y13872761D01*
X46103000Y13896571D01*
X46114904Y13908476D01*
X46138714Y13920380D01*
X46162523Y13920380D01*
X46198238Y13908476D01*
X46341095Y13765619D01*
X46341095Y13920380D01*
X46091095Y14134666D02*
X46091095Y14087047D01*
X46103000Y14063238D01*
X46114904Y14051333D01*
X46150619Y14027523D01*
X46198238Y14015619D01*
X46293476Y14015619D01*
X46317285Y14027523D01*
X46329190Y14039428D01*
X46341095Y14063238D01*
X46341095Y14110857D01*
X46329190Y14134666D01*
X46317285Y14146571D01*
X46293476Y14158476D01*
X46233952Y14158476D01*
X46210142Y14146571D01*
X46198238Y14134666D01*
X46186333Y14110857D01*
X46186333Y14063238D01*
X46198238Y14039428D01*
X46210142Y14027523D01*
X46233952Y14015619D01*
X45305285Y22770714D02*
X45293380Y22758809D01*
X45257666Y22746904D01*
X45233857Y22746904D01*
X45198142Y22758809D01*
X45174333Y22782619D01*
X45162428Y22806428D01*
X45150523Y22854047D01*
X45150523Y22889761D01*
X45162428Y22937380D01*
X45174333Y22961190D01*
X45198142Y22985000D01*
X45233857Y22996904D01*
X45257666Y22996904D01*
X45293380Y22985000D01*
X45305285Y22973095D01*
X45400523Y22973095D02*
X45412428Y22985000D01*
X45436238Y22996904D01*
X45495761Y22996904D01*
X45519571Y22985000D01*
X45531476Y22973095D01*
X45543380Y22949285D01*
X45543380Y22925476D01*
X45531476Y22889761D01*
X45388619Y22746904D01*
X45543380Y22746904D01*
X45626714Y22996904D02*
X45793380Y22996904D01*
X45686238Y22746904D01*
X57751285Y22770714D02*
X57739380Y22758809D01*
X57703666Y22746904D01*
X57679857Y22746904D01*
X57644142Y22758809D01*
X57620333Y22782619D01*
X57608428Y22806428D01*
X57596523Y22854047D01*
X57596523Y22889761D01*
X57608428Y22937380D01*
X57620333Y22961190D01*
X57644142Y22985000D01*
X57679857Y22996904D01*
X57703666Y22996904D01*
X57739380Y22985000D01*
X57751285Y22973095D01*
X57846523Y22973095D02*
X57858428Y22985000D01*
X57882238Y22996904D01*
X57941761Y22996904D01*
X57965571Y22985000D01*
X57977476Y22973095D01*
X57989380Y22949285D01*
X57989380Y22925476D01*
X57977476Y22889761D01*
X57834619Y22746904D01*
X57989380Y22746904D01*
X58132238Y22889761D02*
X58108428Y22901666D01*
X58096523Y22913571D01*
X58084619Y22937380D01*
X58084619Y22949285D01*
X58096523Y22973095D01*
X58108428Y22985000D01*
X58132238Y22996904D01*
X58179857Y22996904D01*
X58203666Y22985000D01*
X58215571Y22973095D01*
X58227476Y22949285D01*
X58227476Y22937380D01*
X58215571Y22913571D01*
X58203666Y22901666D01*
X58179857Y22889761D01*
X58132238Y22889761D01*
X58108428Y22877857D01*
X58096523Y22865952D01*
X58084619Y22842142D01*
X58084619Y22794523D01*
X58096523Y22770714D01*
X58108428Y22758809D01*
X58132238Y22746904D01*
X58179857Y22746904D01*
X58203666Y22758809D01*
X58215571Y22770714D01*
X58227476Y22794523D01*
X58227476Y22842142D01*
X58215571Y22865952D01*
X58203666Y22877857D01*
X58179857Y22889761D01*
X49877285Y22784714D02*
X49865380Y22772809D01*
X49829666Y22760904D01*
X49805857Y22760904D01*
X49770142Y22772809D01*
X49746333Y22796619D01*
X49734428Y22820428D01*
X49722523Y22868047D01*
X49722523Y22903761D01*
X49734428Y22951380D01*
X49746333Y22975190D01*
X49770142Y22999000D01*
X49805857Y23010904D01*
X49829666Y23010904D01*
X49865380Y22999000D01*
X49877285Y22987095D01*
X49960619Y23010904D02*
X50115380Y23010904D01*
X50032047Y22915666D01*
X50067761Y22915666D01*
X50091571Y22903761D01*
X50103476Y22891857D01*
X50115380Y22868047D01*
X50115380Y22808523D01*
X50103476Y22784714D01*
X50091571Y22772809D01*
X50067761Y22760904D01*
X49996333Y22760904D01*
X49972523Y22772809D01*
X49960619Y22784714D01*
X50270142Y23010904D02*
X50293952Y23010904D01*
X50317761Y22999000D01*
X50329666Y22987095D01*
X50341571Y22963285D01*
X50353476Y22915666D01*
X50353476Y22856142D01*
X50341571Y22808523D01*
X50329666Y22784714D01*
X50317761Y22772809D01*
X50293952Y22760904D01*
X50270142Y22760904D01*
X50246333Y22772809D01*
X50234428Y22784714D01*
X50222523Y22808523D01*
X50210619Y22856142D01*
X50210619Y22915666D01*
X50222523Y22963285D01*
X50234428Y22987095D01*
X50246333Y22999000D01*
X50270142Y23010904D01*
X62323285Y22770714D02*
X62311380Y22758809D01*
X62275666Y22746904D01*
X62251857Y22746904D01*
X62216142Y22758809D01*
X62192333Y22782619D01*
X62180428Y22806428D01*
X62168523Y22854047D01*
X62168523Y22889761D01*
X62180428Y22937380D01*
X62192333Y22961190D01*
X62216142Y22985000D01*
X62251857Y22996904D01*
X62275666Y22996904D01*
X62311380Y22985000D01*
X62323285Y22973095D01*
X62406619Y22996904D02*
X62561380Y22996904D01*
X62478047Y22901666D01*
X62513761Y22901666D01*
X62537571Y22889761D01*
X62549476Y22877857D01*
X62561380Y22854047D01*
X62561380Y22794523D01*
X62549476Y22770714D01*
X62537571Y22758809D01*
X62513761Y22746904D01*
X62442333Y22746904D01*
X62418523Y22758809D01*
X62406619Y22770714D01*
X62799476Y22746904D02*
X62656619Y22746904D01*
X62728047Y22746904D02*
X62728047Y22996904D01*
X62704238Y22961190D01*
X62680428Y22937380D01*
X62656619Y22925476D01*
X60156333Y-41578595D02*
X60073000Y-41459547D01*
X60013476Y-41578595D02*
X60013476Y-41328595D01*
X60108714Y-41328595D01*
X60132523Y-41340500D01*
X60144428Y-41352404D01*
X60156333Y-41376214D01*
X60156333Y-41411928D01*
X60144428Y-41435738D01*
X60132523Y-41447642D01*
X60108714Y-41459547D01*
X60013476Y-41459547D01*
X60394428Y-41578595D02*
X60251571Y-41578595D01*
X60323000Y-41578595D02*
X60323000Y-41328595D01*
X60299190Y-41364309D01*
X60275380Y-41388119D01*
X60251571Y-41400023D01*
X47710333Y-41578595D02*
X47627000Y-41459547D01*
X47567476Y-41578595D02*
X47567476Y-41328595D01*
X47662714Y-41328595D01*
X47686523Y-41340500D01*
X47698428Y-41352404D01*
X47710333Y-41376214D01*
X47710333Y-41411928D01*
X47698428Y-41435738D01*
X47686523Y-41447642D01*
X47662714Y-41459547D01*
X47567476Y-41459547D01*
X47805571Y-41352404D02*
X47817476Y-41340500D01*
X47841285Y-41328595D01*
X47900809Y-41328595D01*
X47924619Y-41340500D01*
X47936523Y-41352404D01*
X47948428Y-41376214D01*
X47948428Y-41400023D01*
X47936523Y-41435738D01*
X47793666Y-41578595D01*
X47948428Y-41578595D01*
X54822333Y-41578595D02*
X54739000Y-41459547D01*
X54679476Y-41578595D02*
X54679476Y-41328595D01*
X54774714Y-41328595D01*
X54798523Y-41340500D01*
X54810428Y-41352404D01*
X54822333Y-41376214D01*
X54822333Y-41411928D01*
X54810428Y-41435738D01*
X54798523Y-41447642D01*
X54774714Y-41459547D01*
X54679476Y-41459547D01*
X54905666Y-41328595D02*
X55060428Y-41328595D01*
X54977095Y-41423833D01*
X55012809Y-41423833D01*
X55036619Y-41435738D01*
X55048523Y-41447642D01*
X55060428Y-41471452D01*
X55060428Y-41530976D01*
X55048523Y-41554785D01*
X55036619Y-41566690D01*
X55012809Y-41578595D01*
X54941380Y-41578595D01*
X54917571Y-41566690D01*
X54905666Y-41554785D01*
X56600333Y-41578595D02*
X56517000Y-41459547D01*
X56457476Y-41578595D02*
X56457476Y-41328595D01*
X56552714Y-41328595D01*
X56576523Y-41340500D01*
X56588428Y-41352404D01*
X56600333Y-41376214D01*
X56600333Y-41411928D01*
X56588428Y-41435738D01*
X56576523Y-41447642D01*
X56552714Y-41459547D01*
X56457476Y-41459547D01*
X56814619Y-41411928D02*
X56814619Y-41578595D01*
X56755095Y-41316690D02*
X56695571Y-41495261D01*
X56850333Y-41495261D01*
X53044333Y-41578595D02*
X52961000Y-41459547D01*
X52901476Y-41578595D02*
X52901476Y-41328595D01*
X52996714Y-41328595D01*
X53020523Y-41340500D01*
X53032428Y-41352404D01*
X53044333Y-41376214D01*
X53044333Y-41411928D01*
X53032428Y-41435738D01*
X53020523Y-41447642D01*
X52996714Y-41459547D01*
X52901476Y-41459547D01*
X53270523Y-41328595D02*
X53151476Y-41328595D01*
X53139571Y-41447642D01*
X53151476Y-41435738D01*
X53175285Y-41423833D01*
X53234809Y-41423833D01*
X53258619Y-41435738D01*
X53270523Y-41447642D01*
X53282428Y-41471452D01*
X53282428Y-41530976D01*
X53270523Y-41554785D01*
X53258619Y-41566690D01*
X53234809Y-41578595D01*
X53175285Y-41578595D01*
X53151476Y-41566690D01*
X53139571Y-41554785D01*
X51266333Y-41578595D02*
X51183000Y-41459547D01*
X51123476Y-41578595D02*
X51123476Y-41328595D01*
X51218714Y-41328595D01*
X51242523Y-41340500D01*
X51254428Y-41352404D01*
X51266333Y-41376214D01*
X51266333Y-41411928D01*
X51254428Y-41435738D01*
X51242523Y-41447642D01*
X51218714Y-41459547D01*
X51123476Y-41459547D01*
X51480619Y-41328595D02*
X51433000Y-41328595D01*
X51409190Y-41340500D01*
X51397285Y-41352404D01*
X51373476Y-41388119D01*
X51361571Y-41435738D01*
X51361571Y-41530976D01*
X51373476Y-41554785D01*
X51385380Y-41566690D01*
X51409190Y-41578595D01*
X51456809Y-41578595D01*
X51480619Y-41566690D01*
X51492523Y-41554785D01*
X51504428Y-41530976D01*
X51504428Y-41471452D01*
X51492523Y-41447642D01*
X51480619Y-41435738D01*
X51456809Y-41423833D01*
X51409190Y-41423833D01*
X51385380Y-41435738D01*
X51373476Y-41447642D01*
X51361571Y-41471452D01*
X57326595Y-67478666D02*
X57207547Y-67562000D01*
X57326595Y-67621523D02*
X57076595Y-67621523D01*
X57076595Y-67526285D01*
X57088500Y-67502476D01*
X57100404Y-67490571D01*
X57124214Y-67478666D01*
X57159928Y-67478666D01*
X57183738Y-67490571D01*
X57195642Y-67502476D01*
X57207547Y-67526285D01*
X57207547Y-67621523D01*
X57076595Y-67395333D02*
X57076595Y-67228666D01*
X57326595Y-67335809D01*
X47674595Y-62144666D02*
X47555547Y-62228000D01*
X47674595Y-62287523D02*
X47424595Y-62287523D01*
X47424595Y-62192285D01*
X47436500Y-62168476D01*
X47448404Y-62156571D01*
X47472214Y-62144666D01*
X47507928Y-62144666D01*
X47531738Y-62156571D01*
X47543642Y-62168476D01*
X47555547Y-62192285D01*
X47555547Y-62287523D01*
X47531738Y-62001809D02*
X47519833Y-62025619D01*
X47507928Y-62037523D01*
X47484119Y-62049428D01*
X47472214Y-62049428D01*
X47448404Y-62037523D01*
X47436500Y-62025619D01*
X47424595Y-62001809D01*
X47424595Y-61954190D01*
X47436500Y-61930380D01*
X47448404Y-61918476D01*
X47472214Y-61906571D01*
X47484119Y-61906571D01*
X47507928Y-61918476D01*
X47519833Y-61930380D01*
X47531738Y-61954190D01*
X47531738Y-62001809D01*
X47543642Y-62025619D01*
X47555547Y-62037523D01*
X47579357Y-62049428D01*
X47626976Y-62049428D01*
X47650785Y-62037523D01*
X47662690Y-62025619D01*
X47674595Y-62001809D01*
X47674595Y-61954190D01*
X47662690Y-61930380D01*
X47650785Y-61918476D01*
X47626976Y-61906571D01*
X47579357Y-61906571D01*
X47555547Y-61918476D01*
X47543642Y-61930380D01*
X47531738Y-61954190D01*
X52155333Y-16750095D02*
X52072000Y-16631047D01*
X52012476Y-16750095D02*
X52012476Y-16500095D01*
X52107714Y-16500095D01*
X52131523Y-16512000D01*
X52143428Y-16523904D01*
X52155333Y-16547714D01*
X52155333Y-16583428D01*
X52143428Y-16607238D01*
X52131523Y-16619142D01*
X52107714Y-16631047D01*
X52012476Y-16631047D01*
X52274380Y-16750095D02*
X52322000Y-16750095D01*
X52345809Y-16738190D01*
X52357714Y-16726285D01*
X52381523Y-16690571D01*
X52393428Y-16642952D01*
X52393428Y-16547714D01*
X52381523Y-16523904D01*
X52369619Y-16512000D01*
X52345809Y-16500095D01*
X52298190Y-16500095D01*
X52274380Y-16512000D01*
X52262476Y-16523904D01*
X52250571Y-16547714D01*
X52250571Y-16607238D01*
X52262476Y-16631047D01*
X52274380Y-16642952D01*
X52298190Y-16654857D01*
X52345809Y-16654857D01*
X52369619Y-16642952D01*
X52381523Y-16631047D01*
X52393428Y-16607238D01*
X53814285Y-16750095D02*
X53730952Y-16631047D01*
X53671428Y-16750095D02*
X53671428Y-16500095D01*
X53766666Y-16500095D01*
X53790476Y-16512000D01*
X53802380Y-16523904D01*
X53814285Y-16547714D01*
X53814285Y-16583428D01*
X53802380Y-16607238D01*
X53790476Y-16619142D01*
X53766666Y-16631047D01*
X53671428Y-16631047D01*
X54052380Y-16750095D02*
X53909523Y-16750095D01*
X53980952Y-16750095D02*
X53980952Y-16500095D01*
X53957142Y-16535809D01*
X53933333Y-16559619D01*
X53909523Y-16571523D01*
X54207142Y-16500095D02*
X54230952Y-16500095D01*
X54254761Y-16512000D01*
X54266666Y-16523904D01*
X54278571Y-16547714D01*
X54290476Y-16595333D01*
X54290476Y-16654857D01*
X54278571Y-16702476D01*
X54266666Y-16726285D01*
X54254761Y-16738190D01*
X54230952Y-16750095D01*
X54207142Y-16750095D01*
X54183333Y-16738190D01*
X54171428Y-16726285D01*
X54159523Y-16702476D01*
X54147619Y-16654857D01*
X54147619Y-16595333D01*
X54159523Y-16547714D01*
X54171428Y-16523904D01*
X54183333Y-16512000D01*
X54207142Y-16500095D01*
X59148285Y-16750095D02*
X59064952Y-16631047D01*
X59005428Y-16750095D02*
X59005428Y-16500095D01*
X59100666Y-16500095D01*
X59124476Y-16512000D01*
X59136380Y-16523904D01*
X59148285Y-16547714D01*
X59148285Y-16583428D01*
X59136380Y-16607238D01*
X59124476Y-16619142D01*
X59100666Y-16631047D01*
X59005428Y-16631047D01*
X59386380Y-16750095D02*
X59243523Y-16750095D01*
X59314952Y-16750095D02*
X59314952Y-16500095D01*
X59291142Y-16535809D01*
X59267333Y-16559619D01*
X59243523Y-16571523D01*
X59624476Y-16750095D02*
X59481619Y-16750095D01*
X59553047Y-16750095D02*
X59553047Y-16500095D01*
X59529238Y-16535809D01*
X59505428Y-16559619D01*
X59481619Y-16571523D01*
X47674595Y-67597714D02*
X47555547Y-67681047D01*
X47674595Y-67740571D02*
X47424595Y-67740571D01*
X47424595Y-67645333D01*
X47436500Y-67621523D01*
X47448404Y-67609619D01*
X47472214Y-67597714D01*
X47507928Y-67597714D01*
X47531738Y-67609619D01*
X47543642Y-67621523D01*
X47555547Y-67645333D01*
X47555547Y-67740571D01*
X47674595Y-67359619D02*
X47674595Y-67502476D01*
X47674595Y-67431047D02*
X47424595Y-67431047D01*
X47460309Y-67454857D01*
X47484119Y-67478666D01*
X47496023Y-67502476D01*
X47448404Y-67264380D02*
X47436500Y-67252476D01*
X47424595Y-67228666D01*
X47424595Y-67169142D01*
X47436500Y-67145333D01*
X47448404Y-67133428D01*
X47472214Y-67121523D01*
X47496023Y-67121523D01*
X47531738Y-67133428D01*
X47674595Y-67276285D01*
X47674595Y-67121523D01*
X50258285Y-16750095D02*
X50174952Y-16631047D01*
X50115428Y-16750095D02*
X50115428Y-16500095D01*
X50210666Y-16500095D01*
X50234476Y-16512000D01*
X50246380Y-16523904D01*
X50258285Y-16547714D01*
X50258285Y-16583428D01*
X50246380Y-16607238D01*
X50234476Y-16619142D01*
X50210666Y-16631047D01*
X50115428Y-16631047D01*
X50496380Y-16750095D02*
X50353523Y-16750095D01*
X50424952Y-16750095D02*
X50424952Y-16500095D01*
X50401142Y-16535809D01*
X50377333Y-16559619D01*
X50353523Y-16571523D01*
X50579714Y-16500095D02*
X50734476Y-16500095D01*
X50651142Y-16595333D01*
X50686857Y-16595333D01*
X50710666Y-16607238D01*
X50722571Y-16619142D01*
X50734476Y-16642952D01*
X50734476Y-16702476D01*
X50722571Y-16726285D01*
X50710666Y-16738190D01*
X50686857Y-16750095D01*
X50615428Y-16750095D01*
X50591619Y-16738190D01*
X50579714Y-16726285D01*
X55592285Y-16750095D02*
X55508952Y-16631047D01*
X55449428Y-16750095D02*
X55449428Y-16500095D01*
X55544666Y-16500095D01*
X55568476Y-16512000D01*
X55580380Y-16523904D01*
X55592285Y-16547714D01*
X55592285Y-16583428D01*
X55580380Y-16607238D01*
X55568476Y-16619142D01*
X55544666Y-16631047D01*
X55449428Y-16631047D01*
X55830380Y-16750095D02*
X55687523Y-16750095D01*
X55758952Y-16750095D02*
X55758952Y-16500095D01*
X55735142Y-16535809D01*
X55711333Y-16559619D01*
X55687523Y-16571523D01*
X56044666Y-16583428D02*
X56044666Y-16750095D01*
X55985142Y-16488190D02*
X55925619Y-16666761D01*
X56080380Y-16666761D01*
X57370285Y-16750095D02*
X57286952Y-16631047D01*
X57227428Y-16750095D02*
X57227428Y-16500095D01*
X57322666Y-16500095D01*
X57346476Y-16512000D01*
X57358380Y-16523904D01*
X57370285Y-16547714D01*
X57370285Y-16583428D01*
X57358380Y-16607238D01*
X57346476Y-16619142D01*
X57322666Y-16631047D01*
X57227428Y-16631047D01*
X57608380Y-16750095D02*
X57465523Y-16750095D01*
X57536952Y-16750095D02*
X57536952Y-16500095D01*
X57513142Y-16535809D01*
X57489333Y-16559619D01*
X57465523Y-16571523D01*
X57834571Y-16500095D02*
X57715523Y-16500095D01*
X57703619Y-16619142D01*
X57715523Y-16607238D01*
X57739333Y-16595333D01*
X57798857Y-16595333D01*
X57822666Y-16607238D01*
X57834571Y-16619142D01*
X57846476Y-16642952D01*
X57846476Y-16702476D01*
X57834571Y-16726285D01*
X57822666Y-16738190D01*
X57798857Y-16750095D01*
X57739333Y-16750095D01*
X57715523Y-16738190D01*
X57703619Y-16726285D01*
X46702285Y5728904D02*
X46618952Y5847952D01*
X46559428Y5728904D02*
X46559428Y5978904D01*
X46654666Y5978904D01*
X46678476Y5967000D01*
X46690380Y5955095D01*
X46702285Y5931285D01*
X46702285Y5895571D01*
X46690380Y5871761D01*
X46678476Y5859857D01*
X46654666Y5847952D01*
X46559428Y5847952D01*
X46940380Y5728904D02*
X46797523Y5728904D01*
X46868952Y5728904D02*
X46868952Y5978904D01*
X46845142Y5943190D01*
X46821333Y5919380D01*
X46797523Y5907476D01*
X47023714Y5978904D02*
X47190380Y5978904D01*
X47083238Y5728904D01*
X48480285Y-16750095D02*
X48396952Y-16631047D01*
X48337428Y-16750095D02*
X48337428Y-16500095D01*
X48432666Y-16500095D01*
X48456476Y-16512000D01*
X48468380Y-16523904D01*
X48480285Y-16547714D01*
X48480285Y-16583428D01*
X48468380Y-16607238D01*
X48456476Y-16619142D01*
X48432666Y-16631047D01*
X48337428Y-16631047D01*
X48718380Y-16750095D02*
X48575523Y-16750095D01*
X48646952Y-16750095D02*
X48646952Y-16500095D01*
X48623142Y-16535809D01*
X48599333Y-16559619D01*
X48575523Y-16571523D01*
X48861238Y-16607238D02*
X48837428Y-16595333D01*
X48825523Y-16583428D01*
X48813619Y-16559619D01*
X48813619Y-16547714D01*
X48825523Y-16523904D01*
X48837428Y-16512000D01*
X48861238Y-16500095D01*
X48908857Y-16500095D01*
X48932666Y-16512000D01*
X48944571Y-16523904D01*
X48956476Y-16547714D01*
X48956476Y-16559619D01*
X48944571Y-16583428D01*
X48932666Y-16595333D01*
X48908857Y-16607238D01*
X48861238Y-16607238D01*
X48837428Y-16619142D01*
X48825523Y-16631047D01*
X48813619Y-16654857D01*
X48813619Y-16702476D01*
X48825523Y-16726285D01*
X48837428Y-16738190D01*
X48861238Y-16750095D01*
X48908857Y-16750095D01*
X48932666Y-16738190D01*
X48944571Y-16726285D01*
X48956476Y-16702476D01*
X48956476Y-16654857D01*
X48944571Y-16631047D01*
X48932666Y-16619142D01*
X48908857Y-16607238D01*
X61073095Y-67597714D02*
X60954047Y-67681047D01*
X61073095Y-67740571D02*
X60823095Y-67740571D01*
X60823095Y-67645333D01*
X60835000Y-67621523D01*
X60846904Y-67609619D01*
X60870714Y-67597714D01*
X60906428Y-67597714D01*
X60930238Y-67609619D01*
X60942142Y-67621523D01*
X60954047Y-67645333D01*
X60954047Y-67740571D01*
X61073095Y-67359619D02*
X61073095Y-67502476D01*
X61073095Y-67431047D02*
X60823095Y-67431047D01*
X60858809Y-67454857D01*
X60882619Y-67478666D01*
X60894523Y-67502476D01*
X61073095Y-67240571D02*
X61073095Y-67192952D01*
X61061190Y-67169142D01*
X61049285Y-67157238D01*
X61013571Y-67133428D01*
X60965952Y-67121523D01*
X60870714Y-67121523D01*
X60846904Y-67133428D01*
X60835000Y-67145333D01*
X60823095Y-67169142D01*
X60823095Y-67216761D01*
X60835000Y-67240571D01*
X60846904Y-67252476D01*
X60870714Y-67264380D01*
X60930238Y-67264380D01*
X60954047Y-67252476D01*
X60965952Y-67240571D01*
X60977857Y-67216761D01*
X60977857Y-67169142D01*
X60965952Y-67145333D01*
X60954047Y-67133428D01*
X60930238Y-67121523D01*
X61073095Y-65819714D02*
X60954047Y-65903047D01*
X61073095Y-65962571D02*
X60823095Y-65962571D01*
X60823095Y-65867333D01*
X60835000Y-65843523D01*
X60846904Y-65831619D01*
X60870714Y-65819714D01*
X60906428Y-65819714D01*
X60930238Y-65831619D01*
X60942142Y-65843523D01*
X60954047Y-65867333D01*
X60954047Y-65962571D01*
X60846904Y-65724476D02*
X60835000Y-65712571D01*
X60823095Y-65688761D01*
X60823095Y-65629238D01*
X60835000Y-65605428D01*
X60846904Y-65593523D01*
X60870714Y-65581619D01*
X60894523Y-65581619D01*
X60930238Y-65593523D01*
X61073095Y-65736380D01*
X61073095Y-65581619D01*
X61073095Y-65343523D02*
X61073095Y-65486380D01*
X61073095Y-65414952D02*
X60823095Y-65414952D01*
X60858809Y-65438761D01*
X60882619Y-65462571D01*
X60894523Y-65486380D01*
X59148285Y5728904D02*
X59064952Y5847952D01*
X59005428Y5728904D02*
X59005428Y5978904D01*
X59100666Y5978904D01*
X59124476Y5967000D01*
X59136380Y5955095D01*
X59148285Y5931285D01*
X59148285Y5895571D01*
X59136380Y5871761D01*
X59124476Y5859857D01*
X59100666Y5847952D01*
X59005428Y5847952D01*
X59243523Y5955095D02*
X59255428Y5967000D01*
X59279238Y5978904D01*
X59338761Y5978904D01*
X59362571Y5967000D01*
X59374476Y5955095D01*
X59386380Y5931285D01*
X59386380Y5907476D01*
X59374476Y5871761D01*
X59231619Y5728904D01*
X59386380Y5728904D01*
X59481619Y5955095D02*
X59493523Y5967000D01*
X59517333Y5978904D01*
X59576857Y5978904D01*
X59600666Y5967000D01*
X59612571Y5955095D01*
X59624476Y5931285D01*
X59624476Y5907476D01*
X59612571Y5871761D01*
X59469714Y5728904D01*
X59624476Y5728904D01*
X60926285Y5728904D02*
X60842952Y5847952D01*
X60783428Y5728904D02*
X60783428Y5978904D01*
X60878666Y5978904D01*
X60902476Y5967000D01*
X60914380Y5955095D01*
X60926285Y5931285D01*
X60926285Y5895571D01*
X60914380Y5871761D01*
X60902476Y5859857D01*
X60878666Y5847952D01*
X60783428Y5847952D01*
X61021523Y5955095D02*
X61033428Y5967000D01*
X61057238Y5978904D01*
X61116761Y5978904D01*
X61140571Y5967000D01*
X61152476Y5955095D01*
X61164380Y5931285D01*
X61164380Y5907476D01*
X61152476Y5871761D01*
X61009619Y5728904D01*
X61164380Y5728904D01*
X61390571Y5978904D02*
X61271523Y5978904D01*
X61259619Y5859857D01*
X61271523Y5871761D01*
X61295333Y5883666D01*
X61354857Y5883666D01*
X61378666Y5871761D01*
X61390571Y5859857D01*
X61402476Y5836047D01*
X61402476Y5776523D01*
X61390571Y5752714D01*
X61378666Y5740809D01*
X61354857Y5728904D01*
X61295333Y5728904D01*
X61271523Y5740809D01*
X61259619Y5752714D01*
X48480285Y5728904D02*
X48396952Y5847952D01*
X48337428Y5728904D02*
X48337428Y5978904D01*
X48432666Y5978904D01*
X48456476Y5967000D01*
X48468380Y5955095D01*
X48480285Y5931285D01*
X48480285Y5895571D01*
X48468380Y5871761D01*
X48456476Y5859857D01*
X48432666Y5847952D01*
X48337428Y5847952D01*
X48575523Y5955095D02*
X48587428Y5967000D01*
X48611238Y5978904D01*
X48670761Y5978904D01*
X48694571Y5967000D01*
X48706476Y5955095D01*
X48718380Y5931285D01*
X48718380Y5907476D01*
X48706476Y5871761D01*
X48563619Y5728904D01*
X48718380Y5728904D01*
X48932666Y5978904D02*
X48885047Y5978904D01*
X48861238Y5967000D01*
X48849333Y5955095D01*
X48825523Y5919380D01*
X48813619Y5871761D01*
X48813619Y5776523D01*
X48825523Y5752714D01*
X48837428Y5740809D01*
X48861238Y5728904D01*
X48908857Y5728904D01*
X48932666Y5740809D01*
X48944571Y5752714D01*
X48956476Y5776523D01*
X48956476Y5836047D01*
X48944571Y5859857D01*
X48932666Y5871761D01*
X48908857Y5883666D01*
X48861238Y5883666D01*
X48837428Y5871761D01*
X48825523Y5859857D01*
X48813619Y5836047D01*
D11*
X49248190Y-104039797D02*
X48748190Y-104039797D01*
X48748190Y-103920750D01*
X48772000Y-103849321D01*
X48819619Y-103801702D01*
X48867238Y-103777892D01*
X48962476Y-103754083D01*
X49033904Y-103754083D01*
X49129142Y-103777892D01*
X49176761Y-103801702D01*
X49224380Y-103849321D01*
X49248190Y-103920750D01*
X49248190Y-104039797D01*
X48748190Y-103587416D02*
X48748190Y-103277892D01*
X48938666Y-103444559D01*
X48938666Y-103373130D01*
X48962476Y-103325511D01*
X48986285Y-103301702D01*
X49033904Y-103277892D01*
X49152952Y-103277892D01*
X49200571Y-103301702D01*
X49224380Y-103325511D01*
X49248190Y-103373130D01*
X49248190Y-103515988D01*
X49224380Y-103563607D01*
X49200571Y-103587416D01*
X59154190Y-104039797D02*
X58654190Y-104039797D01*
X58654190Y-103920750D01*
X58678000Y-103849321D01*
X58725619Y-103801702D01*
X58773238Y-103777892D01*
X58868476Y-103754083D01*
X58939904Y-103754083D01*
X59035142Y-103777892D01*
X59082761Y-103801702D01*
X59130380Y-103849321D01*
X59154190Y-103920750D01*
X59154190Y-104039797D01*
X58820857Y-103325511D02*
X59154190Y-103325511D01*
X58630380Y-103444559D02*
X58987523Y-103563607D01*
X58987523Y-103254083D01*
D16*
X52671285Y-109054345D02*
X52587952Y-108935297D01*
X52528428Y-109054345D02*
X52528428Y-108804345D01*
X52623666Y-108804345D01*
X52647476Y-108816250D01*
X52659380Y-108828154D01*
X52671285Y-108851964D01*
X52671285Y-108887678D01*
X52659380Y-108911488D01*
X52647476Y-108923392D01*
X52623666Y-108935297D01*
X52528428Y-108935297D01*
X52909380Y-109054345D02*
X52766523Y-109054345D01*
X52837952Y-109054345D02*
X52837952Y-108804345D01*
X52814142Y-108840059D01*
X52790333Y-108863869D01*
X52766523Y-108875773D01*
X53123666Y-108804345D02*
X53076047Y-108804345D01*
X53052238Y-108816250D01*
X53040333Y-108828154D01*
X53016523Y-108863869D01*
X53004619Y-108911488D01*
X53004619Y-109006726D01*
X53016523Y-109030535D01*
X53028428Y-109042440D01*
X53052238Y-109054345D01*
X53099857Y-109054345D01*
X53123666Y-109042440D01*
X53135571Y-109030535D01*
X53147476Y-109006726D01*
X53147476Y-108947202D01*
X53135571Y-108923392D01*
X53123666Y-108911488D01*
X53099857Y-108899583D01*
X53052238Y-108899583D01*
X53028428Y-108911488D01*
X53016523Y-108923392D01*
X53004619Y-108947202D01*
X54957285Y-109054345D02*
X54873952Y-108935297D01*
X54814428Y-109054345D02*
X54814428Y-108804345D01*
X54909666Y-108804345D01*
X54933476Y-108816250D01*
X54945380Y-108828154D01*
X54957285Y-108851964D01*
X54957285Y-108887678D01*
X54945380Y-108911488D01*
X54933476Y-108923392D01*
X54909666Y-108935297D01*
X54814428Y-108935297D01*
X55052523Y-108828154D02*
X55064428Y-108816250D01*
X55088238Y-108804345D01*
X55147761Y-108804345D01*
X55171571Y-108816250D01*
X55183476Y-108828154D01*
X55195380Y-108851964D01*
X55195380Y-108875773D01*
X55183476Y-108911488D01*
X55040619Y-109054345D01*
X55195380Y-109054345D01*
X55350142Y-108804345D02*
X55373952Y-108804345D01*
X55397761Y-108816250D01*
X55409666Y-108828154D01*
X55421571Y-108851964D01*
X55433476Y-108899583D01*
X55433476Y-108959107D01*
X55421571Y-109006726D01*
X55409666Y-109030535D01*
X55397761Y-109042440D01*
X55373952Y-109054345D01*
X55350142Y-109054345D01*
X55326333Y-109042440D01*
X55314428Y-109030535D01*
X55302523Y-109006726D01*
X55290619Y-108959107D01*
X55290619Y-108899583D01*
X55302523Y-108851964D01*
X55314428Y-108828154D01*
X55326333Y-108816250D01*
X55350142Y-108804345D01*
D14*
X48426761Y-97646130D02*
X48093428Y-97169940D01*
X47855333Y-97646130D02*
X47855333Y-96646130D01*
X48236285Y-96646130D01*
X48331523Y-96693750D01*
X48379142Y-96741369D01*
X48426761Y-96836607D01*
X48426761Y-96979464D01*
X48379142Y-97074702D01*
X48331523Y-97122321D01*
X48236285Y-97169940D01*
X47855333Y-97169940D01*
X48712476Y-96646130D02*
X49045809Y-97646130D01*
X49379142Y-96646130D01*
X50236285Y-97646130D02*
X49664857Y-97646130D01*
X49950571Y-97646130D02*
X49950571Y-96646130D01*
X49855333Y-96788988D01*
X49760095Y-96884226D01*
X49664857Y-96931845D01*
X58332761Y-97646130D02*
X57999428Y-97169940D01*
X57761333Y-97646130D02*
X57761333Y-96646130D01*
X58142285Y-96646130D01*
X58237523Y-96693750D01*
X58285142Y-96741369D01*
X58332761Y-96836607D01*
X58332761Y-96979464D01*
X58285142Y-97074702D01*
X58237523Y-97122321D01*
X58142285Y-97169940D01*
X57761333Y-97169940D01*
X58618476Y-96646130D02*
X58951809Y-97646130D01*
X59285142Y-96646130D01*
X59570857Y-96741369D02*
X59618476Y-96693750D01*
X59713714Y-96646130D01*
X59951809Y-96646130D01*
X60047047Y-96693750D01*
X60094666Y-96741369D01*
X60142285Y-96836607D01*
X60142285Y-96931845D01*
X60094666Y-97074702D01*
X59523238Y-97646130D01*
X60142285Y-97646130D01*
X48426761Y-89429880D02*
X48093428Y-88953690D01*
X47855333Y-89429880D02*
X47855333Y-88429880D01*
X48236285Y-88429880D01*
X48331523Y-88477500D01*
X48379142Y-88525119D01*
X48426761Y-88620357D01*
X48426761Y-88763214D01*
X48379142Y-88858452D01*
X48331523Y-88906071D01*
X48236285Y-88953690D01*
X47855333Y-88953690D01*
X48712476Y-88429880D02*
X49045809Y-89429880D01*
X49379142Y-88429880D01*
X49617238Y-88429880D02*
X50236285Y-88429880D01*
X49902952Y-88810833D01*
X50045809Y-88810833D01*
X50141047Y-88858452D01*
X50188666Y-88906071D01*
X50236285Y-89001309D01*
X50236285Y-89239404D01*
X50188666Y-89334642D01*
X50141047Y-89382261D01*
X50045809Y-89429880D01*
X49760095Y-89429880D01*
X49664857Y-89382261D01*
X49617238Y-89334642D01*
X48426761Y-29027380D02*
X48093428Y-28551190D01*
X47855333Y-29027380D02*
X47855333Y-28027380D01*
X48236285Y-28027380D01*
X48331523Y-28075000D01*
X48379142Y-28122619D01*
X48426761Y-28217857D01*
X48426761Y-28360714D01*
X48379142Y-28455952D01*
X48331523Y-28503571D01*
X48236285Y-28551190D01*
X47855333Y-28551190D01*
X48712476Y-28027380D02*
X49045809Y-29027380D01*
X49379142Y-28027380D01*
X50188666Y-28027380D02*
X49712476Y-28027380D01*
X49664857Y-28503571D01*
X49712476Y-28455952D01*
X49807714Y-28408333D01*
X50045809Y-28408333D01*
X50141047Y-28455952D01*
X50188666Y-28503571D01*
X50236285Y-28598809D01*
X50236285Y-28836904D01*
X50188666Y-28932142D01*
X50141047Y-28979761D01*
X50045809Y-29027380D01*
X49807714Y-29027380D01*
X49712476Y-28979761D01*
X49664857Y-28932142D01*
X58332761Y-29027380D02*
X57999428Y-28551190D01*
X57761333Y-29027380D02*
X57761333Y-28027380D01*
X58142285Y-28027380D01*
X58237523Y-28075000D01*
X58285142Y-28122619D01*
X58332761Y-28217857D01*
X58332761Y-28360714D01*
X58285142Y-28455952D01*
X58237523Y-28503571D01*
X58142285Y-28551190D01*
X57761333Y-28551190D01*
X58618476Y-28027380D02*
X58951809Y-29027380D01*
X59285142Y-28027380D01*
X60047047Y-28027380D02*
X59856571Y-28027380D01*
X59761333Y-28075000D01*
X59713714Y-28122619D01*
X59618476Y-28265476D01*
X59570857Y-28455952D01*
X59570857Y-28836904D01*
X59618476Y-28932142D01*
X59666095Y-28979761D01*
X59761333Y-29027380D01*
X59951809Y-29027380D01*
X60047047Y-28979761D01*
X60094666Y-28932142D01*
X60142285Y-28836904D01*
X60142285Y-28598809D01*
X60094666Y-28503571D01*
X60047047Y-28455952D01*
X59951809Y-28408333D01*
X59761333Y-28408333D01*
X59666095Y-28455952D01*
X59618476Y-28503571D01*
X59570857Y-28598809D01*
X59586904Y-124277380D02*
X59586904Y-123277380D01*
X59825000Y-123277380D01*
X59967857Y-123325000D01*
X60063095Y-123420238D01*
X60110714Y-123515476D01*
X60158333Y-123705952D01*
X60158333Y-123848809D01*
X60110714Y-124039285D01*
X60063095Y-124134523D01*
X59967857Y-124229761D01*
X59825000Y-124277380D01*
X59586904Y-124277380D01*
X61063095Y-123277380D02*
X60586904Y-123277380D01*
X60539285Y-123753571D01*
X60586904Y-123705952D01*
X60682142Y-123658333D01*
X60920238Y-123658333D01*
X61015476Y-123705952D01*
X61063095Y-123753571D01*
X61110714Y-123848809D01*
X61110714Y-124086904D01*
X61063095Y-124182142D01*
X61015476Y-124229761D01*
X60920238Y-124277380D01*
X60682142Y-124277380D01*
X60586904Y-124229761D01*
X60539285Y-124182142D01*
X52479761Y-82692911D02*
X52527380Y-82550054D01*
X52527380Y-82311958D01*
X52479761Y-82216720D01*
X52432142Y-82169101D01*
X52336904Y-82121482D01*
X52241666Y-82121482D01*
X52146428Y-82169101D01*
X52098809Y-82216720D01*
X52051190Y-82311958D01*
X52003571Y-82502435D01*
X51955952Y-82597673D01*
X51908333Y-82645292D01*
X51813095Y-82692911D01*
X51717857Y-82692911D01*
X51622619Y-82645292D01*
X51575000Y-82597673D01*
X51527380Y-82502435D01*
X51527380Y-82264339D01*
X51575000Y-82121482D01*
X51527380Y-81788149D02*
X52527380Y-81550054D01*
X51813095Y-81359578D01*
X52527380Y-81169101D01*
X51527380Y-80931006D01*
X51622619Y-80597673D02*
X51575000Y-80550054D01*
X51527380Y-80454816D01*
X51527380Y-80216720D01*
X51575000Y-80121482D01*
X51622619Y-80073863D01*
X51717857Y-80026244D01*
X51813095Y-80026244D01*
X51955952Y-80073863D01*
X52527380Y-80645292D01*
X52527380Y-80026244D01*
X55327380Y-81978625D02*
X55327380Y-81788149D01*
X55375000Y-81692911D01*
X55470238Y-81597673D01*
X55660714Y-81550054D01*
X55994047Y-81550054D01*
X56184523Y-81597673D01*
X56279761Y-81692911D01*
X56327380Y-81788149D01*
X56327380Y-81978625D01*
X56279761Y-82073863D01*
X56184523Y-82169101D01*
X55994047Y-82216720D01*
X55660714Y-82216720D01*
X55470238Y-82169101D01*
X55375000Y-82073863D01*
X55327380Y-81978625D01*
X56327380Y-81121482D02*
X55327380Y-81121482D01*
X56327380Y-80550054D01*
X55327380Y-80550054D01*
M02*
